G04 (created by PCBNEW (2013-07-07 BZR 4022)-stable) date 23/07/2015 14:49:57*
%MOIN*%
G04 Gerber Fmt 3.4, Leading zero omitted, Abs format*
%FSLAX34Y34*%
G01*
G70*
G90*
G04 APERTURE LIST*
%ADD10C,0.00590551*%
%ADD11C,0.012*%
%ADD12C,0.0039*%
%ADD13C,0.01*%
%ADD14C,0.015*%
%ADD15C,0.0043*%
%ADD16C,0.008*%
%ADD17C,0.01125*%
G04 APERTURE END LIST*
G54D10*
G54D11*
X109500Y-38500D02*
X109500Y-41500D01*
X109500Y-41500D02*
X111500Y-41500D01*
X111500Y-41500D02*
X111500Y-38500D01*
X111500Y-38500D02*
X109500Y-38500D01*
X107000Y-37500D02*
X106000Y-37500D01*
X106000Y-37500D02*
X106000Y-57500D01*
X106000Y-57500D02*
X107000Y-57500D01*
X107000Y-57500D02*
X107000Y-37500D01*
G54D12*
X113250Y-38850D02*
G75*
G03X113250Y-38850I-50J0D01*
G74*
G01*
X113200Y-39300D02*
X113200Y-38900D01*
X113200Y-38900D02*
X113800Y-38900D01*
X113800Y-38900D02*
X113800Y-39300D01*
X113800Y-39700D02*
X113800Y-40100D01*
X113800Y-40100D02*
X113200Y-40100D01*
X113200Y-40100D02*
X113200Y-39700D01*
G54D13*
X69500Y-53500D02*
X69500Y-49500D01*
X70500Y-53500D02*
X70500Y-49500D01*
X70500Y-49500D02*
X69500Y-49500D01*
X69500Y-53500D02*
X70500Y-53500D01*
G54D11*
X78000Y-49500D02*
X79000Y-49500D01*
X79000Y-49500D02*
X79000Y-55500D01*
X79000Y-55500D02*
X78000Y-55500D01*
X78000Y-55500D02*
X78000Y-49500D01*
X74000Y-49500D02*
X75000Y-49500D01*
X75000Y-49500D02*
X75000Y-55500D01*
X75000Y-55500D02*
X74000Y-55500D01*
X74000Y-55500D02*
X74000Y-49500D01*
G54D14*
X99500Y-55500D02*
X84500Y-55500D01*
X84500Y-55500D02*
X84500Y-53500D01*
X84500Y-53500D02*
X99500Y-53500D01*
X99500Y-53500D02*
X99500Y-55500D01*
X99500Y-55000D02*
X99000Y-55000D01*
X99000Y-55000D02*
X99000Y-54000D01*
X99000Y-54000D02*
X99500Y-54000D01*
G54D10*
X112159Y-40234D02*
X111971Y-40365D01*
X112159Y-40459D02*
X111765Y-40459D01*
X111765Y-40309D01*
X111784Y-40271D01*
X111803Y-40253D01*
X111840Y-40234D01*
X111896Y-40234D01*
X111934Y-40253D01*
X111953Y-40271D01*
X111971Y-40309D01*
X111971Y-40459D01*
X111765Y-40121D02*
X112159Y-39990D01*
X111765Y-39859D01*
X112159Y-39521D02*
X112159Y-39746D01*
X112159Y-39634D02*
X111765Y-39634D01*
X111821Y-39671D01*
X111859Y-39709D01*
X111878Y-39746D01*
X107659Y-47790D02*
X107265Y-47790D01*
X107265Y-47696D01*
X107284Y-47640D01*
X107321Y-47603D01*
X107359Y-47584D01*
X107434Y-47565D01*
X107490Y-47565D01*
X107565Y-47584D01*
X107603Y-47603D01*
X107640Y-47640D01*
X107659Y-47696D01*
X107659Y-47790D01*
X107659Y-47190D02*
X107659Y-47415D01*
X107659Y-47303D02*
X107265Y-47303D01*
X107321Y-47340D01*
X107359Y-47378D01*
X107378Y-47415D01*
G54D15*
X113592Y-39579D02*
X113526Y-39485D01*
X113479Y-39579D02*
X113479Y-39382D01*
X113554Y-39382D01*
X113573Y-39392D01*
X113582Y-39401D01*
X113592Y-39420D01*
X113592Y-39448D01*
X113582Y-39467D01*
X113573Y-39476D01*
X113554Y-39485D01*
X113479Y-39485D01*
X113779Y-39579D02*
X113667Y-39579D01*
X113723Y-39579D02*
X113723Y-39382D01*
X113704Y-39410D01*
X113685Y-39429D01*
X113667Y-39439D01*
X113106Y-39401D02*
X113115Y-39392D01*
X113134Y-39382D01*
X113181Y-39382D01*
X113199Y-39392D01*
X113209Y-39401D01*
X113218Y-39420D01*
X113218Y-39439D01*
X113209Y-39467D01*
X113096Y-39579D01*
X113218Y-39579D01*
X113340Y-39382D02*
X113359Y-39382D01*
X113378Y-39392D01*
X113387Y-39401D01*
X113396Y-39420D01*
X113406Y-39457D01*
X113406Y-39504D01*
X113396Y-39542D01*
X113387Y-39560D01*
X113378Y-39570D01*
X113359Y-39579D01*
X113340Y-39579D01*
X113321Y-39570D01*
X113312Y-39560D01*
X113303Y-39542D01*
X113293Y-39504D01*
X113293Y-39457D01*
X113303Y-39420D01*
X113312Y-39401D01*
X113321Y-39392D01*
X113340Y-39382D01*
X113528Y-39382D02*
X113547Y-39382D01*
X113565Y-39392D01*
X113575Y-39401D01*
X113584Y-39420D01*
X113593Y-39457D01*
X113593Y-39504D01*
X113584Y-39542D01*
X113575Y-39560D01*
X113565Y-39570D01*
X113547Y-39579D01*
X113528Y-39579D01*
X113509Y-39570D01*
X113500Y-39560D01*
X113490Y-39542D01*
X113481Y-39504D01*
X113481Y-39457D01*
X113490Y-39420D01*
X113500Y-39401D01*
X113509Y-39392D01*
X113528Y-39382D01*
G54D16*
X71161Y-51795D02*
X70761Y-51795D01*
X70761Y-51642D01*
X70780Y-51604D01*
X70800Y-51585D01*
X70838Y-51566D01*
X70895Y-51566D01*
X70933Y-51585D01*
X70952Y-51604D01*
X70971Y-51642D01*
X70971Y-51795D01*
X71161Y-51185D02*
X71161Y-51414D01*
X71161Y-51299D02*
X70761Y-51299D01*
X70819Y-51338D01*
X70857Y-51376D01*
X70876Y-51414D01*
G54D10*
X76200Y-49265D02*
X76200Y-49584D01*
X76218Y-49621D01*
X76237Y-49640D01*
X76275Y-49659D01*
X76350Y-49659D01*
X76387Y-49640D01*
X76406Y-49621D01*
X76425Y-49584D01*
X76425Y-49265D01*
X76818Y-49659D02*
X76593Y-49659D01*
X76706Y-49659D02*
X76706Y-49265D01*
X76668Y-49321D01*
X76631Y-49359D01*
X76593Y-49378D01*
G54D17*
X96350Y-54142D02*
X96350Y-54571D01*
X96328Y-54657D01*
X96285Y-54714D01*
X96221Y-54742D01*
X96178Y-54742D01*
X96800Y-54742D02*
X96542Y-54742D01*
X96671Y-54742D02*
X96671Y-54142D01*
X96628Y-54228D01*
X96585Y-54285D01*
X96542Y-54314D01*
G54D11*
G54D17*
X84796Y-54742D02*
X84796Y-54142D01*
X84946Y-54571D01*
X85096Y-54142D01*
X85096Y-54742D01*
X85567Y-54685D02*
X85546Y-54714D01*
X85482Y-54742D01*
X85439Y-54742D01*
X85375Y-54714D01*
X85332Y-54657D01*
X85310Y-54600D01*
X85289Y-54485D01*
X85289Y-54400D01*
X85310Y-54285D01*
X85332Y-54228D01*
X85375Y-54171D01*
X85439Y-54142D01*
X85482Y-54142D01*
X85546Y-54171D01*
X85567Y-54200D01*
X85760Y-54742D02*
X85760Y-54142D01*
X85932Y-54142D01*
X85975Y-54171D01*
X85996Y-54200D01*
X86017Y-54257D01*
X86017Y-54342D01*
X85996Y-54400D01*
X85975Y-54428D01*
X85932Y-54457D01*
X85760Y-54457D01*
X86189Y-54200D02*
X86210Y-54171D01*
X86253Y-54142D01*
X86360Y-54142D01*
X86403Y-54171D01*
X86425Y-54200D01*
X86446Y-54257D01*
X86446Y-54314D01*
X86425Y-54400D01*
X86167Y-54742D01*
X86446Y-54742D01*
X86596Y-54142D02*
X86875Y-54142D01*
X86725Y-54371D01*
X86789Y-54371D01*
X86832Y-54400D01*
X86853Y-54428D01*
X86875Y-54485D01*
X86875Y-54628D01*
X86853Y-54685D01*
X86832Y-54714D01*
X86789Y-54742D01*
X86660Y-54742D01*
X86617Y-54714D01*
X86596Y-54685D01*
X87153Y-54142D02*
X87196Y-54142D01*
X87239Y-54171D01*
X87260Y-54200D01*
X87282Y-54257D01*
X87303Y-54371D01*
X87303Y-54514D01*
X87282Y-54628D01*
X87260Y-54685D01*
X87239Y-54714D01*
X87196Y-54742D01*
X87153Y-54742D01*
X87110Y-54714D01*
X87089Y-54685D01*
X87067Y-54628D01*
X87046Y-54514D01*
X87046Y-54371D01*
X87067Y-54257D01*
X87089Y-54200D01*
X87110Y-54171D01*
X87153Y-54142D01*
X87732Y-54742D02*
X87475Y-54742D01*
X87603Y-54742D02*
X87603Y-54142D01*
X87560Y-54228D01*
X87517Y-54285D01*
X87475Y-54314D01*
X87882Y-54142D02*
X88182Y-54142D01*
X87989Y-54742D01*
X88246Y-54800D02*
X88589Y-54800D01*
X88910Y-54742D02*
X88696Y-54742D01*
X88696Y-54142D01*
X89146Y-54142D02*
X89232Y-54142D01*
X89275Y-54171D01*
X89317Y-54228D01*
X89339Y-54342D01*
X89339Y-54542D01*
X89317Y-54657D01*
X89275Y-54714D01*
X89232Y-54742D01*
X89146Y-54742D01*
X89103Y-54714D01*
X89060Y-54657D01*
X89039Y-54542D01*
X89039Y-54342D01*
X89060Y-54228D01*
X89103Y-54171D01*
X89146Y-54142D01*
X89767Y-54171D02*
X89725Y-54142D01*
X89660Y-54142D01*
X89596Y-54171D01*
X89553Y-54228D01*
X89532Y-54285D01*
X89510Y-54400D01*
X89510Y-54485D01*
X89532Y-54600D01*
X89553Y-54657D01*
X89596Y-54714D01*
X89660Y-54742D01*
X89703Y-54742D01*
X89767Y-54714D01*
X89789Y-54685D01*
X89789Y-54485D01*
X89703Y-54485D01*
X89982Y-54742D02*
X89982Y-54142D01*
X90453Y-54685D02*
X90432Y-54714D01*
X90367Y-54742D01*
X90325Y-54742D01*
X90260Y-54714D01*
X90217Y-54657D01*
X90196Y-54600D01*
X90175Y-54485D01*
X90175Y-54400D01*
X90196Y-54285D01*
X90217Y-54228D01*
X90260Y-54171D01*
X90325Y-54142D01*
X90367Y-54142D01*
X90432Y-54171D01*
X90453Y-54200D01*
X90539Y-54800D02*
X90882Y-54800D01*
X90967Y-54200D02*
X90989Y-54171D01*
X91032Y-54142D01*
X91139Y-54142D01*
X91182Y-54171D01*
X91203Y-54200D01*
X91225Y-54257D01*
X91225Y-54314D01*
X91203Y-54400D01*
X90946Y-54742D01*
X91225Y-54742D01*
G54D11*
M02*
