G04 (created by PCBNEW (2013-07-07 BZR 4022)-stable) date 23/07/2015 14:49:57*
%MOIN*%
G04 Gerber Fmt 3.4, Leading zero omitted, Abs format*
%FSLAX34Y34*%
G01*
G70*
G90*
G04 APERTURE LIST*
%ADD10C,0.00590551*%
%ADD11C,0.06*%
%ADD12R,0.06X0.06*%
%ADD13C,0.055*%
%ADD14R,0.055X0.055*%
%ADD15C,0.035*%
%ADD16C,0.01*%
G04 APERTURE END LIST*
G54D10*
G54D11*
X111000Y-40000D03*
X110000Y-39000D03*
X110000Y-41000D03*
X106500Y-39000D03*
X106500Y-40000D03*
X106500Y-41000D03*
X106500Y-42000D03*
X106500Y-43000D03*
X106500Y-44000D03*
X106500Y-45000D03*
X106500Y-46000D03*
X106500Y-47000D03*
X106500Y-48000D03*
X106500Y-49000D03*
X106500Y-50000D03*
X106500Y-51000D03*
X106500Y-52000D03*
X106500Y-53000D03*
X106500Y-54000D03*
X106500Y-55000D03*
X106500Y-56000D03*
X106500Y-57000D03*
G54D12*
X106500Y-38000D03*
X70000Y-50000D03*
G54D11*
X70000Y-51000D03*
X70000Y-52000D03*
X70000Y-53000D03*
X74500Y-50000D03*
X74500Y-51000D03*
X74500Y-52000D03*
X74500Y-53000D03*
X74500Y-54000D03*
X74500Y-55000D03*
X78500Y-55000D03*
X78500Y-54000D03*
X78500Y-53000D03*
X78500Y-52000D03*
X78500Y-51000D03*
X78500Y-50000D03*
G54D13*
X97500Y-53000D03*
X96500Y-53000D03*
X95500Y-53000D03*
X94500Y-53000D03*
X93500Y-53000D03*
X92500Y-53000D03*
X91500Y-53000D03*
X90500Y-53000D03*
X89500Y-53000D03*
X88500Y-53000D03*
X87500Y-53000D03*
X86500Y-53000D03*
X85500Y-53000D03*
G54D14*
X98500Y-53000D03*
G54D13*
X85500Y-56000D03*
X86500Y-56000D03*
X87500Y-56000D03*
X88500Y-56000D03*
X89500Y-56000D03*
X90500Y-56000D03*
X91500Y-56000D03*
X92500Y-56000D03*
X93500Y-56000D03*
X94500Y-56000D03*
X95500Y-56000D03*
X96500Y-56000D03*
X97500Y-56000D03*
X98500Y-56000D03*
G54D15*
X113500Y-42500D03*
G54D16*
X106500Y-38000D02*
X104500Y-38000D01*
X104500Y-38000D02*
X89500Y-53000D01*
X106500Y-57000D02*
X88500Y-57000D01*
X88500Y-57000D02*
X87500Y-56000D01*
X106500Y-54000D02*
X107000Y-54000D01*
X111000Y-50000D02*
X111000Y-40000D01*
X107000Y-54000D02*
X111000Y-50000D01*
X107500Y-56000D02*
X106500Y-56000D01*
X113500Y-50000D02*
X107500Y-56000D01*
X113500Y-42500D02*
X113500Y-50000D01*
G54D10*
G36*
X115230Y-60730D02*
X113925Y-60730D01*
X113925Y-42415D01*
X113860Y-42259D01*
X113741Y-42139D01*
X113584Y-42075D01*
X113415Y-42074D01*
X113259Y-42139D01*
X113139Y-42258D01*
X113075Y-42415D01*
X113074Y-42584D01*
X113139Y-42740D01*
X113200Y-42801D01*
X113200Y-49875D01*
X107375Y-55700D01*
X106971Y-55700D01*
X106966Y-55688D01*
X106811Y-55534D01*
X106730Y-55500D01*
X106811Y-55466D01*
X106965Y-55311D01*
X107049Y-55109D01*
X107050Y-54891D01*
X106966Y-54688D01*
X106811Y-54534D01*
X106730Y-54500D01*
X106811Y-54466D01*
X106965Y-54311D01*
X106970Y-54300D01*
X107000Y-54300D01*
X107000Y-54299D01*
X107114Y-54277D01*
X107114Y-54277D01*
X107212Y-54212D01*
X111212Y-50212D01*
X111212Y-50212D01*
X111277Y-50114D01*
X111299Y-50000D01*
X111300Y-50000D01*
X111300Y-40471D01*
X111311Y-40466D01*
X111465Y-40311D01*
X111549Y-40109D01*
X111550Y-39891D01*
X111466Y-39688D01*
X111311Y-39534D01*
X111109Y-39450D01*
X110891Y-39449D01*
X110688Y-39533D01*
X110550Y-39671D01*
X110550Y-38891D01*
X110466Y-38688D01*
X110311Y-38534D01*
X110109Y-38450D01*
X109891Y-38449D01*
X109688Y-38533D01*
X109534Y-38688D01*
X109450Y-38890D01*
X109449Y-39108D01*
X109533Y-39311D01*
X109688Y-39465D01*
X109890Y-39549D01*
X110108Y-39550D01*
X110311Y-39466D01*
X110465Y-39311D01*
X110549Y-39109D01*
X110550Y-38891D01*
X110550Y-39671D01*
X110534Y-39688D01*
X110450Y-39890D01*
X110449Y-40108D01*
X110533Y-40311D01*
X110688Y-40465D01*
X110700Y-40470D01*
X110700Y-49875D01*
X110550Y-50025D01*
X110550Y-40891D01*
X110466Y-40688D01*
X110311Y-40534D01*
X110109Y-40450D01*
X109891Y-40449D01*
X109688Y-40533D01*
X109534Y-40688D01*
X109450Y-40890D01*
X109449Y-41108D01*
X109533Y-41311D01*
X109688Y-41465D01*
X109890Y-41549D01*
X110108Y-41550D01*
X110311Y-41466D01*
X110465Y-41311D01*
X110549Y-41109D01*
X110550Y-40891D01*
X110550Y-50025D01*
X107054Y-53520D01*
X107054Y-51081D01*
X107050Y-50988D01*
X107050Y-49891D01*
X106966Y-49688D01*
X106811Y-49534D01*
X106730Y-49500D01*
X106811Y-49466D01*
X106965Y-49311D01*
X107049Y-49109D01*
X107050Y-48891D01*
X106966Y-48688D01*
X106811Y-48534D01*
X106730Y-48500D01*
X106811Y-48466D01*
X106965Y-48311D01*
X107049Y-48109D01*
X107050Y-47891D01*
X106966Y-47688D01*
X106811Y-47534D01*
X106730Y-47500D01*
X106811Y-47466D01*
X106965Y-47311D01*
X107049Y-47109D01*
X107050Y-46891D01*
X106966Y-46688D01*
X106811Y-46534D01*
X106730Y-46500D01*
X106811Y-46466D01*
X106965Y-46311D01*
X107049Y-46109D01*
X107050Y-45891D01*
X106966Y-45688D01*
X106811Y-45534D01*
X106730Y-45500D01*
X106811Y-45466D01*
X106965Y-45311D01*
X107049Y-45109D01*
X107050Y-44891D01*
X106966Y-44688D01*
X106811Y-44534D01*
X106730Y-44500D01*
X106811Y-44466D01*
X106965Y-44311D01*
X107049Y-44109D01*
X107050Y-43891D01*
X106966Y-43688D01*
X106811Y-43534D01*
X106730Y-43500D01*
X106811Y-43466D01*
X106965Y-43311D01*
X107049Y-43109D01*
X107050Y-42891D01*
X106966Y-42688D01*
X106811Y-42534D01*
X106730Y-42500D01*
X106811Y-42466D01*
X106965Y-42311D01*
X107049Y-42109D01*
X107050Y-41891D01*
X106966Y-41688D01*
X106811Y-41534D01*
X106730Y-41500D01*
X106811Y-41466D01*
X106965Y-41311D01*
X107049Y-41109D01*
X107050Y-40891D01*
X106966Y-40688D01*
X106811Y-40534D01*
X106730Y-40500D01*
X106811Y-40466D01*
X106965Y-40311D01*
X107049Y-40109D01*
X107050Y-39891D01*
X106966Y-39688D01*
X106811Y-39534D01*
X106730Y-39500D01*
X106811Y-39466D01*
X106965Y-39311D01*
X107049Y-39109D01*
X107050Y-38891D01*
X106966Y-38688D01*
X106827Y-38550D01*
X106849Y-38550D01*
X106941Y-38512D01*
X107011Y-38441D01*
X107049Y-38349D01*
X107050Y-38250D01*
X107050Y-37650D01*
X107012Y-37558D01*
X106941Y-37488D01*
X106849Y-37450D01*
X106750Y-37449D01*
X106150Y-37449D01*
X106058Y-37487D01*
X105988Y-37558D01*
X105950Y-37650D01*
X105950Y-37700D01*
X104500Y-37700D01*
X104385Y-37722D01*
X104287Y-37787D01*
X89600Y-52475D01*
X89396Y-52474D01*
X89203Y-52554D01*
X89055Y-52702D01*
X88999Y-52835D01*
X88945Y-52703D01*
X88797Y-52555D01*
X88604Y-52475D01*
X88396Y-52474D01*
X88203Y-52554D01*
X88055Y-52702D01*
X87999Y-52835D01*
X87945Y-52703D01*
X87797Y-52555D01*
X87604Y-52475D01*
X87396Y-52474D01*
X87203Y-52554D01*
X87055Y-52702D01*
X86999Y-52835D01*
X86945Y-52703D01*
X86797Y-52555D01*
X86604Y-52475D01*
X86396Y-52474D01*
X86203Y-52554D01*
X86055Y-52702D01*
X85999Y-52835D01*
X85945Y-52703D01*
X85797Y-52555D01*
X85604Y-52475D01*
X85396Y-52474D01*
X85203Y-52554D01*
X85055Y-52702D01*
X84975Y-52895D01*
X84974Y-53103D01*
X85054Y-53297D01*
X85202Y-53444D01*
X85395Y-53524D01*
X85603Y-53525D01*
X85797Y-53445D01*
X85944Y-53297D01*
X86000Y-53164D01*
X86054Y-53297D01*
X86202Y-53444D01*
X86395Y-53524D01*
X86603Y-53525D01*
X86797Y-53445D01*
X86944Y-53297D01*
X87000Y-53164D01*
X87054Y-53297D01*
X87202Y-53444D01*
X87395Y-53524D01*
X87603Y-53525D01*
X87797Y-53445D01*
X87944Y-53297D01*
X88000Y-53164D01*
X88054Y-53297D01*
X88202Y-53444D01*
X88395Y-53524D01*
X88603Y-53525D01*
X88797Y-53445D01*
X88944Y-53297D01*
X89000Y-53164D01*
X89054Y-53297D01*
X89202Y-53444D01*
X89395Y-53524D01*
X89603Y-53525D01*
X89797Y-53445D01*
X89944Y-53297D01*
X90000Y-53164D01*
X90054Y-53297D01*
X90202Y-53444D01*
X90395Y-53524D01*
X90603Y-53525D01*
X90797Y-53445D01*
X90944Y-53297D01*
X91000Y-53164D01*
X91054Y-53297D01*
X91202Y-53444D01*
X91395Y-53524D01*
X91603Y-53525D01*
X91797Y-53445D01*
X91944Y-53297D01*
X92000Y-53164D01*
X92054Y-53297D01*
X92202Y-53444D01*
X92395Y-53524D01*
X92603Y-53525D01*
X92797Y-53445D01*
X92944Y-53297D01*
X93000Y-53164D01*
X93054Y-53297D01*
X93202Y-53444D01*
X93395Y-53524D01*
X93603Y-53525D01*
X93797Y-53445D01*
X93944Y-53297D01*
X94000Y-53164D01*
X94054Y-53297D01*
X94202Y-53444D01*
X94395Y-53524D01*
X94603Y-53525D01*
X94797Y-53445D01*
X94944Y-53297D01*
X95000Y-53164D01*
X95054Y-53297D01*
X95202Y-53444D01*
X95395Y-53524D01*
X95603Y-53525D01*
X95797Y-53445D01*
X95944Y-53297D01*
X96000Y-53164D01*
X96054Y-53297D01*
X96202Y-53444D01*
X96395Y-53524D01*
X96603Y-53525D01*
X96797Y-53445D01*
X96944Y-53297D01*
X97000Y-53164D01*
X97054Y-53297D01*
X97202Y-53444D01*
X97395Y-53524D01*
X97603Y-53525D01*
X97797Y-53445D01*
X97944Y-53297D01*
X97974Y-53225D01*
X97974Y-53225D01*
X97975Y-53324D01*
X98013Y-53416D01*
X98083Y-53487D01*
X98175Y-53525D01*
X98387Y-53525D01*
X98450Y-53462D01*
X98450Y-53050D01*
X98442Y-53050D01*
X98442Y-52950D01*
X98450Y-52950D01*
X98450Y-52537D01*
X98387Y-52475D01*
X98175Y-52474D01*
X98083Y-52512D01*
X98013Y-52583D01*
X97975Y-52675D01*
X97974Y-52774D01*
X97974Y-52774D01*
X97945Y-52703D01*
X97797Y-52555D01*
X97604Y-52475D01*
X97396Y-52474D01*
X97203Y-52554D01*
X97055Y-52702D01*
X96999Y-52835D01*
X96945Y-52703D01*
X96797Y-52555D01*
X96604Y-52475D01*
X96396Y-52474D01*
X96203Y-52554D01*
X96055Y-52702D01*
X95999Y-52835D01*
X95945Y-52703D01*
X95797Y-52555D01*
X95604Y-52475D01*
X95396Y-52474D01*
X95203Y-52554D01*
X95055Y-52702D01*
X94999Y-52835D01*
X94945Y-52703D01*
X94797Y-52555D01*
X94604Y-52475D01*
X94396Y-52474D01*
X94203Y-52554D01*
X94055Y-52702D01*
X93999Y-52835D01*
X93945Y-52703D01*
X93797Y-52555D01*
X93604Y-52475D01*
X93396Y-52474D01*
X93203Y-52554D01*
X93055Y-52702D01*
X92999Y-52835D01*
X92945Y-52703D01*
X92797Y-52555D01*
X92604Y-52475D01*
X92396Y-52474D01*
X92203Y-52554D01*
X92055Y-52702D01*
X91999Y-52835D01*
X91945Y-52703D01*
X91797Y-52555D01*
X91604Y-52475D01*
X91396Y-52474D01*
X91203Y-52554D01*
X91055Y-52702D01*
X90999Y-52835D01*
X90945Y-52703D01*
X90797Y-52555D01*
X90604Y-52475D01*
X90449Y-52474D01*
X104624Y-38300D01*
X105949Y-38300D01*
X105949Y-38349D01*
X105987Y-38441D01*
X106058Y-38511D01*
X106150Y-38549D01*
X106172Y-38549D01*
X106034Y-38688D01*
X105950Y-38890D01*
X105949Y-39108D01*
X106033Y-39311D01*
X106188Y-39465D01*
X106269Y-39499D01*
X106188Y-39533D01*
X106034Y-39688D01*
X105950Y-39890D01*
X105949Y-40108D01*
X106033Y-40311D01*
X106188Y-40465D01*
X106269Y-40499D01*
X106188Y-40533D01*
X106034Y-40688D01*
X105950Y-40890D01*
X105949Y-41108D01*
X106033Y-41311D01*
X106188Y-41465D01*
X106269Y-41499D01*
X106188Y-41533D01*
X106034Y-41688D01*
X105950Y-41890D01*
X105949Y-42108D01*
X106033Y-42311D01*
X106188Y-42465D01*
X106269Y-42499D01*
X106188Y-42533D01*
X106034Y-42688D01*
X105950Y-42890D01*
X105949Y-43108D01*
X106033Y-43311D01*
X106188Y-43465D01*
X106269Y-43499D01*
X106188Y-43533D01*
X106034Y-43688D01*
X105950Y-43890D01*
X105949Y-44108D01*
X106033Y-44311D01*
X106188Y-44465D01*
X106269Y-44499D01*
X106188Y-44533D01*
X106034Y-44688D01*
X105950Y-44890D01*
X105949Y-45108D01*
X106033Y-45311D01*
X106188Y-45465D01*
X106269Y-45499D01*
X106188Y-45533D01*
X106034Y-45688D01*
X105950Y-45890D01*
X105949Y-46108D01*
X106033Y-46311D01*
X106188Y-46465D01*
X106269Y-46499D01*
X106188Y-46533D01*
X106034Y-46688D01*
X105950Y-46890D01*
X105949Y-47108D01*
X106033Y-47311D01*
X106188Y-47465D01*
X106269Y-47499D01*
X106188Y-47533D01*
X106034Y-47688D01*
X105950Y-47890D01*
X105949Y-48108D01*
X106033Y-48311D01*
X106188Y-48465D01*
X106269Y-48499D01*
X106188Y-48533D01*
X106034Y-48688D01*
X105950Y-48890D01*
X105949Y-49108D01*
X106033Y-49311D01*
X106188Y-49465D01*
X106269Y-49499D01*
X106188Y-49533D01*
X106034Y-49688D01*
X105950Y-49890D01*
X105949Y-50108D01*
X106033Y-50311D01*
X106188Y-50465D01*
X106263Y-50497D01*
X106212Y-50518D01*
X106184Y-50614D01*
X106500Y-50929D01*
X106815Y-50614D01*
X106787Y-50518D01*
X106732Y-50499D01*
X106811Y-50466D01*
X106965Y-50311D01*
X107049Y-50109D01*
X107050Y-49891D01*
X107050Y-50988D01*
X107043Y-50863D01*
X106981Y-50712D01*
X106885Y-50684D01*
X106570Y-51000D01*
X106885Y-51315D01*
X106981Y-51287D01*
X107054Y-51081D01*
X107054Y-53520D01*
X106926Y-53648D01*
X106811Y-53534D01*
X106730Y-53500D01*
X106811Y-53466D01*
X106965Y-53311D01*
X107049Y-53109D01*
X107050Y-52891D01*
X106966Y-52688D01*
X106811Y-52534D01*
X106730Y-52500D01*
X106811Y-52466D01*
X106965Y-52311D01*
X107049Y-52109D01*
X107050Y-51891D01*
X106966Y-51688D01*
X106811Y-51534D01*
X106736Y-51502D01*
X106787Y-51481D01*
X106815Y-51385D01*
X106500Y-51070D01*
X106429Y-51141D01*
X106429Y-51000D01*
X106114Y-50684D01*
X106018Y-50712D01*
X105945Y-50918D01*
X105956Y-51136D01*
X106018Y-51287D01*
X106114Y-51315D01*
X106429Y-51000D01*
X106429Y-51141D01*
X106184Y-51385D01*
X106212Y-51481D01*
X106267Y-51500D01*
X106188Y-51533D01*
X106034Y-51688D01*
X105950Y-51890D01*
X105949Y-52108D01*
X106033Y-52311D01*
X106188Y-52465D01*
X106269Y-52499D01*
X106188Y-52533D01*
X106034Y-52688D01*
X105950Y-52890D01*
X105949Y-53108D01*
X106033Y-53311D01*
X106188Y-53465D01*
X106269Y-53499D01*
X106188Y-53533D01*
X106034Y-53688D01*
X105950Y-53890D01*
X105949Y-54108D01*
X106033Y-54311D01*
X106188Y-54465D01*
X106269Y-54499D01*
X106188Y-54533D01*
X106034Y-54688D01*
X105950Y-54890D01*
X105949Y-55108D01*
X106033Y-55311D01*
X106188Y-55465D01*
X106269Y-55499D01*
X106188Y-55533D01*
X106034Y-55688D01*
X105950Y-55890D01*
X105949Y-56108D01*
X106033Y-56311D01*
X106188Y-56465D01*
X106269Y-56499D01*
X106188Y-56533D01*
X106034Y-56688D01*
X106029Y-56700D01*
X88624Y-56700D01*
X88449Y-56524D01*
X88603Y-56525D01*
X88797Y-56445D01*
X88944Y-56297D01*
X89000Y-56164D01*
X89054Y-56297D01*
X89202Y-56444D01*
X89395Y-56524D01*
X89603Y-56525D01*
X89797Y-56445D01*
X89944Y-56297D01*
X90000Y-56164D01*
X90054Y-56297D01*
X90202Y-56444D01*
X90395Y-56524D01*
X90603Y-56525D01*
X90797Y-56445D01*
X90944Y-56297D01*
X91000Y-56164D01*
X91054Y-56297D01*
X91202Y-56444D01*
X91395Y-56524D01*
X91603Y-56525D01*
X91797Y-56445D01*
X91944Y-56297D01*
X92000Y-56164D01*
X92054Y-56297D01*
X92202Y-56444D01*
X92395Y-56524D01*
X92603Y-56525D01*
X92797Y-56445D01*
X92944Y-56297D01*
X93000Y-56164D01*
X93054Y-56297D01*
X93202Y-56444D01*
X93395Y-56524D01*
X93603Y-56525D01*
X93797Y-56445D01*
X93944Y-56297D01*
X94000Y-56164D01*
X94054Y-56297D01*
X94202Y-56444D01*
X94395Y-56524D01*
X94603Y-56525D01*
X94797Y-56445D01*
X94944Y-56297D01*
X95000Y-56164D01*
X95054Y-56297D01*
X95202Y-56444D01*
X95395Y-56524D01*
X95603Y-56525D01*
X95797Y-56445D01*
X95944Y-56297D01*
X96000Y-56164D01*
X96054Y-56297D01*
X96202Y-56444D01*
X96395Y-56524D01*
X96603Y-56525D01*
X96797Y-56445D01*
X96944Y-56297D01*
X97000Y-56164D01*
X97054Y-56297D01*
X97202Y-56444D01*
X97395Y-56524D01*
X97603Y-56525D01*
X97797Y-56445D01*
X97944Y-56297D01*
X98000Y-56164D01*
X98054Y-56297D01*
X98202Y-56444D01*
X98395Y-56524D01*
X98603Y-56525D01*
X98797Y-56445D01*
X98944Y-56297D01*
X99024Y-56104D01*
X99025Y-55896D01*
X99025Y-55895D01*
X99025Y-53225D01*
X99025Y-52774D01*
X99024Y-52675D01*
X98986Y-52583D01*
X98916Y-52512D01*
X98824Y-52474D01*
X98612Y-52475D01*
X98550Y-52537D01*
X98550Y-52950D01*
X98962Y-52950D01*
X99025Y-52887D01*
X99025Y-52774D01*
X99025Y-53225D01*
X99025Y-53112D01*
X98962Y-53050D01*
X98550Y-53050D01*
X98550Y-53462D01*
X98612Y-53525D01*
X98824Y-53525D01*
X98916Y-53487D01*
X98986Y-53416D01*
X99024Y-53324D01*
X99025Y-53225D01*
X99025Y-55895D01*
X98945Y-55703D01*
X98797Y-55555D01*
X98604Y-55475D01*
X98396Y-55474D01*
X98203Y-55554D01*
X98055Y-55702D01*
X97999Y-55835D01*
X97945Y-55703D01*
X97797Y-55555D01*
X97604Y-55475D01*
X97396Y-55474D01*
X97203Y-55554D01*
X97055Y-55702D01*
X96999Y-55835D01*
X96945Y-55703D01*
X96797Y-55555D01*
X96604Y-55475D01*
X96396Y-55474D01*
X96203Y-55554D01*
X96055Y-55702D01*
X95999Y-55835D01*
X95945Y-55703D01*
X95797Y-55555D01*
X95604Y-55475D01*
X95396Y-55474D01*
X95203Y-55554D01*
X95055Y-55702D01*
X94999Y-55835D01*
X94945Y-55703D01*
X94797Y-55555D01*
X94604Y-55475D01*
X94396Y-55474D01*
X94203Y-55554D01*
X94055Y-55702D01*
X93999Y-55835D01*
X93945Y-55703D01*
X93797Y-55555D01*
X93604Y-55475D01*
X93396Y-55474D01*
X93203Y-55554D01*
X93055Y-55702D01*
X92999Y-55835D01*
X92945Y-55703D01*
X92797Y-55555D01*
X92604Y-55475D01*
X92396Y-55474D01*
X92203Y-55554D01*
X92055Y-55702D01*
X91999Y-55835D01*
X91945Y-55703D01*
X91797Y-55555D01*
X91604Y-55475D01*
X91396Y-55474D01*
X91203Y-55554D01*
X91055Y-55702D01*
X90999Y-55835D01*
X90945Y-55703D01*
X90797Y-55555D01*
X90604Y-55475D01*
X90396Y-55474D01*
X90203Y-55554D01*
X90055Y-55702D01*
X89999Y-55835D01*
X89945Y-55703D01*
X89797Y-55555D01*
X89604Y-55475D01*
X89396Y-55474D01*
X89203Y-55554D01*
X89055Y-55702D01*
X88999Y-55835D01*
X88945Y-55703D01*
X88797Y-55555D01*
X88604Y-55475D01*
X88396Y-55474D01*
X88203Y-55554D01*
X88055Y-55702D01*
X87999Y-55835D01*
X87945Y-55703D01*
X87797Y-55555D01*
X87604Y-55475D01*
X87396Y-55474D01*
X87203Y-55554D01*
X87055Y-55702D01*
X86999Y-55835D01*
X86945Y-55703D01*
X86797Y-55555D01*
X86604Y-55475D01*
X86396Y-55474D01*
X86203Y-55554D01*
X86055Y-55702D01*
X85999Y-55835D01*
X85945Y-55703D01*
X85797Y-55555D01*
X85604Y-55475D01*
X85396Y-55474D01*
X85203Y-55554D01*
X85055Y-55702D01*
X84975Y-55895D01*
X84974Y-56103D01*
X85054Y-56297D01*
X85202Y-56444D01*
X85395Y-56524D01*
X85603Y-56525D01*
X85797Y-56445D01*
X85944Y-56297D01*
X86000Y-56164D01*
X86054Y-56297D01*
X86202Y-56444D01*
X86395Y-56524D01*
X86603Y-56525D01*
X86797Y-56445D01*
X86944Y-56297D01*
X87000Y-56164D01*
X87054Y-56297D01*
X87202Y-56444D01*
X87395Y-56524D01*
X87600Y-56525D01*
X88287Y-57212D01*
X88287Y-57212D01*
X88385Y-57277D01*
X88500Y-57300D01*
X106028Y-57300D01*
X106033Y-57311D01*
X106188Y-57465D01*
X106390Y-57549D01*
X106608Y-57550D01*
X106811Y-57466D01*
X106965Y-57311D01*
X107049Y-57109D01*
X107050Y-56891D01*
X106966Y-56688D01*
X106811Y-56534D01*
X106730Y-56500D01*
X106811Y-56466D01*
X106965Y-56311D01*
X106970Y-56300D01*
X107500Y-56300D01*
X107500Y-56299D01*
X107614Y-56277D01*
X107614Y-56277D01*
X107712Y-56212D01*
X113712Y-50212D01*
X113712Y-50212D01*
X113777Y-50114D01*
X113799Y-50000D01*
X113800Y-50000D01*
X113800Y-42801D01*
X113860Y-42741D01*
X113924Y-42584D01*
X113925Y-42415D01*
X113925Y-60730D01*
X79050Y-60730D01*
X79050Y-54891D01*
X78966Y-54688D01*
X78811Y-54534D01*
X78730Y-54500D01*
X78811Y-54466D01*
X78965Y-54311D01*
X79049Y-54109D01*
X79050Y-53891D01*
X78966Y-53688D01*
X78811Y-53534D01*
X78730Y-53500D01*
X78811Y-53466D01*
X78965Y-53311D01*
X79049Y-53109D01*
X79050Y-52891D01*
X78966Y-52688D01*
X78811Y-52534D01*
X78730Y-52500D01*
X78811Y-52466D01*
X78965Y-52311D01*
X79049Y-52109D01*
X79050Y-51891D01*
X78966Y-51688D01*
X78811Y-51534D01*
X78730Y-51500D01*
X78811Y-51466D01*
X78965Y-51311D01*
X79049Y-51109D01*
X79050Y-50891D01*
X78966Y-50688D01*
X78811Y-50534D01*
X78730Y-50500D01*
X78811Y-50466D01*
X78965Y-50311D01*
X79049Y-50109D01*
X79050Y-49891D01*
X78966Y-49688D01*
X78811Y-49534D01*
X78609Y-49450D01*
X78391Y-49449D01*
X78188Y-49533D01*
X78034Y-49688D01*
X77950Y-49890D01*
X77949Y-50108D01*
X78033Y-50311D01*
X78188Y-50465D01*
X78269Y-50499D01*
X78188Y-50533D01*
X78034Y-50688D01*
X77950Y-50890D01*
X77949Y-51108D01*
X78033Y-51311D01*
X78188Y-51465D01*
X78269Y-51499D01*
X78188Y-51533D01*
X78034Y-51688D01*
X77950Y-51890D01*
X77949Y-52108D01*
X78033Y-52311D01*
X78188Y-52465D01*
X78269Y-52499D01*
X78188Y-52533D01*
X78034Y-52688D01*
X77950Y-52890D01*
X77949Y-53108D01*
X78033Y-53311D01*
X78188Y-53465D01*
X78269Y-53499D01*
X78188Y-53533D01*
X78034Y-53688D01*
X77950Y-53890D01*
X77949Y-54108D01*
X78033Y-54311D01*
X78188Y-54465D01*
X78269Y-54499D01*
X78188Y-54533D01*
X78034Y-54688D01*
X77950Y-54890D01*
X77949Y-55108D01*
X78033Y-55311D01*
X78188Y-55465D01*
X78390Y-55549D01*
X78608Y-55550D01*
X78811Y-55466D01*
X78965Y-55311D01*
X79049Y-55109D01*
X79050Y-54891D01*
X79050Y-60730D01*
X75050Y-60730D01*
X75050Y-54891D01*
X74966Y-54688D01*
X74811Y-54534D01*
X74730Y-54500D01*
X74811Y-54466D01*
X74965Y-54311D01*
X75049Y-54109D01*
X75050Y-53891D01*
X74966Y-53688D01*
X74811Y-53534D01*
X74730Y-53500D01*
X74811Y-53466D01*
X74965Y-53311D01*
X75049Y-53109D01*
X75050Y-52891D01*
X74966Y-52688D01*
X74811Y-52534D01*
X74730Y-52500D01*
X74811Y-52466D01*
X74965Y-52311D01*
X75049Y-52109D01*
X75050Y-51891D01*
X74966Y-51688D01*
X74811Y-51534D01*
X74730Y-51500D01*
X74811Y-51466D01*
X74965Y-51311D01*
X75049Y-51109D01*
X75050Y-50891D01*
X74966Y-50688D01*
X74811Y-50534D01*
X74730Y-50500D01*
X74811Y-50466D01*
X74965Y-50311D01*
X75049Y-50109D01*
X75050Y-49891D01*
X74966Y-49688D01*
X74811Y-49534D01*
X74609Y-49450D01*
X74391Y-49449D01*
X74188Y-49533D01*
X74034Y-49688D01*
X73950Y-49890D01*
X73949Y-50108D01*
X74033Y-50311D01*
X74188Y-50465D01*
X74269Y-50499D01*
X74188Y-50533D01*
X74034Y-50688D01*
X73950Y-50890D01*
X73949Y-51108D01*
X74033Y-51311D01*
X74188Y-51465D01*
X74269Y-51499D01*
X74188Y-51533D01*
X74034Y-51688D01*
X73950Y-51890D01*
X73949Y-52108D01*
X74033Y-52311D01*
X74188Y-52465D01*
X74269Y-52499D01*
X74188Y-52533D01*
X74034Y-52688D01*
X73950Y-52890D01*
X73949Y-53108D01*
X74033Y-53311D01*
X74188Y-53465D01*
X74269Y-53499D01*
X74188Y-53533D01*
X74034Y-53688D01*
X73950Y-53890D01*
X73949Y-54108D01*
X74033Y-54311D01*
X74188Y-54465D01*
X74269Y-54499D01*
X74188Y-54533D01*
X74034Y-54688D01*
X73950Y-54890D01*
X73949Y-55108D01*
X74033Y-55311D01*
X74188Y-55465D01*
X74390Y-55549D01*
X74608Y-55550D01*
X74811Y-55466D01*
X74965Y-55311D01*
X75049Y-55109D01*
X75050Y-54891D01*
X75050Y-60730D01*
X70550Y-60730D01*
X70550Y-52891D01*
X70466Y-52688D01*
X70311Y-52534D01*
X70230Y-52500D01*
X70311Y-52466D01*
X70465Y-52311D01*
X70549Y-52109D01*
X70550Y-51891D01*
X70466Y-51688D01*
X70311Y-51534D01*
X70230Y-51500D01*
X70311Y-51466D01*
X70465Y-51311D01*
X70549Y-51109D01*
X70550Y-50891D01*
X70466Y-50688D01*
X70327Y-50550D01*
X70349Y-50550D01*
X70441Y-50512D01*
X70511Y-50441D01*
X70549Y-50349D01*
X70550Y-50250D01*
X70550Y-49650D01*
X70512Y-49558D01*
X70441Y-49488D01*
X70349Y-49450D01*
X70250Y-49449D01*
X69650Y-49449D01*
X69558Y-49487D01*
X69488Y-49558D01*
X69450Y-49650D01*
X69449Y-49749D01*
X69449Y-50349D01*
X69487Y-50441D01*
X69558Y-50511D01*
X69650Y-50549D01*
X69672Y-50549D01*
X69534Y-50688D01*
X69450Y-50890D01*
X69449Y-51108D01*
X69533Y-51311D01*
X69688Y-51465D01*
X69769Y-51499D01*
X69688Y-51533D01*
X69534Y-51688D01*
X69450Y-51890D01*
X69449Y-52108D01*
X69533Y-52311D01*
X69688Y-52465D01*
X69769Y-52499D01*
X69688Y-52533D01*
X69534Y-52688D01*
X69450Y-52890D01*
X69449Y-53108D01*
X69533Y-53311D01*
X69688Y-53465D01*
X69890Y-53549D01*
X70108Y-53550D01*
X70311Y-53466D01*
X70465Y-53311D01*
X70549Y-53109D01*
X70550Y-52891D01*
X70550Y-60730D01*
X67269Y-60730D01*
X67269Y-35269D01*
X67500Y-35269D01*
X115230Y-35269D01*
X115230Y-60730D01*
X115230Y-60730D01*
G37*
G54D16*
X115230Y-60730D02*
X113925Y-60730D01*
X113925Y-42415D01*
X113860Y-42259D01*
X113741Y-42139D01*
X113584Y-42075D01*
X113415Y-42074D01*
X113259Y-42139D01*
X113139Y-42258D01*
X113075Y-42415D01*
X113074Y-42584D01*
X113139Y-42740D01*
X113200Y-42801D01*
X113200Y-49875D01*
X107375Y-55700D01*
X106971Y-55700D01*
X106966Y-55688D01*
X106811Y-55534D01*
X106730Y-55500D01*
X106811Y-55466D01*
X106965Y-55311D01*
X107049Y-55109D01*
X107050Y-54891D01*
X106966Y-54688D01*
X106811Y-54534D01*
X106730Y-54500D01*
X106811Y-54466D01*
X106965Y-54311D01*
X106970Y-54300D01*
X107000Y-54300D01*
X107000Y-54299D01*
X107114Y-54277D01*
X107114Y-54277D01*
X107212Y-54212D01*
X111212Y-50212D01*
X111212Y-50212D01*
X111277Y-50114D01*
X111299Y-50000D01*
X111300Y-50000D01*
X111300Y-40471D01*
X111311Y-40466D01*
X111465Y-40311D01*
X111549Y-40109D01*
X111550Y-39891D01*
X111466Y-39688D01*
X111311Y-39534D01*
X111109Y-39450D01*
X110891Y-39449D01*
X110688Y-39533D01*
X110550Y-39671D01*
X110550Y-38891D01*
X110466Y-38688D01*
X110311Y-38534D01*
X110109Y-38450D01*
X109891Y-38449D01*
X109688Y-38533D01*
X109534Y-38688D01*
X109450Y-38890D01*
X109449Y-39108D01*
X109533Y-39311D01*
X109688Y-39465D01*
X109890Y-39549D01*
X110108Y-39550D01*
X110311Y-39466D01*
X110465Y-39311D01*
X110549Y-39109D01*
X110550Y-38891D01*
X110550Y-39671D01*
X110534Y-39688D01*
X110450Y-39890D01*
X110449Y-40108D01*
X110533Y-40311D01*
X110688Y-40465D01*
X110700Y-40470D01*
X110700Y-49875D01*
X110550Y-50025D01*
X110550Y-40891D01*
X110466Y-40688D01*
X110311Y-40534D01*
X110109Y-40450D01*
X109891Y-40449D01*
X109688Y-40533D01*
X109534Y-40688D01*
X109450Y-40890D01*
X109449Y-41108D01*
X109533Y-41311D01*
X109688Y-41465D01*
X109890Y-41549D01*
X110108Y-41550D01*
X110311Y-41466D01*
X110465Y-41311D01*
X110549Y-41109D01*
X110550Y-40891D01*
X110550Y-50025D01*
X107054Y-53520D01*
X107054Y-51081D01*
X107050Y-50988D01*
X107050Y-49891D01*
X106966Y-49688D01*
X106811Y-49534D01*
X106730Y-49500D01*
X106811Y-49466D01*
X106965Y-49311D01*
X107049Y-49109D01*
X107050Y-48891D01*
X106966Y-48688D01*
X106811Y-48534D01*
X106730Y-48500D01*
X106811Y-48466D01*
X106965Y-48311D01*
X107049Y-48109D01*
X107050Y-47891D01*
X106966Y-47688D01*
X106811Y-47534D01*
X106730Y-47500D01*
X106811Y-47466D01*
X106965Y-47311D01*
X107049Y-47109D01*
X107050Y-46891D01*
X106966Y-46688D01*
X106811Y-46534D01*
X106730Y-46500D01*
X106811Y-46466D01*
X106965Y-46311D01*
X107049Y-46109D01*
X107050Y-45891D01*
X106966Y-45688D01*
X106811Y-45534D01*
X106730Y-45500D01*
X106811Y-45466D01*
X106965Y-45311D01*
X107049Y-45109D01*
X107050Y-44891D01*
X106966Y-44688D01*
X106811Y-44534D01*
X106730Y-44500D01*
X106811Y-44466D01*
X106965Y-44311D01*
X107049Y-44109D01*
X107050Y-43891D01*
X106966Y-43688D01*
X106811Y-43534D01*
X106730Y-43500D01*
X106811Y-43466D01*
X106965Y-43311D01*
X107049Y-43109D01*
X107050Y-42891D01*
X106966Y-42688D01*
X106811Y-42534D01*
X106730Y-42500D01*
X106811Y-42466D01*
X106965Y-42311D01*
X107049Y-42109D01*
X107050Y-41891D01*
X106966Y-41688D01*
X106811Y-41534D01*
X106730Y-41500D01*
X106811Y-41466D01*
X106965Y-41311D01*
X107049Y-41109D01*
X107050Y-40891D01*
X106966Y-40688D01*
X106811Y-40534D01*
X106730Y-40500D01*
X106811Y-40466D01*
X106965Y-40311D01*
X107049Y-40109D01*
X107050Y-39891D01*
X106966Y-39688D01*
X106811Y-39534D01*
X106730Y-39500D01*
X106811Y-39466D01*
X106965Y-39311D01*
X107049Y-39109D01*
X107050Y-38891D01*
X106966Y-38688D01*
X106827Y-38550D01*
X106849Y-38550D01*
X106941Y-38512D01*
X107011Y-38441D01*
X107049Y-38349D01*
X107050Y-38250D01*
X107050Y-37650D01*
X107012Y-37558D01*
X106941Y-37488D01*
X106849Y-37450D01*
X106750Y-37449D01*
X106150Y-37449D01*
X106058Y-37487D01*
X105988Y-37558D01*
X105950Y-37650D01*
X105950Y-37700D01*
X104500Y-37700D01*
X104385Y-37722D01*
X104287Y-37787D01*
X89600Y-52475D01*
X89396Y-52474D01*
X89203Y-52554D01*
X89055Y-52702D01*
X88999Y-52835D01*
X88945Y-52703D01*
X88797Y-52555D01*
X88604Y-52475D01*
X88396Y-52474D01*
X88203Y-52554D01*
X88055Y-52702D01*
X87999Y-52835D01*
X87945Y-52703D01*
X87797Y-52555D01*
X87604Y-52475D01*
X87396Y-52474D01*
X87203Y-52554D01*
X87055Y-52702D01*
X86999Y-52835D01*
X86945Y-52703D01*
X86797Y-52555D01*
X86604Y-52475D01*
X86396Y-52474D01*
X86203Y-52554D01*
X86055Y-52702D01*
X85999Y-52835D01*
X85945Y-52703D01*
X85797Y-52555D01*
X85604Y-52475D01*
X85396Y-52474D01*
X85203Y-52554D01*
X85055Y-52702D01*
X84975Y-52895D01*
X84974Y-53103D01*
X85054Y-53297D01*
X85202Y-53444D01*
X85395Y-53524D01*
X85603Y-53525D01*
X85797Y-53445D01*
X85944Y-53297D01*
X86000Y-53164D01*
X86054Y-53297D01*
X86202Y-53444D01*
X86395Y-53524D01*
X86603Y-53525D01*
X86797Y-53445D01*
X86944Y-53297D01*
X87000Y-53164D01*
X87054Y-53297D01*
X87202Y-53444D01*
X87395Y-53524D01*
X87603Y-53525D01*
X87797Y-53445D01*
X87944Y-53297D01*
X88000Y-53164D01*
X88054Y-53297D01*
X88202Y-53444D01*
X88395Y-53524D01*
X88603Y-53525D01*
X88797Y-53445D01*
X88944Y-53297D01*
X89000Y-53164D01*
X89054Y-53297D01*
X89202Y-53444D01*
X89395Y-53524D01*
X89603Y-53525D01*
X89797Y-53445D01*
X89944Y-53297D01*
X90000Y-53164D01*
X90054Y-53297D01*
X90202Y-53444D01*
X90395Y-53524D01*
X90603Y-53525D01*
X90797Y-53445D01*
X90944Y-53297D01*
X91000Y-53164D01*
X91054Y-53297D01*
X91202Y-53444D01*
X91395Y-53524D01*
X91603Y-53525D01*
X91797Y-53445D01*
X91944Y-53297D01*
X92000Y-53164D01*
X92054Y-53297D01*
X92202Y-53444D01*
X92395Y-53524D01*
X92603Y-53525D01*
X92797Y-53445D01*
X92944Y-53297D01*
X93000Y-53164D01*
X93054Y-53297D01*
X93202Y-53444D01*
X93395Y-53524D01*
X93603Y-53525D01*
X93797Y-53445D01*
X93944Y-53297D01*
X94000Y-53164D01*
X94054Y-53297D01*
X94202Y-53444D01*
X94395Y-53524D01*
X94603Y-53525D01*
X94797Y-53445D01*
X94944Y-53297D01*
X95000Y-53164D01*
X95054Y-53297D01*
X95202Y-53444D01*
X95395Y-53524D01*
X95603Y-53525D01*
X95797Y-53445D01*
X95944Y-53297D01*
X96000Y-53164D01*
X96054Y-53297D01*
X96202Y-53444D01*
X96395Y-53524D01*
X96603Y-53525D01*
X96797Y-53445D01*
X96944Y-53297D01*
X97000Y-53164D01*
X97054Y-53297D01*
X97202Y-53444D01*
X97395Y-53524D01*
X97603Y-53525D01*
X97797Y-53445D01*
X97944Y-53297D01*
X97974Y-53225D01*
X97974Y-53225D01*
X97975Y-53324D01*
X98013Y-53416D01*
X98083Y-53487D01*
X98175Y-53525D01*
X98387Y-53525D01*
X98450Y-53462D01*
X98450Y-53050D01*
X98442Y-53050D01*
X98442Y-52950D01*
X98450Y-52950D01*
X98450Y-52537D01*
X98387Y-52475D01*
X98175Y-52474D01*
X98083Y-52512D01*
X98013Y-52583D01*
X97975Y-52675D01*
X97974Y-52774D01*
X97974Y-52774D01*
X97945Y-52703D01*
X97797Y-52555D01*
X97604Y-52475D01*
X97396Y-52474D01*
X97203Y-52554D01*
X97055Y-52702D01*
X96999Y-52835D01*
X96945Y-52703D01*
X96797Y-52555D01*
X96604Y-52475D01*
X96396Y-52474D01*
X96203Y-52554D01*
X96055Y-52702D01*
X95999Y-52835D01*
X95945Y-52703D01*
X95797Y-52555D01*
X95604Y-52475D01*
X95396Y-52474D01*
X95203Y-52554D01*
X95055Y-52702D01*
X94999Y-52835D01*
X94945Y-52703D01*
X94797Y-52555D01*
X94604Y-52475D01*
X94396Y-52474D01*
X94203Y-52554D01*
X94055Y-52702D01*
X93999Y-52835D01*
X93945Y-52703D01*
X93797Y-52555D01*
X93604Y-52475D01*
X93396Y-52474D01*
X93203Y-52554D01*
X93055Y-52702D01*
X92999Y-52835D01*
X92945Y-52703D01*
X92797Y-52555D01*
X92604Y-52475D01*
X92396Y-52474D01*
X92203Y-52554D01*
X92055Y-52702D01*
X91999Y-52835D01*
X91945Y-52703D01*
X91797Y-52555D01*
X91604Y-52475D01*
X91396Y-52474D01*
X91203Y-52554D01*
X91055Y-52702D01*
X90999Y-52835D01*
X90945Y-52703D01*
X90797Y-52555D01*
X90604Y-52475D01*
X90449Y-52474D01*
X104624Y-38300D01*
X105949Y-38300D01*
X105949Y-38349D01*
X105987Y-38441D01*
X106058Y-38511D01*
X106150Y-38549D01*
X106172Y-38549D01*
X106034Y-38688D01*
X105950Y-38890D01*
X105949Y-39108D01*
X106033Y-39311D01*
X106188Y-39465D01*
X106269Y-39499D01*
X106188Y-39533D01*
X106034Y-39688D01*
X105950Y-39890D01*
X105949Y-40108D01*
X106033Y-40311D01*
X106188Y-40465D01*
X106269Y-40499D01*
X106188Y-40533D01*
X106034Y-40688D01*
X105950Y-40890D01*
X105949Y-41108D01*
X106033Y-41311D01*
X106188Y-41465D01*
X106269Y-41499D01*
X106188Y-41533D01*
X106034Y-41688D01*
X105950Y-41890D01*
X105949Y-42108D01*
X106033Y-42311D01*
X106188Y-42465D01*
X106269Y-42499D01*
X106188Y-42533D01*
X106034Y-42688D01*
X105950Y-42890D01*
X105949Y-43108D01*
X106033Y-43311D01*
X106188Y-43465D01*
X106269Y-43499D01*
X106188Y-43533D01*
X106034Y-43688D01*
X105950Y-43890D01*
X105949Y-44108D01*
X106033Y-44311D01*
X106188Y-44465D01*
X106269Y-44499D01*
X106188Y-44533D01*
X106034Y-44688D01*
X105950Y-44890D01*
X105949Y-45108D01*
X106033Y-45311D01*
X106188Y-45465D01*
X106269Y-45499D01*
X106188Y-45533D01*
X106034Y-45688D01*
X105950Y-45890D01*
X105949Y-46108D01*
X106033Y-46311D01*
X106188Y-46465D01*
X106269Y-46499D01*
X106188Y-46533D01*
X106034Y-46688D01*
X105950Y-46890D01*
X105949Y-47108D01*
X106033Y-47311D01*
X106188Y-47465D01*
X106269Y-47499D01*
X106188Y-47533D01*
X106034Y-47688D01*
X105950Y-47890D01*
X105949Y-48108D01*
X106033Y-48311D01*
X106188Y-48465D01*
X106269Y-48499D01*
X106188Y-48533D01*
X106034Y-48688D01*
X105950Y-48890D01*
X105949Y-49108D01*
X106033Y-49311D01*
X106188Y-49465D01*
X106269Y-49499D01*
X106188Y-49533D01*
X106034Y-49688D01*
X105950Y-49890D01*
X105949Y-50108D01*
X106033Y-50311D01*
X106188Y-50465D01*
X106263Y-50497D01*
X106212Y-50518D01*
X106184Y-50614D01*
X106500Y-50929D01*
X106815Y-50614D01*
X106787Y-50518D01*
X106732Y-50499D01*
X106811Y-50466D01*
X106965Y-50311D01*
X107049Y-50109D01*
X107050Y-49891D01*
X107050Y-50988D01*
X107043Y-50863D01*
X106981Y-50712D01*
X106885Y-50684D01*
X106570Y-51000D01*
X106885Y-51315D01*
X106981Y-51287D01*
X107054Y-51081D01*
X107054Y-53520D01*
X106926Y-53648D01*
X106811Y-53534D01*
X106730Y-53500D01*
X106811Y-53466D01*
X106965Y-53311D01*
X107049Y-53109D01*
X107050Y-52891D01*
X106966Y-52688D01*
X106811Y-52534D01*
X106730Y-52500D01*
X106811Y-52466D01*
X106965Y-52311D01*
X107049Y-52109D01*
X107050Y-51891D01*
X106966Y-51688D01*
X106811Y-51534D01*
X106736Y-51502D01*
X106787Y-51481D01*
X106815Y-51385D01*
X106500Y-51070D01*
X106429Y-51141D01*
X106429Y-51000D01*
X106114Y-50684D01*
X106018Y-50712D01*
X105945Y-50918D01*
X105956Y-51136D01*
X106018Y-51287D01*
X106114Y-51315D01*
X106429Y-51000D01*
X106429Y-51141D01*
X106184Y-51385D01*
X106212Y-51481D01*
X106267Y-51500D01*
X106188Y-51533D01*
X106034Y-51688D01*
X105950Y-51890D01*
X105949Y-52108D01*
X106033Y-52311D01*
X106188Y-52465D01*
X106269Y-52499D01*
X106188Y-52533D01*
X106034Y-52688D01*
X105950Y-52890D01*
X105949Y-53108D01*
X106033Y-53311D01*
X106188Y-53465D01*
X106269Y-53499D01*
X106188Y-53533D01*
X106034Y-53688D01*
X105950Y-53890D01*
X105949Y-54108D01*
X106033Y-54311D01*
X106188Y-54465D01*
X106269Y-54499D01*
X106188Y-54533D01*
X106034Y-54688D01*
X105950Y-54890D01*
X105949Y-55108D01*
X106033Y-55311D01*
X106188Y-55465D01*
X106269Y-55499D01*
X106188Y-55533D01*
X106034Y-55688D01*
X105950Y-55890D01*
X105949Y-56108D01*
X106033Y-56311D01*
X106188Y-56465D01*
X106269Y-56499D01*
X106188Y-56533D01*
X106034Y-56688D01*
X106029Y-56700D01*
X88624Y-56700D01*
X88449Y-56524D01*
X88603Y-56525D01*
X88797Y-56445D01*
X88944Y-56297D01*
X89000Y-56164D01*
X89054Y-56297D01*
X89202Y-56444D01*
X89395Y-56524D01*
X89603Y-56525D01*
X89797Y-56445D01*
X89944Y-56297D01*
X90000Y-56164D01*
X90054Y-56297D01*
X90202Y-56444D01*
X90395Y-56524D01*
X90603Y-56525D01*
X90797Y-56445D01*
X90944Y-56297D01*
X91000Y-56164D01*
X91054Y-56297D01*
X91202Y-56444D01*
X91395Y-56524D01*
X91603Y-56525D01*
X91797Y-56445D01*
X91944Y-56297D01*
X92000Y-56164D01*
X92054Y-56297D01*
X92202Y-56444D01*
X92395Y-56524D01*
X92603Y-56525D01*
X92797Y-56445D01*
X92944Y-56297D01*
X93000Y-56164D01*
X93054Y-56297D01*
X93202Y-56444D01*
X93395Y-56524D01*
X93603Y-56525D01*
X93797Y-56445D01*
X93944Y-56297D01*
X94000Y-56164D01*
X94054Y-56297D01*
X94202Y-56444D01*
X94395Y-56524D01*
X94603Y-56525D01*
X94797Y-56445D01*
X94944Y-56297D01*
X95000Y-56164D01*
X95054Y-56297D01*
X95202Y-56444D01*
X95395Y-56524D01*
X95603Y-56525D01*
X95797Y-56445D01*
X95944Y-56297D01*
X96000Y-56164D01*
X96054Y-56297D01*
X96202Y-56444D01*
X96395Y-56524D01*
X96603Y-56525D01*
X96797Y-56445D01*
X96944Y-56297D01*
X97000Y-56164D01*
X97054Y-56297D01*
X97202Y-56444D01*
X97395Y-56524D01*
X97603Y-56525D01*
X97797Y-56445D01*
X97944Y-56297D01*
X98000Y-56164D01*
X98054Y-56297D01*
X98202Y-56444D01*
X98395Y-56524D01*
X98603Y-56525D01*
X98797Y-56445D01*
X98944Y-56297D01*
X99024Y-56104D01*
X99025Y-55896D01*
X99025Y-55895D01*
X99025Y-53225D01*
X99025Y-52774D01*
X99024Y-52675D01*
X98986Y-52583D01*
X98916Y-52512D01*
X98824Y-52474D01*
X98612Y-52475D01*
X98550Y-52537D01*
X98550Y-52950D01*
X98962Y-52950D01*
X99025Y-52887D01*
X99025Y-52774D01*
X99025Y-53225D01*
X99025Y-53112D01*
X98962Y-53050D01*
X98550Y-53050D01*
X98550Y-53462D01*
X98612Y-53525D01*
X98824Y-53525D01*
X98916Y-53487D01*
X98986Y-53416D01*
X99024Y-53324D01*
X99025Y-53225D01*
X99025Y-55895D01*
X98945Y-55703D01*
X98797Y-55555D01*
X98604Y-55475D01*
X98396Y-55474D01*
X98203Y-55554D01*
X98055Y-55702D01*
X97999Y-55835D01*
X97945Y-55703D01*
X97797Y-55555D01*
X97604Y-55475D01*
X97396Y-55474D01*
X97203Y-55554D01*
X97055Y-55702D01*
X96999Y-55835D01*
X96945Y-55703D01*
X96797Y-55555D01*
X96604Y-55475D01*
X96396Y-55474D01*
X96203Y-55554D01*
X96055Y-55702D01*
X95999Y-55835D01*
X95945Y-55703D01*
X95797Y-55555D01*
X95604Y-55475D01*
X95396Y-55474D01*
X95203Y-55554D01*
X95055Y-55702D01*
X94999Y-55835D01*
X94945Y-55703D01*
X94797Y-55555D01*
X94604Y-55475D01*
X94396Y-55474D01*
X94203Y-55554D01*
X94055Y-55702D01*
X93999Y-55835D01*
X93945Y-55703D01*
X93797Y-55555D01*
X93604Y-55475D01*
X93396Y-55474D01*
X93203Y-55554D01*
X93055Y-55702D01*
X92999Y-55835D01*
X92945Y-55703D01*
X92797Y-55555D01*
X92604Y-55475D01*
X92396Y-55474D01*
X92203Y-55554D01*
X92055Y-55702D01*
X91999Y-55835D01*
X91945Y-55703D01*
X91797Y-55555D01*
X91604Y-55475D01*
X91396Y-55474D01*
X91203Y-55554D01*
X91055Y-55702D01*
X90999Y-55835D01*
X90945Y-55703D01*
X90797Y-55555D01*
X90604Y-55475D01*
X90396Y-55474D01*
X90203Y-55554D01*
X90055Y-55702D01*
X89999Y-55835D01*
X89945Y-55703D01*
X89797Y-55555D01*
X89604Y-55475D01*
X89396Y-55474D01*
X89203Y-55554D01*
X89055Y-55702D01*
X88999Y-55835D01*
X88945Y-55703D01*
X88797Y-55555D01*
X88604Y-55475D01*
X88396Y-55474D01*
X88203Y-55554D01*
X88055Y-55702D01*
X87999Y-55835D01*
X87945Y-55703D01*
X87797Y-55555D01*
X87604Y-55475D01*
X87396Y-55474D01*
X87203Y-55554D01*
X87055Y-55702D01*
X86999Y-55835D01*
X86945Y-55703D01*
X86797Y-55555D01*
X86604Y-55475D01*
X86396Y-55474D01*
X86203Y-55554D01*
X86055Y-55702D01*
X85999Y-55835D01*
X85945Y-55703D01*
X85797Y-55555D01*
X85604Y-55475D01*
X85396Y-55474D01*
X85203Y-55554D01*
X85055Y-55702D01*
X84975Y-55895D01*
X84974Y-56103D01*
X85054Y-56297D01*
X85202Y-56444D01*
X85395Y-56524D01*
X85603Y-56525D01*
X85797Y-56445D01*
X85944Y-56297D01*
X86000Y-56164D01*
X86054Y-56297D01*
X86202Y-56444D01*
X86395Y-56524D01*
X86603Y-56525D01*
X86797Y-56445D01*
X86944Y-56297D01*
X87000Y-56164D01*
X87054Y-56297D01*
X87202Y-56444D01*
X87395Y-56524D01*
X87600Y-56525D01*
X88287Y-57212D01*
X88287Y-57212D01*
X88385Y-57277D01*
X88500Y-57300D01*
X106028Y-57300D01*
X106033Y-57311D01*
X106188Y-57465D01*
X106390Y-57549D01*
X106608Y-57550D01*
X106811Y-57466D01*
X106965Y-57311D01*
X107049Y-57109D01*
X107050Y-56891D01*
X106966Y-56688D01*
X106811Y-56534D01*
X106730Y-56500D01*
X106811Y-56466D01*
X106965Y-56311D01*
X106970Y-56300D01*
X107500Y-56300D01*
X107500Y-56299D01*
X107614Y-56277D01*
X107614Y-56277D01*
X107712Y-56212D01*
X113712Y-50212D01*
X113712Y-50212D01*
X113777Y-50114D01*
X113799Y-50000D01*
X113800Y-50000D01*
X113800Y-42801D01*
X113860Y-42741D01*
X113924Y-42584D01*
X113925Y-42415D01*
X113925Y-60730D01*
X79050Y-60730D01*
X79050Y-54891D01*
X78966Y-54688D01*
X78811Y-54534D01*
X78730Y-54500D01*
X78811Y-54466D01*
X78965Y-54311D01*
X79049Y-54109D01*
X79050Y-53891D01*
X78966Y-53688D01*
X78811Y-53534D01*
X78730Y-53500D01*
X78811Y-53466D01*
X78965Y-53311D01*
X79049Y-53109D01*
X79050Y-52891D01*
X78966Y-52688D01*
X78811Y-52534D01*
X78730Y-52500D01*
X78811Y-52466D01*
X78965Y-52311D01*
X79049Y-52109D01*
X79050Y-51891D01*
X78966Y-51688D01*
X78811Y-51534D01*
X78730Y-51500D01*
X78811Y-51466D01*
X78965Y-51311D01*
X79049Y-51109D01*
X79050Y-50891D01*
X78966Y-50688D01*
X78811Y-50534D01*
X78730Y-50500D01*
X78811Y-50466D01*
X78965Y-50311D01*
X79049Y-50109D01*
X79050Y-49891D01*
X78966Y-49688D01*
X78811Y-49534D01*
X78609Y-49450D01*
X78391Y-49449D01*
X78188Y-49533D01*
X78034Y-49688D01*
X77950Y-49890D01*
X77949Y-50108D01*
X78033Y-50311D01*
X78188Y-50465D01*
X78269Y-50499D01*
X78188Y-50533D01*
X78034Y-50688D01*
X77950Y-50890D01*
X77949Y-51108D01*
X78033Y-51311D01*
X78188Y-51465D01*
X78269Y-51499D01*
X78188Y-51533D01*
X78034Y-51688D01*
X77950Y-51890D01*
X77949Y-52108D01*
X78033Y-52311D01*
X78188Y-52465D01*
X78269Y-52499D01*
X78188Y-52533D01*
X78034Y-52688D01*
X77950Y-52890D01*
X77949Y-53108D01*
X78033Y-53311D01*
X78188Y-53465D01*
X78269Y-53499D01*
X78188Y-53533D01*
X78034Y-53688D01*
X77950Y-53890D01*
X77949Y-54108D01*
X78033Y-54311D01*
X78188Y-54465D01*
X78269Y-54499D01*
X78188Y-54533D01*
X78034Y-54688D01*
X77950Y-54890D01*
X77949Y-55108D01*
X78033Y-55311D01*
X78188Y-55465D01*
X78390Y-55549D01*
X78608Y-55550D01*
X78811Y-55466D01*
X78965Y-55311D01*
X79049Y-55109D01*
X79050Y-54891D01*
X79050Y-60730D01*
X75050Y-60730D01*
X75050Y-54891D01*
X74966Y-54688D01*
X74811Y-54534D01*
X74730Y-54500D01*
X74811Y-54466D01*
X74965Y-54311D01*
X75049Y-54109D01*
X75050Y-53891D01*
X74966Y-53688D01*
X74811Y-53534D01*
X74730Y-53500D01*
X74811Y-53466D01*
X74965Y-53311D01*
X75049Y-53109D01*
X75050Y-52891D01*
X74966Y-52688D01*
X74811Y-52534D01*
X74730Y-52500D01*
X74811Y-52466D01*
X74965Y-52311D01*
X75049Y-52109D01*
X75050Y-51891D01*
X74966Y-51688D01*
X74811Y-51534D01*
X74730Y-51500D01*
X74811Y-51466D01*
X74965Y-51311D01*
X75049Y-51109D01*
X75050Y-50891D01*
X74966Y-50688D01*
X74811Y-50534D01*
X74730Y-50500D01*
X74811Y-50466D01*
X74965Y-50311D01*
X75049Y-50109D01*
X75050Y-49891D01*
X74966Y-49688D01*
X74811Y-49534D01*
X74609Y-49450D01*
X74391Y-49449D01*
X74188Y-49533D01*
X74034Y-49688D01*
X73950Y-49890D01*
X73949Y-50108D01*
X74033Y-50311D01*
X74188Y-50465D01*
X74269Y-50499D01*
X74188Y-50533D01*
X74034Y-50688D01*
X73950Y-50890D01*
X73949Y-51108D01*
X74033Y-51311D01*
X74188Y-51465D01*
X74269Y-51499D01*
X74188Y-51533D01*
X74034Y-51688D01*
X73950Y-51890D01*
X73949Y-52108D01*
X74033Y-52311D01*
X74188Y-52465D01*
X74269Y-52499D01*
X74188Y-52533D01*
X74034Y-52688D01*
X73950Y-52890D01*
X73949Y-53108D01*
X74033Y-53311D01*
X74188Y-53465D01*
X74269Y-53499D01*
X74188Y-53533D01*
X74034Y-53688D01*
X73950Y-53890D01*
X73949Y-54108D01*
X74033Y-54311D01*
X74188Y-54465D01*
X74269Y-54499D01*
X74188Y-54533D01*
X74034Y-54688D01*
X73950Y-54890D01*
X73949Y-55108D01*
X74033Y-55311D01*
X74188Y-55465D01*
X74390Y-55549D01*
X74608Y-55550D01*
X74811Y-55466D01*
X74965Y-55311D01*
X75049Y-55109D01*
X75050Y-54891D01*
X75050Y-60730D01*
X70550Y-60730D01*
X70550Y-52891D01*
X70466Y-52688D01*
X70311Y-52534D01*
X70230Y-52500D01*
X70311Y-52466D01*
X70465Y-52311D01*
X70549Y-52109D01*
X70550Y-51891D01*
X70466Y-51688D01*
X70311Y-51534D01*
X70230Y-51500D01*
X70311Y-51466D01*
X70465Y-51311D01*
X70549Y-51109D01*
X70550Y-50891D01*
X70466Y-50688D01*
X70327Y-50550D01*
X70349Y-50550D01*
X70441Y-50512D01*
X70511Y-50441D01*
X70549Y-50349D01*
X70550Y-50250D01*
X70550Y-49650D01*
X70512Y-49558D01*
X70441Y-49488D01*
X70349Y-49450D01*
X70250Y-49449D01*
X69650Y-49449D01*
X69558Y-49487D01*
X69488Y-49558D01*
X69450Y-49650D01*
X69449Y-49749D01*
X69449Y-50349D01*
X69487Y-50441D01*
X69558Y-50511D01*
X69650Y-50549D01*
X69672Y-50549D01*
X69534Y-50688D01*
X69450Y-50890D01*
X69449Y-51108D01*
X69533Y-51311D01*
X69688Y-51465D01*
X69769Y-51499D01*
X69688Y-51533D01*
X69534Y-51688D01*
X69450Y-51890D01*
X69449Y-52108D01*
X69533Y-52311D01*
X69688Y-52465D01*
X69769Y-52499D01*
X69688Y-52533D01*
X69534Y-52688D01*
X69450Y-52890D01*
X69449Y-53108D01*
X69533Y-53311D01*
X69688Y-53465D01*
X69890Y-53549D01*
X70108Y-53550D01*
X70311Y-53466D01*
X70465Y-53311D01*
X70549Y-53109D01*
X70550Y-52891D01*
X70550Y-60730D01*
X67269Y-60730D01*
X67269Y-35269D01*
X67500Y-35269D01*
X115230Y-35269D01*
X115230Y-60730D01*
M02*
