G04 (created by PCBNEW (2013-07-07 BZR 4022)-stable) date 23/07/2015 14:49:57*
%MOIN*%
G04 Gerber Fmt 3.4, Leading zero omitted, Abs format*
%FSLAX34Y34*%
G01*
G70*
G90*
G04 APERTURE LIST*
%ADD10C,0.00590551*%
%ADD11C,0.06*%
%ADD12R,0.06X0.06*%
%ADD13R,0.055X0.035*%
%ADD14C,0.055*%
%ADD15R,0.055X0.055*%
%ADD16C,0.035*%
%ADD17C,0.01*%
G04 APERTURE END LIST*
G54D10*
G54D11*
X111000Y-40000D03*
X110000Y-39000D03*
X110000Y-41000D03*
X106500Y-39000D03*
X106500Y-40000D03*
X106500Y-41000D03*
X106500Y-42000D03*
X106500Y-43000D03*
X106500Y-44000D03*
X106500Y-45000D03*
X106500Y-46000D03*
X106500Y-47000D03*
X106500Y-48000D03*
X106500Y-49000D03*
X106500Y-50000D03*
X106500Y-51000D03*
X106500Y-52000D03*
X106500Y-53000D03*
X106500Y-54000D03*
X106500Y-55000D03*
X106500Y-56000D03*
X106500Y-57000D03*
G54D12*
X106500Y-38000D03*
G54D13*
X113500Y-39125D03*
X113500Y-39875D03*
G54D12*
X70000Y-50000D03*
G54D11*
X70000Y-51000D03*
X70000Y-52000D03*
X70000Y-53000D03*
X74500Y-50000D03*
X74500Y-51000D03*
X74500Y-52000D03*
X74500Y-53000D03*
X74500Y-54000D03*
X74500Y-55000D03*
X78500Y-55000D03*
X78500Y-54000D03*
X78500Y-53000D03*
X78500Y-52000D03*
X78500Y-51000D03*
X78500Y-50000D03*
G54D14*
X97500Y-53000D03*
X96500Y-53000D03*
X95500Y-53000D03*
X94500Y-53000D03*
X93500Y-53000D03*
X92500Y-53000D03*
X91500Y-53000D03*
X90500Y-53000D03*
X89500Y-53000D03*
X88500Y-53000D03*
X87500Y-53000D03*
X86500Y-53000D03*
X85500Y-53000D03*
G54D15*
X98500Y-53000D03*
G54D14*
X85500Y-56000D03*
X86500Y-56000D03*
X87500Y-56000D03*
X88500Y-56000D03*
X89500Y-56000D03*
X90500Y-56000D03*
X91500Y-56000D03*
X92500Y-56000D03*
X93500Y-56000D03*
X94500Y-56000D03*
X95500Y-56000D03*
X96500Y-56000D03*
X97500Y-56000D03*
X98500Y-56000D03*
G54D16*
X113500Y-42500D03*
G54D17*
X74500Y-51000D02*
X70000Y-51000D01*
X70000Y-52000D02*
X74500Y-52000D01*
X89500Y-53000D02*
X89500Y-54000D01*
X89500Y-54000D02*
X87500Y-56000D01*
X85500Y-56000D02*
X86500Y-56000D01*
X86500Y-56000D02*
X87500Y-56000D01*
X78500Y-55000D02*
X84500Y-55000D01*
X84500Y-55000D02*
X85500Y-56000D01*
X74500Y-55000D02*
X78500Y-55000D01*
X70000Y-53000D02*
X72500Y-53000D01*
X72500Y-53000D02*
X74500Y-55000D01*
X86500Y-53000D02*
X85500Y-52000D01*
X85500Y-52000D02*
X78500Y-52000D01*
X95500Y-56000D02*
X99000Y-59500D01*
X107500Y-42000D02*
X106500Y-42000D01*
X109000Y-43500D02*
X107500Y-42000D01*
X109000Y-58000D02*
X109000Y-43500D01*
X107500Y-59500D02*
X109000Y-58000D01*
X99000Y-59500D02*
X107500Y-59500D01*
X110000Y-39000D02*
X113375Y-39000D01*
X113375Y-39000D02*
X113500Y-39125D01*
X113500Y-39125D02*
X113500Y-39000D01*
X113500Y-39000D02*
X113500Y-39125D01*
X110000Y-39000D02*
X106500Y-39000D01*
X90500Y-53000D02*
X90500Y-44500D01*
X96000Y-39000D02*
X106500Y-39000D01*
X90500Y-44500D02*
X96000Y-39000D01*
X90500Y-53000D02*
X90500Y-54000D01*
X90500Y-54000D02*
X88500Y-56000D01*
X90500Y-53000D02*
X90500Y-50000D01*
X90500Y-50000D02*
X78500Y-50000D01*
X106500Y-41000D02*
X108000Y-41000D01*
X99000Y-60500D02*
X94500Y-56000D01*
X108000Y-60500D02*
X99000Y-60500D01*
X110000Y-58500D02*
X108000Y-60500D01*
X110000Y-43000D02*
X110000Y-58500D01*
X108000Y-41000D02*
X110000Y-43000D01*
X106500Y-43000D02*
X107500Y-43000D01*
X99500Y-59000D02*
X96500Y-56000D01*
X107000Y-59000D02*
X99500Y-59000D01*
X108500Y-57500D02*
X107000Y-59000D01*
X108500Y-44000D02*
X108500Y-57500D01*
X107500Y-43000D02*
X108500Y-44000D01*
X97500Y-56000D02*
X97500Y-55500D01*
X104000Y-52000D02*
X106500Y-52000D01*
X101500Y-54500D02*
X104000Y-52000D01*
X98500Y-54500D02*
X101500Y-54500D01*
X97500Y-55500D02*
X98500Y-54500D01*
X98500Y-56000D02*
X102500Y-56000D01*
X105500Y-53000D02*
X106500Y-53000D01*
X102500Y-56000D02*
X105500Y-53000D01*
X111000Y-40000D02*
X106500Y-40000D01*
X106500Y-49000D02*
X98000Y-49000D01*
X96500Y-50500D02*
X96500Y-53000D01*
X98000Y-49000D02*
X96500Y-50500D01*
X78500Y-51000D02*
X85500Y-51000D01*
X85500Y-51000D02*
X87500Y-53000D01*
X113500Y-39875D02*
X113500Y-42500D01*
X98500Y-53000D02*
X98500Y-51500D01*
X99000Y-51000D02*
X106500Y-51000D01*
X98500Y-51500D02*
X99000Y-51000D01*
X97500Y-53000D02*
X97500Y-51000D01*
X98500Y-50000D02*
X106500Y-50000D01*
X97500Y-51000D02*
X98500Y-50000D01*
X95500Y-53000D02*
X95500Y-50000D01*
X97500Y-48000D02*
X106500Y-48000D01*
X95500Y-50000D02*
X97500Y-48000D01*
X94500Y-53000D02*
X94500Y-50000D01*
X97500Y-47000D02*
X106500Y-47000D01*
X94500Y-50000D02*
X97500Y-47000D01*
X93500Y-50000D02*
X93500Y-53000D01*
X97500Y-46000D02*
X93500Y-50000D01*
X106500Y-46000D02*
X97500Y-46000D01*
X97500Y-45000D02*
X106500Y-45000D01*
X92500Y-50000D02*
X97500Y-45000D01*
X92500Y-53000D02*
X92500Y-50000D01*
X106500Y-44000D02*
X96500Y-44000D01*
X91500Y-49000D02*
X91500Y-53000D01*
X96500Y-44000D02*
X91500Y-49000D01*
X70000Y-50000D02*
X74500Y-50000D01*
M02*
