<?xml version="1.0" standalone="no"?>
 <!DOCTYPE svg PUBLIC "-//W3C//DTD SVG 1.1//EN" 
 "http://www.w3.org/Graphics/SVG/1.1/DTD/svg11.dtd"> 
<svg xmlns="http://www.w3.org/2000/svg" version="1.1" 
    width="41.9989cm" height="29.7002cm" viewBox="0 0 165350 116930 ">
<title>SVG Picture created as MODULO1-B_Cu.svg date 2015/07/23 14:51:06 </title>
  <desc>Picture generated by PCBNEW </desc>
<g style="fill:#000000; fill-opacity:1;stroke:#000000; stroke-opacity:1;
stroke-linecap:round; stroke-linejoin:round; "
 transform="translate(0 0) scale(1 1)">
</g>
<g style="fill:#000000; fill-opacity:0.0; 
stroke:#000000; stroke-width:39.3701; stroke-opacity:1; 
stroke-linecap:round; stroke-linejoin:round;">
<path d="M4000 4000
L161350 4000
L161350 112930
L4000 112930
L4000 4000
" />
<path d="M4700 4700
L160650 4700
L160650 112230
L4700 112230
L4700 4700
" />
<path d="M26470 4000
L26470 4700
" />
<path d="M15382 4552
L15097 4552
" />
<path d="M15240 4552
L15240 4052
L15192 4123
L15144 4171
L15097 4195
" />
<path d="M26470 112930
L26470 112230
" />
<path d="M15382 112782
L15097 112782
" />
<path d="M15240 112782
L15240 112282
L15192 112353
L15144 112401
L15097 112425
" />
<path d="M48940 4000
L48940 4700
" />
<path d="M37567 4100
L37590 4076
L37638 4052
L37757 4052
L37805 4076
L37829 4100
L37852 4147
L37852 4195
L37829 4266
L37543 4552
L37852 4552
" />
<path d="M48940 112930
L48940 112230
" />
<path d="M37567 112330
L37590 112306
L37638 112282
L37757 112282
L37805 112306
L37829 112330
L37852 112377
L37852 112425
L37829 112496
L37543 112782
L37852 112782
" />
<path d="M71410 4000
L71410 4700
" />
<path d="M60013 4052
L60322 4052
L60156 4242
L60227 4242
L60275 4266
L60299 4290
L60322 4338
L60322 4457
L60299 4504
L60275 4528
L60227 4552
L60084 4552
L60037 4528
L60013 4504
" />
<path d="M71410 112930
L71410 112230
" />
<path d="M60013 112282
L60322 112282
L60156 112472
L60227 112472
L60275 112496
L60299 112520
L60322 112568
L60322 112687
L60299 112734
L60275 112758
L60227 112782
L60084 112782
L60037 112758
L60013 112734
" />
<path d="M93880 4000
L93880 4700
" />
<path d="M82745 4219
L82745 4552
" />
<path d="M82626 4028
L82507 4385
L82816 4385
" />
<path d="M93880 112930
L93880 112230
" />
<path d="M82745 112449
L82745 112782
" />
<path d="M82626 112258
L82507 112615
L82816 112615
" />
<path d="M116350 4000
L116350 4700
" />
<path d="M105239 4052
L105000 4052
L104977 4290
L105000 4266
L105048 4242
L105167 4242
L105215 4266
L105239 4290
L105262 4338
L105262 4457
L105239 4504
L105215 4528
L105167 4552
L105048 4552
L105000 4528
L104977 4504
" />
<path d="M116350 112930
L116350 112230
" />
<path d="M105239 112282
L105000 112282
L104977 112520
L105000 112496
L105048 112472
L105167 112472
L105215 112496
L105239 112520
L105262 112568
L105262 112687
L105239 112734
L105215 112758
L105167 112782
L105048 112782
L105000 112758
L104977 112734
" />
<path d="M138820 4000
L138820 4700
" />
<path d="M127685 4052
L127590 4052
L127542 4076
L127518 4100
L127470 4171
L127447 4266
L127447 4457
L127470 4504
L127494 4528
L127542 4552
L127637 4552
L127685 4528
L127709 4504
L127732 4457
L127732 4338
L127709 4290
L127685 4266
L127637 4242
L127542 4242
L127494 4266
L127470 4290
L127447 4338
" />
<path d="M138820 112930
L138820 112230
" />
<path d="M127685 112282
L127590 112282
L127542 112306
L127518 112330
L127470 112401
L127447 112496
L127447 112687
L127470 112734
L127494 112758
L127542 112782
L127637 112782
L127685 112758
L127709 112734
L127732 112687
L127732 112568
L127709 112520
L127685 112496
L127637 112472
L127542 112472
L127494 112496
L127470 112520
L127447 112568
" />
<path d="M149893 4052
L150226 4052
L150012 4552
" />
<path d="M149893 112282
L150226 112282
L150012 112782
" />
<path d="M4000 25780
L4700 25780
" />
<path d="M4230 14949
L4469 14949
" />
<path d="M4183 15092
L4350 14592
L4516 15092
" />
<path d="M161350 25780
L160650 25780
" />
<path d="M160880 14949
L161119 14949
" />
<path d="M160833 15092
L161000 14592
L161166 15092
" />
<path d="M4000 47560
L4700 47560
" />
<path d="M4385 36610
L4457 36634
L4480 36658
L4504 36705
L4504 36777
L4480 36824
L4457 36848
L4409 36872
L4219 36872
L4219 36372
L4385 36372
L4433 36396
L4457 36420
L4480 36467
L4480 36515
L4457 36562
L4433 36586
L4385 36610
L4219 36610
" />
<path d="M161350 47560
L160650 47560
" />
<path d="M161035 36610
L161107 36634
L161130 36658
L161154 36705
L161154 36777
L161130 36824
L161107 36848
L161059 36872
L160869 36872
L160869 36372
L161035 36372
L161083 36396
L161107 36420
L161130 36467
L161130 36515
L161107 36562
L161083 36586
L161035 36610
L160869 36610
" />
<path d="M4000 69340
L4700 69340
" />
<path d="M4504 58604
L4480 58628
L4409 58652
L4361 58652
L4290 58628
L4242 58580
L4219 58533
L4195 58438
L4195 58366
L4219 58271
L4242 58223
L4290 58176
L4361 58152
L4409 58152
L4480 58176
L4504 58200
" />
<path d="M161350 69340
L160650 69340
" />
<path d="M161154 58604
L161130 58628
L161059 58652
L161011 58652
L160940 58628
L160892 58580
L160869 58533
L160845 58438
L160845 58366
L160869 58271
L160892 58223
L160940 58176
L161011 58152
L161059 58152
L161130 58176
L161154 58200
" />
<path d="M4000 91120
L4700 91120
" />
<path d="M4219 80432
L4219 79932
L4338 79932
L4409 79956
L4457 80003
L4480 80051
L4504 80146
L4504 80218
L4480 80313
L4457 80360
L4409 80408
L4338 80432
L4219 80432
" />
<path d="M161350 91120
L160650 91120
" />
<path d="M160869 80432
L160869 79932
L160988 79932
L161059 79956
L161107 80003
L161130 80051
L161154 80146
L161154 80218
L161130 80313
L161107 80360
L161059 80408
L160988 80432
L160869 80432
" />
<path d="M4242 101950
L4409 101950
" />
<path d="M4480 102212
L4242 102212
L4242 101712
L4480 101712
" />
<path d="M160892 101950
L161059 101950
" />
<path d="M161130 102212
L160892 102212
L160892 101712
L161130 101712
" />
<path d="M127800 110672
L127875 110072
L128017 110072
L128100 110101
L128150 110158
L128171 110215
L128185 110330
L128175 110415
L128132 110530
L128096 110587
L128032 110644
L127942 110672
L127800 110672
" />
<path d="M128657 110672
L128696 110358
L128675 110301
L128621 110272
L128507 110272
L128446 110301
" />
<path d="M128660 110644
L128600 110672
L128457 110672
L128403 110644
L128382 110587
L128389 110530
L128425 110472
L128485 110444
L128628 110444
L128689 110415
" />
<path d="M128907 110272
L129135 110272
" />
<path d="M129017 110072
L128953 110587
L128975 110644
L129028 110672
L129085 110672
" />
<path d="M129517 110644
L129457 110672
L129342 110672
L129289 110644
L129267 110587
L129296 110358
L129332 110301
L129392 110272
L129507 110272
L129560 110301
L129582 110358
L129575 110415
L129282 110472
" />
<path d="M129807 110615
L129832 110644
L129800 110672
L129775 110644
L129807 110615
L129800 110672
" />
<path d="M129846 110301
L129871 110330
L129839 110358
L129814 110330
L129846 110301
L129839 110358
" />
<path d="M130582 110130
L130614 110101
L130675 110072
L130817 110072
L130871 110101
L130896 110130
L130917 110187
L130910 110244
L130871 110330
L130485 110672
L130857 110672
" />
<path d="M131132 110072
L131503 110072
L131275 110301
L131360 110301
L131414 110330
L131439 110358
L131460 110415
L131442 110558
L131407 110615
L131375 110644
L131314 110672
L131142 110672
L131089 110644
L131064 110615
" />
<path d="M132192 110272
L132128 110787
L132092 110844
L132032 110872
L132003 110872
" />
<path d="M132217 110072
L132185 110101
L132210 110130
L132242 110101
L132217 110072
L132210 110130
" />
<path d="M132735 110272
L132685 110672
" />
<path d="M132478 110272
L132439 110587
L132460 110644
L132514 110672
L132600 110672
L132660 110644
L132692 110615
" />
<path d="M133057 110672
L133003 110644
L132982 110587
L133046 110072
" />
<path d="M133782 110130
L133814 110101
L133875 110072
L134017 110072
L134071 110101
L134096 110130
L134117 110187
L134110 110244
L134071 110330
L133685 110672
L134057 110672
" />
<path d="M134503 110072
L134560 110072
L134614 110101
L134639 110130
L134660 110187
L134675 110301
L134657 110444
L134614 110558
L134578 110615
L134546 110644
L134485 110672
L134428 110672
L134375 110644
L134350 110615
L134328 110558
L134314 110444
L134332 110301
L134375 110187
L134410 110130
L134442 110101
L134503 110072
" />
<path d="M135200 110672
L134857 110672
" />
<path d="M135028 110672
L135103 110072
L135035 110158
L134971 110215
L134910 110244
" />
<path d="M135817 110072
L135532 110072
L135467 110358
L135500 110330
L135560 110301
L135703 110301
L135757 110330
L135782 110358
L135803 110415
L135785 110558
L135750 110615
L135717 110644
L135657 110672
L135514 110672
L135460 110644
L135435 110615
" />
<path d="M119392 111872
L119392 111272
" />
<path d="M119735 111872
L119478 111530
" />
<path d="M119735 111272
L119392 111615
" />
<path d="M119992 111872
L119992 111472
" />
<path d="M119992 111272
L119964 111301
L119992 111330
L120021 111301
L119992 111272
L119992 111330
" />
<path d="M120621 111815
L120592 111844
L120507 111872
L120450 111872
L120364 111844
L120307 111787
L120278 111730
L120250 111615
L120250 111530
L120278 111415
L120307 111358
L120364 111301
L120450 111272
L120507 111272
L120592 111301
L120621 111330
" />
<path d="M121135 111872
L121135 111558
L121107 111501
L121050 111472
L120935 111472
L120878 111501
" />
<path d="M121135 111844
L121078 111872
L120935 111872
L120878 111844
L120850 111787
L120850 111730
L120878 111672
L120935 111644
L121078 111644
L121135 111615
" />
<path d="M121678 111872
L121678 111272
" />
<path d="M121678 111844
L121621 111872
L121507 111872
L121450 111844
L121421 111815
L121392 111758
L121392 111587
L121421 111530
L121450 111501
L121507 111472
L121621 111472
L121678 111501
" />
<path d="M122421 111558
L122621 111558
" />
<path d="M122707 111872
L122421 111872
L122421 111272
L122707 111272
" />
<path d="M122964 111815
L122992 111844
L122964 111872
L122935 111844
L122964 111815
L122964 111872
" />
<path d="M123249 111872
L123249 111272
L123392 111272
L123478 111301
L123535 111358
L123564 111415
L123592 111530
L123592 111615
L123564 111730
L123535 111787
L123478 111844
L123392 111872
L123249 111872
" />
<path d="M123849 111815
L123878 111844
L123849 111872
L123821 111844
L123849 111815
L123849 111872
" />
<path d="M124107 111701
L124392 111701
" />
<path d="M124049 111872
L124249 111272
L124449 111872
" />
<path d="M124649 111815
L124678 111844
L124649 111872
L124621 111844
L124649 111815
L124649 111872
" />
<path d="M152942 110672
L152778 110387
" />
<path d="M152600 110672
L152675 110072
L152903 110072
L152957 110101
L152982 110130
L153003 110187
L152992 110272
L152957 110330
L152925 110358
L152864 110387
L152635 110387
" />
<path d="M153432 110644
L153371 110672
L153257 110672
L153203 110644
L153182 110587
L153210 110358
L153246 110301
L153307 110272
L153421 110272
L153475 110301
L153496 110358
L153489 110415
L153196 110472
" />
<path d="M153707 110272
L153800 110672
L153992 110272
" />
<path d="M154178 110615
L154203 110644
L154171 110672
L154146 110644
L154178 110615
L154171 110672
" />
<path d="M154217 110301
L154242 110330
L154210 110358
L154185 110330
L154217 110301
L154210 110358
" />
<path d="M119364 110644
L119450 110672
L119592 110672
L119650 110644
L119678 110615
L119707 110558
L119707 110501
L119678 110444
L119650 110415
L119592 110387
L119478 110358
L119421 110330
L119392 110301
L119364 110244
L119364 110187
L119392 110130
L119421 110101
L119478 110072
L119621 110072
L119707 110101
" />
<path d="M119964 110672
L119964 110272
" />
<path d="M119964 110072
L119935 110101
L119964 110130
L119992 110101
L119964 110072
L119964 110130
" />
<path d="M120192 110272
L120507 110272
L120192 110672
L120507 110672
" />
<path d="M120964 110644
L120907 110672
L120792 110672
L120735 110644
L120707 110587
L120707 110358
L120735 110301
L120792 110272
L120907 110272
L120964 110301
L120992 110358
L120992 110415
L120707 110472
" />
<path d="M121250 110615
L121278 110644
L121250 110672
L121221 110644
L121250 110615
L121250 110672
" />
<path d="M121250 110301
L121278 110330
L121250 110358
L121221 110330
L121250 110301
L121250 110358
" />
<path d="M121964 110501
L122250 110501
" />
<path d="M121907 110672
L122107 110072
L122307 110672
" />
<path d="M122450 110072
L122821 110072
L122621 110301
L122707 110301
L122764 110330
L122792 110358
L122821 110415
L122821 110558
L122792 110615
L122764 110644
L122707 110672
L122535 110672
L122478 110644
L122450 110615
" />
<path d="M152592 111872
L152592 111272
" />
<path d="M153135 111872
L153135 111272
" />
<path d="M153135 111844
L153078 111872
L152964 111872
L152907 111844
L152878 111815
L152850 111758
L152850 111587
L152878 111530
L152907 111501
L152964 111472
L153078 111472
L153135 111501
" />
<path d="M153421 111815
L153450 111844
L153421 111872
L153392 111844
L153421 111815
L153421 111872
" />
<path d="M153421 111501
L153450 111530
L153421 111558
L153392 111530
L153421 111501
L153421 111558
" />
<path d="M154478 111872
L154135 111872
" />
<path d="M154307 111872
L154307 111272
L154249 111358
L154192 111415
L154135 111444
" />
<path d="M155164 111244
L154650 112015
" />
<path d="M155678 111872
L155335 111872
" />
<path d="M155507 111872
L155507 111272
L155449 111358
L155392 111415
L155335 111444
" />
<path d="M119389 108872
L119732 108872
" />
<path d="M119485 109472
L119560 108872
" />
<path d="M119857 109472
L119907 109072
" />
<path d="M119932 108872
L119900 108901
L119925 108930
L119957 108901
L119932 108872
L119925 108930
" />
<path d="M120107 109072
L120335 109072
" />
<path d="M120217 108872
L120153 109387
L120175 109444
L120228 109472
L120285 109472
" />
<path d="M120571 109472
L120517 109444
L120496 109387
L120560 108872
" />
<path d="M121032 109444
L120971 109472
L120857 109472
L120803 109444
L120782 109387
L120810 109158
L120846 109101
L120907 109072
L121021 109072
L121075 109101
L121096 109158
L121089 109215
L120796 109272
" />
<path d="M121321 109415
L121346 109444
L121314 109472
L121289 109444
L121321 109415
L121314 109472
" />
<path d="M121360 109101
L121385 109130
L121353 109158
L121328 109130
L121360 109101
L121353 109158
" />
<path d="M119592 106758
L119392 106758
" />
<path d="M119392 107072
L119392 106472
L119678 106472
" />
<path d="M119907 107072
L119907 106672
" />
<path d="M119907 106472
L119878 106501
L119907 106530
L119935 106501
L119907 106472
L119907 106530
" />
<path d="M120278 107072
L120221 107044
L120192 106987
L120192 106472
" />
<path d="M120735 107044
L120678 107072
L120564 107072
L120507 107044
L120478 106987
L120478 106758
L120507 106701
L120564 106672
L120678 106672
L120735 106701
L120764 106758
L120764 106815
L120478 106872
" />
<path d="M121021 107015
L121050 107044
L121021 107072
L120992 107044
L121021 107015
L121021 107072
" />
<path d="M121021 106701
L121050 106730
L121021 106758
L120992 106730
L121021 106701
L121021 106758
" />
<path d="M121764 107072
L121764 106472
L121964 106901
L122164 106472
L122164 107072
" />
<path d="M122564 106472
L122678 106472
L122735 106501
L122792 106558
L122821 106672
L122821 106872
L122792 106987
L122735 107044
L122678 107072
L122564 107072
L122507 107044
L122450 106987
L122421 106872
L122421 106672
L122450 106558
L122507 106501
L122564 106472
" />
<path d="M123078 107072
L123078 106472
L123221 106472
L123307 106501
L123364 106558
L123392 106615
L123421 106730
L123421 106815
L123392 106930
L123364 106987
L123307 107044
L123221 107072
L123078 107072
" />
<path d="M123678 106472
L123678 106958
L123707 107015
L123735 107044
L123792 107072
L123907 107072
L123964 107044
L123992 107015
L124021 106958
L124021 106472
" />
<path d="M124592 107072
L124307 107072
L124307 106472
" />
<path d="M124907 106472
L125021 106472
L125078 106501
L125135 106558
L125164 106672
L125164 106872
L125135 106987
L125078 107044
L125021 107072
L124907 107072
L124849 107044
L124792 106987
L124764 106872
L124764 106672
L124792 106558
L124849 106501
L124907 106472
" />
<path d="M125735 107072
L125392 107072
" />
<path d="M125564 107072
L125564 106472
L125507 106558
L125449 106615
L125392 106644
" />
<path d="M125992 107015
L126021 107044
L125992 107072
L125964 107044
L125992 107015
L125992 107072
" />
<path d="M126278 107072
L126278 106472
" />
<path d="M126335 106844
L126507 107072
" />
<path d="M126507 106672
L126278 106901
" />
<path d="M126764 107072
L126764 106672
" />
<path d="M126764 106472
L126735 106501
L126764 106530
L126792 106501
L126764 106472
L126764 106530
" />
<path d="M127307 107044
L127249 107072
L127135 107072
L127078 107044
L127049 107015
L127021 106958
L127021 106787
L127049 106730
L127078 106701
L127135 106672
L127249 106672
L127307 106701
" />
<path d="M127821 107072
L127821 106758
L127792 106701
L127735 106672
L127621 106672
L127564 106701
" />
<path d="M127821 107044
L127764 107072
L127621 107072
L127564 107044
L127535 106987
L127535 106930
L127564 106872
L127621 106844
L127764 106844
L127821 106815
" />
<path d="M128364 107072
L128364 106472
" />
<path d="M128364 107044
L128307 107072
L128192 107072
L128135 107044
L128107 107015
L128078 106958
L128078 106787
L128107 106730
L128135 106701
L128192 106672
L128307 106672
L128364 106701
" />
<path d="M128507 107130
L128964 107130
" />
<path d="M129107 106672
L129107 107272
" />
<path d="M129107 106701
L129164 106672
L129278 106672
L129335 106701
L129364 106730
L129392 106787
L129392 106958
L129364 107015
L129335 107044
L129278 107072
L129164 107072
L129107 107044
" />
<path d="M129907 107044
L129849 107072
L129735 107072
L129678 107044
L129649 107015
L129621 106958
L129621 106787
L129649 106730
L129678 106701
L129735 106672
L129849 106672
L129907 106701
" />
<path d="M130164 107072
L130164 106472
" />
<path d="M130164 106701
L130221 106672
L130335 106672
L130392 106701
L130421 106730
L130449 106787
L130449 106958
L130421 107015
L130392 107044
L130335 107072
L130221 107072
L130164 107044
" />
<path d="M119364 108244
L119450 108272
L119592 108272
L119650 108244
L119678 108215
L119707 108158
L119707 108101
L119678 108044
L119650 108015
L119592 107987
L119478 107958
L119421 107930
L119392 107901
L119364 107844
L119364 107787
L119392 107730
L119421 107701
L119478 107672
L119621 107672
L119707 107701
" />
<path d="M119964 108272
L119964 107672
" />
<path d="M120221 108272
L120221 107958
L120192 107901
L120135 107872
L120050 107872
L119992 107901
L119964 107930
" />
<path d="M120735 108244
L120678 108272
L120564 108272
L120507 108244
L120478 108187
L120478 107958
L120507 107901
L120564 107872
L120678 107872
L120735 107901
L120764 107958
L120764 108015
L120478 108072
" />
<path d="M121250 108244
L121192 108272
L121078 108272
L121021 108244
L120992 108187
L120992 107958
L121021 107901
L121078 107872
L121192 107872
L121250 107901
L121278 107958
L121278 108015
L120992 108072
" />
<path d="M121450 107872
L121678 107872
" />
<path d="M121535 107672
L121535 108187
L121564 108244
L121621 108272
L121678 108272
" />
<path d="M121878 108215
L121907 108244
L121878 108272
L121850 108244
L121878 108215
L121878 108272
" />
<path d="M121878 107901
L121907 107930
L121878 107958
L121850 107930
L121878 107901
L121878 107958
" />
<path d="M118650 106230
L118650 112230
" />
<path d="M118650 106230
L160650 106230
" />
<path d="M118650 106230
L160650 106230
" />
<path d="M118650 108630
L160650 108630
" />
<path d="M151850 109830
L151850 112230
" />
<path d="M118650 111030
L160650 111030
" />
<path d="M118650 109830
L160650 109830
" />
<path d="M125250 109830
L125250 111030
" />
</g>
<g style="fill:#FFFF00; fill-opacity:0.0; 
stroke:#FFFF00; stroke-width:39.3701; stroke-opacity:1; 
stroke-linecap:round; stroke-linejoin:round;">
<path d="M67000 35000
L67500 35000
" />
<path d="M67000 61000
L67000 35000
" />
<path d="M115500 61000
L67000 61000
" />
<path d="M115500 35000
L115500 61000
" />
<path d="M67000 35000
L115500 35000
" />
</g>
<g style="fill:#7F7F00; fill-opacity:0.0; 
stroke:#7F7F00; stroke-width:39.3701; stroke-opacity:1; 
stroke-linecap:round; stroke-linejoin:round;">
</g>
<g style="fill:#7F7F00; fill-opacity:1.0; 
stroke:#7F7F00; stroke-width:39.3701; stroke-opacity:1; 
stroke-linecap:round; stroke-linejoin:round;">
<circle cx="111000" cy="40000" r="280.315" /> 
<circle cx="110000" cy="39000" r="280.315" /> 
<circle cx="110000" cy="41000" r="280.315" /> 
<circle cx="106500" cy="39000" r="280.315" /> 
<circle cx="106500" cy="40000" r="280.315" /> 
<circle cx="106500" cy="41000" r="280.315" /> 
<circle cx="106500" cy="42000" r="280.315" /> 
<circle cx="106500" cy="43000" r="280.315" /> 
<circle cx="106500" cy="44000" r="280.315" /> 
<circle cx="106500" cy="45000" r="280.315" /> 
<circle cx="106500" cy="46000" r="280.315" /> 
<circle cx="106500" cy="47000" r="280.315" /> 
<circle cx="106500" cy="48000" r="280.315" /> 
<circle cx="106500" cy="49000" r="280.315" /> 
<circle cx="106500" cy="50000" r="280.315" /> 
<circle cx="106500" cy="51000" r="280.315" /> 
<circle cx="106500" cy="52000" r="280.315" /> 
<circle cx="106500" cy="53000" r="280.315" /> 
<circle cx="106500" cy="54000" r="280.315" /> 
<circle cx="106500" cy="55000" r="280.315" /> 
<circle cx="106500" cy="56000" r="280.315" /> 
<circle cx="106500" cy="57000" r="280.315" /> 
<polyline style="fill-rule:evenodd;"
points="106219,37719
106780,37719
106780,38280
106219,38280
106219,37719
" /> 
<polyline style="fill-rule:evenodd;"
points="69719,49719
70280,49719
70280,50280
69719,50280
69719,49719
" /> 
<circle cx="70000" cy="51000" r="280.315" /> 
<circle cx="70000" cy="52000" r="280.315" /> 
<circle cx="70000" cy="53000" r="280.315" /> 
<circle cx="74500" cy="50000" r="280.315" /> 
<circle cx="74500" cy="51000" r="280.315" /> 
<circle cx="74500" cy="52000" r="280.315" /> 
<circle cx="74500" cy="53000" r="280.315" /> 
<circle cx="74500" cy="54000" r="280.315" /> 
<circle cx="74500" cy="55000" r="280.315" /> 
<circle cx="78500" cy="55000" r="280.315" /> 
<circle cx="78500" cy="54000" r="280.315" /> 
<circle cx="78500" cy="53000" r="280.315" /> 
<circle cx="78500" cy="52000" r="280.315" /> 
<circle cx="78500" cy="51000" r="280.315" /> 
<circle cx="78500" cy="50000" r="280.315" /> 
<circle cx="97500" cy="53000" r="255.315" /> 
<circle cx="96500" cy="53000" r="255.315" /> 
<circle cx="95500" cy="53000" r="255.315" /> 
<circle cx="94500" cy="53000" r="255.315" /> 
<circle cx="93500" cy="53000" r="255.315" /> 
<circle cx="92500" cy="53000" r="255.315" /> 
<circle cx="91500" cy="53000" r="255.315" /> 
<circle cx="90500" cy="53000" r="255.315" /> 
<circle cx="89500" cy="53000" r="255.315" /> 
<circle cx="88500" cy="53000" r="255.315" /> 
<circle cx="87500" cy="53000" r="255.315" /> 
<circle cx="86500" cy="53000" r="255.315" /> 
<circle cx="85500" cy="53000" r="255.315" /> 
<polyline style="fill-rule:evenodd;"
points="98755,52744
98755,53255
98244,53255
98244,52744
98755,52744
" /> 
<circle cx="85500" cy="56000" r="255.315" /> 
<circle cx="86500" cy="56000" r="255.315" /> 
<circle cx="87500" cy="56000" r="255.315" /> 
<circle cx="88500" cy="56000" r="255.315" /> 
<circle cx="89500" cy="56000" r="255.315" /> 
<circle cx="90500" cy="56000" r="255.315" /> 
<circle cx="91500" cy="56000" r="255.315" /> 
<circle cx="92500" cy="56000" r="255.315" /> 
<circle cx="93500" cy="56000" r="255.315" /> 
<circle cx="94500" cy="56000" r="255.315" /> 
<circle cx="95500" cy="56000" r="255.315" /> 
<circle cx="96500" cy="56000" r="255.315" /> 
<circle cx="97500" cy="56000" r="255.315" /> 
<circle cx="98500" cy="56000" r="255.315" /> 
</g>
<g style="fill:#BFBFBF; fill-opacity:1.0; 
stroke:#BFBFBF; stroke-width:39.3701; stroke-opacity:1; 
stroke-linecap:round; stroke-linejoin:round;">
<circle cx="113500" cy="42500" r="155.315" /> 
</g>
<g style="fill:#009F00; fill-opacity:1.0; 
stroke:#009F00; stroke-width:100; stroke-opacity:1; 
stroke-linecap:round; stroke-linejoin:round;">
<path d="M106500 38000
L104500 38000
" />
<path d="M104500 38000
L89500 53000
" />
<path d="M106500 57000
L88500 57000
" />
<path d="M88500 57000
L87500 56000
" />
<path d="M106500 54000
L107000 54000
" />
<path d="M111000 50000
L111000 40000
" />
<path d="M107000 54000
L111000 50000
" />
<path d="M107500 56000
L106500 56000
" />
<path d="M113500 50000
L107500 56000
" />
<path d="M113500 42500
L113500 50000
" />
</g>
<g style="fill:#009F00; fill-opacity:1.0; 
stroke:#009F00; stroke-width:39.3701; stroke-opacity:1; 
stroke-linecap:round; stroke-linejoin:round;">
<polyline style="fill-rule:evenodd;"
points="115230,60730
113925,60730
113925,42415
113860,42259
113741,42139
113584,42075
113415,42074
113259,42139
113139,42258
113075,42415
113074,42584
113139,42740
113200,42801
113200,49875
107375,55700
106971,55700
106966,55688
106811,55534
106730,55500
106811,55466
106965,55311
107049,55109
107050,54891
106966,54688
106811,54534
106730,54500
106811,54466
106965,54311
106970,54300
107000,54300
107000,54299
107114,54277
107114,54277
107212,54212
111212,50212
111212,50212
111277,50114
111299,50000
111300,50000
111300,40471
111311,40466
111465,40311
111549,40109
111550,39891
111466,39688
111311,39534
111109,39450
110891,39449
110688,39533
110550,39671
110550,38891
110466,38688
110311,38534
110109,38450
109891,38449
109688,38533
109534,38688
109450,38890
109449,39108
109533,39311
109688,39465
109890,39549
110108,39550
110311,39466
110465,39311
110549,39109
110550,38891
110550,39671
110534,39688
110450,39890
110449,40108
110533,40311
110688,40465
110700,40470
110700,49875
110550,50025
110550,40891
110466,40688
110311,40534
110109,40450
109891,40449
109688,40533
109534,40688
109450,40890
109449,41108
109533,41311
109688,41465
109890,41549
110108,41550
110311,41466
110465,41311
110549,41109
110550,40891
110550,50025
107054,53520
107054,51081
107050,50988
107050,49891
106966,49688
106811,49534
106730,49500
106811,49466
106965,49311
107049,49109
107050,48891
106966,48688
106811,48534
106730,48500
106811,48466
106965,48311
107049,48109
107050,47891
106966,47688
106811,47534
106730,47500
106811,47466
106965,47311
107049,47109
107050,46891
106966,46688
106811,46534
106730,46500
106811,46466
106965,46311
107049,46109
107050,45891
106966,45688
106811,45534
106730,45500
106811,45466
106965,45311
107049,45109
107050,44891
106966,44688
106811,44534
106730,44500
106811,44466
106965,44311
107049,44109
107050,43891
106966,43688
106811,43534
106730,43500
106811,43466
106965,43311
107049,43109
107050,42891
106966,42688
106811,42534
106730,42500
106811,42466
106965,42311
107049,42109
107050,41891
106966,41688
106811,41534
106730,41500
106811,41466
106965,41311
107049,41109
107050,40891
106966,40688
106811,40534
106730,40500
106811,40466
106965,40311
107049,40109
107050,39891
106966,39688
106811,39534
106730,39500
106811,39466
106965,39311
107049,39109
107050,38891
106966,38688
106827,38550
106849,38550
106941,38512
107011,38441
107049,38349
107050,38250
107050,37650
107012,37558
106941,37488
106849,37450
106750,37449
106150,37449
106058,37487
105988,37558
105950,37650
105950,37700
104500,37700
104385,37722
104287,37787
89600,52475
89396,52474
89203,52554
89055,52702
88999,52835
88945,52703
88797,52555
88604,52475
88396,52474
88203,52554
88055,52702
87999,52835
87945,52703
87797,52555
87604,52475
87396,52474
87203,52554
87055,52702
86999,52835
86945,52703
86797,52555
86604,52475
86396,52474
86203,52554
86055,52702
85999,52835
85945,52703
85797,52555
85604,52475
85396,52474
85203,52554
85055,52702
84975,52895
84974,53103
85054,53297
85202,53444
85395,53524
85603,53525
85797,53445
85944,53297
86000,53164
86054,53297
86202,53444
86395,53524
86603,53525
86797,53445
86944,53297
87000,53164
87054,53297
87202,53444
87395,53524
87603,53525
87797,53445
87944,53297
88000,53164
88054,53297
88202,53444
88395,53524
88603,53525
88797,53445
88944,53297
89000,53164
89054,53297
89202,53444
89395,53524
89603,53525
89797,53445
89944,53297
90000,53164
90054,53297
90202,53444
90395,53524
90603,53525
90797,53445
90944,53297
91000,53164
91054,53297
91202,53444
91395,53524
91603,53525
91797,53445
91944,53297
92000,53164
92054,53297
92202,53444
92395,53524
92603,53525
92797,53445
92944,53297
93000,53164
93054,53297
93202,53444
93395,53524
93603,53525
93797,53445
93944,53297
94000,53164
94054,53297
94202,53444
94395,53524
94603,53525
94797,53445
94944,53297
95000,53164
95054,53297
95202,53444
95395,53524
95603,53525
95797,53445
95944,53297
96000,53164
96054,53297
96202,53444
96395,53524
96603,53525
96797,53445
96944,53297
97000,53164
97054,53297
97202,53444
97395,53524
97603,53525
97797,53445
97944,53297
97974,53225
97974,53225
97975,53324
98013,53416
98083,53487
98175,53525
98387,53525
98450,53462
98450,53050
98442,53050
98442,52950
98450,52950
98450,52537
98387,52475
98175,52474
98083,52512
98013,52583
97975,52675
97974,52774
97974,52774
97945,52703
97797,52555
97604,52475
97396,52474
97203,52554
97055,52702
96999,52835
96945,52703
96797,52555
96604,52475
96396,52474
96203,52554
96055,52702
95999,52835
95945,52703
95797,52555
95604,52475
95396,52474
95203,52554
95055,52702
94999,52835
94945,52703
94797,52555
94604,52475
94396,52474
94203,52554
94055,52702
93999,52835
93945,52703
93797,52555
93604,52475
93396,52474
93203,52554
93055,52702
92999,52835
92945,52703
92797,52555
92604,52475
92396,52474
92203,52554
92055,52702
91999,52835
91945,52703
91797,52555
91604,52475
91396,52474
91203,52554
91055,52702
90999,52835
90945,52703
90797,52555
90604,52475
90449,52474
104624,38300
105949,38300
105949,38349
105987,38441
106058,38511
106150,38549
106172,38549
106034,38688
105950,38890
105949,39108
106033,39311
106188,39465
106269,39499
106188,39533
106034,39688
105950,39890
105949,40108
106033,40311
106188,40465
106269,40499
106188,40533
106034,40688
105950,40890
105949,41108
106033,41311
106188,41465
106269,41499
106188,41533
106034,41688
105950,41890
105949,42108
106033,42311
106188,42465
106269,42499
106188,42533
106034,42688
105950,42890
105949,43108
106033,43311
106188,43465
106269,43499
106188,43533
106034,43688
105950,43890
105949,44108
106033,44311
106188,44465
106269,44499
106188,44533
106034,44688
105950,44890
105949,45108
106033,45311
106188,45465
106269,45499
106188,45533
106034,45688
105950,45890
105949,46108
106033,46311
106188,46465
106269,46499
106188,46533
106034,46688
105950,46890
105949,47108
106033,47311
106188,47465
106269,47499
106188,47533
106034,47688
105950,47890
105949,48108
106033,48311
106188,48465
106269,48499
106188,48533
106034,48688
105950,48890
105949,49108
106033,49311
106188,49465
106269,49499
106188,49533
106034,49688
105950,49890
105949,50108
106033,50311
106188,50465
106263,50497
106212,50518
106184,50614
106500,50929
106815,50614
106787,50518
106732,50499
106811,50466
106965,50311
107049,50109
107050,49891
107050,50988
107043,50863
106981,50712
106885,50684
106570,51000
106885,51315
106981,51287
107054,51081
107054,53520
106926,53648
106811,53534
106730,53500
106811,53466
106965,53311
107049,53109
107050,52891
106966,52688
106811,52534
106730,52500
106811,52466
106965,52311
107049,52109
107050,51891
106966,51688
106811,51534
106736,51502
106787,51481
106815,51385
106500,51070
106429,51141
106429,51000
106114,50684
106018,50712
105945,50918
105956,51136
106018,51287
106114,51315
106429,51000
106429,51141
106184,51385
106212,51481
106267,51500
106188,51533
106034,51688
105950,51890
105949,52108
106033,52311
106188,52465
106269,52499
106188,52533
106034,52688
105950,52890
105949,53108
106033,53311
106188,53465
106269,53499
106188,53533
106034,53688
105950,53890
105949,54108
106033,54311
106188,54465
106269,54499
106188,54533
106034,54688
105950,54890
105949,55108
106033,55311
106188,55465
106269,55499
106188,55533
106034,55688
105950,55890
105949,56108
106033,56311
106188,56465
106269,56499
106188,56533
106034,56688
106029,56700
88624,56700
88449,56524
88603,56525
88797,56445
88944,56297
89000,56164
89054,56297
89202,56444
89395,56524
89603,56525
89797,56445
89944,56297
90000,56164
90054,56297
90202,56444
90395,56524
90603,56525
90797,56445
90944,56297
91000,56164
91054,56297
91202,56444
91395,56524
91603,56525
91797,56445
91944,56297
92000,56164
92054,56297
92202,56444
92395,56524
92603,56525
92797,56445
92944,56297
93000,56164
93054,56297
93202,56444
93395,56524
93603,56525
93797,56445
93944,56297
94000,56164
94054,56297
94202,56444
94395,56524
94603,56525
94797,56445
94944,56297
95000,56164
95054,56297
95202,56444
95395,56524
95603,56525
95797,56445
95944,56297
96000,56164
96054,56297
96202,56444
96395,56524
96603,56525
96797,56445
96944,56297
97000,56164
97054,56297
97202,56444
97395,56524
97603,56525
97797,56445
97944,56297
98000,56164
98054,56297
98202,56444
98395,56524
98603,56525
98797,56445
98944,56297
99024,56104
99025,55896
99025,55895
99025,53225
99025,52774
99024,52675
98986,52583
98916,52512
98824,52474
98612,52475
98550,52537
98550,52950
98962,52950
99025,52887
99025,52774
99025,53225
99025,53112
98962,53050
98550,53050
98550,53462
98612,53525
98824,53525
98916,53487
98986,53416
99024,53324
99025,53225
99025,55895
98945,55703
98797,55555
98604,55475
98396,55474
98203,55554
98055,55702
97999,55835
97945,55703
97797,55555
97604,55475
97396,55474
97203,55554
97055,55702
96999,55835
96945,55703
96797,55555
96604,55475
96396,55474
96203,55554
96055,55702
95999,55835
95945,55703
95797,55555
95604,55475
95396,55474
95203,55554
95055,55702
94999,55835
94945,55703
94797,55555
94604,55475
94396,55474
94203,55554
94055,55702
93999,55835
93945,55703
93797,55555
93604,55475
93396,55474
93203,55554
93055,55702
92999,55835
92945,55703
92797,55555
92604,55475
92396,55474
92203,55554
92055,55702
91999,55835
91945,55703
91797,55555
91604,55475
91396,55474
91203,55554
91055,55702
90999,55835
90945,55703
90797,55555
90604,55475
90396,55474
90203,55554
90055,55702
89999,55835
89945,55703
89797,55555
89604,55475
89396,55474
89203,55554
89055,55702
88999,55835
88945,55703
88797,55555
88604,55475
88396,55474
88203,55554
88055,55702
87999,55835
87945,55703
87797,55555
87604,55475
87396,55474
87203,55554
87055,55702
86999,55835
86945,55703
86797,55555
86604,55475
86396,55474
86203,55554
86055,55702
85999,55835
85945,55703
85797,55555
85604,55475
85396,55474
85203,55554
85055,55702
84975,55895
84974,56103
85054,56297
85202,56444
85395,56524
85603,56525
85797,56445
85944,56297
86000,56164
86054,56297
86202,56444
86395,56524
86603,56525
86797,56445
86944,56297
87000,56164
87054,56297
87202,56444
87395,56524
87600,56525
88287,57212
88287,57212
88385,57277
88500,57300
106028,57300
106033,57311
106188,57465
106390,57549
106608,57550
106811,57466
106965,57311
107049,57109
107050,56891
106966,56688
106811,56534
106730,56500
106811,56466
106965,56311
106970,56300
107500,56300
107500,56299
107614,56277
107614,56277
107712,56212
113712,50212
113712,50212
113777,50114
113799,50000
113800,50000
113800,42801
113860,42741
113924,42584
113925,42415
113925,60730
79050,60730
79050,54891
78966,54688
78811,54534
78730,54500
78811,54466
78965,54311
79049,54109
79050,53891
78966,53688
78811,53534
78730,53500
78811,53466
78965,53311
79049,53109
79050,52891
78966,52688
78811,52534
78730,52500
78811,52466
78965,52311
79049,52109
79050,51891
78966,51688
78811,51534
78730,51500
78811,51466
78965,51311
79049,51109
79050,50891
78966,50688
78811,50534
78730,50500
78811,50466
78965,50311
79049,50109
79050,49891
78966,49688
78811,49534
78609,49450
78391,49449
78188,49533
78034,49688
77950,49890
77949,50108
78033,50311
78188,50465
78269,50499
78188,50533
78034,50688
77950,50890
77949,51108
78033,51311
78188,51465
78269,51499
78188,51533
78034,51688
77950,51890
77949,52108
78033,52311
78188,52465
78269,52499
78188,52533
78034,52688
77950,52890
77949,53108
78033,53311
78188,53465
78269,53499
78188,53533
78034,53688
77950,53890
77949,54108
78033,54311
78188,54465
78269,54499
78188,54533
78034,54688
77950,54890
77949,55108
78033,55311
78188,55465
78390,55549
78608,55550
78811,55466
78965,55311
79049,55109
79050,54891
79050,60730
75050,60730
75050,54891
74966,54688
74811,54534
74730,54500
74811,54466
74965,54311
75049,54109
75050,53891
74966,53688
74811,53534
74730,53500
74811,53466
74965,53311
75049,53109
75050,52891
74966,52688
74811,52534
74730,52500
74811,52466
74965,52311
75049,52109
75050,51891
74966,51688
74811,51534
74730,51500
74811,51466
74965,51311
75049,51109
75050,50891
74966,50688
74811,50534
74730,50500
74811,50466
74965,50311
75049,50109
75050,49891
74966,49688
74811,49534
74609,49450
74391,49449
74188,49533
74034,49688
73950,49890
73949,50108
74033,50311
74188,50465
74269,50499
74188,50533
74034,50688
73950,50890
73949,51108
74033,51311
74188,51465
74269,51499
74188,51533
74034,51688
73950,51890
73949,52108
74033,52311
74188,52465
74269,52499
74188,52533
74034,52688
73950,52890
73949,53108
74033,53311
74188,53465
74269,53499
74188,53533
74034,53688
73950,53890
73949,54108
74033,54311
74188,54465
74269,54499
74188,54533
74034,54688
73950,54890
73949,55108
74033,55311
74188,55465
74390,55549
74608,55550
74811,55466
74965,55311
75049,55109
75050,54891
75050,60730
70550,60730
70550,52891
70466,52688
70311,52534
70230,52500
70311,52466
70465,52311
70549,52109
70550,51891
70466,51688
70311,51534
70230,51500
70311,51466
70465,51311
70549,51109
70550,50891
70466,50688
70327,50550
70349,50550
70441,50512
70511,50441
70549,50349
70550,50250
70550,49650
70512,49558
70441,49488
70349,49450
70250,49449
69650,49449
69558,49487
69488,49558
69450,49650
69449,49749
69449,50349
69487,50441
69558,50511
69650,50549
69672,50549
69534,50688
69450,50890
69449,51108
69533,51311
69688,51465
69769,51499
69688,51533
69534,51688
69450,51890
69449,52108
69533,52311
69688,52465
69769,52499
69688,52533
69534,52688
69450,52890
69449,53108
69533,53311
69688,53465
69890,53549
70108,53550
70311,53466
70465,53311
70549,53109
70550,52891
70550,60730
67269,60730
67269,35269
67500,35269
115230,35269
115230,60730
" /> 
</g>
<g style="fill:#009F00; fill-opacity:0.0; 
stroke:#009F00; stroke-width:100; stroke-opacity:1; 
stroke-linecap:round; stroke-linejoin:round;">
<polyline fill="none;"
points="115230,60730
113925,60730
113925,42415
113860,42259
113741,42139
113584,42075
113415,42074
113259,42139
113139,42258
113075,42415
113074,42584
113139,42740
113200,42801
113200,49875
107375,55700
106971,55700
106966,55688
106811,55534
106730,55500
106811,55466
106965,55311
107049,55109
107050,54891
106966,54688
106811,54534
106730,54500
106811,54466
106965,54311
106970,54300
107000,54300
107000,54299
107114,54277
107114,54277
107212,54212
111212,50212
111212,50212
111277,50114
111299,50000
111300,50000
111300,40471
111311,40466
111465,40311
111549,40109
111550,39891
111466,39688
111311,39534
111109,39450
110891,39449
110688,39533
110550,39671
110550,38891
110466,38688
110311,38534
110109,38450
109891,38449
109688,38533
109534,38688
109450,38890
109449,39108
109533,39311
109688,39465
109890,39549
110108,39550
110311,39466
110465,39311
110549,39109
110550,38891
110550,39671
110534,39688
110450,39890
110449,40108
110533,40311
110688,40465
110700,40470
110700,49875
110550,50025
110550,40891
110466,40688
110311,40534
110109,40450
109891,40449
109688,40533
109534,40688
109450,40890
109449,41108
109533,41311
109688,41465
109890,41549
110108,41550
110311,41466
110465,41311
110549,41109
110550,40891
110550,50025
107054,53520
107054,51081
107050,50988
107050,49891
106966,49688
106811,49534
106730,49500
106811,49466
106965,49311
107049,49109
107050,48891
106966,48688
106811,48534
106730,48500
106811,48466
106965,48311
107049,48109
107050,47891
106966,47688
106811,47534
106730,47500
106811,47466
106965,47311
107049,47109
107050,46891
106966,46688
106811,46534
106730,46500
106811,46466
106965,46311
107049,46109
107050,45891
106966,45688
106811,45534
106730,45500
106811,45466
106965,45311
107049,45109
107050,44891
106966,44688
106811,44534
106730,44500
106811,44466
106965,44311
107049,44109
107050,43891
106966,43688
106811,43534
106730,43500
106811,43466
106965,43311
107049,43109
107050,42891
106966,42688
106811,42534
106730,42500
106811,42466
106965,42311
107049,42109
107050,41891
106966,41688
106811,41534
106730,41500
106811,41466
106965,41311
107049,41109
107050,40891
106966,40688
106811,40534
106730,40500
106811,40466
106965,40311
107049,40109
107050,39891
106966,39688
106811,39534
106730,39500
106811,39466
106965,39311
107049,39109
107050,38891
106966,38688
106827,38550
106849,38550
106941,38512
107011,38441
107049,38349
107050,38250
107050,37650
107012,37558
106941,37488
106849,37450
106750,37449
106150,37449
106058,37487
105988,37558
105950,37650
105950,37700
104500,37700
104385,37722
104287,37787
89600,52475
89396,52474
89203,52554
89055,52702
88999,52835
88945,52703
88797,52555
88604,52475
88396,52474
88203,52554
88055,52702
87999,52835
87945,52703
87797,52555
87604,52475
87396,52474
87203,52554
87055,52702
86999,52835
86945,52703
86797,52555
86604,52475
86396,52474
86203,52554
86055,52702
85999,52835
85945,52703
85797,52555
85604,52475
85396,52474
85203,52554
85055,52702
84975,52895
84974,53103
85054,53297
85202,53444
85395,53524
85603,53525
85797,53445
85944,53297
86000,53164
86054,53297
86202,53444
86395,53524
86603,53525
86797,53445
86944,53297
87000,53164
87054,53297
87202,53444
87395,53524
87603,53525
87797,53445
87944,53297
88000,53164
88054,53297
88202,53444
88395,53524
88603,53525
88797,53445
88944,53297
89000,53164
89054,53297
89202,53444
89395,53524
89603,53525
89797,53445
89944,53297
90000,53164
90054,53297
90202,53444
90395,53524
90603,53525
90797,53445
90944,53297
91000,53164
91054,53297
91202,53444
91395,53524
91603,53525
91797,53445
91944,53297
92000,53164
92054,53297
92202,53444
92395,53524
92603,53525
92797,53445
92944,53297
93000,53164
93054,53297
93202,53444
93395,53524
93603,53525
93797,53445
93944,53297
94000,53164
94054,53297
94202,53444
94395,53524
94603,53525
94797,53445
94944,53297
95000,53164
95054,53297
95202,53444
95395,53524
95603,53525
95797,53445
95944,53297
96000,53164
96054,53297
96202,53444
96395,53524
96603,53525
96797,53445
96944,53297
97000,53164
97054,53297
97202,53444
97395,53524
97603,53525
97797,53445
97944,53297
97974,53225
97974,53225
97975,53324
98013,53416
98083,53487
98175,53525
98387,53525
98450,53462
98450,53050
98442,53050
98442,52950
98450,52950
98450,52537
98387,52475
98175,52474
98083,52512
98013,52583
97975,52675
97974,52774
97974,52774
97945,52703
97797,52555
97604,52475
97396,52474
97203,52554
97055,52702
96999,52835
96945,52703
96797,52555
96604,52475
96396,52474
96203,52554
96055,52702
95999,52835
95945,52703
95797,52555
95604,52475
95396,52474
95203,52554
95055,52702
94999,52835
94945,52703
94797,52555
94604,52475
94396,52474
94203,52554
94055,52702
93999,52835
93945,52703
93797,52555
93604,52475
93396,52474
93203,52554
93055,52702
92999,52835
92945,52703
92797,52555
92604,52475
92396,52474
92203,52554
92055,52702
91999,52835
91945,52703
91797,52555
91604,52475
91396,52474
91203,52554
91055,52702
90999,52835
90945,52703
90797,52555
90604,52475
90449,52474
104624,38300
105949,38300
105949,38349
105987,38441
106058,38511
106150,38549
106172,38549
106034,38688
105950,38890
105949,39108
106033,39311
106188,39465
106269,39499
106188,39533
106034,39688
105950,39890
105949,40108
106033,40311
106188,40465
106269,40499
106188,40533
106034,40688
105950,40890
105949,41108
106033,41311
106188,41465
106269,41499
106188,41533
106034,41688
105950,41890
105949,42108
106033,42311
106188,42465
106269,42499
106188,42533
106034,42688
105950,42890
105949,43108
106033,43311
106188,43465
106269,43499
106188,43533
106034,43688
105950,43890
105949,44108
106033,44311
106188,44465
106269,44499
106188,44533
106034,44688
105950,44890
105949,45108
106033,45311
106188,45465
106269,45499
106188,45533
106034,45688
105950,45890
105949,46108
106033,46311
106188,46465
106269,46499
106188,46533
106034,46688
105950,46890
105949,47108
106033,47311
106188,47465
106269,47499
106188,47533
106034,47688
105950,47890
105949,48108
106033,48311
106188,48465
106269,48499
106188,48533
106034,48688
105950,48890
105949,49108
106033,49311
106188,49465
106269,49499
106188,49533
106034,49688
105950,49890
105949,50108
106033,50311
106188,50465
106263,50497
106212,50518
106184,50614
106500,50929
106815,50614
106787,50518
106732,50499
106811,50466
106965,50311
107049,50109
107050,49891
107050,50988
107043,50863
106981,50712
106885,50684
106570,51000
106885,51315
106981,51287
107054,51081
107054,53520
106926,53648
106811,53534
106730,53500
106811,53466
106965,53311
107049,53109
107050,52891
106966,52688
106811,52534
106730,52500
106811,52466
106965,52311
107049,52109
107050,51891
106966,51688
106811,51534
106736,51502
106787,51481
106815,51385
106500,51070
106429,51141
106429,51000
106114,50684
106018,50712
105945,50918
105956,51136
106018,51287
106114,51315
106429,51000
106429,51141
106184,51385
106212,51481
106267,51500
106188,51533
106034,51688
105950,51890
105949,52108
106033,52311
106188,52465
106269,52499
106188,52533
106034,52688
105950,52890
105949,53108
106033,53311
106188,53465
106269,53499
106188,53533
106034,53688
105950,53890
105949,54108
106033,54311
106188,54465
106269,54499
106188,54533
106034,54688
105950,54890
105949,55108
106033,55311
106188,55465
106269,55499
106188,55533
106034,55688
105950,55890
105949,56108
106033,56311
106188,56465
106269,56499
106188,56533
106034,56688
106029,56700
88624,56700
88449,56524
88603,56525
88797,56445
88944,56297
89000,56164
89054,56297
89202,56444
89395,56524
89603,56525
89797,56445
89944,56297
90000,56164
90054,56297
90202,56444
90395,56524
90603,56525
90797,56445
90944,56297
91000,56164
91054,56297
91202,56444
91395,56524
91603,56525
91797,56445
91944,56297
92000,56164
92054,56297
92202,56444
92395,56524
92603,56525
92797,56445
92944,56297
93000,56164
93054,56297
93202,56444
93395,56524
93603,56525
93797,56445
93944,56297
94000,56164
94054,56297
94202,56444
94395,56524
94603,56525
94797,56445
94944,56297
95000,56164
95054,56297
95202,56444
95395,56524
95603,56525
95797,56445
95944,56297
96000,56164
96054,56297
96202,56444
96395,56524
96603,56525
96797,56445
96944,56297
97000,56164
97054,56297
97202,56444
97395,56524
97603,56525
97797,56445
97944,56297
98000,56164
98054,56297
98202,56444
98395,56524
98603,56525
98797,56445
98944,56297
99024,56104
99025,55896
99025,55895
99025,53225
99025,52774
99024,52675
98986,52583
98916,52512
98824,52474
98612,52475
98550,52537
98550,52950
98962,52950
99025,52887
99025,52774
99025,53225
99025,53112
98962,53050
98550,53050
98550,53462
98612,53525
98824,53525
98916,53487
98986,53416
99024,53324
99025,53225
99025,55895
98945,55703
98797,55555
98604,55475
98396,55474
98203,55554
98055,55702
97999,55835
97945,55703
97797,55555
97604,55475
97396,55474
97203,55554
97055,55702
96999,55835
96945,55703
96797,55555
96604,55475
96396,55474
96203,55554
96055,55702
95999,55835
95945,55703
95797,55555
95604,55475
95396,55474
95203,55554
95055,55702
94999,55835
94945,55703
94797,55555
94604,55475
94396,55474
94203,55554
94055,55702
93999,55835
93945,55703
93797,55555
93604,55475
93396,55474
93203,55554
93055,55702
92999,55835
92945,55703
92797,55555
92604,55475
92396,55474
92203,55554
92055,55702
91999,55835
91945,55703
91797,55555
91604,55475
91396,55474
91203,55554
91055,55702
90999,55835
90945,55703
90797,55555
90604,55475
90396,55474
90203,55554
90055,55702
89999,55835
89945,55703
89797,55555
89604,55475
89396,55474
89203,55554
89055,55702
88999,55835
88945,55703
88797,55555
88604,55475
88396,55474
88203,55554
88055,55702
87999,55835
87945,55703
87797,55555
87604,55475
87396,55474
87203,55554
87055,55702
86999,55835
86945,55703
86797,55555
86604,55475
86396,55474
86203,55554
86055,55702
85999,55835
85945,55703
85797,55555
85604,55475
85396,55474
85203,55554
85055,55702
84975,55895
84974,56103
85054,56297
85202,56444
85395,56524
85603,56525
85797,56445
85944,56297
86000,56164
86054,56297
86202,56444
86395,56524
86603,56525
86797,56445
86944,56297
87000,56164
87054,56297
87202,56444
87395,56524
87600,56525
88287,57212
88287,57212
88385,57277
88500,57300
106028,57300
106033,57311
106188,57465
106390,57549
106608,57550
106811,57466
106965,57311
107049,57109
107050,56891
106966,56688
106811,56534
106730,56500
106811,56466
106965,56311
106970,56300
107500,56300
107500,56299
107614,56277
107614,56277
107712,56212
113712,50212
113712,50212
113777,50114
113799,50000
113800,50000
113800,42801
113860,42741
113924,42584
113925,42415
113925,60730
79050,60730
79050,54891
78966,54688
78811,54534
78730,54500
78811,54466
78965,54311
79049,54109
79050,53891
78966,53688
78811,53534
78730,53500
78811,53466
78965,53311
79049,53109
79050,52891
78966,52688
78811,52534
78730,52500
78811,52466
78965,52311
79049,52109
79050,51891
78966,51688
78811,51534
78730,51500
78811,51466
78965,51311
79049,51109
79050,50891
78966,50688
78811,50534
78730,50500
78811,50466
78965,50311
79049,50109
79050,49891
78966,49688
78811,49534
78609,49450
78391,49449
78188,49533
78034,49688
77950,49890
77949,50108
78033,50311
78188,50465
78269,50499
78188,50533
78034,50688
77950,50890
77949,51108
78033,51311
78188,51465
78269,51499
78188,51533
78034,51688
77950,51890
77949,52108
78033,52311
78188,52465
78269,52499
78188,52533
78034,52688
77950,52890
77949,53108
78033,53311
78188,53465
78269,53499
78188,53533
78034,53688
77950,53890
77949,54108
78033,54311
78188,54465
78269,54499
78188,54533
78034,54688
77950,54890
77949,55108
78033,55311
78188,55465
78390,55549
78608,55550
78811,55466
78965,55311
79049,55109
79050,54891
79050,60730
75050,60730
75050,54891
74966,54688
74811,54534
74730,54500
74811,54466
74965,54311
75049,54109
75050,53891
74966,53688
74811,53534
74730,53500
74811,53466
74965,53311
75049,53109
75050,52891
74966,52688
74811,52534
74730,52500
74811,52466
74965,52311
75049,52109
75050,51891
74966,51688
74811,51534
74730,51500
74811,51466
74965,51311
75049,51109
75050,50891
74966,50688
74811,50534
74730,50500
74811,50466
74965,50311
75049,50109
75050,49891
74966,49688
74811,49534
74609,49450
74391,49449
74188,49533
74034,49688
73950,49890
73949,50108
74033,50311
74188,50465
74269,50499
74188,50533
74034,50688
73950,50890
73949,51108
74033,51311
74188,51465
74269,51499
74188,51533
74034,51688
73950,51890
73949,52108
74033,52311
74188,52465
74269,52499
74188,52533
74034,52688
73950,52890
73949,53108
74033,53311
74188,53465
74269,53499
74188,53533
74034,53688
73950,53890
73949,54108
74033,54311
74188,54465
74269,54499
74188,54533
74034,54688
73950,54890
73949,55108
74033,55311
74188,55465
74390,55549
74608,55550
74811,55466
74965,55311
75049,55109
75050,54891
75050,60730
70550,60730
70550,52891
70466,52688
70311,52534
70230,52500
70311,52466
70465,52311
70549,52109
70550,51891
70466,51688
70311,51534
70230,51500
70311,51466
70465,51311
70549,51109
70550,50891
70466,50688
70327,50550
70349,50550
70441,50512
70511,50441
70549,50349
70550,50250
70550,49650
70512,49558
70441,49488
70349,49450
70250,49449
69650,49449
69558,49487
69488,49558
69450,49650
69449,49749
69449,50349
69487,50441
69558,50511
69650,50549
69672,50549
69534,50688
69450,50890
69449,51108
69533,51311
69688,51465
69769,51499
69688,51533
69534,51688
69450,51890
69449,52108
69533,52311
69688,52465
69769,52499
69688,52533
69534,52688
69450,52890
69449,53108
69533,53311
69688,53465
69890,53549
70108,53550
70311,53466
70465,53311
70549,53109
70550,52891
70550,60730
67269,60730
67269,35269
67500,35269
115230,35269
115230,60730
" /> 
</g>
<g style="fill:#FFFFFF; fill-opacity:0.0; 
stroke:#FFFFFF; stroke-width:39.3701; stroke-opacity:1; 
stroke-linecap:round; stroke-linejoin:round;">
</g>
<g style="fill:#FFFFFF; fill-opacity:1.0; 
stroke:#FFFFFF; stroke-width:39.3701; stroke-opacity:1; 
stroke-linecap:round; stroke-linejoin:round;">
<circle cx="113500" cy="42500" r="105.315" /> 
<circle cx="111000" cy="40000" r="180.315" /> 
<circle cx="110000" cy="39000" r="180.315" /> 
<circle cx="110000" cy="41000" r="180.315" /> 
<circle cx="106500" cy="39000" r="180.315" /> 
<circle cx="106500" cy="40000" r="180.315" /> 
<circle cx="106500" cy="41000" r="180.315" /> 
<circle cx="106500" cy="42000" r="180.315" /> 
<circle cx="106500" cy="43000" r="180.315" /> 
<circle cx="106500" cy="44000" r="180.315" /> 
<circle cx="106500" cy="45000" r="180.315" /> 
<circle cx="106500" cy="46000" r="180.315" /> 
<circle cx="106500" cy="47000" r="180.315" /> 
<circle cx="106500" cy="48000" r="180.315" /> 
<circle cx="106500" cy="49000" r="180.315" /> 
<circle cx="106500" cy="50000" r="180.315" /> 
<circle cx="106500" cy="51000" r="180.315" /> 
<circle cx="106500" cy="52000" r="180.315" /> 
<circle cx="106500" cy="53000" r="180.315" /> 
<circle cx="106500" cy="54000" r="180.315" /> 
<circle cx="106500" cy="55000" r="180.315" /> 
<circle cx="106500" cy="56000" r="180.315" /> 
<circle cx="106500" cy="57000" r="180.315" /> 
<circle cx="106500" cy="38000" r="180.315" /> 
<circle cx="70000" cy="50000" r="180.315" /> 
<circle cx="70000" cy="51000" r="180.315" /> 
<circle cx="70000" cy="52000" r="180.315" /> 
<circle cx="70000" cy="53000" r="180.315" /> 
<circle cx="74500" cy="50000" r="180.315" /> 
<circle cx="74500" cy="51000" r="180.315" /> 
<circle cx="74500" cy="52000" r="180.315" /> 
<circle cx="74500" cy="53000" r="180.315" /> 
<circle cx="74500" cy="54000" r="180.315" /> 
<circle cx="74500" cy="55000" r="180.315" /> 
<circle cx="78500" cy="55000" r="180.315" /> 
<circle cx="78500" cy="54000" r="180.315" /> 
<circle cx="78500" cy="53000" r="180.315" /> 
<circle cx="78500" cy="52000" r="180.315" /> 
<circle cx="78500" cy="51000" r="180.315" /> 
<circle cx="78500" cy="50000" r="180.315" /> 
<circle cx="97500" cy="53000" r="140.315" /> 
<circle cx="96500" cy="53000" r="140.315" /> 
<circle cx="95500" cy="53000" r="140.315" /> 
<circle cx="94500" cy="53000" r="140.315" /> 
<circle cx="93500" cy="53000" r="140.315" /> 
<circle cx="92500" cy="53000" r="140.315" /> 
<circle cx="91500" cy="53000" r="140.315" /> 
<circle cx="90500" cy="53000" r="140.315" /> 
<circle cx="89500" cy="53000" r="140.315" /> 
<circle cx="88500" cy="53000" r="140.315" /> 
<circle cx="87500" cy="53000" r="140.315" /> 
<circle cx="86500" cy="53000" r="140.315" /> 
<circle cx="85500" cy="53000" r="140.315" /> 
<circle cx="98500" cy="53000" r="140.315" /> 
<circle cx="85500" cy="56000" r="140.315" /> 
<circle cx="86500" cy="56000" r="140.315" /> 
<circle cx="87500" cy="56000" r="140.315" /> 
<circle cx="88500" cy="56000" r="140.315" /> 
<circle cx="89500" cy="56000" r="140.315" /> 
<circle cx="90500" cy="56000" r="140.315" /> 
<circle cx="91500" cy="56000" r="140.315" /> 
<circle cx="92500" cy="56000" r="140.315" /> 
<circle cx="93500" cy="56000" r="140.315" /> 
<circle cx="94500" cy="56000" r="140.315" /> 
<circle cx="95500" cy="56000" r="140.315" /> 
<circle cx="96500" cy="56000" r="140.315" /> 
<circle cx="97500" cy="56000" r="140.315" /> 
<circle cx="98500" cy="56000" r="140.315" /> 
</g> 
</svg>
