G75*
%MOIN*%
%OFA0B0*%
%FSLAX24Y24*%
%IPPOS*%
%LPD*%
%AMOC8*
5,1,8,0,0,1.08239X$1,22.5*
%
%ADD10C,0.0740*%
%ADD11C,0.0660*%
%ADD12C,0.0520*%
%ADD13C,0.0600*%
D10*
X007640Y004467D03*
X016140Y001567D03*
X017140Y001467D03*
X018140Y001567D03*
X019140Y001467D03*
X020140Y001567D03*
X021140Y001467D03*
X021640Y030467D03*
X022640Y030467D03*
X028140Y030467D03*
X029140Y030467D03*
X034640Y030467D03*
X035640Y030467D03*
X041140Y030467D03*
X042140Y030467D03*
X047640Y030467D03*
X048640Y030467D03*
X015640Y030467D03*
X014640Y030467D03*
X010140Y030467D03*
X009140Y030467D03*
X004140Y030467D03*
X003140Y030467D03*
D11*
X001640Y017467D03*
X005640Y017467D03*
X007640Y017467D03*
X011640Y017467D03*
X013640Y017467D03*
X017640Y017467D03*
X020140Y017467D03*
X024140Y017467D03*
X026640Y017467D03*
X030640Y017467D03*
X033140Y017467D03*
X037140Y017467D03*
X039640Y017467D03*
X043640Y017467D03*
X046140Y016967D03*
X050140Y016967D03*
D12*
X049140Y014727D02*
X049140Y014207D01*
X048140Y014207D02*
X048140Y014727D01*
X047140Y014727D02*
X047140Y014207D01*
X042140Y014227D02*
X042140Y013707D01*
X041140Y013707D02*
X041140Y014227D01*
X040140Y014227D02*
X040140Y013707D01*
X035140Y013727D02*
X035140Y013207D01*
X034140Y013207D02*
X034140Y013727D01*
X033140Y013727D02*
X033140Y013207D01*
X028640Y013207D02*
X028640Y013727D01*
X027640Y013727D02*
X027640Y013207D01*
X026640Y013207D02*
X026640Y013727D01*
X022140Y013707D02*
X022140Y014227D01*
X021140Y014227D02*
X021140Y013707D01*
X020140Y013707D02*
X020140Y014227D01*
X015640Y014227D02*
X015640Y013707D01*
X014640Y013707D02*
X014640Y014227D01*
X013640Y014227D02*
X013640Y013707D01*
X009640Y013707D02*
X009640Y014227D01*
X008640Y014227D02*
X008640Y013707D01*
X007640Y013707D02*
X007640Y014227D01*
X003640Y014227D02*
X003640Y013707D01*
X002640Y013707D02*
X002640Y014227D01*
X001640Y014227D02*
X001640Y013707D01*
X015140Y007727D02*
X015140Y007207D01*
X016140Y007207D02*
X016140Y007727D01*
X017140Y007727D02*
X017140Y007207D01*
X018140Y007207D02*
X018140Y007727D01*
X019140Y007727D02*
X019140Y007207D01*
X020140Y007207D02*
X020140Y007727D01*
X021140Y007727D02*
X021140Y007207D01*
X022140Y007207D02*
X022140Y007727D01*
X022140Y004727D02*
X022140Y004207D01*
X021140Y004207D02*
X021140Y004727D01*
X020140Y004727D02*
X020140Y004207D01*
X019140Y004207D02*
X019140Y004727D01*
X018140Y004727D02*
X018140Y004207D01*
X017140Y004207D02*
X017140Y004727D01*
X016140Y004727D02*
X016140Y004207D01*
X015140Y004207D02*
X015140Y004727D01*
D13*
X013640Y019967D03*
X011640Y019967D03*
X007640Y019967D03*
X005640Y019967D03*
X001640Y019967D03*
X001640Y024967D03*
X001640Y025967D03*
X005640Y025967D03*
X005640Y024967D03*
X007640Y024967D03*
X007640Y025967D03*
X011640Y025967D03*
X011640Y024967D03*
X013640Y024967D03*
X013640Y025967D03*
X017640Y025967D03*
X017640Y024967D03*
X020140Y024967D03*
X020140Y025967D03*
X024140Y025967D03*
X024140Y024967D03*
X026640Y024967D03*
X026640Y025967D03*
X030640Y025967D03*
X030640Y024967D03*
X033140Y024967D03*
X033140Y025967D03*
X037140Y025967D03*
X037140Y024967D03*
X039640Y024967D03*
X039640Y025967D03*
X043640Y025967D03*
X043640Y024967D03*
X046140Y024967D03*
X046140Y025967D03*
X050140Y025967D03*
X050140Y024967D03*
X050140Y019967D03*
X046140Y019967D03*
X043640Y019967D03*
X039640Y019967D03*
X037140Y019967D03*
X033140Y019967D03*
X030640Y019967D03*
X026640Y019967D03*
X024140Y019967D03*
X020140Y019967D03*
X017640Y019967D03*
M02*
