G75*
%MOIN*%
%OFA0B0*%
%FSLAX24Y24*%
%IPPOS*%
%LPD*%
%AMOC8*
5,1,8,0,0,1.08239X$1,22.5*
%
%ADD10C,0.0000*%
%ADD11C,0.0080*%
%ADD12C,0.0010*%
%ADD13C,0.0060*%
%ADD14C,0.0050*%
%ADD15R,0.0200X0.1000*%
%ADD16R,0.0750X0.0300*%
%ADD17C,0.0040*%
D10*
X000352Y000180D02*
X000352Y026550D01*
X029344Y026550D01*
X029344Y000180D01*
X000352Y000180D01*
D11*
X009852Y000930D02*
X010102Y000680D01*
X010602Y000680D01*
X010852Y000930D01*
X011102Y000680D01*
X011602Y000680D01*
X011852Y000930D01*
X012102Y000680D01*
X012602Y000680D01*
X012852Y000930D01*
X013102Y000680D01*
X013602Y000680D01*
X013852Y000930D01*
X014102Y000680D01*
X014602Y000680D01*
X014852Y000930D01*
X015102Y000680D01*
X015602Y000680D01*
X015852Y000930D01*
X015852Y001430D01*
X015602Y001680D01*
X015102Y001680D01*
X014852Y001430D01*
X014602Y001680D01*
X014102Y001680D01*
X013852Y001430D01*
X013602Y001680D01*
X013102Y001680D01*
X012852Y001430D01*
X012602Y001680D01*
X012102Y001680D01*
X011852Y001430D01*
X011602Y001680D01*
X011102Y001680D01*
X010852Y001430D01*
X010602Y001680D01*
X010102Y001680D01*
X009852Y001430D01*
X009852Y000930D01*
X008352Y012180D02*
X013352Y012180D01*
X013352Y019180D01*
X008352Y019180D01*
X008352Y012180D01*
X006352Y012180D02*
X001352Y012180D01*
X001352Y019180D01*
X006352Y019180D01*
X006352Y012180D01*
X015352Y012180D02*
X020352Y012180D01*
X020352Y019180D01*
X015352Y019180D01*
X015352Y012180D01*
X022352Y012180D02*
X027352Y012180D01*
X027352Y019180D01*
X022352Y019180D01*
X022352Y012180D01*
X022852Y020430D02*
X022852Y021930D01*
X021695Y023026D02*
X021695Y025586D01*
X028073Y025586D01*
X028073Y023026D01*
X021695Y023026D01*
X021073Y023026D02*
X021073Y025586D01*
X014695Y025586D01*
X014695Y025979D01*
X021073Y025979D01*
X021073Y025586D01*
X021695Y025586D02*
X021695Y025979D01*
X028073Y025979D01*
X028073Y025586D01*
X021073Y023026D02*
X014695Y023026D01*
X014695Y025586D01*
X014073Y025586D02*
X007695Y025586D01*
X007695Y025979D01*
X014073Y025979D01*
X014073Y025586D01*
X014073Y023026D01*
X007695Y023026D01*
X007695Y025586D01*
X007073Y025586D02*
X000695Y025586D01*
X000695Y025979D01*
X007073Y025979D01*
X007073Y025586D01*
X007073Y023026D01*
X000695Y023026D01*
X000695Y025586D01*
X001852Y021930D02*
X001852Y020430D01*
X008852Y020430D02*
X008852Y021930D01*
X015852Y021930D02*
X015852Y020430D01*
D12*
X015820Y020400D02*
X015892Y020454D01*
X015891Y020453D02*
X015934Y020400D01*
X015979Y020349D01*
X016028Y020301D01*
X016079Y020256D01*
X016133Y020213D01*
X016189Y020174D01*
X016247Y020138D01*
X016307Y020105D01*
X016368Y020076D01*
X016432Y020051D01*
X016496Y020029D01*
X016562Y020010D01*
X016629Y019996D01*
X016696Y019985D01*
X016764Y019978D01*
X016832Y019975D01*
X016901Y019976D01*
X016969Y019981D01*
X017037Y019989D01*
X017104Y020002D01*
X017170Y020018D01*
X017235Y020038D01*
X017300Y020061D01*
X017362Y020088D01*
X017423Y020119D01*
X017482Y020153D01*
X017540Y020190D01*
X017595Y020231D01*
X017647Y020275D01*
X017697Y020321D01*
X017744Y020370D01*
X017789Y020422D01*
X017830Y020476D01*
X017869Y020533D01*
X017904Y020592D01*
X017935Y020652D01*
X017963Y020714D01*
X017988Y020778D01*
X018009Y020843D01*
X018026Y020909D01*
X018040Y020976D01*
X018049Y021044D01*
X018055Y021112D01*
X018057Y021180D01*
X018055Y021248D01*
X018049Y021316D01*
X018040Y021384D01*
X018026Y021451D01*
X018009Y021517D01*
X017988Y021582D01*
X017963Y021646D01*
X017935Y021708D01*
X017904Y021768D01*
X017869Y021827D01*
X017830Y021884D01*
X017789Y021938D01*
X017744Y021990D01*
X017697Y022039D01*
X017647Y022085D01*
X017595Y022129D01*
X017540Y022170D01*
X017482Y022207D01*
X017423Y022241D01*
X017362Y022272D01*
X017300Y022299D01*
X017235Y022322D01*
X017170Y022342D01*
X017104Y022358D01*
X017037Y022371D01*
X016969Y022379D01*
X016901Y022384D01*
X016832Y022385D01*
X016764Y022382D01*
X016696Y022375D01*
X016629Y022364D01*
X016562Y022350D01*
X016496Y022331D01*
X016432Y022309D01*
X016368Y022284D01*
X016307Y022255D01*
X016247Y022222D01*
X016189Y022186D01*
X016133Y022147D01*
X016079Y022104D01*
X016028Y022059D01*
X015979Y022011D01*
X015934Y021960D01*
X015891Y021907D01*
X015820Y021960D01*
X015819Y021961D01*
X015863Y022016D01*
X015911Y022069D01*
X015961Y022120D01*
X016014Y022167D01*
X016069Y022211D01*
X016127Y022253D01*
X016187Y022291D01*
X016248Y022326D01*
X016312Y022357D01*
X016377Y022385D01*
X016444Y022409D01*
X016512Y022430D01*
X016581Y022446D01*
X016651Y022459D01*
X016721Y022468D01*
X016792Y022474D01*
X016863Y022475D01*
X016934Y022472D01*
X017005Y022466D01*
X017075Y022456D01*
X017144Y022442D01*
X017213Y022424D01*
X017281Y022402D01*
X017347Y022377D01*
X017412Y022348D01*
X017475Y022315D01*
X017536Y022279D01*
X017595Y022240D01*
X017652Y022198D01*
X017707Y022153D01*
X017759Y022104D01*
X017808Y022053D01*
X017855Y022000D01*
X017898Y021943D01*
X017938Y021885D01*
X017975Y021824D01*
X018009Y021762D01*
X018039Y021698D01*
X018066Y021632D01*
X018089Y021565D01*
X018108Y021496D01*
X018123Y021427D01*
X018135Y021357D01*
X018143Y021286D01*
X018147Y021215D01*
X018147Y021145D01*
X018143Y021074D01*
X018135Y021003D01*
X018123Y020933D01*
X018108Y020864D01*
X018089Y020795D01*
X018066Y020728D01*
X018039Y020662D01*
X018009Y020598D01*
X017975Y020536D01*
X017938Y020475D01*
X017898Y020417D01*
X017855Y020360D01*
X017808Y020307D01*
X017759Y020256D01*
X017707Y020207D01*
X017652Y020162D01*
X017595Y020120D01*
X017536Y020081D01*
X017475Y020045D01*
X017412Y020012D01*
X017347Y019983D01*
X017281Y019958D01*
X017213Y019936D01*
X017144Y019918D01*
X017075Y019904D01*
X017005Y019894D01*
X016934Y019888D01*
X016863Y019885D01*
X016792Y019886D01*
X016721Y019892D01*
X016651Y019901D01*
X016581Y019914D01*
X016512Y019930D01*
X016444Y019951D01*
X016377Y019975D01*
X016312Y020003D01*
X016248Y020034D01*
X016187Y020069D01*
X016127Y020107D01*
X016069Y020149D01*
X016014Y020193D01*
X015961Y020240D01*
X015911Y020291D01*
X015863Y020344D01*
X015819Y020399D01*
X015826Y020404D01*
X015871Y020349D01*
X015918Y020296D01*
X015969Y020245D01*
X016022Y020198D01*
X016078Y020153D01*
X016136Y020112D01*
X016196Y020074D01*
X016258Y020039D01*
X016322Y020008D01*
X016388Y019981D01*
X016455Y019957D01*
X016524Y019937D01*
X016593Y019920D01*
X016663Y019908D01*
X016734Y019899D01*
X016805Y019895D01*
X016876Y019894D01*
X016947Y019898D01*
X017018Y019905D01*
X017089Y019916D01*
X017158Y019931D01*
X017227Y019950D01*
X017295Y019973D01*
X017361Y019999D01*
X017426Y020029D01*
X017488Y020063D01*
X017549Y020099D01*
X017608Y020140D01*
X017665Y020183D01*
X017719Y020230D01*
X017770Y020279D01*
X017818Y020332D01*
X017864Y020386D01*
X017906Y020444D01*
X017945Y020503D01*
X017981Y020565D01*
X018014Y020628D01*
X018042Y020693D01*
X018068Y020760D01*
X018089Y020828D01*
X018107Y020897D01*
X018120Y020967D01*
X018130Y021038D01*
X018136Y021109D01*
X018138Y021180D01*
X018136Y021251D01*
X018130Y021322D01*
X018120Y021393D01*
X018107Y021463D01*
X018089Y021532D01*
X018068Y021600D01*
X018042Y021667D01*
X018014Y021732D01*
X017981Y021795D01*
X017945Y021857D01*
X017906Y021916D01*
X017864Y021974D01*
X017818Y022028D01*
X017770Y022081D01*
X017719Y022130D01*
X017665Y022177D01*
X017608Y022220D01*
X017549Y022261D01*
X017488Y022297D01*
X017426Y022331D01*
X017361Y022361D01*
X017295Y022387D01*
X017227Y022410D01*
X017158Y022429D01*
X017089Y022444D01*
X017018Y022455D01*
X016947Y022462D01*
X016876Y022466D01*
X016805Y022465D01*
X016734Y022461D01*
X016663Y022452D01*
X016593Y022440D01*
X016524Y022423D01*
X016455Y022403D01*
X016388Y022379D01*
X016322Y022352D01*
X016258Y022321D01*
X016196Y022286D01*
X016136Y022248D01*
X016078Y022207D01*
X016022Y022162D01*
X015969Y022115D01*
X015918Y022064D01*
X015871Y022011D01*
X015826Y021956D01*
X015833Y021950D01*
X015878Y022005D01*
X015925Y022058D01*
X015975Y022108D01*
X016028Y022155D01*
X016083Y022199D01*
X016141Y022241D01*
X016200Y022278D01*
X016262Y022313D01*
X016326Y022344D01*
X016391Y022371D01*
X016458Y022395D01*
X016526Y022415D01*
X016595Y022431D01*
X016664Y022443D01*
X016735Y022452D01*
X016805Y022456D01*
X016876Y022457D01*
X016947Y022453D01*
X017017Y022446D01*
X017087Y022435D01*
X017156Y022420D01*
X017224Y022401D01*
X017292Y022379D01*
X017357Y022353D01*
X017422Y022323D01*
X017484Y022290D01*
X017544Y022253D01*
X017603Y022213D01*
X017659Y022170D01*
X017713Y022124D01*
X017763Y022074D01*
X017812Y022023D01*
X017857Y021968D01*
X017899Y021911D01*
X017938Y021852D01*
X017973Y021791D01*
X018006Y021728D01*
X018034Y021663D01*
X018059Y021597D01*
X018080Y021529D01*
X018098Y021461D01*
X018111Y021391D01*
X018121Y021321D01*
X018127Y021251D01*
X018129Y021180D01*
X018127Y021109D01*
X018121Y021039D01*
X018111Y020969D01*
X018098Y020899D01*
X018080Y020831D01*
X018059Y020763D01*
X018034Y020697D01*
X018006Y020632D01*
X017973Y020569D01*
X017938Y020508D01*
X017899Y020449D01*
X017857Y020392D01*
X017812Y020337D01*
X017763Y020286D01*
X017713Y020236D01*
X017659Y020190D01*
X017603Y020147D01*
X017544Y020107D01*
X017484Y020070D01*
X017422Y020037D01*
X017357Y020007D01*
X017292Y019981D01*
X017224Y019959D01*
X017156Y019940D01*
X017087Y019925D01*
X017017Y019914D01*
X016947Y019907D01*
X016876Y019903D01*
X016805Y019904D01*
X016735Y019908D01*
X016664Y019917D01*
X016595Y019929D01*
X016526Y019945D01*
X016458Y019965D01*
X016391Y019989D01*
X016326Y020016D01*
X016262Y020047D01*
X016200Y020082D01*
X016141Y020119D01*
X016083Y020161D01*
X016028Y020205D01*
X015975Y020252D01*
X015925Y020302D01*
X015878Y020355D01*
X015833Y020410D01*
X015841Y020415D01*
X015885Y020360D01*
X015933Y020307D01*
X015983Y020257D01*
X016036Y020209D01*
X016092Y020165D01*
X016150Y020124D01*
X016210Y020087D01*
X016272Y020052D01*
X016336Y020022D01*
X016402Y019995D01*
X016469Y019971D01*
X016537Y019952D01*
X016607Y019936D01*
X016677Y019924D01*
X016747Y019916D01*
X016818Y019912D01*
X016889Y019913D01*
X016960Y019917D01*
X017031Y019925D01*
X017101Y019937D01*
X017170Y019953D01*
X017238Y019972D01*
X017306Y019996D01*
X017371Y020023D01*
X017435Y020054D01*
X017497Y020088D01*
X017557Y020126D01*
X017615Y020168D01*
X017671Y020212D01*
X017724Y020259D01*
X017774Y020310D01*
X017821Y020363D01*
X017866Y020418D01*
X017907Y020476D01*
X017944Y020536D01*
X017979Y020599D01*
X018010Y020663D01*
X018037Y020728D01*
X018060Y020795D01*
X018080Y020864D01*
X018096Y020933D01*
X018108Y021003D01*
X018116Y021074D01*
X018120Y021144D01*
X018120Y021216D01*
X018116Y021286D01*
X018108Y021357D01*
X018096Y021427D01*
X018080Y021496D01*
X018060Y021565D01*
X018037Y021632D01*
X018010Y021697D01*
X017979Y021761D01*
X017944Y021824D01*
X017907Y021884D01*
X017866Y021942D01*
X017821Y021997D01*
X017774Y022050D01*
X017724Y022101D01*
X017671Y022148D01*
X017615Y022192D01*
X017557Y022234D01*
X017497Y022272D01*
X017435Y022306D01*
X017371Y022337D01*
X017306Y022364D01*
X017238Y022388D01*
X017170Y022407D01*
X017101Y022423D01*
X017031Y022435D01*
X016960Y022443D01*
X016889Y022447D01*
X016818Y022448D01*
X016747Y022444D01*
X016677Y022436D01*
X016607Y022424D01*
X016537Y022408D01*
X016469Y022389D01*
X016402Y022365D01*
X016336Y022338D01*
X016272Y022308D01*
X016210Y022273D01*
X016150Y022236D01*
X016092Y022195D01*
X016036Y022151D01*
X015983Y022103D01*
X015933Y022053D01*
X015885Y022000D01*
X015841Y021945D01*
X015848Y021939D01*
X015892Y021994D01*
X015939Y022047D01*
X015989Y022097D01*
X016042Y022144D01*
X016097Y022188D01*
X016155Y022228D01*
X016214Y022266D01*
X016276Y022300D01*
X016340Y022330D01*
X016405Y022357D01*
X016472Y022380D01*
X016540Y022400D01*
X016608Y022415D01*
X016678Y022427D01*
X016748Y022435D01*
X016819Y022439D01*
X016889Y022438D01*
X016960Y022434D01*
X017030Y022426D01*
X017099Y022414D01*
X017168Y022399D01*
X017236Y022379D01*
X017302Y022356D01*
X017367Y022329D01*
X017431Y022298D01*
X017493Y022264D01*
X017552Y022226D01*
X017610Y022185D01*
X017665Y022141D01*
X017718Y022094D01*
X017767Y022044D01*
X017814Y021992D01*
X017858Y021936D01*
X017899Y021879D01*
X017937Y021819D01*
X017971Y021757D01*
X018001Y021694D01*
X018028Y021629D01*
X018052Y021562D01*
X018071Y021494D01*
X018087Y021425D01*
X018099Y021356D01*
X018107Y021286D01*
X018111Y021215D01*
X018111Y021145D01*
X018107Y021074D01*
X018099Y021004D01*
X018087Y020935D01*
X018071Y020866D01*
X018052Y020798D01*
X018028Y020731D01*
X018001Y020666D01*
X017971Y020603D01*
X017937Y020541D01*
X017899Y020481D01*
X017858Y020424D01*
X017814Y020368D01*
X017767Y020316D01*
X017718Y020266D01*
X017665Y020219D01*
X017610Y020175D01*
X017552Y020134D01*
X017493Y020096D01*
X017431Y020062D01*
X017367Y020031D01*
X017302Y020004D01*
X017236Y019981D01*
X017168Y019961D01*
X017099Y019946D01*
X017030Y019934D01*
X016960Y019926D01*
X016889Y019922D01*
X016819Y019921D01*
X016748Y019925D01*
X016678Y019933D01*
X016608Y019945D01*
X016540Y019960D01*
X016472Y019980D01*
X016405Y020003D01*
X016340Y020030D01*
X016276Y020060D01*
X016214Y020094D01*
X016155Y020132D01*
X016097Y020172D01*
X016042Y020216D01*
X015989Y020263D01*
X015939Y020313D01*
X015892Y020366D01*
X015848Y020421D01*
X015855Y020426D01*
X015899Y020371D01*
X015946Y020319D01*
X015995Y020270D01*
X016048Y020223D01*
X016102Y020180D01*
X016160Y020139D01*
X016219Y020102D01*
X016280Y020068D01*
X016344Y020038D01*
X016408Y020011D01*
X016475Y019988D01*
X016542Y019969D01*
X016610Y019954D01*
X016679Y019942D01*
X016749Y019934D01*
X016819Y019930D01*
X016889Y019931D01*
X016959Y019935D01*
X017028Y019943D01*
X017097Y019954D01*
X017166Y019970D01*
X017233Y019989D01*
X017299Y020013D01*
X017364Y020040D01*
X017427Y020070D01*
X017488Y020104D01*
X017547Y020141D01*
X017605Y020182D01*
X017659Y020226D01*
X017711Y020272D01*
X017761Y020322D01*
X017808Y020374D01*
X017851Y020429D01*
X017892Y020486D01*
X017929Y020545D01*
X017963Y020607D01*
X017993Y020670D01*
X018020Y020735D01*
X018043Y020801D01*
X018062Y020868D01*
X018078Y020936D01*
X018090Y021005D01*
X018098Y021075D01*
X018102Y021145D01*
X018102Y021215D01*
X018098Y021285D01*
X018090Y021355D01*
X018078Y021424D01*
X018062Y021492D01*
X018043Y021559D01*
X018020Y021625D01*
X017993Y021690D01*
X017963Y021753D01*
X017929Y021815D01*
X017892Y021874D01*
X017851Y021931D01*
X017808Y021986D01*
X017761Y022038D01*
X017711Y022088D01*
X017659Y022134D01*
X017605Y022178D01*
X017547Y022219D01*
X017488Y022256D01*
X017427Y022290D01*
X017364Y022320D01*
X017299Y022347D01*
X017233Y022371D01*
X017166Y022390D01*
X017097Y022406D01*
X017028Y022417D01*
X016959Y022425D01*
X016889Y022429D01*
X016819Y022430D01*
X016749Y022426D01*
X016679Y022418D01*
X016610Y022406D01*
X016542Y022391D01*
X016475Y022372D01*
X016408Y022349D01*
X016344Y022322D01*
X016280Y022292D01*
X016219Y022258D01*
X016160Y022221D01*
X016102Y022180D01*
X016048Y022137D01*
X015995Y022090D01*
X015946Y022041D01*
X015899Y021989D01*
X015855Y021934D01*
X015862Y021929D01*
X015906Y021983D01*
X015952Y022035D01*
X016001Y022084D01*
X016053Y022130D01*
X016108Y022173D01*
X016165Y022213D01*
X016224Y022250D01*
X016285Y022284D01*
X016347Y022314D01*
X016412Y022340D01*
X016477Y022363D01*
X016544Y022382D01*
X016612Y022398D01*
X016681Y022409D01*
X016750Y022417D01*
X016819Y022421D01*
X016889Y022420D01*
X016958Y022416D01*
X017027Y022409D01*
X017096Y022397D01*
X017163Y022381D01*
X017230Y022362D01*
X017296Y022339D01*
X017360Y022312D01*
X017423Y022282D01*
X017484Y022248D01*
X017542Y022211D01*
X017599Y022171D01*
X017653Y022128D01*
X017705Y022081D01*
X017754Y022032D01*
X017801Y021980D01*
X017844Y021926D01*
X017884Y021869D01*
X017921Y021810D01*
X017955Y021749D01*
X017985Y021686D01*
X018012Y021622D01*
X018035Y021557D01*
X018054Y021490D01*
X018069Y021422D01*
X018081Y021353D01*
X018089Y021284D01*
X018093Y021215D01*
X018093Y021145D01*
X018089Y021076D01*
X018081Y021007D01*
X018069Y020938D01*
X018054Y020870D01*
X018035Y020803D01*
X018012Y020738D01*
X017985Y020674D01*
X017955Y020611D01*
X017921Y020550D01*
X017884Y020491D01*
X017844Y020434D01*
X017801Y020380D01*
X017754Y020328D01*
X017705Y020279D01*
X017653Y020232D01*
X017599Y020189D01*
X017542Y020149D01*
X017484Y020112D01*
X017423Y020078D01*
X017360Y020048D01*
X017296Y020021D01*
X017230Y019998D01*
X017163Y019979D01*
X017096Y019963D01*
X017027Y019951D01*
X016958Y019944D01*
X016889Y019940D01*
X016819Y019939D01*
X016750Y019943D01*
X016681Y019951D01*
X016612Y019962D01*
X016544Y019978D01*
X016477Y019997D01*
X016412Y020020D01*
X016347Y020046D01*
X016285Y020076D01*
X016224Y020110D01*
X016165Y020147D01*
X016108Y020187D01*
X016053Y020230D01*
X016001Y020276D01*
X015952Y020325D01*
X015906Y020377D01*
X015862Y020431D01*
X015869Y020437D01*
X015913Y020383D01*
X015959Y020332D01*
X016008Y020283D01*
X016059Y020237D01*
X016113Y020194D01*
X016170Y020154D01*
X016228Y020118D01*
X016289Y020084D01*
X016351Y020054D01*
X016415Y020028D01*
X016480Y020006D01*
X016546Y019987D01*
X016614Y019971D01*
X016682Y019960D01*
X016750Y019952D01*
X016819Y019948D01*
X016888Y019949D01*
X016957Y019953D01*
X017026Y019960D01*
X017094Y019972D01*
X017161Y019987D01*
X017228Y020007D01*
X017293Y020030D01*
X017356Y020056D01*
X017419Y020086D01*
X017479Y020119D01*
X017537Y020156D01*
X017594Y020196D01*
X017648Y020239D01*
X017699Y020285D01*
X017748Y020334D01*
X017794Y020386D01*
X017837Y020440D01*
X017877Y020496D01*
X017913Y020555D01*
X017947Y020615D01*
X017977Y020677D01*
X018003Y020741D01*
X018026Y020806D01*
X018045Y020873D01*
X018060Y020940D01*
X018072Y021008D01*
X018080Y021077D01*
X018084Y021145D01*
X018084Y021215D01*
X018080Y021283D01*
X018072Y021352D01*
X018060Y021420D01*
X018045Y021487D01*
X018026Y021554D01*
X018003Y021619D01*
X017977Y021683D01*
X017947Y021745D01*
X017913Y021805D01*
X017877Y021864D01*
X017837Y021920D01*
X017794Y021974D01*
X017748Y022026D01*
X017699Y022075D01*
X017648Y022121D01*
X017594Y022164D01*
X017537Y022204D01*
X017479Y022241D01*
X017419Y022274D01*
X017356Y022304D01*
X017293Y022330D01*
X017228Y022353D01*
X017161Y022373D01*
X017094Y022388D01*
X017026Y022400D01*
X016957Y022407D01*
X016888Y022411D01*
X016819Y022412D01*
X016750Y022408D01*
X016682Y022400D01*
X016614Y022389D01*
X016546Y022373D01*
X016480Y022354D01*
X016415Y022332D01*
X016351Y022306D01*
X016289Y022276D01*
X016228Y022242D01*
X016170Y022206D01*
X016113Y022166D01*
X016059Y022123D01*
X016008Y022077D01*
X015959Y022028D01*
X015913Y021977D01*
X015869Y021923D01*
X015877Y021918D01*
X015920Y021972D01*
X015966Y022023D01*
X016016Y022072D01*
X016067Y022118D01*
X016122Y022161D01*
X016179Y022201D01*
X016237Y022237D01*
X016298Y022271D01*
X016361Y022300D01*
X016425Y022326D01*
X016491Y022348D01*
X016558Y022367D01*
X016625Y022382D01*
X016694Y022393D01*
X016763Y022400D01*
X016832Y022403D01*
X016901Y022402D01*
X016971Y022397D01*
X017039Y022389D01*
X017107Y022376D01*
X017175Y022360D01*
X017241Y022339D01*
X017306Y022316D01*
X017370Y022288D01*
X017432Y022257D01*
X017492Y022222D01*
X017550Y022184D01*
X017606Y022143D01*
X017659Y022099D01*
X017710Y022052D01*
X017758Y022002D01*
X017803Y021949D01*
X017845Y021894D01*
X017884Y021837D01*
X017919Y021777D01*
X017951Y021716D01*
X017980Y021653D01*
X018005Y021588D01*
X018026Y021522D01*
X018044Y021455D01*
X018057Y021387D01*
X018067Y021318D01*
X018073Y021249D01*
X018075Y021180D01*
X018073Y021111D01*
X018067Y021042D01*
X018057Y020973D01*
X018044Y020905D01*
X018026Y020838D01*
X018005Y020772D01*
X017980Y020707D01*
X017951Y020644D01*
X017919Y020583D01*
X017884Y020523D01*
X017845Y020466D01*
X017803Y020411D01*
X017758Y020358D01*
X017710Y020308D01*
X017659Y020261D01*
X017606Y020217D01*
X017550Y020176D01*
X017492Y020138D01*
X017432Y020103D01*
X017370Y020072D01*
X017306Y020044D01*
X017241Y020021D01*
X017175Y020000D01*
X017107Y019984D01*
X017039Y019971D01*
X016971Y019963D01*
X016901Y019958D01*
X016832Y019957D01*
X016763Y019960D01*
X016694Y019967D01*
X016625Y019978D01*
X016558Y019993D01*
X016491Y020012D01*
X016425Y020034D01*
X016361Y020060D01*
X016298Y020089D01*
X016237Y020123D01*
X016179Y020159D01*
X016122Y020199D01*
X016067Y020242D01*
X016016Y020288D01*
X015966Y020337D01*
X015920Y020388D01*
X015877Y020442D01*
X015884Y020448D01*
X015927Y020394D01*
X015973Y020343D01*
X016022Y020294D01*
X016073Y020249D01*
X016127Y020206D01*
X016184Y020167D01*
X016242Y020130D01*
X016302Y020097D01*
X016365Y020068D01*
X016428Y020042D01*
X016494Y020020D01*
X016560Y020002D01*
X016627Y019987D01*
X016695Y019976D01*
X016764Y019969D01*
X016832Y019966D01*
X016901Y019967D01*
X016970Y019972D01*
X017038Y019980D01*
X017106Y019993D01*
X017172Y020009D01*
X017238Y020029D01*
X017303Y020053D01*
X017366Y020080D01*
X017427Y020111D01*
X017487Y020145D01*
X017545Y020183D01*
X017600Y020224D01*
X017653Y020268D01*
X017703Y020315D01*
X017751Y020364D01*
X017796Y020416D01*
X017838Y020471D01*
X017876Y020528D01*
X017911Y020587D01*
X017943Y020648D01*
X017972Y020711D01*
X017996Y020775D01*
X018018Y020841D01*
X018035Y020907D01*
X018048Y020975D01*
X018058Y021043D01*
X018064Y021111D01*
X018066Y021180D01*
X018064Y021249D01*
X018058Y021317D01*
X018048Y021385D01*
X018035Y021453D01*
X018018Y021519D01*
X017996Y021585D01*
X017972Y021649D01*
X017943Y021712D01*
X017911Y021773D01*
X017876Y021832D01*
X017838Y021889D01*
X017796Y021944D01*
X017751Y021996D01*
X017703Y022045D01*
X017653Y022092D01*
X017600Y022136D01*
X017545Y022177D01*
X017487Y022215D01*
X017427Y022249D01*
X017366Y022280D01*
X017303Y022307D01*
X017238Y022331D01*
X017172Y022351D01*
X017106Y022367D01*
X017038Y022380D01*
X016970Y022388D01*
X016901Y022393D01*
X016832Y022394D01*
X016764Y022391D01*
X016695Y022384D01*
X016627Y022373D01*
X016560Y022358D01*
X016494Y022340D01*
X016428Y022318D01*
X016365Y022292D01*
X016302Y022263D01*
X016242Y022230D01*
X016184Y022193D01*
X016127Y022154D01*
X016073Y022111D01*
X016022Y022066D01*
X015973Y022017D01*
X015927Y021966D01*
X015884Y021912D01*
X013310Y023550D02*
X013285Y023525D01*
X013235Y023525D01*
X013210Y023550D01*
X013210Y023575D01*
X013235Y023600D01*
X013285Y023600D01*
X013310Y023575D01*
X013310Y023550D01*
X013285Y023600D02*
X013310Y023625D01*
X013310Y023650D01*
X013285Y023675D01*
X013235Y023675D01*
X013210Y023650D01*
X013210Y023625D01*
X013235Y023600D01*
X013162Y023600D02*
X013137Y023575D01*
X013062Y023575D01*
X013062Y023525D02*
X013062Y023675D01*
X013137Y023675D01*
X013162Y023650D01*
X013162Y023600D01*
X013015Y023675D02*
X012965Y023675D01*
X012990Y023675D02*
X012990Y023550D01*
X012965Y023525D01*
X012940Y023525D01*
X012915Y023550D01*
X008820Y020400D02*
X008892Y020454D01*
X008891Y020453D02*
X008934Y020400D01*
X008979Y020349D01*
X009028Y020301D01*
X009079Y020256D01*
X009133Y020213D01*
X009189Y020174D01*
X009247Y020138D01*
X009307Y020105D01*
X009368Y020076D01*
X009432Y020051D01*
X009496Y020029D01*
X009562Y020010D01*
X009629Y019996D01*
X009696Y019985D01*
X009764Y019978D01*
X009832Y019975D01*
X009901Y019976D01*
X009969Y019981D01*
X010037Y019989D01*
X010104Y020002D01*
X010170Y020018D01*
X010235Y020038D01*
X010300Y020061D01*
X010362Y020088D01*
X010423Y020119D01*
X010482Y020153D01*
X010540Y020190D01*
X010595Y020231D01*
X010647Y020275D01*
X010697Y020321D01*
X010744Y020370D01*
X010789Y020422D01*
X010830Y020476D01*
X010869Y020533D01*
X010904Y020592D01*
X010935Y020652D01*
X010963Y020714D01*
X010988Y020778D01*
X011009Y020843D01*
X011026Y020909D01*
X011040Y020976D01*
X011049Y021044D01*
X011055Y021112D01*
X011057Y021180D01*
X011055Y021248D01*
X011049Y021316D01*
X011040Y021384D01*
X011026Y021451D01*
X011009Y021517D01*
X010988Y021582D01*
X010963Y021646D01*
X010935Y021708D01*
X010904Y021768D01*
X010869Y021827D01*
X010830Y021884D01*
X010789Y021938D01*
X010744Y021990D01*
X010697Y022039D01*
X010647Y022085D01*
X010595Y022129D01*
X010540Y022170D01*
X010482Y022207D01*
X010423Y022241D01*
X010362Y022272D01*
X010300Y022299D01*
X010235Y022322D01*
X010170Y022342D01*
X010104Y022358D01*
X010037Y022371D01*
X009969Y022379D01*
X009901Y022384D01*
X009832Y022385D01*
X009764Y022382D01*
X009696Y022375D01*
X009629Y022364D01*
X009562Y022350D01*
X009496Y022331D01*
X009432Y022309D01*
X009368Y022284D01*
X009307Y022255D01*
X009247Y022222D01*
X009189Y022186D01*
X009133Y022147D01*
X009079Y022104D01*
X009028Y022059D01*
X008979Y022011D01*
X008934Y021960D01*
X008891Y021907D01*
X008820Y021960D01*
X008819Y021961D01*
X008863Y022016D01*
X008911Y022069D01*
X008961Y022120D01*
X009014Y022167D01*
X009069Y022211D01*
X009127Y022253D01*
X009187Y022291D01*
X009248Y022326D01*
X009312Y022357D01*
X009377Y022385D01*
X009444Y022409D01*
X009512Y022430D01*
X009581Y022446D01*
X009651Y022459D01*
X009721Y022468D01*
X009792Y022474D01*
X009863Y022475D01*
X009934Y022472D01*
X010005Y022466D01*
X010075Y022456D01*
X010144Y022442D01*
X010213Y022424D01*
X010281Y022402D01*
X010347Y022377D01*
X010412Y022348D01*
X010475Y022315D01*
X010536Y022279D01*
X010595Y022240D01*
X010652Y022198D01*
X010707Y022153D01*
X010759Y022104D01*
X010808Y022053D01*
X010855Y022000D01*
X010898Y021943D01*
X010938Y021885D01*
X010975Y021824D01*
X011009Y021762D01*
X011039Y021698D01*
X011066Y021632D01*
X011089Y021565D01*
X011108Y021496D01*
X011123Y021427D01*
X011135Y021357D01*
X011143Y021286D01*
X011147Y021215D01*
X011147Y021145D01*
X011143Y021074D01*
X011135Y021003D01*
X011123Y020933D01*
X011108Y020864D01*
X011089Y020795D01*
X011066Y020728D01*
X011039Y020662D01*
X011009Y020598D01*
X010975Y020536D01*
X010938Y020475D01*
X010898Y020417D01*
X010855Y020360D01*
X010808Y020307D01*
X010759Y020256D01*
X010707Y020207D01*
X010652Y020162D01*
X010595Y020120D01*
X010536Y020081D01*
X010475Y020045D01*
X010412Y020012D01*
X010347Y019983D01*
X010281Y019958D01*
X010213Y019936D01*
X010144Y019918D01*
X010075Y019904D01*
X010005Y019894D01*
X009934Y019888D01*
X009863Y019885D01*
X009792Y019886D01*
X009721Y019892D01*
X009651Y019901D01*
X009581Y019914D01*
X009512Y019930D01*
X009444Y019951D01*
X009377Y019975D01*
X009312Y020003D01*
X009248Y020034D01*
X009187Y020069D01*
X009127Y020107D01*
X009069Y020149D01*
X009014Y020193D01*
X008961Y020240D01*
X008911Y020291D01*
X008863Y020344D01*
X008819Y020399D01*
X008826Y020404D01*
X008871Y020349D01*
X008918Y020296D01*
X008969Y020245D01*
X009022Y020198D01*
X009078Y020153D01*
X009136Y020112D01*
X009196Y020074D01*
X009258Y020039D01*
X009322Y020008D01*
X009388Y019981D01*
X009455Y019957D01*
X009524Y019937D01*
X009593Y019920D01*
X009663Y019908D01*
X009734Y019899D01*
X009805Y019895D01*
X009876Y019894D01*
X009947Y019898D01*
X010018Y019905D01*
X010089Y019916D01*
X010158Y019931D01*
X010227Y019950D01*
X010295Y019973D01*
X010361Y019999D01*
X010426Y020029D01*
X010488Y020063D01*
X010549Y020099D01*
X010608Y020140D01*
X010665Y020183D01*
X010719Y020230D01*
X010770Y020279D01*
X010818Y020332D01*
X010864Y020386D01*
X010906Y020444D01*
X010945Y020503D01*
X010981Y020565D01*
X011014Y020628D01*
X011042Y020693D01*
X011068Y020760D01*
X011089Y020828D01*
X011107Y020897D01*
X011120Y020967D01*
X011130Y021038D01*
X011136Y021109D01*
X011138Y021180D01*
X011136Y021251D01*
X011130Y021322D01*
X011120Y021393D01*
X011107Y021463D01*
X011089Y021532D01*
X011068Y021600D01*
X011042Y021667D01*
X011014Y021732D01*
X010981Y021795D01*
X010945Y021857D01*
X010906Y021916D01*
X010864Y021974D01*
X010818Y022028D01*
X010770Y022081D01*
X010719Y022130D01*
X010665Y022177D01*
X010608Y022220D01*
X010549Y022261D01*
X010488Y022297D01*
X010426Y022331D01*
X010361Y022361D01*
X010295Y022387D01*
X010227Y022410D01*
X010158Y022429D01*
X010089Y022444D01*
X010018Y022455D01*
X009947Y022462D01*
X009876Y022466D01*
X009805Y022465D01*
X009734Y022461D01*
X009663Y022452D01*
X009593Y022440D01*
X009524Y022423D01*
X009455Y022403D01*
X009388Y022379D01*
X009322Y022352D01*
X009258Y022321D01*
X009196Y022286D01*
X009136Y022248D01*
X009078Y022207D01*
X009022Y022162D01*
X008969Y022115D01*
X008918Y022064D01*
X008871Y022011D01*
X008826Y021956D01*
X008833Y021950D01*
X008878Y022005D01*
X008925Y022058D01*
X008975Y022108D01*
X009028Y022155D01*
X009083Y022199D01*
X009141Y022241D01*
X009200Y022278D01*
X009262Y022313D01*
X009326Y022344D01*
X009391Y022371D01*
X009458Y022395D01*
X009526Y022415D01*
X009595Y022431D01*
X009664Y022443D01*
X009735Y022452D01*
X009805Y022456D01*
X009876Y022457D01*
X009947Y022453D01*
X010017Y022446D01*
X010087Y022435D01*
X010156Y022420D01*
X010224Y022401D01*
X010292Y022379D01*
X010357Y022353D01*
X010422Y022323D01*
X010484Y022290D01*
X010544Y022253D01*
X010603Y022213D01*
X010659Y022170D01*
X010713Y022124D01*
X010763Y022074D01*
X010812Y022023D01*
X010857Y021968D01*
X010899Y021911D01*
X010938Y021852D01*
X010973Y021791D01*
X011006Y021728D01*
X011034Y021663D01*
X011059Y021597D01*
X011080Y021529D01*
X011098Y021461D01*
X011111Y021391D01*
X011121Y021321D01*
X011127Y021251D01*
X011129Y021180D01*
X011127Y021109D01*
X011121Y021039D01*
X011111Y020969D01*
X011098Y020899D01*
X011080Y020831D01*
X011059Y020763D01*
X011034Y020697D01*
X011006Y020632D01*
X010973Y020569D01*
X010938Y020508D01*
X010899Y020449D01*
X010857Y020392D01*
X010812Y020337D01*
X010763Y020286D01*
X010713Y020236D01*
X010659Y020190D01*
X010603Y020147D01*
X010544Y020107D01*
X010484Y020070D01*
X010422Y020037D01*
X010357Y020007D01*
X010292Y019981D01*
X010224Y019959D01*
X010156Y019940D01*
X010087Y019925D01*
X010017Y019914D01*
X009947Y019907D01*
X009876Y019903D01*
X009805Y019904D01*
X009735Y019908D01*
X009664Y019917D01*
X009595Y019929D01*
X009526Y019945D01*
X009458Y019965D01*
X009391Y019989D01*
X009326Y020016D01*
X009262Y020047D01*
X009200Y020082D01*
X009141Y020119D01*
X009083Y020161D01*
X009028Y020205D01*
X008975Y020252D01*
X008925Y020302D01*
X008878Y020355D01*
X008833Y020410D01*
X008841Y020415D01*
X008885Y020360D01*
X008933Y020307D01*
X008983Y020257D01*
X009036Y020209D01*
X009092Y020165D01*
X009150Y020124D01*
X009210Y020087D01*
X009272Y020052D01*
X009336Y020022D01*
X009402Y019995D01*
X009469Y019971D01*
X009537Y019952D01*
X009607Y019936D01*
X009677Y019924D01*
X009747Y019916D01*
X009818Y019912D01*
X009889Y019913D01*
X009960Y019917D01*
X010031Y019925D01*
X010101Y019937D01*
X010170Y019953D01*
X010238Y019972D01*
X010306Y019996D01*
X010371Y020023D01*
X010435Y020054D01*
X010497Y020088D01*
X010557Y020126D01*
X010615Y020168D01*
X010671Y020212D01*
X010724Y020259D01*
X010774Y020310D01*
X010821Y020363D01*
X010866Y020418D01*
X010907Y020476D01*
X010944Y020536D01*
X010979Y020599D01*
X011010Y020663D01*
X011037Y020728D01*
X011060Y020795D01*
X011080Y020864D01*
X011096Y020933D01*
X011108Y021003D01*
X011116Y021074D01*
X011120Y021144D01*
X011120Y021216D01*
X011116Y021286D01*
X011108Y021357D01*
X011096Y021427D01*
X011080Y021496D01*
X011060Y021565D01*
X011037Y021632D01*
X011010Y021697D01*
X010979Y021761D01*
X010944Y021824D01*
X010907Y021884D01*
X010866Y021942D01*
X010821Y021997D01*
X010774Y022050D01*
X010724Y022101D01*
X010671Y022148D01*
X010615Y022192D01*
X010557Y022234D01*
X010497Y022272D01*
X010435Y022306D01*
X010371Y022337D01*
X010306Y022364D01*
X010238Y022388D01*
X010170Y022407D01*
X010101Y022423D01*
X010031Y022435D01*
X009960Y022443D01*
X009889Y022447D01*
X009818Y022448D01*
X009747Y022444D01*
X009677Y022436D01*
X009607Y022424D01*
X009537Y022408D01*
X009469Y022389D01*
X009402Y022365D01*
X009336Y022338D01*
X009272Y022308D01*
X009210Y022273D01*
X009150Y022236D01*
X009092Y022195D01*
X009036Y022151D01*
X008983Y022103D01*
X008933Y022053D01*
X008885Y022000D01*
X008841Y021945D01*
X008848Y021939D01*
X008892Y021994D01*
X008939Y022047D01*
X008989Y022097D01*
X009042Y022144D01*
X009097Y022188D01*
X009155Y022228D01*
X009214Y022266D01*
X009276Y022300D01*
X009340Y022330D01*
X009405Y022357D01*
X009472Y022380D01*
X009540Y022400D01*
X009608Y022415D01*
X009678Y022427D01*
X009748Y022435D01*
X009819Y022439D01*
X009889Y022438D01*
X009960Y022434D01*
X010030Y022426D01*
X010099Y022414D01*
X010168Y022399D01*
X010236Y022379D01*
X010302Y022356D01*
X010367Y022329D01*
X010431Y022298D01*
X010493Y022264D01*
X010552Y022226D01*
X010610Y022185D01*
X010665Y022141D01*
X010718Y022094D01*
X010767Y022044D01*
X010814Y021992D01*
X010858Y021936D01*
X010899Y021879D01*
X010937Y021819D01*
X010971Y021757D01*
X011001Y021694D01*
X011028Y021629D01*
X011052Y021562D01*
X011071Y021494D01*
X011087Y021425D01*
X011099Y021356D01*
X011107Y021286D01*
X011111Y021215D01*
X011111Y021145D01*
X011107Y021074D01*
X011099Y021004D01*
X011087Y020935D01*
X011071Y020866D01*
X011052Y020798D01*
X011028Y020731D01*
X011001Y020666D01*
X010971Y020603D01*
X010937Y020541D01*
X010899Y020481D01*
X010858Y020424D01*
X010814Y020368D01*
X010767Y020316D01*
X010718Y020266D01*
X010665Y020219D01*
X010610Y020175D01*
X010552Y020134D01*
X010493Y020096D01*
X010431Y020062D01*
X010367Y020031D01*
X010302Y020004D01*
X010236Y019981D01*
X010168Y019961D01*
X010099Y019946D01*
X010030Y019934D01*
X009960Y019926D01*
X009889Y019922D01*
X009819Y019921D01*
X009748Y019925D01*
X009678Y019933D01*
X009608Y019945D01*
X009540Y019960D01*
X009472Y019980D01*
X009405Y020003D01*
X009340Y020030D01*
X009276Y020060D01*
X009214Y020094D01*
X009155Y020132D01*
X009097Y020172D01*
X009042Y020216D01*
X008989Y020263D01*
X008939Y020313D01*
X008892Y020366D01*
X008848Y020421D01*
X008855Y020426D01*
X008899Y020371D01*
X008946Y020319D01*
X008995Y020270D01*
X009048Y020223D01*
X009102Y020180D01*
X009160Y020139D01*
X009219Y020102D01*
X009280Y020068D01*
X009344Y020038D01*
X009408Y020011D01*
X009475Y019988D01*
X009542Y019969D01*
X009610Y019954D01*
X009679Y019942D01*
X009749Y019934D01*
X009819Y019930D01*
X009889Y019931D01*
X009959Y019935D01*
X010028Y019943D01*
X010097Y019954D01*
X010166Y019970D01*
X010233Y019989D01*
X010299Y020013D01*
X010364Y020040D01*
X010427Y020070D01*
X010488Y020104D01*
X010547Y020141D01*
X010605Y020182D01*
X010659Y020226D01*
X010711Y020272D01*
X010761Y020322D01*
X010808Y020374D01*
X010851Y020429D01*
X010892Y020486D01*
X010929Y020545D01*
X010963Y020607D01*
X010993Y020670D01*
X011020Y020735D01*
X011043Y020801D01*
X011062Y020868D01*
X011078Y020936D01*
X011090Y021005D01*
X011098Y021075D01*
X011102Y021145D01*
X011102Y021215D01*
X011098Y021285D01*
X011090Y021355D01*
X011078Y021424D01*
X011062Y021492D01*
X011043Y021559D01*
X011020Y021625D01*
X010993Y021690D01*
X010963Y021753D01*
X010929Y021815D01*
X010892Y021874D01*
X010851Y021931D01*
X010808Y021986D01*
X010761Y022038D01*
X010711Y022088D01*
X010659Y022134D01*
X010605Y022178D01*
X010547Y022219D01*
X010488Y022256D01*
X010427Y022290D01*
X010364Y022320D01*
X010299Y022347D01*
X010233Y022371D01*
X010166Y022390D01*
X010097Y022406D01*
X010028Y022417D01*
X009959Y022425D01*
X009889Y022429D01*
X009819Y022430D01*
X009749Y022426D01*
X009679Y022418D01*
X009610Y022406D01*
X009542Y022391D01*
X009475Y022372D01*
X009408Y022349D01*
X009344Y022322D01*
X009280Y022292D01*
X009219Y022258D01*
X009160Y022221D01*
X009102Y022180D01*
X009048Y022137D01*
X008995Y022090D01*
X008946Y022041D01*
X008899Y021989D01*
X008855Y021934D01*
X008862Y021929D01*
X008906Y021983D01*
X008952Y022035D01*
X009001Y022084D01*
X009053Y022130D01*
X009108Y022173D01*
X009165Y022213D01*
X009224Y022250D01*
X009285Y022284D01*
X009347Y022314D01*
X009412Y022340D01*
X009477Y022363D01*
X009544Y022382D01*
X009612Y022398D01*
X009681Y022409D01*
X009750Y022417D01*
X009819Y022421D01*
X009889Y022420D01*
X009958Y022416D01*
X010027Y022409D01*
X010096Y022397D01*
X010163Y022381D01*
X010230Y022362D01*
X010296Y022339D01*
X010360Y022312D01*
X010423Y022282D01*
X010484Y022248D01*
X010542Y022211D01*
X010599Y022171D01*
X010653Y022128D01*
X010705Y022081D01*
X010754Y022032D01*
X010801Y021980D01*
X010844Y021926D01*
X010884Y021869D01*
X010921Y021810D01*
X010955Y021749D01*
X010985Y021686D01*
X011012Y021622D01*
X011035Y021557D01*
X011054Y021490D01*
X011069Y021422D01*
X011081Y021353D01*
X011089Y021284D01*
X011093Y021215D01*
X011093Y021145D01*
X011089Y021076D01*
X011081Y021007D01*
X011069Y020938D01*
X011054Y020870D01*
X011035Y020803D01*
X011012Y020738D01*
X010985Y020674D01*
X010955Y020611D01*
X010921Y020550D01*
X010884Y020491D01*
X010844Y020434D01*
X010801Y020380D01*
X010754Y020328D01*
X010705Y020279D01*
X010653Y020232D01*
X010599Y020189D01*
X010542Y020149D01*
X010484Y020112D01*
X010423Y020078D01*
X010360Y020048D01*
X010296Y020021D01*
X010230Y019998D01*
X010163Y019979D01*
X010096Y019963D01*
X010027Y019951D01*
X009958Y019944D01*
X009889Y019940D01*
X009819Y019939D01*
X009750Y019943D01*
X009681Y019951D01*
X009612Y019962D01*
X009544Y019978D01*
X009477Y019997D01*
X009412Y020020D01*
X009347Y020046D01*
X009285Y020076D01*
X009224Y020110D01*
X009165Y020147D01*
X009108Y020187D01*
X009053Y020230D01*
X009001Y020276D01*
X008952Y020325D01*
X008906Y020377D01*
X008862Y020431D01*
X008869Y020437D01*
X008913Y020383D01*
X008959Y020332D01*
X009008Y020283D01*
X009059Y020237D01*
X009113Y020194D01*
X009170Y020154D01*
X009228Y020118D01*
X009289Y020084D01*
X009351Y020054D01*
X009415Y020028D01*
X009480Y020006D01*
X009546Y019987D01*
X009614Y019971D01*
X009682Y019960D01*
X009750Y019952D01*
X009819Y019948D01*
X009888Y019949D01*
X009957Y019953D01*
X010026Y019960D01*
X010094Y019972D01*
X010161Y019987D01*
X010228Y020007D01*
X010293Y020030D01*
X010356Y020056D01*
X010419Y020086D01*
X010479Y020119D01*
X010537Y020156D01*
X010594Y020196D01*
X010648Y020239D01*
X010699Y020285D01*
X010748Y020334D01*
X010794Y020386D01*
X010837Y020440D01*
X010877Y020496D01*
X010913Y020555D01*
X010947Y020615D01*
X010977Y020677D01*
X011003Y020741D01*
X011026Y020806D01*
X011045Y020873D01*
X011060Y020940D01*
X011072Y021008D01*
X011080Y021077D01*
X011084Y021145D01*
X011084Y021215D01*
X011080Y021283D01*
X011072Y021352D01*
X011060Y021420D01*
X011045Y021487D01*
X011026Y021554D01*
X011003Y021619D01*
X010977Y021683D01*
X010947Y021745D01*
X010913Y021805D01*
X010877Y021864D01*
X010837Y021920D01*
X010794Y021974D01*
X010748Y022026D01*
X010699Y022075D01*
X010648Y022121D01*
X010594Y022164D01*
X010537Y022204D01*
X010479Y022241D01*
X010419Y022274D01*
X010356Y022304D01*
X010293Y022330D01*
X010228Y022353D01*
X010161Y022373D01*
X010094Y022388D01*
X010026Y022400D01*
X009957Y022407D01*
X009888Y022411D01*
X009819Y022412D01*
X009750Y022408D01*
X009682Y022400D01*
X009614Y022389D01*
X009546Y022373D01*
X009480Y022354D01*
X009415Y022332D01*
X009351Y022306D01*
X009289Y022276D01*
X009228Y022242D01*
X009170Y022206D01*
X009113Y022166D01*
X009059Y022123D01*
X009008Y022077D01*
X008959Y022028D01*
X008913Y021977D01*
X008869Y021923D01*
X008877Y021918D01*
X008920Y021972D01*
X008966Y022023D01*
X009016Y022072D01*
X009067Y022118D01*
X009122Y022161D01*
X009179Y022201D01*
X009237Y022237D01*
X009298Y022271D01*
X009361Y022300D01*
X009425Y022326D01*
X009491Y022348D01*
X009558Y022367D01*
X009625Y022382D01*
X009694Y022393D01*
X009763Y022400D01*
X009832Y022403D01*
X009901Y022402D01*
X009971Y022397D01*
X010039Y022389D01*
X010107Y022376D01*
X010175Y022360D01*
X010241Y022339D01*
X010306Y022316D01*
X010370Y022288D01*
X010432Y022257D01*
X010492Y022222D01*
X010550Y022184D01*
X010606Y022143D01*
X010659Y022099D01*
X010710Y022052D01*
X010758Y022002D01*
X010803Y021949D01*
X010845Y021894D01*
X010884Y021837D01*
X010919Y021777D01*
X010951Y021716D01*
X010980Y021653D01*
X011005Y021588D01*
X011026Y021522D01*
X011044Y021455D01*
X011057Y021387D01*
X011067Y021318D01*
X011073Y021249D01*
X011075Y021180D01*
X011073Y021111D01*
X011067Y021042D01*
X011057Y020973D01*
X011044Y020905D01*
X011026Y020838D01*
X011005Y020772D01*
X010980Y020707D01*
X010951Y020644D01*
X010919Y020583D01*
X010884Y020523D01*
X010845Y020466D01*
X010803Y020411D01*
X010758Y020358D01*
X010710Y020308D01*
X010659Y020261D01*
X010606Y020217D01*
X010550Y020176D01*
X010492Y020138D01*
X010432Y020103D01*
X010370Y020072D01*
X010306Y020044D01*
X010241Y020021D01*
X010175Y020000D01*
X010107Y019984D01*
X010039Y019971D01*
X009971Y019963D01*
X009901Y019958D01*
X009832Y019957D01*
X009763Y019960D01*
X009694Y019967D01*
X009625Y019978D01*
X009558Y019993D01*
X009491Y020012D01*
X009425Y020034D01*
X009361Y020060D01*
X009298Y020089D01*
X009237Y020123D01*
X009179Y020159D01*
X009122Y020199D01*
X009067Y020242D01*
X009016Y020288D01*
X008966Y020337D01*
X008920Y020388D01*
X008877Y020442D01*
X008884Y020448D01*
X008927Y020394D01*
X008973Y020343D01*
X009022Y020294D01*
X009073Y020249D01*
X009127Y020206D01*
X009184Y020167D01*
X009242Y020130D01*
X009302Y020097D01*
X009365Y020068D01*
X009428Y020042D01*
X009494Y020020D01*
X009560Y020002D01*
X009627Y019987D01*
X009695Y019976D01*
X009764Y019969D01*
X009832Y019966D01*
X009901Y019967D01*
X009970Y019972D01*
X010038Y019980D01*
X010106Y019993D01*
X010172Y020009D01*
X010238Y020029D01*
X010303Y020053D01*
X010366Y020080D01*
X010427Y020111D01*
X010487Y020145D01*
X010545Y020183D01*
X010600Y020224D01*
X010653Y020268D01*
X010703Y020315D01*
X010751Y020364D01*
X010796Y020416D01*
X010838Y020471D01*
X010876Y020528D01*
X010911Y020587D01*
X010943Y020648D01*
X010972Y020711D01*
X010996Y020775D01*
X011018Y020841D01*
X011035Y020907D01*
X011048Y020975D01*
X011058Y021043D01*
X011064Y021111D01*
X011066Y021180D01*
X011064Y021249D01*
X011058Y021317D01*
X011048Y021385D01*
X011035Y021453D01*
X011018Y021519D01*
X010996Y021585D01*
X010972Y021649D01*
X010943Y021712D01*
X010911Y021773D01*
X010876Y021832D01*
X010838Y021889D01*
X010796Y021944D01*
X010751Y021996D01*
X010703Y022045D01*
X010653Y022092D01*
X010600Y022136D01*
X010545Y022177D01*
X010487Y022215D01*
X010427Y022249D01*
X010366Y022280D01*
X010303Y022307D01*
X010238Y022331D01*
X010172Y022351D01*
X010106Y022367D01*
X010038Y022380D01*
X009970Y022388D01*
X009901Y022393D01*
X009832Y022394D01*
X009764Y022391D01*
X009695Y022384D01*
X009627Y022373D01*
X009560Y022358D01*
X009494Y022340D01*
X009428Y022318D01*
X009365Y022292D01*
X009302Y022263D01*
X009242Y022230D01*
X009184Y022193D01*
X009127Y022154D01*
X009073Y022111D01*
X009022Y022066D01*
X008973Y022017D01*
X008927Y021966D01*
X008884Y021912D01*
X006310Y023550D02*
X006310Y023650D01*
X006285Y023675D01*
X006235Y023675D01*
X006210Y023650D01*
X006210Y023625D01*
X006235Y023600D01*
X006310Y023600D01*
X006310Y023550D02*
X006285Y023525D01*
X006235Y023525D01*
X006210Y023550D01*
X006162Y023600D02*
X006162Y023650D01*
X006137Y023675D01*
X006062Y023675D01*
X006062Y023525D01*
X006062Y023575D02*
X006137Y023575D01*
X006162Y023600D01*
X006015Y023675D02*
X005965Y023675D01*
X005990Y023675D02*
X005990Y023550D01*
X005965Y023525D01*
X005940Y023525D01*
X005915Y023550D01*
X001820Y020400D02*
X001892Y020454D01*
X001891Y020453D02*
X001934Y020400D01*
X001979Y020349D01*
X002028Y020301D01*
X002079Y020256D01*
X002133Y020213D01*
X002189Y020174D01*
X002247Y020138D01*
X002307Y020105D01*
X002368Y020076D01*
X002432Y020051D01*
X002496Y020029D01*
X002562Y020010D01*
X002629Y019996D01*
X002696Y019985D01*
X002764Y019978D01*
X002832Y019975D01*
X002901Y019976D01*
X002969Y019981D01*
X003037Y019989D01*
X003104Y020002D01*
X003170Y020018D01*
X003235Y020038D01*
X003300Y020061D01*
X003362Y020088D01*
X003423Y020119D01*
X003482Y020153D01*
X003540Y020190D01*
X003595Y020231D01*
X003647Y020275D01*
X003697Y020321D01*
X003744Y020370D01*
X003789Y020422D01*
X003830Y020476D01*
X003869Y020533D01*
X003904Y020592D01*
X003935Y020652D01*
X003963Y020714D01*
X003988Y020778D01*
X004009Y020843D01*
X004026Y020909D01*
X004040Y020976D01*
X004049Y021044D01*
X004055Y021112D01*
X004057Y021180D01*
X004055Y021248D01*
X004049Y021316D01*
X004040Y021384D01*
X004026Y021451D01*
X004009Y021517D01*
X003988Y021582D01*
X003963Y021646D01*
X003935Y021708D01*
X003904Y021768D01*
X003869Y021827D01*
X003830Y021884D01*
X003789Y021938D01*
X003744Y021990D01*
X003697Y022039D01*
X003647Y022085D01*
X003595Y022129D01*
X003540Y022170D01*
X003482Y022207D01*
X003423Y022241D01*
X003362Y022272D01*
X003300Y022299D01*
X003235Y022322D01*
X003170Y022342D01*
X003104Y022358D01*
X003037Y022371D01*
X002969Y022379D01*
X002901Y022384D01*
X002832Y022385D01*
X002764Y022382D01*
X002696Y022375D01*
X002629Y022364D01*
X002562Y022350D01*
X002496Y022331D01*
X002432Y022309D01*
X002368Y022284D01*
X002307Y022255D01*
X002247Y022222D01*
X002189Y022186D01*
X002133Y022147D01*
X002079Y022104D01*
X002028Y022059D01*
X001979Y022011D01*
X001934Y021960D01*
X001891Y021907D01*
X001820Y021960D01*
X001819Y021961D01*
X001863Y022016D01*
X001911Y022069D01*
X001961Y022120D01*
X002014Y022167D01*
X002069Y022211D01*
X002127Y022253D01*
X002187Y022291D01*
X002248Y022326D01*
X002312Y022357D01*
X002377Y022385D01*
X002444Y022409D01*
X002512Y022430D01*
X002581Y022446D01*
X002651Y022459D01*
X002721Y022468D01*
X002792Y022474D01*
X002863Y022475D01*
X002934Y022472D01*
X003005Y022466D01*
X003075Y022456D01*
X003144Y022442D01*
X003213Y022424D01*
X003281Y022402D01*
X003347Y022377D01*
X003412Y022348D01*
X003475Y022315D01*
X003536Y022279D01*
X003595Y022240D01*
X003652Y022198D01*
X003707Y022153D01*
X003759Y022104D01*
X003808Y022053D01*
X003855Y022000D01*
X003898Y021943D01*
X003938Y021885D01*
X003975Y021824D01*
X004009Y021762D01*
X004039Y021698D01*
X004066Y021632D01*
X004089Y021565D01*
X004108Y021496D01*
X004123Y021427D01*
X004135Y021357D01*
X004143Y021286D01*
X004147Y021215D01*
X004147Y021145D01*
X004143Y021074D01*
X004135Y021003D01*
X004123Y020933D01*
X004108Y020864D01*
X004089Y020795D01*
X004066Y020728D01*
X004039Y020662D01*
X004009Y020598D01*
X003975Y020536D01*
X003938Y020475D01*
X003898Y020417D01*
X003855Y020360D01*
X003808Y020307D01*
X003759Y020256D01*
X003707Y020207D01*
X003652Y020162D01*
X003595Y020120D01*
X003536Y020081D01*
X003475Y020045D01*
X003412Y020012D01*
X003347Y019983D01*
X003281Y019958D01*
X003213Y019936D01*
X003144Y019918D01*
X003075Y019904D01*
X003005Y019894D01*
X002934Y019888D01*
X002863Y019885D01*
X002792Y019886D01*
X002721Y019892D01*
X002651Y019901D01*
X002581Y019914D01*
X002512Y019930D01*
X002444Y019951D01*
X002377Y019975D01*
X002312Y020003D01*
X002248Y020034D01*
X002187Y020069D01*
X002127Y020107D01*
X002069Y020149D01*
X002014Y020193D01*
X001961Y020240D01*
X001911Y020291D01*
X001863Y020344D01*
X001819Y020399D01*
X001826Y020404D01*
X001871Y020349D01*
X001918Y020296D01*
X001969Y020245D01*
X002022Y020198D01*
X002078Y020153D01*
X002136Y020112D01*
X002196Y020074D01*
X002258Y020039D01*
X002322Y020008D01*
X002388Y019981D01*
X002455Y019957D01*
X002524Y019937D01*
X002593Y019920D01*
X002663Y019908D01*
X002734Y019899D01*
X002805Y019895D01*
X002876Y019894D01*
X002947Y019898D01*
X003018Y019905D01*
X003089Y019916D01*
X003158Y019931D01*
X003227Y019950D01*
X003295Y019973D01*
X003361Y019999D01*
X003426Y020029D01*
X003488Y020063D01*
X003549Y020099D01*
X003608Y020140D01*
X003665Y020183D01*
X003719Y020230D01*
X003770Y020279D01*
X003818Y020332D01*
X003864Y020386D01*
X003906Y020444D01*
X003945Y020503D01*
X003981Y020565D01*
X004014Y020628D01*
X004042Y020693D01*
X004068Y020760D01*
X004089Y020828D01*
X004107Y020897D01*
X004120Y020967D01*
X004130Y021038D01*
X004136Y021109D01*
X004138Y021180D01*
X004136Y021251D01*
X004130Y021322D01*
X004120Y021393D01*
X004107Y021463D01*
X004089Y021532D01*
X004068Y021600D01*
X004042Y021667D01*
X004014Y021732D01*
X003981Y021795D01*
X003945Y021857D01*
X003906Y021916D01*
X003864Y021974D01*
X003818Y022028D01*
X003770Y022081D01*
X003719Y022130D01*
X003665Y022177D01*
X003608Y022220D01*
X003549Y022261D01*
X003488Y022297D01*
X003426Y022331D01*
X003361Y022361D01*
X003295Y022387D01*
X003227Y022410D01*
X003158Y022429D01*
X003089Y022444D01*
X003018Y022455D01*
X002947Y022462D01*
X002876Y022466D01*
X002805Y022465D01*
X002734Y022461D01*
X002663Y022452D01*
X002593Y022440D01*
X002524Y022423D01*
X002455Y022403D01*
X002388Y022379D01*
X002322Y022352D01*
X002258Y022321D01*
X002196Y022286D01*
X002136Y022248D01*
X002078Y022207D01*
X002022Y022162D01*
X001969Y022115D01*
X001918Y022064D01*
X001871Y022011D01*
X001826Y021956D01*
X001833Y021950D01*
X001878Y022005D01*
X001925Y022058D01*
X001975Y022108D01*
X002028Y022155D01*
X002083Y022199D01*
X002141Y022241D01*
X002200Y022278D01*
X002262Y022313D01*
X002326Y022344D01*
X002391Y022371D01*
X002458Y022395D01*
X002526Y022415D01*
X002595Y022431D01*
X002664Y022443D01*
X002735Y022452D01*
X002805Y022456D01*
X002876Y022457D01*
X002947Y022453D01*
X003017Y022446D01*
X003087Y022435D01*
X003156Y022420D01*
X003224Y022401D01*
X003292Y022379D01*
X003357Y022353D01*
X003422Y022323D01*
X003484Y022290D01*
X003544Y022253D01*
X003603Y022213D01*
X003659Y022170D01*
X003713Y022124D01*
X003763Y022074D01*
X003812Y022023D01*
X003857Y021968D01*
X003899Y021911D01*
X003938Y021852D01*
X003973Y021791D01*
X004006Y021728D01*
X004034Y021663D01*
X004059Y021597D01*
X004080Y021529D01*
X004098Y021461D01*
X004111Y021391D01*
X004121Y021321D01*
X004127Y021251D01*
X004129Y021180D01*
X004127Y021109D01*
X004121Y021039D01*
X004111Y020969D01*
X004098Y020899D01*
X004080Y020831D01*
X004059Y020763D01*
X004034Y020697D01*
X004006Y020632D01*
X003973Y020569D01*
X003938Y020508D01*
X003899Y020449D01*
X003857Y020392D01*
X003812Y020337D01*
X003763Y020286D01*
X003713Y020236D01*
X003659Y020190D01*
X003603Y020147D01*
X003544Y020107D01*
X003484Y020070D01*
X003422Y020037D01*
X003357Y020007D01*
X003292Y019981D01*
X003224Y019959D01*
X003156Y019940D01*
X003087Y019925D01*
X003017Y019914D01*
X002947Y019907D01*
X002876Y019903D01*
X002805Y019904D01*
X002735Y019908D01*
X002664Y019917D01*
X002595Y019929D01*
X002526Y019945D01*
X002458Y019965D01*
X002391Y019989D01*
X002326Y020016D01*
X002262Y020047D01*
X002200Y020082D01*
X002141Y020119D01*
X002083Y020161D01*
X002028Y020205D01*
X001975Y020252D01*
X001925Y020302D01*
X001878Y020355D01*
X001833Y020410D01*
X001841Y020415D01*
X001885Y020360D01*
X001933Y020307D01*
X001983Y020257D01*
X002036Y020209D01*
X002092Y020165D01*
X002150Y020124D01*
X002210Y020087D01*
X002272Y020052D01*
X002336Y020022D01*
X002402Y019995D01*
X002469Y019971D01*
X002537Y019952D01*
X002607Y019936D01*
X002677Y019924D01*
X002747Y019916D01*
X002818Y019912D01*
X002889Y019913D01*
X002960Y019917D01*
X003031Y019925D01*
X003101Y019937D01*
X003170Y019953D01*
X003238Y019972D01*
X003306Y019996D01*
X003371Y020023D01*
X003435Y020054D01*
X003497Y020088D01*
X003557Y020126D01*
X003615Y020168D01*
X003671Y020212D01*
X003724Y020259D01*
X003774Y020310D01*
X003821Y020363D01*
X003866Y020418D01*
X003907Y020476D01*
X003944Y020536D01*
X003979Y020599D01*
X004010Y020663D01*
X004037Y020728D01*
X004060Y020795D01*
X004080Y020864D01*
X004096Y020933D01*
X004108Y021003D01*
X004116Y021074D01*
X004120Y021144D01*
X004120Y021216D01*
X004116Y021286D01*
X004108Y021357D01*
X004096Y021427D01*
X004080Y021496D01*
X004060Y021565D01*
X004037Y021632D01*
X004010Y021697D01*
X003979Y021761D01*
X003944Y021824D01*
X003907Y021884D01*
X003866Y021942D01*
X003821Y021997D01*
X003774Y022050D01*
X003724Y022101D01*
X003671Y022148D01*
X003615Y022192D01*
X003557Y022234D01*
X003497Y022272D01*
X003435Y022306D01*
X003371Y022337D01*
X003306Y022364D01*
X003238Y022388D01*
X003170Y022407D01*
X003101Y022423D01*
X003031Y022435D01*
X002960Y022443D01*
X002889Y022447D01*
X002818Y022448D01*
X002747Y022444D01*
X002677Y022436D01*
X002607Y022424D01*
X002537Y022408D01*
X002469Y022389D01*
X002402Y022365D01*
X002336Y022338D01*
X002272Y022308D01*
X002210Y022273D01*
X002150Y022236D01*
X002092Y022195D01*
X002036Y022151D01*
X001983Y022103D01*
X001933Y022053D01*
X001885Y022000D01*
X001841Y021945D01*
X001848Y021939D01*
X001892Y021994D01*
X001939Y022047D01*
X001989Y022097D01*
X002042Y022144D01*
X002097Y022188D01*
X002155Y022228D01*
X002214Y022266D01*
X002276Y022300D01*
X002340Y022330D01*
X002405Y022357D01*
X002472Y022380D01*
X002540Y022400D01*
X002608Y022415D01*
X002678Y022427D01*
X002748Y022435D01*
X002819Y022439D01*
X002889Y022438D01*
X002960Y022434D01*
X003030Y022426D01*
X003099Y022414D01*
X003168Y022399D01*
X003236Y022379D01*
X003302Y022356D01*
X003367Y022329D01*
X003431Y022298D01*
X003493Y022264D01*
X003552Y022226D01*
X003610Y022185D01*
X003665Y022141D01*
X003718Y022094D01*
X003767Y022044D01*
X003814Y021992D01*
X003858Y021936D01*
X003899Y021879D01*
X003937Y021819D01*
X003971Y021757D01*
X004001Y021694D01*
X004028Y021629D01*
X004052Y021562D01*
X004071Y021494D01*
X004087Y021425D01*
X004099Y021356D01*
X004107Y021286D01*
X004111Y021215D01*
X004111Y021145D01*
X004107Y021074D01*
X004099Y021004D01*
X004087Y020935D01*
X004071Y020866D01*
X004052Y020798D01*
X004028Y020731D01*
X004001Y020666D01*
X003971Y020603D01*
X003937Y020541D01*
X003899Y020481D01*
X003858Y020424D01*
X003814Y020368D01*
X003767Y020316D01*
X003718Y020266D01*
X003665Y020219D01*
X003610Y020175D01*
X003552Y020134D01*
X003493Y020096D01*
X003431Y020062D01*
X003367Y020031D01*
X003302Y020004D01*
X003236Y019981D01*
X003168Y019961D01*
X003099Y019946D01*
X003030Y019934D01*
X002960Y019926D01*
X002889Y019922D01*
X002819Y019921D01*
X002748Y019925D01*
X002678Y019933D01*
X002608Y019945D01*
X002540Y019960D01*
X002472Y019980D01*
X002405Y020003D01*
X002340Y020030D01*
X002276Y020060D01*
X002214Y020094D01*
X002155Y020132D01*
X002097Y020172D01*
X002042Y020216D01*
X001989Y020263D01*
X001939Y020313D01*
X001892Y020366D01*
X001848Y020421D01*
X001855Y020426D01*
X001899Y020371D01*
X001946Y020319D01*
X001995Y020270D01*
X002048Y020223D01*
X002102Y020180D01*
X002160Y020139D01*
X002219Y020102D01*
X002280Y020068D01*
X002344Y020038D01*
X002408Y020011D01*
X002475Y019988D01*
X002542Y019969D01*
X002610Y019954D01*
X002679Y019942D01*
X002749Y019934D01*
X002819Y019930D01*
X002889Y019931D01*
X002959Y019935D01*
X003028Y019943D01*
X003097Y019954D01*
X003166Y019970D01*
X003233Y019989D01*
X003299Y020013D01*
X003364Y020040D01*
X003427Y020070D01*
X003488Y020104D01*
X003547Y020141D01*
X003605Y020182D01*
X003659Y020226D01*
X003711Y020272D01*
X003761Y020322D01*
X003808Y020374D01*
X003851Y020429D01*
X003892Y020486D01*
X003929Y020545D01*
X003963Y020607D01*
X003993Y020670D01*
X004020Y020735D01*
X004043Y020801D01*
X004062Y020868D01*
X004078Y020936D01*
X004090Y021005D01*
X004098Y021075D01*
X004102Y021145D01*
X004102Y021215D01*
X004098Y021285D01*
X004090Y021355D01*
X004078Y021424D01*
X004062Y021492D01*
X004043Y021559D01*
X004020Y021625D01*
X003993Y021690D01*
X003963Y021753D01*
X003929Y021815D01*
X003892Y021874D01*
X003851Y021931D01*
X003808Y021986D01*
X003761Y022038D01*
X003711Y022088D01*
X003659Y022134D01*
X003605Y022178D01*
X003547Y022219D01*
X003488Y022256D01*
X003427Y022290D01*
X003364Y022320D01*
X003299Y022347D01*
X003233Y022371D01*
X003166Y022390D01*
X003097Y022406D01*
X003028Y022417D01*
X002959Y022425D01*
X002889Y022429D01*
X002819Y022430D01*
X002749Y022426D01*
X002679Y022418D01*
X002610Y022406D01*
X002542Y022391D01*
X002475Y022372D01*
X002408Y022349D01*
X002344Y022322D01*
X002280Y022292D01*
X002219Y022258D01*
X002160Y022221D01*
X002102Y022180D01*
X002048Y022137D01*
X001995Y022090D01*
X001946Y022041D01*
X001899Y021989D01*
X001855Y021934D01*
X001862Y021929D01*
X001906Y021983D01*
X001952Y022035D01*
X002001Y022084D01*
X002053Y022130D01*
X002108Y022173D01*
X002165Y022213D01*
X002224Y022250D01*
X002285Y022284D01*
X002347Y022314D01*
X002412Y022340D01*
X002477Y022363D01*
X002544Y022382D01*
X002612Y022398D01*
X002681Y022409D01*
X002750Y022417D01*
X002819Y022421D01*
X002889Y022420D01*
X002958Y022416D01*
X003027Y022409D01*
X003096Y022397D01*
X003163Y022381D01*
X003230Y022362D01*
X003296Y022339D01*
X003360Y022312D01*
X003423Y022282D01*
X003484Y022248D01*
X003542Y022211D01*
X003599Y022171D01*
X003653Y022128D01*
X003705Y022081D01*
X003754Y022032D01*
X003801Y021980D01*
X003844Y021926D01*
X003884Y021869D01*
X003921Y021810D01*
X003955Y021749D01*
X003985Y021686D01*
X004012Y021622D01*
X004035Y021557D01*
X004054Y021490D01*
X004069Y021422D01*
X004081Y021353D01*
X004089Y021284D01*
X004093Y021215D01*
X004093Y021145D01*
X004089Y021076D01*
X004081Y021007D01*
X004069Y020938D01*
X004054Y020870D01*
X004035Y020803D01*
X004012Y020738D01*
X003985Y020674D01*
X003955Y020611D01*
X003921Y020550D01*
X003884Y020491D01*
X003844Y020434D01*
X003801Y020380D01*
X003754Y020328D01*
X003705Y020279D01*
X003653Y020232D01*
X003599Y020189D01*
X003542Y020149D01*
X003484Y020112D01*
X003423Y020078D01*
X003360Y020048D01*
X003296Y020021D01*
X003230Y019998D01*
X003163Y019979D01*
X003096Y019963D01*
X003027Y019951D01*
X002958Y019944D01*
X002889Y019940D01*
X002819Y019939D01*
X002750Y019943D01*
X002681Y019951D01*
X002612Y019962D01*
X002544Y019978D01*
X002477Y019997D01*
X002412Y020020D01*
X002347Y020046D01*
X002285Y020076D01*
X002224Y020110D01*
X002165Y020147D01*
X002108Y020187D01*
X002053Y020230D01*
X002001Y020276D01*
X001952Y020325D01*
X001906Y020377D01*
X001862Y020431D01*
X001869Y020437D01*
X001913Y020383D01*
X001959Y020332D01*
X002008Y020283D01*
X002059Y020237D01*
X002113Y020194D01*
X002170Y020154D01*
X002228Y020118D01*
X002289Y020084D01*
X002351Y020054D01*
X002415Y020028D01*
X002480Y020006D01*
X002546Y019987D01*
X002614Y019971D01*
X002682Y019960D01*
X002750Y019952D01*
X002819Y019948D01*
X002888Y019949D01*
X002957Y019953D01*
X003026Y019960D01*
X003094Y019972D01*
X003161Y019987D01*
X003228Y020007D01*
X003293Y020030D01*
X003356Y020056D01*
X003419Y020086D01*
X003479Y020119D01*
X003537Y020156D01*
X003594Y020196D01*
X003648Y020239D01*
X003699Y020285D01*
X003748Y020334D01*
X003794Y020386D01*
X003837Y020440D01*
X003877Y020496D01*
X003913Y020555D01*
X003947Y020615D01*
X003977Y020677D01*
X004003Y020741D01*
X004026Y020806D01*
X004045Y020873D01*
X004060Y020940D01*
X004072Y021008D01*
X004080Y021077D01*
X004084Y021145D01*
X004084Y021215D01*
X004080Y021283D01*
X004072Y021352D01*
X004060Y021420D01*
X004045Y021487D01*
X004026Y021554D01*
X004003Y021619D01*
X003977Y021683D01*
X003947Y021745D01*
X003913Y021805D01*
X003877Y021864D01*
X003837Y021920D01*
X003794Y021974D01*
X003748Y022026D01*
X003699Y022075D01*
X003648Y022121D01*
X003594Y022164D01*
X003537Y022204D01*
X003479Y022241D01*
X003419Y022274D01*
X003356Y022304D01*
X003293Y022330D01*
X003228Y022353D01*
X003161Y022373D01*
X003094Y022388D01*
X003026Y022400D01*
X002957Y022407D01*
X002888Y022411D01*
X002819Y022412D01*
X002750Y022408D01*
X002682Y022400D01*
X002614Y022389D01*
X002546Y022373D01*
X002480Y022354D01*
X002415Y022332D01*
X002351Y022306D01*
X002289Y022276D01*
X002228Y022242D01*
X002170Y022206D01*
X002113Y022166D01*
X002059Y022123D01*
X002008Y022077D01*
X001959Y022028D01*
X001913Y021977D01*
X001869Y021923D01*
X001877Y021918D01*
X001920Y021972D01*
X001966Y022023D01*
X002016Y022072D01*
X002067Y022118D01*
X002122Y022161D01*
X002179Y022201D01*
X002237Y022237D01*
X002298Y022271D01*
X002361Y022300D01*
X002425Y022326D01*
X002491Y022348D01*
X002558Y022367D01*
X002625Y022382D01*
X002694Y022393D01*
X002763Y022400D01*
X002832Y022403D01*
X002901Y022402D01*
X002971Y022397D01*
X003039Y022389D01*
X003107Y022376D01*
X003175Y022360D01*
X003241Y022339D01*
X003306Y022316D01*
X003370Y022288D01*
X003432Y022257D01*
X003492Y022222D01*
X003550Y022184D01*
X003606Y022143D01*
X003659Y022099D01*
X003710Y022052D01*
X003758Y022002D01*
X003803Y021949D01*
X003845Y021894D01*
X003884Y021837D01*
X003919Y021777D01*
X003951Y021716D01*
X003980Y021653D01*
X004005Y021588D01*
X004026Y021522D01*
X004044Y021455D01*
X004057Y021387D01*
X004067Y021318D01*
X004073Y021249D01*
X004075Y021180D01*
X004073Y021111D01*
X004067Y021042D01*
X004057Y020973D01*
X004044Y020905D01*
X004026Y020838D01*
X004005Y020772D01*
X003980Y020707D01*
X003951Y020644D01*
X003919Y020583D01*
X003884Y020523D01*
X003845Y020466D01*
X003803Y020411D01*
X003758Y020358D01*
X003710Y020308D01*
X003659Y020261D01*
X003606Y020217D01*
X003550Y020176D01*
X003492Y020138D01*
X003432Y020103D01*
X003370Y020072D01*
X003306Y020044D01*
X003241Y020021D01*
X003175Y020000D01*
X003107Y019984D01*
X003039Y019971D01*
X002971Y019963D01*
X002901Y019958D01*
X002832Y019957D01*
X002763Y019960D01*
X002694Y019967D01*
X002625Y019978D01*
X002558Y019993D01*
X002491Y020012D01*
X002425Y020034D01*
X002361Y020060D01*
X002298Y020089D01*
X002237Y020123D01*
X002179Y020159D01*
X002122Y020199D01*
X002067Y020242D01*
X002016Y020288D01*
X001966Y020337D01*
X001920Y020388D01*
X001877Y020442D01*
X001884Y020448D01*
X001927Y020394D01*
X001973Y020343D01*
X002022Y020294D01*
X002073Y020249D01*
X002127Y020206D01*
X002184Y020167D01*
X002242Y020130D01*
X002302Y020097D01*
X002365Y020068D01*
X002428Y020042D01*
X002494Y020020D01*
X002560Y020002D01*
X002627Y019987D01*
X002695Y019976D01*
X002764Y019969D01*
X002832Y019966D01*
X002901Y019967D01*
X002970Y019972D01*
X003038Y019980D01*
X003106Y019993D01*
X003172Y020009D01*
X003238Y020029D01*
X003303Y020053D01*
X003366Y020080D01*
X003427Y020111D01*
X003487Y020145D01*
X003545Y020183D01*
X003600Y020224D01*
X003653Y020268D01*
X003703Y020315D01*
X003751Y020364D01*
X003796Y020416D01*
X003838Y020471D01*
X003876Y020528D01*
X003911Y020587D01*
X003943Y020648D01*
X003972Y020711D01*
X003996Y020775D01*
X004018Y020841D01*
X004035Y020907D01*
X004048Y020975D01*
X004058Y021043D01*
X004064Y021111D01*
X004066Y021180D01*
X004064Y021249D01*
X004058Y021317D01*
X004048Y021385D01*
X004035Y021453D01*
X004018Y021519D01*
X003996Y021585D01*
X003972Y021649D01*
X003943Y021712D01*
X003911Y021773D01*
X003876Y021832D01*
X003838Y021889D01*
X003796Y021944D01*
X003751Y021996D01*
X003703Y022045D01*
X003653Y022092D01*
X003600Y022136D01*
X003545Y022177D01*
X003487Y022215D01*
X003427Y022249D01*
X003366Y022280D01*
X003303Y022307D01*
X003238Y022331D01*
X003172Y022351D01*
X003106Y022367D01*
X003038Y022380D01*
X002970Y022388D01*
X002901Y022393D01*
X002832Y022394D01*
X002764Y022391D01*
X002695Y022384D01*
X002627Y022373D01*
X002560Y022358D01*
X002494Y022340D01*
X002428Y022318D01*
X002365Y022292D01*
X002302Y022263D01*
X002242Y022230D01*
X002184Y022193D01*
X002127Y022154D01*
X002073Y022111D01*
X002022Y022066D01*
X001973Y022017D01*
X001927Y021966D01*
X001884Y021912D01*
X019915Y023550D02*
X019940Y023525D01*
X019965Y023525D01*
X019990Y023550D01*
X019990Y023675D01*
X019965Y023675D02*
X020015Y023675D01*
X020062Y023675D02*
X020137Y023675D01*
X020162Y023650D01*
X020162Y023600D01*
X020137Y023575D01*
X020062Y023575D01*
X020062Y023525D02*
X020062Y023675D01*
X020210Y023675D02*
X020310Y023675D01*
X020310Y023650D01*
X020210Y023550D01*
X020210Y023525D01*
X022820Y020400D02*
X022892Y020454D01*
X022891Y020453D02*
X022934Y020400D01*
X022979Y020349D01*
X023028Y020301D01*
X023079Y020256D01*
X023133Y020213D01*
X023189Y020174D01*
X023247Y020138D01*
X023307Y020105D01*
X023368Y020076D01*
X023432Y020051D01*
X023496Y020029D01*
X023562Y020010D01*
X023629Y019996D01*
X023696Y019985D01*
X023764Y019978D01*
X023832Y019975D01*
X023901Y019976D01*
X023969Y019981D01*
X024037Y019989D01*
X024104Y020002D01*
X024170Y020018D01*
X024235Y020038D01*
X024300Y020061D01*
X024362Y020088D01*
X024423Y020119D01*
X024482Y020153D01*
X024540Y020190D01*
X024595Y020231D01*
X024647Y020275D01*
X024697Y020321D01*
X024744Y020370D01*
X024789Y020422D01*
X024830Y020476D01*
X024869Y020533D01*
X024904Y020592D01*
X024935Y020652D01*
X024963Y020714D01*
X024988Y020778D01*
X025009Y020843D01*
X025026Y020909D01*
X025040Y020976D01*
X025049Y021044D01*
X025055Y021112D01*
X025057Y021180D01*
X025055Y021248D01*
X025049Y021316D01*
X025040Y021384D01*
X025026Y021451D01*
X025009Y021517D01*
X024988Y021582D01*
X024963Y021646D01*
X024935Y021708D01*
X024904Y021768D01*
X024869Y021827D01*
X024830Y021884D01*
X024789Y021938D01*
X024744Y021990D01*
X024697Y022039D01*
X024647Y022085D01*
X024595Y022129D01*
X024540Y022170D01*
X024482Y022207D01*
X024423Y022241D01*
X024362Y022272D01*
X024300Y022299D01*
X024235Y022322D01*
X024170Y022342D01*
X024104Y022358D01*
X024037Y022371D01*
X023969Y022379D01*
X023901Y022384D01*
X023832Y022385D01*
X023764Y022382D01*
X023696Y022375D01*
X023629Y022364D01*
X023562Y022350D01*
X023496Y022331D01*
X023432Y022309D01*
X023368Y022284D01*
X023307Y022255D01*
X023247Y022222D01*
X023189Y022186D01*
X023133Y022147D01*
X023079Y022104D01*
X023028Y022059D01*
X022979Y022011D01*
X022934Y021960D01*
X022891Y021907D01*
X022820Y021960D01*
X022819Y021961D01*
X022863Y022016D01*
X022911Y022069D01*
X022961Y022120D01*
X023014Y022167D01*
X023069Y022211D01*
X023127Y022253D01*
X023187Y022291D01*
X023248Y022326D01*
X023312Y022357D01*
X023377Y022385D01*
X023444Y022409D01*
X023512Y022430D01*
X023581Y022446D01*
X023651Y022459D01*
X023721Y022468D01*
X023792Y022474D01*
X023863Y022475D01*
X023934Y022472D01*
X024005Y022466D01*
X024075Y022456D01*
X024144Y022442D01*
X024213Y022424D01*
X024281Y022402D01*
X024347Y022377D01*
X024412Y022348D01*
X024475Y022315D01*
X024536Y022279D01*
X024595Y022240D01*
X024652Y022198D01*
X024707Y022153D01*
X024759Y022104D01*
X024808Y022053D01*
X024855Y022000D01*
X024898Y021943D01*
X024938Y021885D01*
X024975Y021824D01*
X025009Y021762D01*
X025039Y021698D01*
X025066Y021632D01*
X025089Y021565D01*
X025108Y021496D01*
X025123Y021427D01*
X025135Y021357D01*
X025143Y021286D01*
X025147Y021215D01*
X025147Y021145D01*
X025143Y021074D01*
X025135Y021003D01*
X025123Y020933D01*
X025108Y020864D01*
X025089Y020795D01*
X025066Y020728D01*
X025039Y020662D01*
X025009Y020598D01*
X024975Y020536D01*
X024938Y020475D01*
X024898Y020417D01*
X024855Y020360D01*
X024808Y020307D01*
X024759Y020256D01*
X024707Y020207D01*
X024652Y020162D01*
X024595Y020120D01*
X024536Y020081D01*
X024475Y020045D01*
X024412Y020012D01*
X024347Y019983D01*
X024281Y019958D01*
X024213Y019936D01*
X024144Y019918D01*
X024075Y019904D01*
X024005Y019894D01*
X023934Y019888D01*
X023863Y019885D01*
X023792Y019886D01*
X023721Y019892D01*
X023651Y019901D01*
X023581Y019914D01*
X023512Y019930D01*
X023444Y019951D01*
X023377Y019975D01*
X023312Y020003D01*
X023248Y020034D01*
X023187Y020069D01*
X023127Y020107D01*
X023069Y020149D01*
X023014Y020193D01*
X022961Y020240D01*
X022911Y020291D01*
X022863Y020344D01*
X022819Y020399D01*
X022826Y020404D01*
X022871Y020349D01*
X022918Y020296D01*
X022969Y020245D01*
X023022Y020198D01*
X023078Y020153D01*
X023136Y020112D01*
X023196Y020074D01*
X023258Y020039D01*
X023322Y020008D01*
X023388Y019981D01*
X023455Y019957D01*
X023524Y019937D01*
X023593Y019920D01*
X023663Y019908D01*
X023734Y019899D01*
X023805Y019895D01*
X023876Y019894D01*
X023947Y019898D01*
X024018Y019905D01*
X024089Y019916D01*
X024158Y019931D01*
X024227Y019950D01*
X024295Y019973D01*
X024361Y019999D01*
X024426Y020029D01*
X024488Y020063D01*
X024549Y020099D01*
X024608Y020140D01*
X024665Y020183D01*
X024719Y020230D01*
X024770Y020279D01*
X024818Y020332D01*
X024864Y020386D01*
X024906Y020444D01*
X024945Y020503D01*
X024981Y020565D01*
X025014Y020628D01*
X025042Y020693D01*
X025068Y020760D01*
X025089Y020828D01*
X025107Y020897D01*
X025120Y020967D01*
X025130Y021038D01*
X025136Y021109D01*
X025138Y021180D01*
X025136Y021251D01*
X025130Y021322D01*
X025120Y021393D01*
X025107Y021463D01*
X025089Y021532D01*
X025068Y021600D01*
X025042Y021667D01*
X025014Y021732D01*
X024981Y021795D01*
X024945Y021857D01*
X024906Y021916D01*
X024864Y021974D01*
X024818Y022028D01*
X024770Y022081D01*
X024719Y022130D01*
X024665Y022177D01*
X024608Y022220D01*
X024549Y022261D01*
X024488Y022297D01*
X024426Y022331D01*
X024361Y022361D01*
X024295Y022387D01*
X024227Y022410D01*
X024158Y022429D01*
X024089Y022444D01*
X024018Y022455D01*
X023947Y022462D01*
X023876Y022466D01*
X023805Y022465D01*
X023734Y022461D01*
X023663Y022452D01*
X023593Y022440D01*
X023524Y022423D01*
X023455Y022403D01*
X023388Y022379D01*
X023322Y022352D01*
X023258Y022321D01*
X023196Y022286D01*
X023136Y022248D01*
X023078Y022207D01*
X023022Y022162D01*
X022969Y022115D01*
X022918Y022064D01*
X022871Y022011D01*
X022826Y021956D01*
X022833Y021950D01*
X022878Y022005D01*
X022925Y022058D01*
X022975Y022108D01*
X023028Y022155D01*
X023083Y022199D01*
X023141Y022241D01*
X023200Y022278D01*
X023262Y022313D01*
X023326Y022344D01*
X023391Y022371D01*
X023458Y022395D01*
X023526Y022415D01*
X023595Y022431D01*
X023664Y022443D01*
X023735Y022452D01*
X023805Y022456D01*
X023876Y022457D01*
X023947Y022453D01*
X024017Y022446D01*
X024087Y022435D01*
X024156Y022420D01*
X024224Y022401D01*
X024292Y022379D01*
X024357Y022353D01*
X024422Y022323D01*
X024484Y022290D01*
X024544Y022253D01*
X024603Y022213D01*
X024659Y022170D01*
X024713Y022124D01*
X024763Y022074D01*
X024812Y022023D01*
X024857Y021968D01*
X024899Y021911D01*
X024938Y021852D01*
X024973Y021791D01*
X025006Y021728D01*
X025034Y021663D01*
X025059Y021597D01*
X025080Y021529D01*
X025098Y021461D01*
X025111Y021391D01*
X025121Y021321D01*
X025127Y021251D01*
X025129Y021180D01*
X025127Y021109D01*
X025121Y021039D01*
X025111Y020969D01*
X025098Y020899D01*
X025080Y020831D01*
X025059Y020763D01*
X025034Y020697D01*
X025006Y020632D01*
X024973Y020569D01*
X024938Y020508D01*
X024899Y020449D01*
X024857Y020392D01*
X024812Y020337D01*
X024763Y020286D01*
X024713Y020236D01*
X024659Y020190D01*
X024603Y020147D01*
X024544Y020107D01*
X024484Y020070D01*
X024422Y020037D01*
X024357Y020007D01*
X024292Y019981D01*
X024224Y019959D01*
X024156Y019940D01*
X024087Y019925D01*
X024017Y019914D01*
X023947Y019907D01*
X023876Y019903D01*
X023805Y019904D01*
X023735Y019908D01*
X023664Y019917D01*
X023595Y019929D01*
X023526Y019945D01*
X023458Y019965D01*
X023391Y019989D01*
X023326Y020016D01*
X023262Y020047D01*
X023200Y020082D01*
X023141Y020119D01*
X023083Y020161D01*
X023028Y020205D01*
X022975Y020252D01*
X022925Y020302D01*
X022878Y020355D01*
X022833Y020410D01*
X022841Y020415D01*
X022885Y020360D01*
X022933Y020307D01*
X022983Y020257D01*
X023036Y020209D01*
X023092Y020165D01*
X023150Y020124D01*
X023210Y020087D01*
X023272Y020052D01*
X023336Y020022D01*
X023402Y019995D01*
X023469Y019971D01*
X023537Y019952D01*
X023607Y019936D01*
X023677Y019924D01*
X023747Y019916D01*
X023818Y019912D01*
X023889Y019913D01*
X023960Y019917D01*
X024031Y019925D01*
X024101Y019937D01*
X024170Y019953D01*
X024238Y019972D01*
X024306Y019996D01*
X024371Y020023D01*
X024435Y020054D01*
X024497Y020088D01*
X024557Y020126D01*
X024615Y020168D01*
X024671Y020212D01*
X024724Y020259D01*
X024774Y020310D01*
X024821Y020363D01*
X024866Y020418D01*
X024907Y020476D01*
X024944Y020536D01*
X024979Y020599D01*
X025010Y020663D01*
X025037Y020728D01*
X025060Y020795D01*
X025080Y020864D01*
X025096Y020933D01*
X025108Y021003D01*
X025116Y021074D01*
X025120Y021144D01*
X025120Y021216D01*
X025116Y021286D01*
X025108Y021357D01*
X025096Y021427D01*
X025080Y021496D01*
X025060Y021565D01*
X025037Y021632D01*
X025010Y021697D01*
X024979Y021761D01*
X024944Y021824D01*
X024907Y021884D01*
X024866Y021942D01*
X024821Y021997D01*
X024774Y022050D01*
X024724Y022101D01*
X024671Y022148D01*
X024615Y022192D01*
X024557Y022234D01*
X024497Y022272D01*
X024435Y022306D01*
X024371Y022337D01*
X024306Y022364D01*
X024238Y022388D01*
X024170Y022407D01*
X024101Y022423D01*
X024031Y022435D01*
X023960Y022443D01*
X023889Y022447D01*
X023818Y022448D01*
X023747Y022444D01*
X023677Y022436D01*
X023607Y022424D01*
X023537Y022408D01*
X023469Y022389D01*
X023402Y022365D01*
X023336Y022338D01*
X023272Y022308D01*
X023210Y022273D01*
X023150Y022236D01*
X023092Y022195D01*
X023036Y022151D01*
X022983Y022103D01*
X022933Y022053D01*
X022885Y022000D01*
X022841Y021945D01*
X022848Y021939D01*
X022892Y021994D01*
X022939Y022047D01*
X022989Y022097D01*
X023042Y022144D01*
X023097Y022188D01*
X023155Y022228D01*
X023214Y022266D01*
X023276Y022300D01*
X023340Y022330D01*
X023405Y022357D01*
X023472Y022380D01*
X023540Y022400D01*
X023608Y022415D01*
X023678Y022427D01*
X023748Y022435D01*
X023819Y022439D01*
X023889Y022438D01*
X023960Y022434D01*
X024030Y022426D01*
X024099Y022414D01*
X024168Y022399D01*
X024236Y022379D01*
X024302Y022356D01*
X024367Y022329D01*
X024431Y022298D01*
X024493Y022264D01*
X024552Y022226D01*
X024610Y022185D01*
X024665Y022141D01*
X024718Y022094D01*
X024767Y022044D01*
X024814Y021992D01*
X024858Y021936D01*
X024899Y021879D01*
X024937Y021819D01*
X024971Y021757D01*
X025001Y021694D01*
X025028Y021629D01*
X025052Y021562D01*
X025071Y021494D01*
X025087Y021425D01*
X025099Y021356D01*
X025107Y021286D01*
X025111Y021215D01*
X025111Y021145D01*
X025107Y021074D01*
X025099Y021004D01*
X025087Y020935D01*
X025071Y020866D01*
X025052Y020798D01*
X025028Y020731D01*
X025001Y020666D01*
X024971Y020603D01*
X024937Y020541D01*
X024899Y020481D01*
X024858Y020424D01*
X024814Y020368D01*
X024767Y020316D01*
X024718Y020266D01*
X024665Y020219D01*
X024610Y020175D01*
X024552Y020134D01*
X024493Y020096D01*
X024431Y020062D01*
X024367Y020031D01*
X024302Y020004D01*
X024236Y019981D01*
X024168Y019961D01*
X024099Y019946D01*
X024030Y019934D01*
X023960Y019926D01*
X023889Y019922D01*
X023819Y019921D01*
X023748Y019925D01*
X023678Y019933D01*
X023608Y019945D01*
X023540Y019960D01*
X023472Y019980D01*
X023405Y020003D01*
X023340Y020030D01*
X023276Y020060D01*
X023214Y020094D01*
X023155Y020132D01*
X023097Y020172D01*
X023042Y020216D01*
X022989Y020263D01*
X022939Y020313D01*
X022892Y020366D01*
X022848Y020421D01*
X022855Y020426D01*
X022899Y020371D01*
X022946Y020319D01*
X022995Y020270D01*
X023048Y020223D01*
X023102Y020180D01*
X023160Y020139D01*
X023219Y020102D01*
X023280Y020068D01*
X023344Y020038D01*
X023408Y020011D01*
X023475Y019988D01*
X023542Y019969D01*
X023610Y019954D01*
X023679Y019942D01*
X023749Y019934D01*
X023819Y019930D01*
X023889Y019931D01*
X023959Y019935D01*
X024028Y019943D01*
X024097Y019954D01*
X024166Y019970D01*
X024233Y019989D01*
X024299Y020013D01*
X024364Y020040D01*
X024427Y020070D01*
X024488Y020104D01*
X024547Y020141D01*
X024605Y020182D01*
X024659Y020226D01*
X024711Y020272D01*
X024761Y020322D01*
X024808Y020374D01*
X024851Y020429D01*
X024892Y020486D01*
X024929Y020545D01*
X024963Y020607D01*
X024993Y020670D01*
X025020Y020735D01*
X025043Y020801D01*
X025062Y020868D01*
X025078Y020936D01*
X025090Y021005D01*
X025098Y021075D01*
X025102Y021145D01*
X025102Y021215D01*
X025098Y021285D01*
X025090Y021355D01*
X025078Y021424D01*
X025062Y021492D01*
X025043Y021559D01*
X025020Y021625D01*
X024993Y021690D01*
X024963Y021753D01*
X024929Y021815D01*
X024892Y021874D01*
X024851Y021931D01*
X024808Y021986D01*
X024761Y022038D01*
X024711Y022088D01*
X024659Y022134D01*
X024605Y022178D01*
X024547Y022219D01*
X024488Y022256D01*
X024427Y022290D01*
X024364Y022320D01*
X024299Y022347D01*
X024233Y022371D01*
X024166Y022390D01*
X024097Y022406D01*
X024028Y022417D01*
X023959Y022425D01*
X023889Y022429D01*
X023819Y022430D01*
X023749Y022426D01*
X023679Y022418D01*
X023610Y022406D01*
X023542Y022391D01*
X023475Y022372D01*
X023408Y022349D01*
X023344Y022322D01*
X023280Y022292D01*
X023219Y022258D01*
X023160Y022221D01*
X023102Y022180D01*
X023048Y022137D01*
X022995Y022090D01*
X022946Y022041D01*
X022899Y021989D01*
X022855Y021934D01*
X022862Y021929D01*
X022906Y021983D01*
X022952Y022035D01*
X023001Y022084D01*
X023053Y022130D01*
X023108Y022173D01*
X023165Y022213D01*
X023224Y022250D01*
X023285Y022284D01*
X023347Y022314D01*
X023412Y022340D01*
X023477Y022363D01*
X023544Y022382D01*
X023612Y022398D01*
X023681Y022409D01*
X023750Y022417D01*
X023819Y022421D01*
X023889Y022420D01*
X023958Y022416D01*
X024027Y022409D01*
X024096Y022397D01*
X024163Y022381D01*
X024230Y022362D01*
X024296Y022339D01*
X024360Y022312D01*
X024423Y022282D01*
X024484Y022248D01*
X024542Y022211D01*
X024599Y022171D01*
X024653Y022128D01*
X024705Y022081D01*
X024754Y022032D01*
X024801Y021980D01*
X024844Y021926D01*
X024884Y021869D01*
X024921Y021810D01*
X024955Y021749D01*
X024985Y021686D01*
X025012Y021622D01*
X025035Y021557D01*
X025054Y021490D01*
X025069Y021422D01*
X025081Y021353D01*
X025089Y021284D01*
X025093Y021215D01*
X025093Y021145D01*
X025089Y021076D01*
X025081Y021007D01*
X025069Y020938D01*
X025054Y020870D01*
X025035Y020803D01*
X025012Y020738D01*
X024985Y020674D01*
X024955Y020611D01*
X024921Y020550D01*
X024884Y020491D01*
X024844Y020434D01*
X024801Y020380D01*
X024754Y020328D01*
X024705Y020279D01*
X024653Y020232D01*
X024599Y020189D01*
X024542Y020149D01*
X024484Y020112D01*
X024423Y020078D01*
X024360Y020048D01*
X024296Y020021D01*
X024230Y019998D01*
X024163Y019979D01*
X024096Y019963D01*
X024027Y019951D01*
X023958Y019944D01*
X023889Y019940D01*
X023819Y019939D01*
X023750Y019943D01*
X023681Y019951D01*
X023612Y019962D01*
X023544Y019978D01*
X023477Y019997D01*
X023412Y020020D01*
X023347Y020046D01*
X023285Y020076D01*
X023224Y020110D01*
X023165Y020147D01*
X023108Y020187D01*
X023053Y020230D01*
X023001Y020276D01*
X022952Y020325D01*
X022906Y020377D01*
X022862Y020431D01*
X022869Y020437D01*
X022913Y020383D01*
X022959Y020332D01*
X023008Y020283D01*
X023059Y020237D01*
X023113Y020194D01*
X023170Y020154D01*
X023228Y020118D01*
X023289Y020084D01*
X023351Y020054D01*
X023415Y020028D01*
X023480Y020006D01*
X023546Y019987D01*
X023614Y019971D01*
X023682Y019960D01*
X023750Y019952D01*
X023819Y019948D01*
X023888Y019949D01*
X023957Y019953D01*
X024026Y019960D01*
X024094Y019972D01*
X024161Y019987D01*
X024228Y020007D01*
X024293Y020030D01*
X024356Y020056D01*
X024419Y020086D01*
X024479Y020119D01*
X024537Y020156D01*
X024594Y020196D01*
X024648Y020239D01*
X024699Y020285D01*
X024748Y020334D01*
X024794Y020386D01*
X024837Y020440D01*
X024877Y020496D01*
X024913Y020555D01*
X024947Y020615D01*
X024977Y020677D01*
X025003Y020741D01*
X025026Y020806D01*
X025045Y020873D01*
X025060Y020940D01*
X025072Y021008D01*
X025080Y021077D01*
X025084Y021145D01*
X025084Y021215D01*
X025080Y021283D01*
X025072Y021352D01*
X025060Y021420D01*
X025045Y021487D01*
X025026Y021554D01*
X025003Y021619D01*
X024977Y021683D01*
X024947Y021745D01*
X024913Y021805D01*
X024877Y021864D01*
X024837Y021920D01*
X024794Y021974D01*
X024748Y022026D01*
X024699Y022075D01*
X024648Y022121D01*
X024594Y022164D01*
X024537Y022204D01*
X024479Y022241D01*
X024419Y022274D01*
X024356Y022304D01*
X024293Y022330D01*
X024228Y022353D01*
X024161Y022373D01*
X024094Y022388D01*
X024026Y022400D01*
X023957Y022407D01*
X023888Y022411D01*
X023819Y022412D01*
X023750Y022408D01*
X023682Y022400D01*
X023614Y022389D01*
X023546Y022373D01*
X023480Y022354D01*
X023415Y022332D01*
X023351Y022306D01*
X023289Y022276D01*
X023228Y022242D01*
X023170Y022206D01*
X023113Y022166D01*
X023059Y022123D01*
X023008Y022077D01*
X022959Y022028D01*
X022913Y021977D01*
X022869Y021923D01*
X022877Y021918D01*
X022920Y021972D01*
X022966Y022023D01*
X023016Y022072D01*
X023067Y022118D01*
X023122Y022161D01*
X023179Y022201D01*
X023237Y022237D01*
X023298Y022271D01*
X023361Y022300D01*
X023425Y022326D01*
X023491Y022348D01*
X023558Y022367D01*
X023625Y022382D01*
X023694Y022393D01*
X023763Y022400D01*
X023832Y022403D01*
X023901Y022402D01*
X023971Y022397D01*
X024039Y022389D01*
X024107Y022376D01*
X024175Y022360D01*
X024241Y022339D01*
X024306Y022316D01*
X024370Y022288D01*
X024432Y022257D01*
X024492Y022222D01*
X024550Y022184D01*
X024606Y022143D01*
X024659Y022099D01*
X024710Y022052D01*
X024758Y022002D01*
X024803Y021949D01*
X024845Y021894D01*
X024884Y021837D01*
X024919Y021777D01*
X024951Y021716D01*
X024980Y021653D01*
X025005Y021588D01*
X025026Y021522D01*
X025044Y021455D01*
X025057Y021387D01*
X025067Y021318D01*
X025073Y021249D01*
X025075Y021180D01*
X025073Y021111D01*
X025067Y021042D01*
X025057Y020973D01*
X025044Y020905D01*
X025026Y020838D01*
X025005Y020772D01*
X024980Y020707D01*
X024951Y020644D01*
X024919Y020583D01*
X024884Y020523D01*
X024845Y020466D01*
X024803Y020411D01*
X024758Y020358D01*
X024710Y020308D01*
X024659Y020261D01*
X024606Y020217D01*
X024550Y020176D01*
X024492Y020138D01*
X024432Y020103D01*
X024370Y020072D01*
X024306Y020044D01*
X024241Y020021D01*
X024175Y020000D01*
X024107Y019984D01*
X024039Y019971D01*
X023971Y019963D01*
X023901Y019958D01*
X023832Y019957D01*
X023763Y019960D01*
X023694Y019967D01*
X023625Y019978D01*
X023558Y019993D01*
X023491Y020012D01*
X023425Y020034D01*
X023361Y020060D01*
X023298Y020089D01*
X023237Y020123D01*
X023179Y020159D01*
X023122Y020199D01*
X023067Y020242D01*
X023016Y020288D01*
X022966Y020337D01*
X022920Y020388D01*
X022877Y020442D01*
X022884Y020448D01*
X022927Y020394D01*
X022973Y020343D01*
X023022Y020294D01*
X023073Y020249D01*
X023127Y020206D01*
X023184Y020167D01*
X023242Y020130D01*
X023302Y020097D01*
X023365Y020068D01*
X023428Y020042D01*
X023494Y020020D01*
X023560Y020002D01*
X023627Y019987D01*
X023695Y019976D01*
X023764Y019969D01*
X023832Y019966D01*
X023901Y019967D01*
X023970Y019972D01*
X024038Y019980D01*
X024106Y019993D01*
X024172Y020009D01*
X024238Y020029D01*
X024303Y020053D01*
X024366Y020080D01*
X024427Y020111D01*
X024487Y020145D01*
X024545Y020183D01*
X024600Y020224D01*
X024653Y020268D01*
X024703Y020315D01*
X024751Y020364D01*
X024796Y020416D01*
X024838Y020471D01*
X024876Y020528D01*
X024911Y020587D01*
X024943Y020648D01*
X024972Y020711D01*
X024996Y020775D01*
X025018Y020841D01*
X025035Y020907D01*
X025048Y020975D01*
X025058Y021043D01*
X025064Y021111D01*
X025066Y021180D01*
X025064Y021249D01*
X025058Y021317D01*
X025048Y021385D01*
X025035Y021453D01*
X025018Y021519D01*
X024996Y021585D01*
X024972Y021649D01*
X024943Y021712D01*
X024911Y021773D01*
X024876Y021832D01*
X024838Y021889D01*
X024796Y021944D01*
X024751Y021996D01*
X024703Y022045D01*
X024653Y022092D01*
X024600Y022136D01*
X024545Y022177D01*
X024487Y022215D01*
X024427Y022249D01*
X024366Y022280D01*
X024303Y022307D01*
X024238Y022331D01*
X024172Y022351D01*
X024106Y022367D01*
X024038Y022380D01*
X023970Y022388D01*
X023901Y022393D01*
X023832Y022394D01*
X023764Y022391D01*
X023695Y022384D01*
X023627Y022373D01*
X023560Y022358D01*
X023494Y022340D01*
X023428Y022318D01*
X023365Y022292D01*
X023302Y022263D01*
X023242Y022230D01*
X023184Y022193D01*
X023127Y022154D01*
X023073Y022111D01*
X023022Y022066D01*
X022973Y022017D01*
X022927Y021966D01*
X022884Y021912D01*
X026915Y023550D02*
X026940Y023525D01*
X026965Y023525D01*
X026990Y023550D01*
X026990Y023675D01*
X026965Y023675D02*
X027015Y023675D01*
X027062Y023675D02*
X027137Y023675D01*
X027162Y023650D01*
X027162Y023600D01*
X027137Y023575D01*
X027062Y023575D01*
X027062Y023525D02*
X027062Y023675D01*
X027210Y023600D02*
X027285Y023600D01*
X027310Y023575D01*
X027310Y023550D01*
X027285Y023525D01*
X027235Y023525D01*
X027210Y023550D01*
X027210Y023600D01*
X027260Y023650D01*
X027310Y023675D01*
D13*
X022852Y021180D02*
X022854Y021243D01*
X022860Y021305D01*
X022870Y021367D01*
X022883Y021429D01*
X022901Y021489D01*
X022922Y021548D01*
X022947Y021606D01*
X022976Y021662D01*
X023008Y021716D01*
X023043Y021768D01*
X023081Y021817D01*
X023123Y021865D01*
X023167Y021909D01*
X023215Y021951D01*
X023264Y021989D01*
X023316Y022024D01*
X023370Y022056D01*
X023426Y022085D01*
X023484Y022110D01*
X023543Y022131D01*
X023603Y022149D01*
X023665Y022162D01*
X023727Y022172D01*
X023789Y022178D01*
X023852Y022180D01*
X023915Y022178D01*
X023977Y022172D01*
X024039Y022162D01*
X024101Y022149D01*
X024161Y022131D01*
X024220Y022110D01*
X024278Y022085D01*
X024334Y022056D01*
X024388Y022024D01*
X024440Y021989D01*
X024489Y021951D01*
X024537Y021909D01*
X024581Y021865D01*
X024623Y021817D01*
X024661Y021768D01*
X024696Y021716D01*
X024728Y021662D01*
X024757Y021606D01*
X024782Y021548D01*
X024803Y021489D01*
X024821Y021429D01*
X024834Y021367D01*
X024844Y021305D01*
X024850Y021243D01*
X024852Y021180D01*
X024850Y021117D01*
X024844Y021055D01*
X024834Y020993D01*
X024821Y020931D01*
X024803Y020871D01*
X024782Y020812D01*
X024757Y020754D01*
X024728Y020698D01*
X024696Y020644D01*
X024661Y020592D01*
X024623Y020543D01*
X024581Y020495D01*
X024537Y020451D01*
X024489Y020409D01*
X024440Y020371D01*
X024388Y020336D01*
X024334Y020304D01*
X024278Y020275D01*
X024220Y020250D01*
X024161Y020229D01*
X024101Y020211D01*
X024039Y020198D01*
X023977Y020188D01*
X023915Y020182D01*
X023852Y020180D01*
X023789Y020182D01*
X023727Y020188D01*
X023665Y020198D01*
X023603Y020211D01*
X023543Y020229D01*
X023484Y020250D01*
X023426Y020275D01*
X023370Y020304D01*
X023316Y020336D01*
X023264Y020371D01*
X023215Y020409D01*
X023167Y020451D01*
X023123Y020495D01*
X023081Y020543D01*
X023043Y020592D01*
X023008Y020644D01*
X022976Y020698D01*
X022947Y020754D01*
X022922Y020812D01*
X022901Y020871D01*
X022883Y020931D01*
X022870Y020993D01*
X022860Y021055D01*
X022854Y021117D01*
X022852Y021180D01*
X015852Y021180D02*
X015854Y021243D01*
X015860Y021305D01*
X015870Y021367D01*
X015883Y021429D01*
X015901Y021489D01*
X015922Y021548D01*
X015947Y021606D01*
X015976Y021662D01*
X016008Y021716D01*
X016043Y021768D01*
X016081Y021817D01*
X016123Y021865D01*
X016167Y021909D01*
X016215Y021951D01*
X016264Y021989D01*
X016316Y022024D01*
X016370Y022056D01*
X016426Y022085D01*
X016484Y022110D01*
X016543Y022131D01*
X016603Y022149D01*
X016665Y022162D01*
X016727Y022172D01*
X016789Y022178D01*
X016852Y022180D01*
X016915Y022178D01*
X016977Y022172D01*
X017039Y022162D01*
X017101Y022149D01*
X017161Y022131D01*
X017220Y022110D01*
X017278Y022085D01*
X017334Y022056D01*
X017388Y022024D01*
X017440Y021989D01*
X017489Y021951D01*
X017537Y021909D01*
X017581Y021865D01*
X017623Y021817D01*
X017661Y021768D01*
X017696Y021716D01*
X017728Y021662D01*
X017757Y021606D01*
X017782Y021548D01*
X017803Y021489D01*
X017821Y021429D01*
X017834Y021367D01*
X017844Y021305D01*
X017850Y021243D01*
X017852Y021180D01*
X017850Y021117D01*
X017844Y021055D01*
X017834Y020993D01*
X017821Y020931D01*
X017803Y020871D01*
X017782Y020812D01*
X017757Y020754D01*
X017728Y020698D01*
X017696Y020644D01*
X017661Y020592D01*
X017623Y020543D01*
X017581Y020495D01*
X017537Y020451D01*
X017489Y020409D01*
X017440Y020371D01*
X017388Y020336D01*
X017334Y020304D01*
X017278Y020275D01*
X017220Y020250D01*
X017161Y020229D01*
X017101Y020211D01*
X017039Y020198D01*
X016977Y020188D01*
X016915Y020182D01*
X016852Y020180D01*
X016789Y020182D01*
X016727Y020188D01*
X016665Y020198D01*
X016603Y020211D01*
X016543Y020229D01*
X016484Y020250D01*
X016426Y020275D01*
X016370Y020304D01*
X016316Y020336D01*
X016264Y020371D01*
X016215Y020409D01*
X016167Y020451D01*
X016123Y020495D01*
X016081Y020543D01*
X016043Y020592D01*
X016008Y020644D01*
X015976Y020698D01*
X015947Y020754D01*
X015922Y020812D01*
X015901Y020871D01*
X015883Y020931D01*
X015870Y020993D01*
X015860Y021055D01*
X015854Y021117D01*
X015852Y021180D01*
X008852Y021180D02*
X008854Y021243D01*
X008860Y021305D01*
X008870Y021367D01*
X008883Y021429D01*
X008901Y021489D01*
X008922Y021548D01*
X008947Y021606D01*
X008976Y021662D01*
X009008Y021716D01*
X009043Y021768D01*
X009081Y021817D01*
X009123Y021865D01*
X009167Y021909D01*
X009215Y021951D01*
X009264Y021989D01*
X009316Y022024D01*
X009370Y022056D01*
X009426Y022085D01*
X009484Y022110D01*
X009543Y022131D01*
X009603Y022149D01*
X009665Y022162D01*
X009727Y022172D01*
X009789Y022178D01*
X009852Y022180D01*
X009915Y022178D01*
X009977Y022172D01*
X010039Y022162D01*
X010101Y022149D01*
X010161Y022131D01*
X010220Y022110D01*
X010278Y022085D01*
X010334Y022056D01*
X010388Y022024D01*
X010440Y021989D01*
X010489Y021951D01*
X010537Y021909D01*
X010581Y021865D01*
X010623Y021817D01*
X010661Y021768D01*
X010696Y021716D01*
X010728Y021662D01*
X010757Y021606D01*
X010782Y021548D01*
X010803Y021489D01*
X010821Y021429D01*
X010834Y021367D01*
X010844Y021305D01*
X010850Y021243D01*
X010852Y021180D01*
X010850Y021117D01*
X010844Y021055D01*
X010834Y020993D01*
X010821Y020931D01*
X010803Y020871D01*
X010782Y020812D01*
X010757Y020754D01*
X010728Y020698D01*
X010696Y020644D01*
X010661Y020592D01*
X010623Y020543D01*
X010581Y020495D01*
X010537Y020451D01*
X010489Y020409D01*
X010440Y020371D01*
X010388Y020336D01*
X010334Y020304D01*
X010278Y020275D01*
X010220Y020250D01*
X010161Y020229D01*
X010101Y020211D01*
X010039Y020198D01*
X009977Y020188D01*
X009915Y020182D01*
X009852Y020180D01*
X009789Y020182D01*
X009727Y020188D01*
X009665Y020198D01*
X009603Y020211D01*
X009543Y020229D01*
X009484Y020250D01*
X009426Y020275D01*
X009370Y020304D01*
X009316Y020336D01*
X009264Y020371D01*
X009215Y020409D01*
X009167Y020451D01*
X009123Y020495D01*
X009081Y020543D01*
X009043Y020592D01*
X009008Y020644D01*
X008976Y020698D01*
X008947Y020754D01*
X008922Y020812D01*
X008901Y020871D01*
X008883Y020931D01*
X008870Y020993D01*
X008860Y021055D01*
X008854Y021117D01*
X008852Y021180D01*
X001852Y021180D02*
X001854Y021243D01*
X001860Y021305D01*
X001870Y021367D01*
X001883Y021429D01*
X001901Y021489D01*
X001922Y021548D01*
X001947Y021606D01*
X001976Y021662D01*
X002008Y021716D01*
X002043Y021768D01*
X002081Y021817D01*
X002123Y021865D01*
X002167Y021909D01*
X002215Y021951D01*
X002264Y021989D01*
X002316Y022024D01*
X002370Y022056D01*
X002426Y022085D01*
X002484Y022110D01*
X002543Y022131D01*
X002603Y022149D01*
X002665Y022162D01*
X002727Y022172D01*
X002789Y022178D01*
X002852Y022180D01*
X002915Y022178D01*
X002977Y022172D01*
X003039Y022162D01*
X003101Y022149D01*
X003161Y022131D01*
X003220Y022110D01*
X003278Y022085D01*
X003334Y022056D01*
X003388Y022024D01*
X003440Y021989D01*
X003489Y021951D01*
X003537Y021909D01*
X003581Y021865D01*
X003623Y021817D01*
X003661Y021768D01*
X003696Y021716D01*
X003728Y021662D01*
X003757Y021606D01*
X003782Y021548D01*
X003803Y021489D01*
X003821Y021429D01*
X003834Y021367D01*
X003844Y021305D01*
X003850Y021243D01*
X003852Y021180D01*
X003850Y021117D01*
X003844Y021055D01*
X003834Y020993D01*
X003821Y020931D01*
X003803Y020871D01*
X003782Y020812D01*
X003757Y020754D01*
X003728Y020698D01*
X003696Y020644D01*
X003661Y020592D01*
X003623Y020543D01*
X003581Y020495D01*
X003537Y020451D01*
X003489Y020409D01*
X003440Y020371D01*
X003388Y020336D01*
X003334Y020304D01*
X003278Y020275D01*
X003220Y020250D01*
X003161Y020229D01*
X003101Y020211D01*
X003039Y020198D01*
X002977Y020188D01*
X002915Y020182D01*
X002852Y020180D01*
X002789Y020182D01*
X002727Y020188D01*
X002665Y020198D01*
X002603Y020211D01*
X002543Y020229D01*
X002484Y020250D01*
X002426Y020275D01*
X002370Y020304D01*
X002316Y020336D01*
X002264Y020371D01*
X002215Y020409D01*
X002167Y020451D01*
X002123Y020495D01*
X002081Y020543D01*
X002043Y020592D01*
X002008Y020644D01*
X001976Y020698D01*
X001947Y020754D01*
X001922Y020812D01*
X001901Y020871D01*
X001883Y020931D01*
X001870Y020993D01*
X001860Y021055D01*
X001854Y021117D01*
X001852Y021180D01*
X003052Y011180D02*
X003052Y010180D01*
X004652Y010180D01*
X004652Y011180D01*
X003052Y011180D01*
X003452Y010930D02*
X003852Y010680D01*
X003852Y010930D01*
X003852Y010680D02*
X003852Y010430D01*
X003852Y010680D02*
X003452Y010430D01*
X003452Y010930D01*
X003252Y010680D02*
X003852Y010680D01*
X004102Y010680D01*
X010052Y010180D02*
X011652Y010180D01*
X011652Y011180D01*
X010052Y011180D01*
X010052Y010180D01*
X010452Y010430D02*
X010852Y010680D01*
X010852Y010930D01*
X010852Y010680D02*
X010852Y010430D01*
X010852Y010680D02*
X010252Y010680D01*
X010452Y010430D02*
X010452Y010930D01*
X010852Y010680D01*
X011102Y010680D01*
X017052Y010180D02*
X018652Y010180D01*
X018652Y011180D01*
X017052Y011180D01*
X017052Y010180D01*
X017452Y010430D02*
X017852Y010680D01*
X017852Y010930D01*
X017852Y010680D02*
X017852Y010430D01*
X017852Y010680D02*
X017252Y010680D01*
X017452Y010430D02*
X017452Y010930D01*
X017852Y010680D01*
X018102Y010680D01*
X024052Y010180D02*
X025652Y010180D01*
X025652Y011180D01*
X024052Y011180D01*
X024052Y010180D01*
X024452Y010430D02*
X024852Y010680D01*
X024852Y010930D01*
X024852Y010680D02*
X024852Y010430D01*
X024852Y010680D02*
X024252Y010680D01*
X024452Y010430D02*
X024452Y010930D01*
X024852Y010680D01*
X025102Y010680D01*
D14*
X024981Y010005D02*
X024756Y010005D01*
X024756Y009555D01*
X024981Y009555D01*
X025057Y009630D01*
X025057Y009930D01*
X024981Y010005D01*
X025217Y009930D02*
X025217Y009855D01*
X025292Y009780D01*
X025517Y009780D01*
X025517Y009630D02*
X025517Y009930D01*
X025442Y010005D01*
X025292Y010005D01*
X025217Y009930D01*
X025217Y009630D02*
X025292Y009555D01*
X025442Y009555D01*
X025517Y009630D01*
X024677Y008330D02*
X023027Y008330D01*
X023299Y007730D02*
X023405Y007730D01*
X022898Y008118D02*
X022925Y008174D01*
X022956Y008228D01*
X022990Y008280D01*
X023027Y008330D01*
X022902Y007233D02*
X022931Y007176D01*
X022964Y007120D01*
X022999Y007067D01*
X023039Y007016D01*
X023081Y006968D01*
X023126Y006922D01*
X023173Y006879D01*
X023223Y006839D01*
X023276Y006802D01*
X023331Y006769D01*
X023387Y006738D01*
X023446Y006712D01*
X023506Y006689D01*
X023567Y006669D01*
X023629Y006654D01*
X023692Y006642D01*
X023756Y006634D01*
X023820Y006630D01*
X023884Y006630D01*
X023948Y006634D01*
X024012Y006642D01*
X024075Y006654D01*
X024137Y006669D01*
X024198Y006689D01*
X024258Y006712D01*
X024317Y006738D01*
X024373Y006769D01*
X024428Y006802D01*
X024481Y006839D01*
X024531Y006879D01*
X024578Y006922D01*
X024623Y006968D01*
X024665Y007016D01*
X024705Y007067D01*
X024740Y007120D01*
X024773Y007176D01*
X024802Y007233D01*
X024405Y007730D02*
X024299Y007730D01*
X024802Y008127D02*
X024775Y008181D01*
X024745Y008232D01*
X024712Y008282D01*
X024677Y008330D01*
X024717Y006455D02*
X024417Y006455D01*
X024417Y006230D01*
X024567Y006305D01*
X024642Y006305D01*
X024717Y006230D01*
X024717Y006080D01*
X024642Y006005D01*
X024492Y006005D01*
X024417Y006080D01*
X024106Y006005D02*
X024106Y006455D01*
X023956Y006455D02*
X024257Y006455D01*
X018517Y009555D02*
X018217Y009555D01*
X018367Y009555D02*
X018367Y010005D01*
X018217Y009855D01*
X018057Y009555D02*
X017756Y009555D01*
X017906Y009555D02*
X017906Y010005D01*
X017756Y009855D01*
X017596Y009930D02*
X017596Y009630D01*
X017521Y009555D01*
X017296Y009555D01*
X017296Y010005D01*
X017521Y010005D01*
X017596Y009930D01*
X017677Y008330D02*
X016027Y008330D01*
X016299Y007730D02*
X016405Y007730D01*
X015898Y008118D02*
X015925Y008174D01*
X015956Y008228D01*
X015990Y008280D01*
X016027Y008330D01*
X015902Y007233D02*
X015931Y007176D01*
X015964Y007120D01*
X015999Y007067D01*
X016039Y007016D01*
X016081Y006968D01*
X016126Y006922D01*
X016173Y006879D01*
X016223Y006839D01*
X016276Y006802D01*
X016331Y006769D01*
X016387Y006738D01*
X016446Y006712D01*
X016506Y006689D01*
X016567Y006669D01*
X016629Y006654D01*
X016692Y006642D01*
X016756Y006634D01*
X016820Y006630D01*
X016884Y006630D01*
X016948Y006634D01*
X017012Y006642D01*
X017075Y006654D01*
X017137Y006669D01*
X017198Y006689D01*
X017258Y006712D01*
X017317Y006738D01*
X017373Y006769D01*
X017428Y006802D01*
X017481Y006839D01*
X017531Y006879D01*
X017578Y006922D01*
X017623Y006968D01*
X017665Y007016D01*
X017705Y007067D01*
X017740Y007120D01*
X017773Y007176D01*
X017802Y007233D01*
X017405Y007730D02*
X017299Y007730D01*
X017802Y008127D02*
X017775Y008181D01*
X017745Y008232D01*
X017712Y008282D01*
X017677Y008330D01*
X017717Y006455D02*
X017567Y006380D01*
X017417Y006230D01*
X017642Y006230D01*
X017717Y006155D01*
X017717Y006080D01*
X017642Y006005D01*
X017492Y006005D01*
X017417Y006080D01*
X017417Y006230D01*
X017257Y006455D02*
X016956Y006455D01*
X017106Y006455D02*
X017106Y006005D01*
X011517Y009630D02*
X011442Y009555D01*
X011292Y009555D01*
X011217Y009630D01*
X011057Y009555D02*
X010756Y009555D01*
X010906Y009555D02*
X010906Y010005D01*
X010756Y009855D01*
X010596Y009930D02*
X010596Y009630D01*
X010521Y009555D01*
X010296Y009555D01*
X010296Y010005D01*
X010521Y010005D01*
X010596Y009930D01*
X011217Y009930D02*
X011292Y010005D01*
X011442Y010005D01*
X011517Y009930D01*
X011517Y009855D01*
X011442Y009780D01*
X011517Y009705D01*
X011517Y009630D01*
X011442Y009780D02*
X011367Y009780D01*
X010677Y008330D02*
X009027Y008330D01*
X009299Y007730D02*
X009405Y007730D01*
X008898Y008118D02*
X008925Y008174D01*
X008956Y008228D01*
X008990Y008280D01*
X009027Y008330D01*
X008902Y007233D02*
X008931Y007176D01*
X008964Y007120D01*
X008999Y007067D01*
X009039Y007016D01*
X009081Y006968D01*
X009126Y006922D01*
X009173Y006879D01*
X009223Y006839D01*
X009276Y006802D01*
X009331Y006769D01*
X009387Y006738D01*
X009446Y006712D01*
X009506Y006689D01*
X009567Y006669D01*
X009629Y006654D01*
X009692Y006642D01*
X009756Y006634D01*
X009820Y006630D01*
X009884Y006630D01*
X009948Y006634D01*
X010012Y006642D01*
X010075Y006654D01*
X010137Y006669D01*
X010198Y006689D01*
X010258Y006712D01*
X010317Y006738D01*
X010373Y006769D01*
X010428Y006802D01*
X010481Y006839D01*
X010531Y006879D01*
X010578Y006922D01*
X010623Y006968D01*
X010665Y007016D01*
X010705Y007067D01*
X010740Y007120D01*
X010773Y007176D01*
X010802Y007233D01*
X010405Y007730D02*
X010299Y007730D01*
X010802Y008127D02*
X010775Y008181D01*
X010745Y008232D01*
X010712Y008282D01*
X010677Y008330D01*
X010717Y006455D02*
X010417Y006455D01*
X010257Y006455D02*
X009956Y006455D01*
X010106Y006455D02*
X010106Y006005D01*
X010417Y006005D02*
X010417Y006080D01*
X010717Y006380D01*
X010717Y006455D01*
X010533Y002375D02*
X010307Y002375D01*
X010307Y001925D01*
X010307Y002075D02*
X010533Y002075D01*
X010608Y002150D01*
X010608Y002300D01*
X010533Y002375D01*
X010768Y002225D02*
X010918Y002375D01*
X010918Y001925D01*
X010768Y001925D02*
X011068Y001925D01*
X010072Y002000D02*
X010072Y002375D01*
X009997Y002375D02*
X010147Y002375D01*
X010072Y002000D02*
X009997Y001925D01*
X009922Y001925D01*
X009847Y002000D01*
X003717Y006080D02*
X003717Y006380D01*
X003642Y006455D01*
X003492Y006455D01*
X003417Y006380D01*
X003417Y006305D01*
X003492Y006230D01*
X003717Y006230D01*
X003717Y006080D02*
X003642Y006005D01*
X003492Y006005D01*
X003417Y006080D01*
X003106Y006005D02*
X003106Y006455D01*
X002956Y006455D02*
X003257Y006455D01*
X003299Y007730D02*
X003405Y007730D01*
X003802Y008127D02*
X003775Y008181D01*
X003745Y008232D01*
X003712Y008282D01*
X003677Y008330D01*
X002027Y008330D01*
X002299Y007730D02*
X002405Y007730D01*
X001898Y008118D02*
X001925Y008174D01*
X001956Y008228D01*
X001990Y008280D01*
X002027Y008330D01*
X001902Y007233D02*
X001931Y007176D01*
X001964Y007120D01*
X001999Y007067D01*
X002039Y007016D01*
X002081Y006968D01*
X002126Y006922D01*
X002173Y006879D01*
X002223Y006839D01*
X002276Y006802D01*
X002331Y006769D01*
X002387Y006738D01*
X002446Y006712D01*
X002506Y006689D01*
X002567Y006669D01*
X002629Y006654D01*
X002692Y006642D01*
X002756Y006634D01*
X002820Y006630D01*
X002884Y006630D01*
X002948Y006634D01*
X003012Y006642D01*
X003075Y006654D01*
X003137Y006669D01*
X003198Y006689D01*
X003258Y006712D01*
X003317Y006738D01*
X003373Y006769D01*
X003428Y006802D01*
X003481Y006839D01*
X003531Y006879D01*
X003578Y006922D01*
X003623Y006968D01*
X003665Y007016D01*
X003705Y007067D01*
X003740Y007120D01*
X003773Y007176D01*
X003802Y007233D01*
X003756Y009555D02*
X004057Y009555D01*
X003906Y009555D02*
X003906Y010005D01*
X003756Y009855D01*
X003596Y009930D02*
X003521Y010005D01*
X003296Y010005D01*
X003296Y009555D01*
X003521Y009555D01*
X003596Y009630D01*
X003596Y009930D01*
X004217Y010005D02*
X004217Y009780D01*
X004367Y009855D01*
X004442Y009855D01*
X004517Y009780D01*
X004517Y009630D01*
X004442Y009555D01*
X004292Y009555D01*
X004217Y009630D01*
X004217Y010005D02*
X004517Y010005D01*
X007246Y020495D02*
X007471Y020495D01*
X007546Y020570D01*
X007546Y020870D01*
X007471Y020945D01*
X007246Y020945D01*
X007246Y020495D01*
X007706Y020495D02*
X008007Y020495D01*
X007856Y020495D02*
X007856Y020945D01*
X007706Y020795D01*
X008167Y020720D02*
X008467Y020720D01*
X008392Y020495D02*
X008392Y020945D01*
X008167Y020720D01*
X014246Y020495D02*
X014471Y020495D01*
X014546Y020570D01*
X014546Y020870D01*
X014471Y020945D01*
X014246Y020945D01*
X014246Y020495D01*
X014706Y020495D02*
X015007Y020495D01*
X014856Y020495D02*
X014856Y020945D01*
X014706Y020795D01*
X015167Y020870D02*
X015242Y020945D01*
X015392Y020945D01*
X015467Y020870D01*
X015467Y020795D01*
X015167Y020495D01*
X015467Y020495D01*
X021246Y020495D02*
X021471Y020495D01*
X021546Y020570D01*
X021546Y020870D01*
X021471Y020945D01*
X021246Y020945D01*
X021246Y020495D01*
X021706Y020495D02*
X022007Y020495D01*
X021856Y020495D02*
X021856Y020945D01*
X021706Y020795D01*
X022167Y020870D02*
X022167Y020570D01*
X022467Y020870D01*
X022467Y020570D01*
X022392Y020495D01*
X022242Y020495D01*
X022167Y020570D01*
X022167Y020870D02*
X022242Y020945D01*
X022392Y020945D01*
X022467Y020870D01*
X001467Y020945D02*
X001317Y020870D01*
X001167Y020720D01*
X001392Y020720D01*
X001467Y020645D01*
X001467Y020570D01*
X001392Y020495D01*
X001242Y020495D01*
X001167Y020570D01*
X001167Y020720D01*
X001007Y020495D02*
X000706Y020495D01*
X000856Y020495D02*
X000856Y020945D01*
X000706Y020795D01*
X000546Y020870D02*
X000546Y020570D01*
X000471Y020495D01*
X000246Y020495D01*
X000246Y020945D01*
X000471Y020945D01*
X000546Y020870D01*
D15*
X004402Y010680D03*
X011402Y010680D03*
X018402Y010680D03*
X025402Y010680D03*
D16*
X026027Y010680D03*
X023677Y010680D03*
X019027Y010680D03*
X016677Y010680D03*
X012027Y010680D03*
X009677Y010680D03*
X005027Y010680D03*
X002677Y010680D03*
D17*
X002872Y014200D02*
X003255Y014200D01*
X003332Y014277D01*
X003332Y014430D01*
X003255Y014507D01*
X002872Y014507D01*
X002948Y014660D02*
X002872Y014737D01*
X002872Y014891D01*
X002948Y014967D01*
X002948Y015121D02*
X003025Y015121D01*
X003102Y015198D01*
X003102Y015351D01*
X003179Y015428D01*
X003255Y015428D01*
X003332Y015351D01*
X003332Y015198D01*
X003255Y015121D01*
X003179Y015121D01*
X003102Y015198D01*
X003102Y015351D02*
X003025Y015428D01*
X002948Y015428D01*
X002872Y015351D01*
X002872Y015198D01*
X002948Y015121D01*
X003102Y014891D02*
X003102Y014737D01*
X003025Y014660D01*
X002948Y014660D01*
X002795Y014814D02*
X003409Y014814D01*
X003332Y014891D02*
X003255Y014967D01*
X003179Y014967D01*
X003102Y014891D01*
X003332Y014891D02*
X003332Y014737D01*
X003255Y014660D01*
X009795Y014814D02*
X010409Y014814D01*
X010332Y014737D02*
X010332Y014891D01*
X010255Y014967D01*
X010179Y014967D01*
X010102Y014891D01*
X010102Y014737D01*
X010025Y014660D01*
X009948Y014660D01*
X009872Y014737D01*
X009872Y014891D01*
X009948Y014967D01*
X009872Y015121D02*
X009872Y015428D01*
X009948Y015428D01*
X010255Y015121D01*
X010332Y015121D01*
X010332Y014737D02*
X010255Y014660D01*
X010255Y014507D02*
X009872Y014507D01*
X010255Y014507D02*
X010332Y014430D01*
X010332Y014277D01*
X010255Y014200D01*
X009872Y014200D01*
X016795Y014814D02*
X017409Y014814D01*
X017332Y014891D02*
X017255Y014967D01*
X017179Y014967D01*
X017102Y014891D01*
X017102Y014737D01*
X017025Y014660D01*
X016948Y014660D01*
X016872Y014737D01*
X016872Y014891D01*
X016948Y014967D01*
X017102Y015121D02*
X017102Y015351D01*
X017179Y015428D01*
X017255Y015428D01*
X017332Y015351D01*
X017332Y015198D01*
X017255Y015121D01*
X017102Y015121D01*
X016948Y015274D01*
X016872Y015428D01*
X017332Y014891D02*
X017332Y014737D01*
X017255Y014660D01*
X017255Y014507D02*
X016872Y014507D01*
X017255Y014507D02*
X017332Y014430D01*
X017332Y014277D01*
X017255Y014200D01*
X016872Y014200D01*
X023795Y014814D02*
X024409Y014814D01*
X024332Y014891D02*
X024255Y014967D01*
X024179Y014967D01*
X024102Y014891D01*
X024102Y014737D01*
X024025Y014660D01*
X023948Y014660D01*
X023872Y014737D01*
X023872Y014891D01*
X023948Y014967D01*
X023872Y015121D02*
X024102Y015121D01*
X024025Y015274D01*
X024025Y015351D01*
X024102Y015428D01*
X024255Y015428D01*
X024332Y015351D01*
X024332Y015198D01*
X024255Y015121D01*
X024332Y014891D02*
X024332Y014737D01*
X024255Y014660D01*
X024255Y014507D02*
X023872Y014507D01*
X023872Y014200D02*
X024255Y014200D01*
X024332Y014277D01*
X024332Y014430D01*
X024255Y014507D01*
X023872Y015121D02*
X023872Y015428D01*
M02*
