G75*
%MOIN*%
%OFA0B0*%
%FSLAX24Y24*%
%IPPOS*%
%LPD*%
%AMOC8*
5,1,8,0,0,1.08239X$1,22.5*
%
%ADD10C,0.0000*%
%ADD11C,0.0080*%
%ADD12C,0.0050*%
%ADD13C,0.0060*%
D10*
X004000Y000150D02*
X004000Y029146D01*
X039370Y029146D01*
X039370Y000150D01*
X004000Y000150D01*
X005625Y007900D02*
X005627Y007950D01*
X005633Y007999D01*
X005643Y008048D01*
X005656Y008095D01*
X005674Y008142D01*
X005695Y008187D01*
X005719Y008230D01*
X005747Y008271D01*
X005778Y008310D01*
X005812Y008346D01*
X005849Y008380D01*
X005889Y008410D01*
X005930Y008437D01*
X005974Y008461D01*
X006019Y008481D01*
X006066Y008497D01*
X006114Y008510D01*
X006163Y008519D01*
X006213Y008524D01*
X006262Y008525D01*
X006312Y008522D01*
X006361Y008515D01*
X006410Y008504D01*
X006457Y008490D01*
X006503Y008471D01*
X006548Y008449D01*
X006591Y008424D01*
X006631Y008395D01*
X006669Y008363D01*
X006705Y008329D01*
X006738Y008291D01*
X006767Y008251D01*
X006793Y008209D01*
X006816Y008165D01*
X006835Y008119D01*
X006851Y008072D01*
X006863Y008023D01*
X006871Y007974D01*
X006875Y007925D01*
X006875Y007875D01*
X006871Y007826D01*
X006863Y007777D01*
X006851Y007728D01*
X006835Y007681D01*
X006816Y007635D01*
X006793Y007591D01*
X006767Y007549D01*
X006738Y007509D01*
X006705Y007471D01*
X006669Y007437D01*
X006631Y007405D01*
X006591Y007376D01*
X006548Y007351D01*
X006503Y007329D01*
X006457Y007310D01*
X006410Y007296D01*
X006361Y007285D01*
X006312Y007278D01*
X006262Y007275D01*
X006213Y007276D01*
X006163Y007281D01*
X006114Y007290D01*
X006066Y007303D01*
X006019Y007319D01*
X005974Y007339D01*
X005930Y007363D01*
X005889Y007390D01*
X005849Y007420D01*
X005812Y007454D01*
X005778Y007490D01*
X005747Y007529D01*
X005719Y007570D01*
X005695Y007613D01*
X005674Y007658D01*
X005656Y007705D01*
X005643Y007752D01*
X005633Y007801D01*
X005627Y007850D01*
X005625Y007900D01*
X005625Y026900D02*
X005627Y026950D01*
X005633Y026999D01*
X005643Y027048D01*
X005656Y027095D01*
X005674Y027142D01*
X005695Y027187D01*
X005719Y027230D01*
X005747Y027271D01*
X005778Y027310D01*
X005812Y027346D01*
X005849Y027380D01*
X005889Y027410D01*
X005930Y027437D01*
X005974Y027461D01*
X006019Y027481D01*
X006066Y027497D01*
X006114Y027510D01*
X006163Y027519D01*
X006213Y027524D01*
X006262Y027525D01*
X006312Y027522D01*
X006361Y027515D01*
X006410Y027504D01*
X006457Y027490D01*
X006503Y027471D01*
X006548Y027449D01*
X006591Y027424D01*
X006631Y027395D01*
X006669Y027363D01*
X006705Y027329D01*
X006738Y027291D01*
X006767Y027251D01*
X006793Y027209D01*
X006816Y027165D01*
X006835Y027119D01*
X006851Y027072D01*
X006863Y027023D01*
X006871Y026974D01*
X006875Y026925D01*
X006875Y026875D01*
X006871Y026826D01*
X006863Y026777D01*
X006851Y026728D01*
X006835Y026681D01*
X006816Y026635D01*
X006793Y026591D01*
X006767Y026549D01*
X006738Y026509D01*
X006705Y026471D01*
X006669Y026437D01*
X006631Y026405D01*
X006591Y026376D01*
X006548Y026351D01*
X006503Y026329D01*
X006457Y026310D01*
X006410Y026296D01*
X006361Y026285D01*
X006312Y026278D01*
X006262Y026275D01*
X006213Y026276D01*
X006163Y026281D01*
X006114Y026290D01*
X006066Y026303D01*
X006019Y026319D01*
X005974Y026339D01*
X005930Y026363D01*
X005889Y026390D01*
X005849Y026420D01*
X005812Y026454D01*
X005778Y026490D01*
X005747Y026529D01*
X005719Y026570D01*
X005695Y026613D01*
X005674Y026658D01*
X005656Y026705D01*
X005643Y026752D01*
X005633Y026801D01*
X005627Y026850D01*
X005625Y026900D01*
X031625Y025650D02*
X031627Y025700D01*
X031633Y025749D01*
X031643Y025798D01*
X031656Y025845D01*
X031674Y025892D01*
X031695Y025937D01*
X031719Y025980D01*
X031747Y026021D01*
X031778Y026060D01*
X031812Y026096D01*
X031849Y026130D01*
X031889Y026160D01*
X031930Y026187D01*
X031974Y026211D01*
X032019Y026231D01*
X032066Y026247D01*
X032114Y026260D01*
X032163Y026269D01*
X032213Y026274D01*
X032262Y026275D01*
X032312Y026272D01*
X032361Y026265D01*
X032410Y026254D01*
X032457Y026240D01*
X032503Y026221D01*
X032548Y026199D01*
X032591Y026174D01*
X032631Y026145D01*
X032669Y026113D01*
X032705Y026079D01*
X032738Y026041D01*
X032767Y026001D01*
X032793Y025959D01*
X032816Y025915D01*
X032835Y025869D01*
X032851Y025822D01*
X032863Y025773D01*
X032871Y025724D01*
X032875Y025675D01*
X032875Y025625D01*
X032871Y025576D01*
X032863Y025527D01*
X032851Y025478D01*
X032835Y025431D01*
X032816Y025385D01*
X032793Y025341D01*
X032767Y025299D01*
X032738Y025259D01*
X032705Y025221D01*
X032669Y025187D01*
X032631Y025155D01*
X032591Y025126D01*
X032548Y025101D01*
X032503Y025079D01*
X032457Y025060D01*
X032410Y025046D01*
X032361Y025035D01*
X032312Y025028D01*
X032262Y025025D01*
X032213Y025026D01*
X032163Y025031D01*
X032114Y025040D01*
X032066Y025053D01*
X032019Y025069D01*
X031974Y025089D01*
X031930Y025113D01*
X031889Y025140D01*
X031849Y025170D01*
X031812Y025204D01*
X031778Y025240D01*
X031747Y025279D01*
X031719Y025320D01*
X031695Y025363D01*
X031674Y025408D01*
X031656Y025455D01*
X031643Y025502D01*
X031633Y025551D01*
X031627Y025600D01*
X031625Y025650D01*
X031625Y009150D02*
X031627Y009200D01*
X031633Y009249D01*
X031643Y009298D01*
X031656Y009345D01*
X031674Y009392D01*
X031695Y009437D01*
X031719Y009480D01*
X031747Y009521D01*
X031778Y009560D01*
X031812Y009596D01*
X031849Y009630D01*
X031889Y009660D01*
X031930Y009687D01*
X031974Y009711D01*
X032019Y009731D01*
X032066Y009747D01*
X032114Y009760D01*
X032163Y009769D01*
X032213Y009774D01*
X032262Y009775D01*
X032312Y009772D01*
X032361Y009765D01*
X032410Y009754D01*
X032457Y009740D01*
X032503Y009721D01*
X032548Y009699D01*
X032591Y009674D01*
X032631Y009645D01*
X032669Y009613D01*
X032705Y009579D01*
X032738Y009541D01*
X032767Y009501D01*
X032793Y009459D01*
X032816Y009415D01*
X032835Y009369D01*
X032851Y009322D01*
X032863Y009273D01*
X032871Y009224D01*
X032875Y009175D01*
X032875Y009125D01*
X032871Y009076D01*
X032863Y009027D01*
X032851Y008978D01*
X032835Y008931D01*
X032816Y008885D01*
X032793Y008841D01*
X032767Y008799D01*
X032738Y008759D01*
X032705Y008721D01*
X032669Y008687D01*
X032631Y008655D01*
X032591Y008626D01*
X032548Y008601D01*
X032503Y008579D01*
X032457Y008560D01*
X032410Y008546D01*
X032361Y008535D01*
X032312Y008528D01*
X032262Y008525D01*
X032213Y008526D01*
X032163Y008531D01*
X032114Y008540D01*
X032066Y008553D01*
X032019Y008569D01*
X031974Y008589D01*
X031930Y008613D01*
X031889Y008640D01*
X031849Y008670D01*
X031812Y008704D01*
X031778Y008740D01*
X031747Y008779D01*
X031719Y008820D01*
X031695Y008863D01*
X031674Y008908D01*
X031656Y008955D01*
X031643Y009002D01*
X031633Y009051D01*
X031627Y009100D01*
X031625Y009150D01*
D11*
X031750Y003150D02*
X031250Y003150D01*
X031000Y002900D01*
X031000Y002400D01*
X031250Y002150D01*
X031750Y002150D01*
X032000Y002400D01*
X032250Y002150D01*
X032750Y002150D01*
X033000Y002400D01*
X033250Y002150D01*
X033750Y002150D01*
X034000Y002400D01*
X034250Y002150D01*
X034750Y002150D01*
X035000Y002400D01*
X035250Y002150D01*
X035750Y002150D01*
X036000Y002400D01*
X036250Y002150D01*
X036750Y002150D01*
X037000Y002400D01*
X037000Y002900D01*
X036750Y003150D01*
X036250Y003150D01*
X036000Y002900D01*
X035750Y003150D01*
X035250Y003150D01*
X035000Y002900D01*
X034750Y003150D01*
X034250Y003150D01*
X034000Y002900D01*
X033750Y003150D01*
X033250Y003150D01*
X033000Y002900D01*
X032750Y003150D01*
X032250Y003150D01*
X032000Y002900D01*
X031750Y003150D01*
X010000Y002400D02*
X010000Y001900D01*
X009750Y001650D01*
X009250Y001650D01*
X009000Y001900D01*
X008750Y001650D01*
X008250Y001650D01*
X008000Y001900D01*
X007750Y001650D01*
X007250Y001650D01*
X007000Y001900D01*
X006750Y001650D01*
X006250Y001650D01*
X006000Y001900D01*
X005750Y001650D01*
X005250Y001650D01*
X005000Y001900D01*
X005000Y002400D01*
X005250Y002650D01*
X005750Y002650D01*
X006000Y002400D01*
X006250Y002650D01*
X006750Y002650D01*
X007000Y002400D01*
X007250Y002650D01*
X007750Y002650D01*
X008000Y002400D01*
X008250Y002650D01*
X008750Y002650D01*
X009000Y002400D01*
X009250Y002650D01*
X009750Y002650D01*
X010000Y002400D01*
X007460Y007480D02*
X007040Y007480D01*
X007040Y007690D01*
X007110Y007760D01*
X007250Y007760D01*
X007320Y007690D01*
X007320Y007480D01*
X007390Y007940D02*
X007460Y008010D01*
X007460Y008150D01*
X007390Y008220D01*
X007110Y008220D01*
X007040Y008150D01*
X007040Y008010D01*
X007110Y007940D01*
X007180Y007940D01*
X007250Y008010D01*
X007250Y008220D01*
X007680Y026210D02*
X007540Y026350D01*
X007960Y026350D01*
X007960Y026210D02*
X007960Y026490D01*
X007460Y026480D02*
X007040Y026480D01*
X007040Y026690D01*
X007110Y026760D01*
X007250Y026760D01*
X007320Y026690D01*
X007320Y026480D01*
X007320Y026940D02*
X007250Y027010D01*
X007250Y027150D01*
X007320Y027220D01*
X007390Y027220D01*
X007460Y027150D01*
X007460Y027010D01*
X007390Y026940D01*
X007320Y026940D01*
X007250Y027010D02*
X007180Y026940D01*
X007110Y026940D01*
X007040Y027010D01*
X007040Y027150D01*
X007110Y027220D01*
X007180Y027220D01*
X007250Y027150D01*
D12*
X031145Y003845D02*
X031295Y003845D01*
X031220Y003845D02*
X031220Y003470D01*
X031145Y003395D01*
X031070Y003395D01*
X030995Y003470D01*
X031455Y003395D02*
X031455Y003845D01*
X031681Y003845D01*
X031756Y003770D01*
X031756Y003620D01*
X031681Y003545D01*
X031455Y003545D01*
X031916Y003395D02*
X032216Y003695D01*
X032216Y003770D01*
X032141Y003845D01*
X031991Y003845D01*
X031916Y003770D01*
X031916Y003395D02*
X032216Y003395D01*
X006216Y002895D02*
X005916Y002895D01*
X006066Y002895D02*
X006066Y003345D01*
X005916Y003195D01*
X005756Y003120D02*
X005681Y003045D01*
X005455Y003045D01*
X005455Y002895D02*
X005455Y003345D01*
X005681Y003345D01*
X005756Y003270D01*
X005756Y003120D01*
X005295Y003345D02*
X005145Y003345D01*
X005220Y003345D02*
X005220Y002970D01*
X005145Y002895D01*
X005070Y002895D01*
X004995Y002970D01*
D13*
X007743Y007246D02*
X007630Y007359D01*
X007970Y007359D01*
X007970Y007246D02*
X007970Y007473D01*
X007970Y008246D02*
X007743Y008473D01*
X007686Y008473D01*
X007630Y008416D01*
X007630Y008303D01*
X007686Y008246D01*
X007970Y008246D02*
X007970Y008473D01*
X031130Y008657D02*
X031186Y008543D01*
X031300Y008430D01*
X031300Y008600D01*
X031357Y008657D01*
X031413Y008657D01*
X031470Y008600D01*
X031470Y008487D01*
X031413Y008430D01*
X031300Y008430D01*
X031300Y008289D02*
X031300Y008062D01*
X031130Y008232D01*
X031470Y008232D01*
X031413Y007657D02*
X031470Y007600D01*
X031470Y007487D01*
X031413Y007430D01*
X031300Y007430D02*
X031243Y007543D01*
X031243Y007600D01*
X031300Y007657D01*
X031413Y007657D01*
X031300Y007430D02*
X031130Y007430D01*
X031130Y007657D01*
X031300Y007289D02*
X031300Y007062D01*
X031130Y007232D01*
X031470Y007232D01*
X031300Y026062D02*
X031300Y026289D01*
X031300Y026430D02*
X031243Y026543D01*
X031243Y026600D01*
X031300Y026657D01*
X031413Y026657D01*
X031470Y026600D01*
X031470Y026487D01*
X031413Y026430D01*
X031300Y026430D02*
X031130Y026430D01*
X031130Y026657D01*
X031130Y026232D02*
X031300Y026062D01*
X031470Y026232D02*
X031130Y026232D01*
X031300Y027062D02*
X031130Y027232D01*
X031470Y027232D01*
X031300Y027289D02*
X031300Y027062D01*
X031300Y027430D02*
X031300Y027600D01*
X031357Y027657D01*
X031413Y027657D01*
X031470Y027600D01*
X031470Y027487D01*
X031413Y027430D01*
X031300Y027430D01*
X031186Y027543D01*
X031130Y027657D01*
X007970Y027473D02*
X007970Y027246D01*
X007743Y027473D01*
X007686Y027473D01*
X007630Y027416D01*
X007630Y027303D01*
X007686Y027246D01*
M02*
