G75*
%MOIN*%
%OFA0B0*%
%FSLAX24Y24*%
%IPPOS*%
%LPD*%
%AMOC8*
5,1,8,0,0,1.08239X$1,22.5*
%
%ADD10C,0.0000*%
%ADD11C,0.0080*%
%ADD12C,0.0050*%
%ADD13C,0.0040*%
%ADD14C,0.0060*%
D10*
X000150Y000150D02*
X000150Y027646D01*
X035520Y027646D01*
X035520Y000150D01*
X000150Y000150D01*
X005775Y004900D02*
X005777Y004950D01*
X005783Y004999D01*
X005793Y005048D01*
X005806Y005095D01*
X005824Y005142D01*
X005845Y005187D01*
X005869Y005230D01*
X005897Y005271D01*
X005928Y005310D01*
X005962Y005346D01*
X005999Y005380D01*
X006039Y005410D01*
X006080Y005437D01*
X006124Y005461D01*
X006169Y005481D01*
X006216Y005497D01*
X006264Y005510D01*
X006313Y005519D01*
X006363Y005524D01*
X006412Y005525D01*
X006462Y005522D01*
X006511Y005515D01*
X006560Y005504D01*
X006607Y005490D01*
X006653Y005471D01*
X006698Y005449D01*
X006741Y005424D01*
X006781Y005395D01*
X006819Y005363D01*
X006855Y005329D01*
X006888Y005291D01*
X006917Y005251D01*
X006943Y005209D01*
X006966Y005165D01*
X006985Y005119D01*
X007001Y005072D01*
X007013Y005023D01*
X007021Y004974D01*
X007025Y004925D01*
X007025Y004875D01*
X007021Y004826D01*
X007013Y004777D01*
X007001Y004728D01*
X006985Y004681D01*
X006966Y004635D01*
X006943Y004591D01*
X006917Y004549D01*
X006888Y004509D01*
X006855Y004471D01*
X006819Y004437D01*
X006781Y004405D01*
X006741Y004376D01*
X006698Y004351D01*
X006653Y004329D01*
X006607Y004310D01*
X006560Y004296D01*
X006511Y004285D01*
X006462Y004278D01*
X006412Y004275D01*
X006363Y004276D01*
X006313Y004281D01*
X006264Y004290D01*
X006216Y004303D01*
X006169Y004319D01*
X006124Y004339D01*
X006080Y004363D01*
X006039Y004390D01*
X005999Y004420D01*
X005962Y004454D01*
X005928Y004490D01*
X005897Y004529D01*
X005869Y004570D01*
X005845Y004613D01*
X005824Y004658D01*
X005806Y004705D01*
X005793Y004752D01*
X005783Y004801D01*
X005777Y004850D01*
X005775Y004900D01*
X005775Y023900D02*
X005777Y023950D01*
X005783Y023999D01*
X005793Y024048D01*
X005806Y024095D01*
X005824Y024142D01*
X005845Y024187D01*
X005869Y024230D01*
X005897Y024271D01*
X005928Y024310D01*
X005962Y024346D01*
X005999Y024380D01*
X006039Y024410D01*
X006080Y024437D01*
X006124Y024461D01*
X006169Y024481D01*
X006216Y024497D01*
X006264Y024510D01*
X006313Y024519D01*
X006363Y024524D01*
X006412Y024525D01*
X006462Y024522D01*
X006511Y024515D01*
X006560Y024504D01*
X006607Y024490D01*
X006653Y024471D01*
X006698Y024449D01*
X006741Y024424D01*
X006781Y024395D01*
X006819Y024363D01*
X006855Y024329D01*
X006888Y024291D01*
X006917Y024251D01*
X006943Y024209D01*
X006966Y024165D01*
X006985Y024119D01*
X007001Y024072D01*
X007013Y024023D01*
X007021Y023974D01*
X007025Y023925D01*
X007025Y023875D01*
X007021Y023826D01*
X007013Y023777D01*
X007001Y023728D01*
X006985Y023681D01*
X006966Y023635D01*
X006943Y023591D01*
X006917Y023549D01*
X006888Y023509D01*
X006855Y023471D01*
X006819Y023437D01*
X006781Y023405D01*
X006741Y023376D01*
X006698Y023351D01*
X006653Y023329D01*
X006607Y023310D01*
X006560Y023296D01*
X006511Y023285D01*
X006462Y023278D01*
X006412Y023275D01*
X006363Y023276D01*
X006313Y023281D01*
X006264Y023290D01*
X006216Y023303D01*
X006169Y023319D01*
X006124Y023339D01*
X006080Y023363D01*
X006039Y023390D01*
X005999Y023420D01*
X005962Y023454D01*
X005928Y023490D01*
X005897Y023529D01*
X005869Y023570D01*
X005845Y023613D01*
X005824Y023658D01*
X005806Y023705D01*
X005793Y023752D01*
X005783Y023801D01*
X005777Y023850D01*
X005775Y023900D01*
X031775Y022650D02*
X031777Y022700D01*
X031783Y022749D01*
X031793Y022798D01*
X031806Y022845D01*
X031824Y022892D01*
X031845Y022937D01*
X031869Y022980D01*
X031897Y023021D01*
X031928Y023060D01*
X031962Y023096D01*
X031999Y023130D01*
X032039Y023160D01*
X032080Y023187D01*
X032124Y023211D01*
X032169Y023231D01*
X032216Y023247D01*
X032264Y023260D01*
X032313Y023269D01*
X032363Y023274D01*
X032412Y023275D01*
X032462Y023272D01*
X032511Y023265D01*
X032560Y023254D01*
X032607Y023240D01*
X032653Y023221D01*
X032698Y023199D01*
X032741Y023174D01*
X032781Y023145D01*
X032819Y023113D01*
X032855Y023079D01*
X032888Y023041D01*
X032917Y023001D01*
X032943Y022959D01*
X032966Y022915D01*
X032985Y022869D01*
X033001Y022822D01*
X033013Y022773D01*
X033021Y022724D01*
X033025Y022675D01*
X033025Y022625D01*
X033021Y022576D01*
X033013Y022527D01*
X033001Y022478D01*
X032985Y022431D01*
X032966Y022385D01*
X032943Y022341D01*
X032917Y022299D01*
X032888Y022259D01*
X032855Y022221D01*
X032819Y022187D01*
X032781Y022155D01*
X032741Y022126D01*
X032698Y022101D01*
X032653Y022079D01*
X032607Y022060D01*
X032560Y022046D01*
X032511Y022035D01*
X032462Y022028D01*
X032412Y022025D01*
X032363Y022026D01*
X032313Y022031D01*
X032264Y022040D01*
X032216Y022053D01*
X032169Y022069D01*
X032124Y022089D01*
X032080Y022113D01*
X032039Y022140D01*
X031999Y022170D01*
X031962Y022204D01*
X031928Y022240D01*
X031897Y022279D01*
X031869Y022320D01*
X031845Y022363D01*
X031824Y022408D01*
X031806Y022455D01*
X031793Y022502D01*
X031783Y022551D01*
X031777Y022600D01*
X031775Y022650D01*
X031775Y006150D02*
X031777Y006200D01*
X031783Y006249D01*
X031793Y006298D01*
X031806Y006345D01*
X031824Y006392D01*
X031845Y006437D01*
X031869Y006480D01*
X031897Y006521D01*
X031928Y006560D01*
X031962Y006596D01*
X031999Y006630D01*
X032039Y006660D01*
X032080Y006687D01*
X032124Y006711D01*
X032169Y006731D01*
X032216Y006747D01*
X032264Y006760D01*
X032313Y006769D01*
X032363Y006774D01*
X032412Y006775D01*
X032462Y006772D01*
X032511Y006765D01*
X032560Y006754D01*
X032607Y006740D01*
X032653Y006721D01*
X032698Y006699D01*
X032741Y006674D01*
X032781Y006645D01*
X032819Y006613D01*
X032855Y006579D01*
X032888Y006541D01*
X032917Y006501D01*
X032943Y006459D01*
X032966Y006415D01*
X032985Y006369D01*
X033001Y006322D01*
X033013Y006273D01*
X033021Y006224D01*
X033025Y006175D01*
X033025Y006125D01*
X033021Y006076D01*
X033013Y006027D01*
X033001Y005978D01*
X032985Y005931D01*
X032966Y005885D01*
X032943Y005841D01*
X032917Y005799D01*
X032888Y005759D01*
X032855Y005721D01*
X032819Y005687D01*
X032781Y005655D01*
X032741Y005626D01*
X032698Y005601D01*
X032653Y005579D01*
X032607Y005560D01*
X032560Y005546D01*
X032511Y005535D01*
X032462Y005528D01*
X032412Y005525D01*
X032363Y005526D01*
X032313Y005531D01*
X032264Y005540D01*
X032216Y005553D01*
X032169Y005569D01*
X032124Y005589D01*
X032080Y005613D01*
X032039Y005640D01*
X031999Y005670D01*
X031962Y005704D01*
X031928Y005740D01*
X031897Y005779D01*
X031869Y005820D01*
X031845Y005863D01*
X031824Y005908D01*
X031806Y005955D01*
X031793Y006002D01*
X031783Y006051D01*
X031777Y006100D01*
X031775Y006150D01*
D11*
X031900Y002100D02*
X031400Y002100D01*
X031150Y001850D01*
X031150Y001350D01*
X030900Y001100D01*
X030400Y001100D01*
X030150Y001350D01*
X030150Y001850D01*
X030400Y002100D01*
X030900Y002100D01*
X031150Y001850D01*
X031150Y001350D02*
X031400Y001100D01*
X031900Y001100D01*
X032150Y001350D01*
X032150Y001850D01*
X032400Y002100D01*
X032900Y002100D01*
X033150Y001850D01*
X033150Y001350D01*
X032900Y001100D01*
X032400Y001100D01*
X032150Y001350D01*
X032150Y001850D02*
X031900Y002100D01*
X030150Y001850D02*
X029900Y002100D01*
X029400Y002100D01*
X029150Y001850D01*
X029150Y001350D01*
X028900Y001100D01*
X028400Y001100D01*
X028150Y001350D01*
X028150Y001850D01*
X028400Y002100D01*
X028900Y002100D01*
X029150Y001850D01*
X029150Y001350D02*
X029400Y001100D01*
X029900Y001100D01*
X030150Y001350D01*
X028150Y001350D02*
X027900Y001100D01*
X027400Y001100D01*
X027150Y001350D01*
X027150Y001850D01*
X027400Y002100D01*
X027900Y002100D01*
X028150Y001850D01*
X007610Y004480D02*
X007190Y004480D01*
X007190Y004690D01*
X007260Y004760D01*
X007400Y004760D01*
X007470Y004690D01*
X007470Y004480D01*
X007540Y004940D02*
X007610Y005010D01*
X007610Y005150D01*
X007540Y005220D01*
X007260Y005220D01*
X007190Y005150D01*
X007190Y005010D01*
X007260Y004940D01*
X007330Y004940D01*
X007400Y005010D01*
X007400Y005220D01*
X005900Y001650D02*
X005400Y001650D01*
X005150Y001400D01*
X004900Y001650D01*
X004400Y001650D01*
X004150Y001400D01*
X003900Y001650D01*
X003400Y001650D01*
X003150Y001400D01*
X002900Y001650D01*
X002400Y001650D01*
X002150Y001400D01*
X001900Y001650D01*
X001400Y001650D01*
X001150Y001400D01*
X001150Y000900D01*
X001400Y000650D01*
X001900Y000650D01*
X002150Y000900D01*
X002400Y000650D01*
X002900Y000650D01*
X003150Y000900D01*
X003400Y000650D01*
X003900Y000650D01*
X004150Y000900D01*
X004400Y000650D01*
X004900Y000650D01*
X005150Y000900D01*
X005400Y000650D01*
X005900Y000650D01*
X006150Y000900D01*
X006150Y001400D01*
X005900Y001650D01*
X007830Y023210D02*
X007690Y023350D01*
X008110Y023350D01*
X008110Y023210D02*
X008110Y023490D01*
X007610Y023480D02*
X007190Y023480D01*
X007190Y023690D01*
X007260Y023760D01*
X007400Y023760D01*
X007470Y023690D01*
X007470Y023480D01*
X007470Y023940D02*
X007400Y024010D01*
X007400Y024150D01*
X007470Y024220D01*
X007540Y024220D01*
X007610Y024150D01*
X007610Y024010D01*
X007540Y023940D01*
X007470Y023940D01*
X007400Y024010D02*
X007330Y023940D01*
X007260Y023940D01*
X007190Y024010D01*
X007190Y024150D01*
X007260Y024220D01*
X007330Y024220D01*
X007400Y024150D01*
D12*
X002216Y002345D02*
X002216Y001895D01*
X002066Y001895D02*
X002366Y001895D01*
X002066Y002195D02*
X002216Y002345D01*
X001906Y002270D02*
X001906Y002120D01*
X001831Y002045D01*
X001605Y002045D01*
X001605Y001895D02*
X001605Y002345D01*
X001831Y002345D01*
X001906Y002270D01*
X001445Y002345D02*
X001295Y002345D01*
X001370Y002345D02*
X001370Y001970D01*
X001295Y001895D01*
X001220Y001895D01*
X001145Y001970D01*
D13*
X027170Y002447D02*
X027247Y002370D01*
X027323Y002370D01*
X027400Y002447D01*
X027400Y002830D01*
X027323Y002830D02*
X027477Y002830D01*
X027630Y002830D02*
X027861Y002830D01*
X027937Y002754D01*
X027937Y002600D01*
X027861Y002523D01*
X027630Y002523D01*
X027630Y002370D02*
X027630Y002830D01*
X028091Y002754D02*
X028168Y002830D01*
X028321Y002830D01*
X028398Y002754D01*
X028398Y002677D01*
X028091Y002370D01*
X028398Y002370D01*
D14*
X031280Y004232D02*
X031450Y004062D01*
X031450Y004289D01*
X031450Y004430D02*
X031393Y004543D01*
X031393Y004600D01*
X031450Y004657D01*
X031563Y004657D01*
X031620Y004600D01*
X031620Y004487D01*
X031563Y004430D01*
X031450Y004430D02*
X031280Y004430D01*
X031280Y004657D01*
X031280Y004232D02*
X031620Y004232D01*
X031450Y005062D02*
X031280Y005232D01*
X031620Y005232D01*
X031450Y005289D02*
X031450Y005062D01*
X031450Y005430D02*
X031336Y005543D01*
X031280Y005657D01*
X031450Y005600D02*
X031450Y005430D01*
X031563Y005430D01*
X031620Y005487D01*
X031620Y005600D01*
X031563Y005657D01*
X031507Y005657D01*
X031450Y005600D01*
X031450Y023062D02*
X031280Y023232D01*
X031620Y023232D01*
X031450Y023289D02*
X031450Y023062D01*
X031450Y023430D02*
X031280Y023430D01*
X031280Y023657D01*
X031393Y023600D02*
X031393Y023543D01*
X031450Y023430D01*
X031563Y023430D02*
X031620Y023487D01*
X031620Y023600D01*
X031563Y023657D01*
X031450Y023657D01*
X031393Y023600D01*
X031450Y024062D02*
X031450Y024289D01*
X031450Y024430D02*
X031336Y024543D01*
X031280Y024657D01*
X031450Y024600D02*
X031450Y024430D01*
X031563Y024430D01*
X031620Y024487D01*
X031620Y024600D01*
X031563Y024657D01*
X031507Y024657D01*
X031450Y024600D01*
X031620Y024232D02*
X031280Y024232D01*
X031450Y024062D01*
X008120Y024246D02*
X007893Y024473D01*
X007836Y024473D01*
X007780Y024416D01*
X007780Y024303D01*
X007836Y024246D01*
X008120Y024246D02*
X008120Y024473D01*
X008120Y005473D02*
X008120Y005246D01*
X007893Y005473D01*
X007836Y005473D01*
X007780Y005416D01*
X007780Y005303D01*
X007836Y005246D01*
X008120Y004473D02*
X008120Y004246D01*
X008120Y004359D02*
X007780Y004359D01*
X007893Y004246D01*
M02*
