G75*
%MOIN*%
%OFA0B0*%
%FSLAX24Y24*%
%IPPOS*%
%LPD*%
%AMOC8*
5,1,8,0,0,1.08239X$1,22.5*
%
%ADD10C,0.0740*%
%ADD11R,0.0740X0.0740*%
D10*
X005500Y002150D03*
X006500Y002150D03*
X007500Y002150D03*
X008500Y002150D03*
X009500Y002150D03*
X009500Y007400D03*
X010500Y007400D03*
X010500Y008400D03*
X009500Y008400D03*
X008500Y008400D03*
X011500Y008400D03*
X012500Y008400D03*
X012500Y007400D03*
X011500Y007400D03*
X013500Y007400D03*
X014500Y007400D03*
X014500Y008400D03*
X013500Y008400D03*
X015500Y008400D03*
X016500Y008400D03*
X016500Y007400D03*
X015500Y007400D03*
X017500Y007400D03*
X018500Y007400D03*
X018500Y008400D03*
X017500Y008400D03*
X019500Y008400D03*
X020500Y008400D03*
X020500Y007400D03*
X019500Y007400D03*
X021500Y007400D03*
X022500Y007400D03*
X022500Y008400D03*
X021500Y008400D03*
X023500Y008400D03*
X024500Y008400D03*
X024500Y007400D03*
X023500Y007400D03*
X025500Y007400D03*
X025500Y008400D03*
X026500Y008400D03*
X027500Y008400D03*
X027500Y007400D03*
X026500Y007400D03*
X028500Y007400D03*
X029500Y007400D03*
X029500Y008400D03*
X028500Y008400D03*
X030500Y008400D03*
X030500Y007400D03*
X031500Y002650D03*
X032500Y002650D03*
X033500Y002650D03*
X034500Y002650D03*
X035500Y002650D03*
X036500Y002650D03*
X030500Y026400D03*
X030500Y027400D03*
X029500Y027400D03*
X028500Y027400D03*
X028500Y026400D03*
X029500Y026400D03*
X027500Y026400D03*
X026500Y026400D03*
X026500Y027400D03*
X027500Y027400D03*
X025500Y027400D03*
X025500Y026400D03*
X024500Y026400D03*
X023500Y026400D03*
X023500Y027400D03*
X024500Y027400D03*
X022500Y027400D03*
X021500Y027400D03*
X021500Y026400D03*
X022500Y026400D03*
X020500Y026400D03*
X019500Y026400D03*
X019500Y027400D03*
X020500Y027400D03*
X018500Y027400D03*
X017500Y027400D03*
X017500Y026400D03*
X018500Y026400D03*
X016500Y026400D03*
X015500Y026400D03*
X015500Y027400D03*
X016500Y027400D03*
X014500Y027400D03*
X013500Y027400D03*
X013500Y026400D03*
X014500Y026400D03*
X012500Y026400D03*
X011500Y026400D03*
X011500Y027400D03*
X012500Y027400D03*
X010500Y027400D03*
X009500Y027400D03*
X009500Y026400D03*
X010500Y026400D03*
X008500Y027400D03*
D11*
X008500Y026400D03*
X008500Y007400D03*
M02*
