G75*
%MOIN*%
%OFA0B0*%
%FSLAX24Y24*%
%IPPOS*%
%LPD*%
%AMOC8*
5,1,8,0,0,1.08239X$1,22.5*
%
%ADD10C,0.0520*%
%ADD11R,0.0740X0.0740*%
%ADD12C,0.0740*%
%ADD13R,0.0315X0.0472*%
%ADD14C,0.0515*%
%ADD15C,0.0160*%
%ADD16R,0.0475X0.0475*%
%ADD17C,0.0100*%
D10*
X011920Y008767D02*
X012440Y008767D01*
X012440Y009767D02*
X011920Y009767D01*
X011920Y010767D02*
X012440Y010767D01*
X012440Y011767D02*
X011920Y011767D01*
X011920Y012767D02*
X012440Y012767D01*
X012440Y013767D02*
X011920Y013767D01*
X011920Y014767D02*
X012440Y014767D01*
X012440Y015767D02*
X011920Y015767D01*
X011920Y016767D02*
X012440Y016767D01*
X012440Y017767D02*
X011920Y017767D01*
X011920Y018767D02*
X012440Y018767D01*
X012440Y019767D02*
X011920Y019767D01*
X011920Y020767D02*
X012440Y020767D01*
X012440Y021767D02*
X011920Y021767D01*
X014920Y021767D02*
X015440Y021767D01*
X015440Y020767D02*
X014920Y020767D01*
X014920Y019767D02*
X015440Y019767D01*
X015440Y018767D02*
X014920Y018767D01*
X014920Y017767D02*
X015440Y017767D01*
X015440Y016767D02*
X014920Y016767D01*
X014920Y015767D02*
X015440Y015767D01*
X015440Y014767D02*
X014920Y014767D01*
X014920Y013767D02*
X015440Y013767D01*
X015440Y012767D02*
X014920Y012767D01*
X014920Y011767D02*
X015440Y011767D01*
X015440Y010767D02*
X014920Y010767D01*
X014920Y009767D02*
X015440Y009767D01*
X015440Y008767D02*
X014920Y008767D01*
D11*
X019180Y005767D03*
X006180Y018767D03*
D12*
X006180Y017767D03*
X006180Y016767D03*
X006180Y015767D03*
X019180Y015767D03*
X019180Y014767D03*
X019180Y013767D03*
X019180Y012767D03*
X019180Y011767D03*
X019180Y010767D03*
X019180Y009767D03*
X019180Y008767D03*
X019180Y007767D03*
X019180Y006767D03*
X019180Y016767D03*
X019180Y017767D03*
X019180Y018767D03*
X019180Y019767D03*
X019180Y020767D03*
X019180Y021767D03*
X019180Y022767D03*
X019180Y023767D03*
X019180Y024767D03*
D13*
X014034Y023767D03*
X013326Y023767D03*
D14*
X008180Y012767D03*
X008180Y011767D03*
X008180Y010767D03*
X008180Y009767D03*
X008180Y008767D03*
X008180Y007767D03*
X004180Y007767D03*
X004180Y008767D03*
X004180Y009767D03*
X004180Y010767D03*
X004180Y011767D03*
X004180Y012767D03*
X012180Y002767D03*
X013180Y001767D03*
X014180Y002767D03*
D15*
X000660Y001247D02*
X000660Y027657D01*
X021692Y027657D01*
X021692Y001247D01*
X014381Y001247D01*
X014406Y001307D01*
X014406Y002365D01*
X014439Y002379D01*
X014568Y002508D01*
X014637Y002676D01*
X014637Y002858D01*
X014636Y002861D01*
X018586Y006811D01*
X018610Y006786D01*
X018610Y006653D01*
X018697Y006444D01*
X018824Y006317D01*
X018786Y006317D01*
X018741Y006304D01*
X018699Y006281D01*
X018666Y006247D01*
X018642Y006206D01*
X018630Y006160D01*
X018630Y005787D01*
X019160Y005787D01*
X019160Y005747D01*
X018630Y005747D01*
X018630Y005373D01*
X018642Y005327D01*
X018666Y005286D01*
X018699Y005253D01*
X018741Y005229D01*
X018786Y005217D01*
X019160Y005217D01*
X019160Y005747D01*
X019200Y005747D01*
X019200Y005787D01*
X019730Y005787D01*
X019730Y006160D01*
X019718Y006206D01*
X019694Y006247D01*
X019661Y006281D01*
X019619Y006304D01*
X019574Y006317D01*
X019536Y006317D01*
X019663Y006444D01*
X019750Y006653D01*
X019750Y006880D01*
X019663Y007090D01*
X019503Y007250D01*
X019462Y007267D01*
X019503Y007283D01*
X019663Y007444D01*
X019750Y007653D01*
X019750Y007880D01*
X019663Y008090D01*
X019503Y008250D01*
X019462Y008267D01*
X019503Y008283D01*
X019663Y008444D01*
X019750Y008653D01*
X019750Y008880D01*
X019663Y009090D01*
X019503Y009250D01*
X019462Y009267D01*
X019503Y009283D01*
X019663Y009444D01*
X019750Y009653D01*
X019750Y009880D01*
X019663Y010090D01*
X019503Y010250D01*
X019462Y010267D01*
X019503Y010283D01*
X019663Y010444D01*
X019750Y010653D01*
X019750Y010880D01*
X019663Y011090D01*
X019503Y011250D01*
X019462Y011267D01*
X019503Y011283D01*
X019663Y011444D01*
X019703Y011540D01*
X021490Y011540D01*
X021581Y011578D01*
X021652Y011649D01*
X021690Y011741D01*
X021690Y026604D01*
X021652Y026696D01*
X021581Y026766D01*
X021188Y027160D01*
X021096Y027198D01*
X009973Y027198D01*
X009881Y027160D01*
X009811Y027089D01*
X009773Y026997D01*
X009773Y016859D01*
X009811Y016767D01*
X009881Y016696D01*
X011540Y015037D01*
X011530Y015027D01*
X011460Y014858D01*
X011460Y014675D01*
X011530Y014506D01*
X011659Y014377D01*
X011828Y014307D01*
X012531Y014307D01*
X012701Y014377D01*
X012830Y014506D01*
X012900Y014675D01*
X012900Y014858D01*
X012830Y015027D01*
X012701Y015157D01*
X012531Y015227D01*
X012058Y015227D01*
X011978Y015307D01*
X012531Y015307D01*
X012701Y015377D01*
X012830Y015506D01*
X012900Y015675D01*
X012900Y015858D01*
X012830Y016027D01*
X012701Y016157D01*
X012531Y016227D01*
X012042Y016227D01*
X011962Y016307D01*
X012531Y016307D01*
X012701Y016377D01*
X012830Y016506D01*
X012900Y016675D01*
X012900Y016858D01*
X012830Y017027D01*
X012701Y017157D01*
X012531Y017227D01*
X012026Y017227D01*
X011946Y017307D01*
X012531Y017307D01*
X012701Y017377D01*
X012830Y017506D01*
X012900Y017675D01*
X012900Y017858D01*
X012830Y018027D01*
X012701Y018157D01*
X012531Y018227D01*
X012011Y018227D01*
X011931Y018307D01*
X012531Y018307D01*
X012701Y018377D01*
X012830Y018506D01*
X012900Y018675D01*
X012900Y018858D01*
X012830Y019027D01*
X012701Y019157D01*
X012531Y019227D01*
X011995Y019227D01*
X011915Y019307D01*
X012531Y019307D01*
X012701Y019377D01*
X012830Y019506D01*
X012900Y019675D01*
X012900Y019858D01*
X012830Y020027D01*
X012701Y020157D01*
X012531Y020227D01*
X011979Y020227D01*
X011899Y020307D01*
X012531Y020307D01*
X012701Y020377D01*
X012830Y020506D01*
X012900Y020675D01*
X012900Y020858D01*
X012830Y021027D01*
X012701Y021157D01*
X012531Y021227D01*
X011963Y021227D01*
X011883Y021307D01*
X012531Y021307D01*
X012701Y021377D01*
X012830Y021506D01*
X012900Y021675D01*
X012900Y021858D01*
X012830Y022027D01*
X012701Y022157D01*
X012531Y022227D01*
X012438Y022227D01*
X012438Y025320D01*
X019368Y025320D01*
X019432Y025255D01*
X019391Y025276D01*
X019309Y025303D01*
X019223Y025317D01*
X019200Y025317D01*
X019200Y024787D01*
X019160Y024787D01*
X019160Y025317D01*
X019137Y025317D01*
X019051Y025303D01*
X018969Y025276D01*
X018892Y025237D01*
X018822Y025186D01*
X018760Y025125D01*
X018710Y025055D01*
X018670Y024978D01*
X018644Y024895D01*
X018630Y024810D01*
X018630Y024787D01*
X019160Y024787D01*
X019160Y024747D01*
X018630Y024747D01*
X018630Y024723D01*
X018644Y024638D01*
X018670Y024556D01*
X018710Y024478D01*
X018760Y024408D01*
X018822Y024347D01*
X018892Y024296D01*
X018926Y024279D01*
X018857Y024250D01*
X018697Y024090D01*
X018611Y023882D01*
X018580Y023851D01*
X014392Y023851D01*
X014392Y024086D01*
X014275Y024203D01*
X013794Y024203D01*
X013680Y024089D01*
X013566Y024203D01*
X013085Y024203D01*
X012968Y024086D01*
X012968Y023448D01*
X013085Y023330D01*
X013119Y023330D01*
X013119Y014009D01*
X012838Y014009D01*
X012830Y014027D01*
X012701Y014157D01*
X012531Y014227D01*
X011828Y014227D01*
X011659Y014157D01*
X011530Y014027D01*
X011522Y014009D01*
X005248Y014009D01*
X005156Y013971D01*
X005086Y013900D01*
X004369Y013183D01*
X004271Y013224D01*
X004089Y013224D01*
X003921Y013154D01*
X003792Y013026D01*
X003776Y012988D01*
X003776Y015477D01*
X005683Y015477D01*
X005697Y015444D01*
X005857Y015283D01*
X006067Y015197D01*
X006293Y015197D01*
X006503Y015283D01*
X006663Y015444D01*
X006750Y015653D01*
X006750Y015880D01*
X006663Y016090D01*
X006503Y016250D01*
X006462Y016267D01*
X006503Y016283D01*
X006663Y016444D01*
X006750Y016653D01*
X006750Y016880D01*
X006663Y017090D01*
X006503Y017250D01*
X006462Y017267D01*
X006503Y017283D01*
X006663Y017444D01*
X006750Y017653D01*
X006750Y017880D01*
X006663Y018090D01*
X006536Y018217D01*
X006574Y018217D01*
X006619Y018229D01*
X006661Y018253D01*
X006694Y018286D01*
X006718Y018327D01*
X006730Y018373D01*
X006730Y018747D01*
X006200Y018747D01*
X006200Y018787D01*
X006160Y018787D01*
X006160Y019317D01*
X005786Y019317D01*
X005741Y019304D01*
X005699Y019281D01*
X005666Y019247D01*
X005642Y019206D01*
X005630Y019160D01*
X005630Y018787D01*
X006160Y018787D01*
X006160Y018747D01*
X005630Y018747D01*
X005630Y018373D01*
X005642Y018327D01*
X005666Y018286D01*
X005699Y018253D01*
X005741Y018229D01*
X005786Y018217D01*
X005824Y018217D01*
X005697Y018090D01*
X005637Y017946D01*
X003083Y017946D01*
X002991Y017908D01*
X002921Y017837D01*
X002883Y017746D01*
X002883Y011741D01*
X002921Y011649D01*
X002991Y011578D01*
X003723Y010847D01*
X003723Y010676D01*
X003792Y010508D01*
X003921Y010379D01*
X004089Y010309D01*
X004271Y010309D01*
X004439Y010379D01*
X004568Y010508D01*
X004637Y010676D01*
X004637Y010858D01*
X004568Y011026D01*
X004439Y011154D01*
X004271Y011224D01*
X004089Y011224D01*
X004063Y011213D01*
X003383Y011894D01*
X003383Y011974D01*
X003582Y011775D01*
X003674Y011737D01*
X003723Y011737D01*
X003723Y011676D01*
X003792Y011508D01*
X003921Y011379D01*
X004089Y011309D01*
X004271Y011309D01*
X004439Y011379D01*
X004568Y011508D01*
X004637Y011676D01*
X004637Y011858D01*
X004606Y011934D01*
X007710Y011934D01*
X007763Y011956D01*
X007723Y011858D01*
X007723Y011676D01*
X007792Y011508D01*
X007921Y011379D01*
X008089Y011309D01*
X008182Y011309D01*
X008267Y011224D01*
X008089Y011224D01*
X007921Y011154D01*
X007792Y011026D01*
X007723Y010858D01*
X007723Y010676D01*
X007792Y010508D01*
X007921Y010379D01*
X008089Y010309D01*
X008197Y010309D01*
X008290Y010216D01*
X008271Y010224D01*
X008089Y010224D01*
X007921Y010154D01*
X007792Y010026D01*
X007723Y009858D01*
X007723Y009676D01*
X007792Y009508D01*
X007921Y009379D01*
X008089Y009309D01*
X008271Y009309D01*
X008439Y009379D01*
X008568Y009508D01*
X008637Y009676D01*
X008637Y009858D01*
X008629Y009877D01*
X009023Y009483D01*
X009094Y009413D01*
X009185Y009375D01*
X011664Y009375D01*
X011828Y009307D01*
X012531Y009307D01*
X012701Y009377D01*
X012830Y009506D01*
X012900Y009675D01*
X012900Y009858D01*
X012830Y010027D01*
X012701Y010157D01*
X012531Y010227D01*
X011828Y010227D01*
X011659Y010157D01*
X011530Y010027D01*
X011467Y009875D01*
X009339Y009875D01*
X008608Y010605D01*
X008637Y010676D01*
X008637Y010853D01*
X009023Y010468D01*
X009094Y010397D01*
X009185Y010359D01*
X011702Y010359D01*
X011828Y010307D01*
X012531Y010307D01*
X012701Y010377D01*
X012830Y010506D01*
X012900Y010675D01*
X012900Y010858D01*
X012830Y011027D01*
X012701Y011157D01*
X012531Y011227D01*
X011828Y011227D01*
X011659Y011157D01*
X011530Y011027D01*
X011460Y010859D01*
X009339Y010859D01*
X008604Y011594D01*
X008637Y011676D01*
X008637Y011858D01*
X008568Y012026D01*
X008439Y012154D01*
X008271Y012224D01*
X008089Y012224D01*
X008029Y012199D01*
X008139Y012309D01*
X008271Y012309D01*
X008439Y012379D01*
X008568Y012508D01*
X008637Y012676D01*
X008637Y012858D01*
X008568Y013026D01*
X008439Y013154D01*
X008271Y013224D01*
X008089Y013224D01*
X007921Y013154D01*
X007792Y013026D01*
X007723Y012858D01*
X007723Y012676D01*
X007745Y012622D01*
X007557Y012434D01*
X004494Y012434D01*
X004568Y012508D01*
X004637Y012676D01*
X004637Y012745D01*
X005402Y013509D01*
X011529Y013509D01*
X011530Y013506D01*
X011659Y013377D01*
X011828Y013307D01*
X012531Y013307D01*
X012701Y013377D01*
X012830Y013506D01*
X012831Y013509D01*
X013119Y013509D01*
X013119Y012922D01*
X013157Y012830D01*
X013227Y012759D01*
X013906Y012080D01*
X013906Y009728D01*
X012900Y008722D01*
X012900Y008858D01*
X012830Y009027D01*
X012701Y009157D01*
X012531Y009227D01*
X011828Y009227D01*
X011659Y009157D01*
X011530Y009027D01*
X011460Y008858D01*
X011460Y008675D01*
X011530Y008506D01*
X011659Y008377D01*
X011828Y008307D01*
X012485Y008307D01*
X012478Y008300D01*
X011351Y008300D01*
X011259Y008262D01*
X011189Y008192D01*
X011150Y008100D01*
X011150Y002685D01*
X011189Y002594D01*
X011259Y002523D01*
X012535Y001247D01*
X000660Y001247D01*
X000660Y001401D02*
X012381Y001401D01*
X012223Y001559D02*
X000660Y001559D01*
X000660Y001718D02*
X012064Y001718D01*
X011906Y001876D02*
X000660Y001876D01*
X000660Y002035D02*
X011747Y002035D01*
X011589Y002193D02*
X000660Y002193D01*
X000660Y002352D02*
X011430Y002352D01*
X011272Y002510D02*
X000660Y002510D01*
X000660Y002669D02*
X011157Y002669D01*
X011150Y002827D02*
X000660Y002827D01*
X000660Y002986D02*
X011150Y002986D01*
X011150Y003144D02*
X000660Y003144D01*
X000660Y003303D02*
X011150Y003303D01*
X011150Y003461D02*
X000660Y003461D01*
X000660Y003620D02*
X011150Y003620D01*
X011150Y003778D02*
X000660Y003778D01*
X000660Y003937D02*
X011150Y003937D01*
X011150Y004095D02*
X000660Y004095D01*
X000660Y004254D02*
X011150Y004254D01*
X011150Y004412D02*
X000660Y004412D01*
X000660Y004571D02*
X011150Y004571D01*
X011150Y004729D02*
X000660Y004729D01*
X000660Y004888D02*
X011150Y004888D01*
X011150Y005046D02*
X000660Y005046D01*
X000660Y005205D02*
X011150Y005205D01*
X011150Y005363D02*
X000660Y005363D01*
X000660Y005522D02*
X011150Y005522D01*
X011150Y005680D02*
X000660Y005680D01*
X000660Y005839D02*
X011150Y005839D01*
X011150Y005997D02*
X000660Y005997D01*
X000660Y006156D02*
X011150Y006156D01*
X011150Y006314D02*
X000660Y006314D01*
X000660Y006473D02*
X011150Y006473D01*
X011150Y006631D02*
X000660Y006631D01*
X000660Y006790D02*
X011150Y006790D01*
X011150Y006948D02*
X000660Y006948D01*
X000660Y007107D02*
X011150Y007107D01*
X011150Y007265D02*
X000660Y007265D01*
X000660Y007424D02*
X003908Y007424D01*
X003895Y007433D02*
X003951Y007392D01*
X004012Y007361D01*
X004078Y007340D01*
X004146Y007329D01*
X004180Y007329D01*
X004180Y007767D01*
X004180Y008204D01*
X004214Y008204D01*
X004282Y008193D01*
X004348Y008172D01*
X004409Y008141D01*
X004465Y008100D01*
X004514Y008052D01*
X004554Y007996D01*
X004585Y007935D01*
X004607Y007869D01*
X004617Y007801D01*
X004617Y007767D01*
X004180Y007767D01*
X004180Y007767D01*
X004180Y008204D01*
X004146Y008204D01*
X004078Y008193D01*
X004012Y008172D01*
X003951Y008141D01*
X003895Y008100D01*
X003846Y008052D01*
X003806Y007996D01*
X003775Y007935D01*
X003753Y007869D01*
X003743Y007801D01*
X003743Y007767D01*
X004180Y007767D01*
X004180Y007767D01*
X004180Y007767D01*
X004617Y007767D01*
X004617Y007732D01*
X004607Y007664D01*
X004585Y007599D01*
X004554Y007537D01*
X004514Y007482D01*
X004465Y007433D01*
X004409Y007392D01*
X004348Y007361D01*
X004282Y007340D01*
X004214Y007329D01*
X004180Y007329D01*
X004180Y007767D01*
X003743Y007767D01*
X003743Y007732D01*
X003753Y007664D01*
X003775Y007599D01*
X003806Y007537D01*
X003846Y007482D01*
X003895Y007433D01*
X003783Y007582D02*
X000660Y007582D01*
X000660Y007741D02*
X003743Y007741D01*
X003763Y007899D02*
X000660Y007899D01*
X000660Y008058D02*
X003852Y008058D01*
X003931Y008375D02*
X000660Y008375D01*
X000660Y008533D02*
X003782Y008533D01*
X003792Y008508D02*
X003921Y008379D01*
X004089Y008309D01*
X004271Y008309D01*
X004439Y008379D01*
X004568Y008508D01*
X004637Y008676D01*
X004637Y008858D01*
X004568Y009026D01*
X004439Y009154D01*
X004271Y009224D01*
X004089Y009224D01*
X003921Y009154D01*
X003792Y009026D01*
X003723Y008858D01*
X003723Y008676D01*
X003792Y008508D01*
X003723Y008692D02*
X000660Y008692D01*
X000660Y008850D02*
X003723Y008850D01*
X003785Y009009D02*
X000660Y009009D01*
X000660Y009167D02*
X003951Y009167D01*
X004049Y009326D02*
X000660Y009326D01*
X000660Y009484D02*
X003816Y009484D01*
X003792Y009508D02*
X003921Y009379D01*
X004089Y009309D01*
X004271Y009309D01*
X004439Y009379D01*
X004568Y009508D01*
X004637Y009676D01*
X004637Y009858D01*
X004568Y010026D01*
X004439Y010154D01*
X004271Y010224D01*
X004089Y010224D01*
X003921Y010154D01*
X003792Y010026D01*
X003723Y009858D01*
X003723Y009676D01*
X003792Y009508D01*
X003736Y009643D02*
X000660Y009643D01*
X000660Y009801D02*
X003723Y009801D01*
X003765Y009960D02*
X000660Y009960D01*
X000660Y010118D02*
X003885Y010118D01*
X003865Y010435D02*
X000660Y010435D01*
X000660Y010277D02*
X008230Y010277D01*
X007885Y010118D02*
X004475Y010118D01*
X004595Y009960D02*
X007765Y009960D01*
X007723Y009801D02*
X004637Y009801D01*
X004624Y009643D02*
X007736Y009643D01*
X007816Y009484D02*
X004544Y009484D01*
X004311Y009326D02*
X008049Y009326D01*
X008089Y009224D02*
X007921Y009154D01*
X007792Y009026D01*
X007723Y008858D01*
X007723Y008676D01*
X007792Y008508D01*
X007921Y008379D01*
X008089Y008309D01*
X008271Y008309D01*
X008439Y008379D01*
X008568Y008508D01*
X008637Y008676D01*
X008637Y008858D01*
X008568Y009026D01*
X008439Y009154D01*
X008271Y009224D01*
X008089Y009224D01*
X007951Y009167D02*
X004409Y009167D01*
X004575Y009009D02*
X007785Y009009D01*
X007723Y008850D02*
X004637Y008850D01*
X004637Y008692D02*
X007723Y008692D01*
X007782Y008533D02*
X004578Y008533D01*
X004429Y008375D02*
X007931Y008375D01*
X008012Y008172D02*
X007951Y008141D01*
X007895Y008100D01*
X007846Y008052D01*
X007806Y007996D01*
X007775Y007935D01*
X007753Y007869D01*
X007743Y007801D01*
X007743Y007767D01*
X008180Y007767D01*
X008180Y008204D01*
X008214Y008204D01*
X008282Y008193D01*
X008348Y008172D01*
X008409Y008141D01*
X008465Y008100D01*
X008514Y008052D01*
X008554Y007996D01*
X008585Y007935D01*
X008607Y007869D01*
X008617Y007801D01*
X008617Y007767D01*
X008180Y007767D01*
X008180Y007767D01*
X008180Y008204D01*
X008146Y008204D01*
X008078Y008193D01*
X008012Y008172D01*
X007852Y008058D02*
X004508Y008058D01*
X004597Y007899D02*
X007763Y007899D01*
X007743Y007767D02*
X007743Y007732D01*
X007753Y007664D01*
X007775Y007599D01*
X007806Y007537D01*
X007846Y007482D01*
X007895Y007433D01*
X007951Y007392D01*
X008012Y007361D01*
X008078Y007340D01*
X008146Y007329D01*
X008180Y007329D01*
X008180Y007767D01*
X008180Y007767D01*
X008180Y007767D01*
X008617Y007767D01*
X008617Y007732D01*
X008607Y007664D01*
X008585Y007599D01*
X008554Y007537D01*
X008514Y007482D01*
X008465Y007433D01*
X008409Y007392D01*
X008348Y007361D01*
X008282Y007340D01*
X008214Y007329D01*
X008180Y007329D01*
X008180Y007767D01*
X007743Y007767D01*
X007743Y007741D02*
X004617Y007741D01*
X004577Y007582D02*
X007783Y007582D01*
X007908Y007424D02*
X004452Y007424D01*
X004180Y007424D02*
X004180Y007424D01*
X004180Y007582D02*
X004180Y007582D01*
X004180Y007741D02*
X004180Y007741D01*
X004180Y007767D02*
X004180Y007767D01*
X004180Y007899D02*
X004180Y007899D01*
X004180Y008058D02*
X004180Y008058D01*
X004495Y010435D02*
X007865Y010435D01*
X007756Y010594D02*
X004604Y010594D01*
X004637Y010752D02*
X007723Y010752D01*
X007744Y010911D02*
X004616Y010911D01*
X004524Y011069D02*
X007836Y011069D01*
X007914Y011386D02*
X004446Y011386D01*
X004583Y011545D02*
X007777Y011545D01*
X007723Y011703D02*
X004637Y011703D01*
X004636Y011862D02*
X007724Y011862D01*
X007618Y012496D02*
X004556Y012496D01*
X004629Y012654D02*
X007731Y012654D01*
X007723Y012813D02*
X004706Y012813D01*
X004864Y012971D02*
X007770Y012971D01*
X007896Y013130D02*
X005023Y013130D01*
X005181Y013288D02*
X013119Y013288D01*
X013119Y013130D02*
X012689Y013130D01*
X012671Y013143D02*
X012609Y013174D01*
X012543Y013196D01*
X012475Y013207D01*
X012180Y013207D01*
X011885Y013207D01*
X011817Y013196D01*
X011751Y013174D01*
X011689Y013143D01*
X011633Y013102D01*
X011584Y013053D01*
X011544Y012997D01*
X011512Y012936D01*
X011491Y012870D01*
X011480Y012801D01*
X011480Y012767D01*
X012180Y012767D01*
X012180Y013207D01*
X012180Y012767D01*
X012180Y012767D01*
X012180Y012767D01*
X012880Y012767D01*
X012880Y012801D01*
X012869Y012870D01*
X012848Y012936D01*
X012816Y012997D01*
X012776Y013053D01*
X012727Y013102D01*
X012671Y013143D01*
X012830Y012971D02*
X013119Y012971D01*
X013174Y012813D02*
X012878Y012813D01*
X012880Y012767D02*
X012180Y012767D01*
X012180Y012767D01*
X011480Y012767D01*
X011480Y012732D01*
X011491Y012664D01*
X011512Y012598D01*
X011544Y012536D01*
X011584Y012480D01*
X011633Y012431D01*
X011689Y012390D01*
X011751Y012359D01*
X011817Y012338D01*
X011885Y012327D01*
X012180Y012327D01*
X012475Y012327D01*
X012543Y012338D01*
X012609Y012359D01*
X012671Y012390D01*
X012727Y012431D01*
X012776Y012480D01*
X012816Y012536D01*
X012848Y012598D01*
X012869Y012664D01*
X012880Y012732D01*
X012880Y012767D01*
X012866Y012654D02*
X013333Y012654D01*
X013491Y012496D02*
X012787Y012496D01*
X012541Y012337D02*
X013650Y012337D01*
X013808Y012179D02*
X012647Y012179D01*
X012701Y012157D02*
X012531Y012227D01*
X011828Y012227D01*
X011659Y012157D01*
X011530Y012027D01*
X011460Y011858D01*
X011460Y011675D01*
X011530Y011506D01*
X011659Y011377D01*
X011828Y011307D01*
X012531Y011307D01*
X012701Y011377D01*
X012830Y011506D01*
X012900Y011675D01*
X012900Y011858D01*
X012830Y012027D01*
X012701Y012157D01*
X012833Y012020D02*
X013906Y012020D01*
X013906Y011862D02*
X012899Y011862D01*
X012900Y011703D02*
X013906Y011703D01*
X013906Y011545D02*
X012846Y011545D01*
X012710Y011386D02*
X013906Y011386D01*
X013906Y011228D02*
X008970Y011228D01*
X008812Y011386D02*
X011650Y011386D01*
X011514Y011545D02*
X008653Y011545D01*
X008637Y011703D02*
X011460Y011703D01*
X011461Y011862D02*
X008636Y011862D01*
X008570Y012020D02*
X011527Y012020D01*
X011713Y012179D02*
X008381Y012179D01*
X008339Y012337D02*
X011819Y012337D01*
X011573Y012496D02*
X008556Y012496D01*
X008629Y012654D02*
X011494Y012654D01*
X011482Y012813D02*
X008637Y012813D01*
X008590Y012971D02*
X011530Y012971D01*
X011671Y013130D02*
X008464Y013130D01*
X008263Y011228D02*
X004049Y011228D01*
X003914Y011386D02*
X003890Y011386D01*
X003777Y011545D02*
X003732Y011545D01*
X003723Y011703D02*
X003573Y011703D01*
X003495Y011862D02*
X003415Y011862D01*
X003025Y011545D02*
X000660Y011545D01*
X000660Y011703D02*
X002898Y011703D01*
X002991Y011578D02*
X002991Y011578D01*
X003183Y011386D02*
X000660Y011386D01*
X000660Y011228D02*
X003342Y011228D01*
X003500Y011069D02*
X000660Y011069D01*
X000660Y010911D02*
X003659Y010911D01*
X003723Y010752D02*
X000660Y010752D01*
X000660Y010594D02*
X003756Y010594D01*
X002883Y011862D02*
X000660Y011862D01*
X000660Y012020D02*
X002883Y012020D01*
X002883Y012179D02*
X000660Y012179D01*
X000660Y012337D02*
X002883Y012337D01*
X002883Y012496D02*
X000660Y012496D01*
X000660Y012654D02*
X002883Y012654D01*
X002883Y012813D02*
X000660Y012813D01*
X000660Y012971D02*
X002883Y012971D01*
X002883Y013130D02*
X000660Y013130D01*
X000660Y013288D02*
X002883Y013288D01*
X002883Y013447D02*
X000660Y013447D01*
X000660Y013605D02*
X002883Y013605D01*
X002883Y013764D02*
X000660Y013764D01*
X000660Y013922D02*
X002883Y013922D01*
X002883Y014081D02*
X000660Y014081D01*
X000660Y014239D02*
X002883Y014239D01*
X002883Y014398D02*
X000660Y014398D01*
X000660Y014556D02*
X002883Y014556D01*
X002883Y014715D02*
X000660Y014715D01*
X000660Y014873D02*
X002883Y014873D01*
X002883Y015032D02*
X000660Y015032D01*
X000660Y015190D02*
X002883Y015190D01*
X002883Y015349D02*
X000660Y015349D01*
X000660Y015507D02*
X002883Y015507D01*
X002883Y015666D02*
X000660Y015666D01*
X000660Y015824D02*
X002883Y015824D01*
X002883Y015983D02*
X000660Y015983D01*
X000660Y016141D02*
X002883Y016141D01*
X002883Y016300D02*
X000660Y016300D01*
X000660Y016458D02*
X002883Y016458D01*
X002883Y016617D02*
X000660Y016617D01*
X000660Y016775D02*
X002883Y016775D01*
X002883Y016934D02*
X000660Y016934D01*
X000660Y017092D02*
X002883Y017092D01*
X002883Y017251D02*
X000660Y017251D01*
X000660Y017409D02*
X002883Y017409D01*
X002883Y017568D02*
X000660Y017568D01*
X000660Y017726D02*
X002883Y017726D01*
X002968Y017885D02*
X000660Y017885D01*
X000660Y018043D02*
X005678Y018043D01*
X005809Y018202D02*
X000660Y018202D01*
X000660Y018360D02*
X005633Y018360D01*
X005630Y018519D02*
X000660Y018519D01*
X000660Y018677D02*
X005630Y018677D01*
X005630Y018836D02*
X000660Y018836D01*
X000660Y018994D02*
X005630Y018994D01*
X005630Y019153D02*
X000660Y019153D01*
X000660Y019311D02*
X005766Y019311D01*
X006160Y019311D02*
X006200Y019311D01*
X006200Y019317D02*
X006200Y018787D01*
X006730Y018787D01*
X006730Y019160D01*
X006718Y019206D01*
X006694Y019247D01*
X006661Y019281D01*
X006619Y019304D01*
X006574Y019317D01*
X006200Y019317D01*
X006200Y019153D02*
X006160Y019153D01*
X006160Y018994D02*
X006200Y018994D01*
X006200Y018836D02*
X006160Y018836D01*
X006594Y019311D02*
X009773Y019311D01*
X009773Y019153D02*
X006730Y019153D01*
X006730Y018994D02*
X009773Y018994D01*
X009773Y018836D02*
X006730Y018836D01*
X006730Y018677D02*
X009773Y018677D01*
X009773Y018519D02*
X006730Y018519D01*
X006727Y018360D02*
X009773Y018360D01*
X009773Y018202D02*
X006551Y018202D01*
X006682Y018043D02*
X009773Y018043D01*
X009773Y017885D02*
X006748Y017885D01*
X006750Y017726D02*
X009773Y017726D01*
X009773Y017568D02*
X006715Y017568D01*
X006629Y017409D02*
X009773Y017409D01*
X009773Y017251D02*
X006501Y017251D01*
X006661Y017092D02*
X009773Y017092D01*
X009773Y016934D02*
X006728Y016934D01*
X006750Y016775D02*
X009807Y016775D01*
X009961Y016617D02*
X006735Y016617D01*
X006669Y016458D02*
X010119Y016458D01*
X010278Y016300D02*
X006519Y016300D01*
X006612Y016141D02*
X010436Y016141D01*
X010595Y015983D02*
X006707Y015983D01*
X006750Y015824D02*
X010753Y015824D01*
X010912Y015666D02*
X006750Y015666D01*
X006689Y015507D02*
X011070Y015507D01*
X011229Y015349D02*
X006568Y015349D01*
X005792Y015349D02*
X003776Y015349D01*
X003776Y015190D02*
X011387Y015190D01*
X011534Y015032D02*
X003776Y015032D01*
X003776Y014873D02*
X011466Y014873D01*
X011460Y014715D02*
X003776Y014715D01*
X003776Y014556D02*
X011509Y014556D01*
X011638Y014398D02*
X003776Y014398D01*
X003776Y014239D02*
X013119Y014239D01*
X013119Y014081D02*
X012777Y014081D01*
X012722Y014398D02*
X013119Y014398D01*
X013119Y014556D02*
X012851Y014556D01*
X012900Y014715D02*
X013119Y014715D01*
X013119Y014873D02*
X012894Y014873D01*
X012826Y015032D02*
X013119Y015032D01*
X013119Y015190D02*
X012620Y015190D01*
X012633Y015349D02*
X013119Y015349D01*
X013119Y015507D02*
X012830Y015507D01*
X012896Y015666D02*
X013119Y015666D01*
X013119Y015824D02*
X012900Y015824D01*
X012848Y015983D02*
X013119Y015983D01*
X013119Y016141D02*
X012716Y016141D01*
X012782Y016458D02*
X013119Y016458D01*
X013119Y016300D02*
X011969Y016300D01*
X012002Y017251D02*
X013119Y017251D01*
X013119Y017409D02*
X012733Y017409D01*
X012855Y017568D02*
X013119Y017568D01*
X013119Y017726D02*
X012900Y017726D01*
X012889Y017885D02*
X013119Y017885D01*
X013119Y018043D02*
X012814Y018043D01*
X012592Y018202D02*
X013119Y018202D01*
X013119Y018360D02*
X012661Y018360D01*
X012835Y018519D02*
X013119Y018519D01*
X013119Y018677D02*
X012900Y018677D01*
X012900Y018836D02*
X013119Y018836D01*
X013119Y018994D02*
X012844Y018994D01*
X012705Y019153D02*
X013119Y019153D01*
X013119Y019311D02*
X012542Y019311D01*
X012794Y019470D02*
X013119Y019470D01*
X013119Y019628D02*
X012881Y019628D01*
X012900Y019787D02*
X013119Y019787D01*
X013119Y019945D02*
X012864Y019945D01*
X012754Y020104D02*
X013119Y020104D01*
X013119Y020262D02*
X011944Y020262D01*
X012745Y020421D02*
X013119Y020421D01*
X013119Y020579D02*
X012860Y020579D01*
X012900Y020738D02*
X013119Y020738D01*
X013119Y020896D02*
X012884Y020896D01*
X012803Y021055D02*
X013119Y021055D01*
X013119Y021213D02*
X012564Y021213D01*
X012689Y021372D02*
X013119Y021372D01*
X013119Y021530D02*
X012840Y021530D01*
X012900Y021689D02*
X013119Y021689D01*
X013119Y021847D02*
X012900Y021847D01*
X012839Y022006D02*
X013119Y022006D01*
X013119Y022164D02*
X012682Y022164D01*
X012438Y022323D02*
X013119Y022323D01*
X013119Y022481D02*
X012438Y022481D01*
X012438Y022640D02*
X013119Y022640D01*
X013119Y022798D02*
X012438Y022798D01*
X012438Y022957D02*
X013119Y022957D01*
X013119Y023115D02*
X012438Y023115D01*
X012438Y023274D02*
X013119Y023274D01*
X012984Y023432D02*
X012438Y023432D01*
X012438Y023591D02*
X012968Y023591D01*
X012968Y023749D02*
X012438Y023749D01*
X012438Y023908D02*
X012968Y023908D01*
X012968Y024066D02*
X012438Y024066D01*
X012438Y024225D02*
X018832Y024225D01*
X018786Y024383D02*
X012438Y024383D01*
X012438Y024542D02*
X018677Y024542D01*
X018634Y024700D02*
X012438Y024700D01*
X012438Y024859D02*
X018638Y024859D01*
X018690Y025017D02*
X012438Y025017D01*
X012438Y025176D02*
X018811Y025176D01*
X019160Y025176D02*
X019200Y025176D01*
X019200Y025017D02*
X019160Y025017D01*
X019160Y024859D02*
X019200Y024859D01*
X019200Y024787D02*
X019730Y024787D01*
X019730Y024810D01*
X019716Y024895D01*
X019690Y024978D01*
X019669Y025019D01*
X019812Y024876D01*
X019812Y019127D01*
X019626Y019127D01*
X019503Y019250D01*
X019462Y019267D01*
X019503Y019283D01*
X019663Y019444D01*
X019750Y019653D01*
X019750Y019880D01*
X019663Y020090D01*
X019503Y020250D01*
X019462Y020267D01*
X019503Y020283D01*
X019663Y020444D01*
X019750Y020653D01*
X019750Y020880D01*
X019663Y021090D01*
X019503Y021250D01*
X019462Y021267D01*
X019503Y021283D01*
X019663Y021444D01*
X019750Y021653D01*
X019750Y021880D01*
X019663Y022090D01*
X019503Y022250D01*
X019462Y022267D01*
X019503Y022283D01*
X019663Y022444D01*
X019750Y022653D01*
X019750Y022880D01*
X019663Y023090D01*
X019503Y023250D01*
X019462Y023267D01*
X019503Y023283D01*
X019663Y023444D01*
X019750Y023653D01*
X019750Y023880D01*
X019663Y024090D01*
X019503Y024250D01*
X019434Y024279D01*
X019468Y024296D01*
X019538Y024347D01*
X019600Y024408D01*
X019650Y024478D01*
X019690Y024556D01*
X019716Y024638D01*
X019730Y024723D01*
X019730Y024747D01*
X019200Y024747D01*
X019200Y024787D01*
X019670Y025017D02*
X019670Y025017D01*
X019722Y024859D02*
X019812Y024859D01*
X019812Y024700D02*
X019726Y024700D01*
X019683Y024542D02*
X019812Y024542D01*
X019812Y024383D02*
X019574Y024383D01*
X019528Y024225D02*
X019812Y024225D01*
X019812Y024066D02*
X019673Y024066D01*
X019739Y023908D02*
X019812Y023908D01*
X019812Y023749D02*
X019750Y023749D01*
X019724Y023591D02*
X019812Y023591D01*
X019812Y023432D02*
X019652Y023432D01*
X019812Y023274D02*
X019479Y023274D01*
X019638Y023115D02*
X019812Y023115D01*
X019812Y022957D02*
X019718Y022957D01*
X019750Y022798D02*
X019812Y022798D01*
X019812Y022640D02*
X019744Y022640D01*
X019679Y022481D02*
X019812Y022481D01*
X019812Y022323D02*
X019542Y022323D01*
X019589Y022164D02*
X019812Y022164D01*
X019812Y022006D02*
X019698Y022006D01*
X019750Y021847D02*
X019812Y021847D01*
X019812Y021689D02*
X019750Y021689D01*
X019699Y021530D02*
X019812Y021530D01*
X019812Y021372D02*
X019591Y021372D01*
X019540Y021213D02*
X019812Y021213D01*
X019812Y021055D02*
X019678Y021055D01*
X019743Y020896D02*
X019812Y020896D01*
X019812Y020738D02*
X019750Y020738D01*
X019719Y020579D02*
X019812Y020579D01*
X019812Y020421D02*
X019640Y020421D01*
X019473Y020262D02*
X019812Y020262D01*
X019812Y020104D02*
X019649Y020104D01*
X019723Y019945D02*
X019812Y019945D01*
X019812Y019787D02*
X019750Y019787D01*
X019740Y019628D02*
X019812Y019628D01*
X019812Y019470D02*
X019674Y019470D01*
X019812Y019311D02*
X019531Y019311D01*
X019600Y019153D02*
X019812Y019153D01*
X021690Y019153D02*
X021692Y019153D01*
X021690Y019311D02*
X021692Y019311D01*
X021690Y019470D02*
X021692Y019470D01*
X021690Y019628D02*
X021692Y019628D01*
X021690Y019787D02*
X021692Y019787D01*
X021690Y019945D02*
X021692Y019945D01*
X021690Y020104D02*
X021692Y020104D01*
X021690Y020262D02*
X021692Y020262D01*
X021690Y020421D02*
X021692Y020421D01*
X021690Y020579D02*
X021692Y020579D01*
X021690Y020738D02*
X021692Y020738D01*
X021690Y020896D02*
X021692Y020896D01*
X021690Y021055D02*
X021692Y021055D01*
X021690Y021213D02*
X021692Y021213D01*
X021690Y021372D02*
X021692Y021372D01*
X021690Y021530D02*
X021692Y021530D01*
X021690Y021689D02*
X021692Y021689D01*
X021690Y021847D02*
X021692Y021847D01*
X021690Y022006D02*
X021692Y022006D01*
X021690Y022164D02*
X021692Y022164D01*
X021690Y022323D02*
X021692Y022323D01*
X021690Y022481D02*
X021692Y022481D01*
X021690Y022640D02*
X021692Y022640D01*
X021690Y022798D02*
X021692Y022798D01*
X021690Y022957D02*
X021692Y022957D01*
X021690Y023115D02*
X021692Y023115D01*
X021690Y023274D02*
X021692Y023274D01*
X021690Y023432D02*
X021692Y023432D01*
X021690Y023591D02*
X021692Y023591D01*
X021690Y023749D02*
X021692Y023749D01*
X021690Y023908D02*
X021692Y023908D01*
X021690Y024066D02*
X021692Y024066D01*
X021690Y024225D02*
X021692Y024225D01*
X021690Y024383D02*
X021692Y024383D01*
X021690Y024542D02*
X021692Y024542D01*
X021690Y024700D02*
X021692Y024700D01*
X021690Y024859D02*
X021692Y024859D01*
X021690Y025017D02*
X021692Y025017D01*
X021690Y025176D02*
X021692Y025176D01*
X021690Y025334D02*
X021692Y025334D01*
X021690Y025493D02*
X021692Y025493D01*
X021690Y025651D02*
X021692Y025651D01*
X021690Y025810D02*
X021692Y025810D01*
X021690Y025968D02*
X021692Y025968D01*
X021690Y026127D02*
X021692Y026127D01*
X021690Y026285D02*
X021692Y026285D01*
X021690Y026444D02*
X021692Y026444D01*
X021690Y026602D02*
X021692Y026602D01*
X021692Y026761D02*
X021587Y026761D01*
X021692Y026919D02*
X021428Y026919D01*
X021270Y027078D02*
X021692Y027078D01*
X021692Y027236D02*
X000660Y027236D01*
X000660Y027078D02*
X009806Y027078D01*
X009773Y026919D02*
X000660Y026919D01*
X000660Y026761D02*
X009773Y026761D01*
X009773Y026602D02*
X000660Y026602D01*
X000660Y026444D02*
X009773Y026444D01*
X009773Y026285D02*
X000660Y026285D01*
X000660Y026127D02*
X009773Y026127D01*
X009773Y025968D02*
X000660Y025968D01*
X000660Y025810D02*
X009773Y025810D01*
X009773Y025651D02*
X000660Y025651D01*
X000660Y025493D02*
X009773Y025493D01*
X009773Y025334D02*
X000660Y025334D01*
X000660Y025176D02*
X009773Y025176D01*
X009773Y025017D02*
X000660Y025017D01*
X000660Y024859D02*
X009773Y024859D01*
X009773Y024700D02*
X000660Y024700D01*
X000660Y024542D02*
X009773Y024542D01*
X009773Y024383D02*
X000660Y024383D01*
X000660Y024225D02*
X009773Y024225D01*
X009773Y024066D02*
X000660Y024066D01*
X000660Y023908D02*
X009773Y023908D01*
X009773Y023749D02*
X000660Y023749D01*
X000660Y023591D02*
X009773Y023591D01*
X009773Y023432D02*
X000660Y023432D01*
X000660Y023274D02*
X009773Y023274D01*
X009773Y023115D02*
X000660Y023115D01*
X000660Y022957D02*
X009773Y022957D01*
X009773Y022798D02*
X000660Y022798D01*
X000660Y022640D02*
X009773Y022640D01*
X009773Y022481D02*
X000660Y022481D01*
X000660Y022323D02*
X009773Y022323D01*
X009773Y022164D02*
X000660Y022164D01*
X000660Y022006D02*
X009773Y022006D01*
X009773Y021847D02*
X000660Y021847D01*
X000660Y021689D02*
X009773Y021689D01*
X009773Y021530D02*
X000660Y021530D01*
X000660Y021372D02*
X009773Y021372D01*
X009773Y021213D02*
X000660Y021213D01*
X000660Y021055D02*
X009773Y021055D01*
X009773Y020896D02*
X000660Y020896D01*
X000660Y020738D02*
X009773Y020738D01*
X009773Y020579D02*
X000660Y020579D01*
X000660Y020421D02*
X009773Y020421D01*
X009773Y020262D02*
X000660Y020262D01*
X000660Y020104D02*
X009773Y020104D01*
X009773Y019945D02*
X000660Y019945D01*
X000660Y019787D02*
X009773Y019787D01*
X009773Y019628D02*
X000660Y019628D01*
X000660Y019470D02*
X009773Y019470D01*
X012765Y017092D02*
X013119Y017092D01*
X013119Y016934D02*
X012869Y016934D01*
X012900Y016775D02*
X013119Y016775D01*
X013119Y016617D02*
X012876Y016617D01*
X011583Y014081D02*
X003776Y014081D01*
X003776Y013922D02*
X005108Y013922D01*
X004949Y013764D02*
X003776Y013764D01*
X003776Y013605D02*
X004791Y013605D01*
X004632Y013447D02*
X003776Y013447D01*
X003776Y013288D02*
X004474Y013288D01*
X003896Y013130D02*
X003776Y013130D01*
X005340Y013447D02*
X011589Y013447D01*
X012180Y013130D02*
X012180Y013130D01*
X012180Y012971D02*
X012180Y012971D01*
X012180Y012813D02*
X012180Y012813D01*
X012180Y012767D02*
X012180Y012327D01*
X012180Y012767D01*
X012180Y012767D01*
X012180Y012654D02*
X012180Y012654D01*
X012180Y012496D02*
X012180Y012496D01*
X012180Y012337D02*
X012180Y012337D01*
X012771Y013447D02*
X013119Y013447D01*
X014406Y011580D02*
X014408Y011578D01*
X014500Y011540D01*
X014516Y011540D01*
X014530Y011506D01*
X014659Y011377D01*
X014828Y011307D01*
X015531Y011307D01*
X015701Y011377D01*
X015830Y011506D01*
X015875Y011615D01*
X015875Y010834D01*
X015869Y010870D01*
X015848Y010936D01*
X015816Y010997D01*
X015776Y011053D01*
X015727Y011102D01*
X015671Y011143D01*
X015609Y011174D01*
X015543Y011196D01*
X015475Y011207D01*
X015180Y011207D01*
X014885Y011207D01*
X014817Y011196D01*
X014751Y011174D01*
X014689Y011143D01*
X014633Y011102D01*
X014584Y011053D01*
X014544Y010997D01*
X014512Y010936D01*
X014491Y010870D01*
X014480Y010801D01*
X014480Y010767D01*
X015180Y010767D01*
X015180Y011207D01*
X015180Y010767D01*
X015180Y010767D01*
X015180Y010767D01*
X014480Y010767D01*
X014480Y010732D01*
X014491Y010664D01*
X014512Y010598D01*
X014544Y010536D01*
X014584Y010480D01*
X014633Y010431D01*
X014689Y010390D01*
X014751Y010359D01*
X014817Y010338D01*
X014885Y010327D01*
X015180Y010327D01*
X015475Y010327D01*
X015543Y010338D01*
X015609Y010359D01*
X015671Y010390D01*
X015727Y010431D01*
X015776Y010480D01*
X015816Y010536D01*
X015848Y010598D01*
X015869Y010664D01*
X015875Y010700D01*
X015875Y009834D01*
X015869Y009870D01*
X015848Y009936D01*
X015816Y009997D01*
X015776Y010053D01*
X015727Y010102D01*
X015671Y010143D01*
X015609Y010174D01*
X015543Y010196D01*
X015475Y010207D01*
X015180Y010207D01*
X014885Y010207D01*
X014817Y010196D01*
X014751Y010174D01*
X014689Y010143D01*
X014633Y010102D01*
X014584Y010053D01*
X014544Y009997D01*
X014512Y009936D01*
X014491Y009870D01*
X014480Y009801D01*
X014406Y009801D01*
X014480Y009801D02*
X014480Y009767D01*
X015180Y009767D01*
X015180Y010207D01*
X015180Y009767D01*
X015180Y009767D01*
X015180Y009767D01*
X014480Y009767D01*
X014480Y009732D01*
X014491Y009664D01*
X014512Y009598D01*
X014544Y009536D01*
X014584Y009480D01*
X014633Y009431D01*
X014689Y009390D01*
X014751Y009359D01*
X014817Y009338D01*
X014885Y009327D01*
X015180Y009327D01*
X015475Y009327D01*
X015543Y009338D01*
X015609Y009359D01*
X015671Y009390D01*
X015727Y009431D01*
X015776Y009480D01*
X015816Y009536D01*
X015848Y009598D01*
X015869Y009664D01*
X015875Y009700D01*
X015875Y008834D01*
X015869Y008870D01*
X015848Y008936D01*
X015816Y008997D01*
X015776Y009053D01*
X015727Y009102D01*
X015671Y009143D01*
X015609Y009174D01*
X015543Y009196D01*
X015475Y009207D01*
X015180Y009207D01*
X014885Y009207D01*
X014817Y009196D01*
X014751Y009174D01*
X014689Y009143D01*
X014633Y009102D01*
X014584Y009053D01*
X014544Y008997D01*
X014512Y008936D01*
X014491Y008870D01*
X014480Y008801D01*
X014480Y008767D01*
X015180Y008767D01*
X015180Y009207D01*
X015180Y008767D01*
X015180Y008767D01*
X015180Y008767D01*
X014480Y008767D01*
X014480Y008732D01*
X014491Y008664D01*
X014512Y008598D01*
X014544Y008536D01*
X014584Y008480D01*
X014633Y008431D01*
X014689Y008390D01*
X014751Y008359D01*
X014817Y008338D01*
X014885Y008327D01*
X015180Y008327D01*
X015475Y008327D01*
X015543Y008338D01*
X015609Y008359D01*
X015671Y008390D01*
X015727Y008431D01*
X015776Y008480D01*
X015816Y008536D01*
X015848Y008598D01*
X015869Y008664D01*
X015875Y008700D01*
X015875Y007906D01*
X013516Y007906D01*
X013424Y007868D01*
X013354Y007798D01*
X013316Y007706D01*
X013316Y002839D01*
X012960Y002483D01*
X012922Y002391D01*
X012922Y002155D01*
X012921Y002154D01*
X012792Y002026D01*
X012723Y001858D01*
X012723Y001767D01*
X012180Y002309D01*
X012271Y002309D01*
X012439Y002379D01*
X012568Y002508D01*
X012637Y002676D01*
X012637Y002858D01*
X012568Y003026D01*
X012439Y003154D01*
X012271Y003224D01*
X012089Y003224D01*
X011921Y003154D01*
X011792Y003026D01*
X011723Y002858D01*
X011723Y002767D01*
X011650Y002839D01*
X011650Y007800D01*
X012631Y007800D01*
X012723Y007838D01*
X014298Y009413D01*
X014368Y009483D01*
X014406Y009575D01*
X014406Y011580D01*
X014406Y011545D02*
X014490Y011545D01*
X014406Y011386D02*
X014650Y011386D01*
X014406Y011228D02*
X015875Y011228D01*
X015875Y011386D02*
X015710Y011386D01*
X015846Y011545D02*
X015875Y011545D01*
X015875Y011069D02*
X015760Y011069D01*
X015856Y010911D02*
X015875Y010911D01*
X015875Y010594D02*
X015846Y010594D01*
X015875Y010435D02*
X015731Y010435D01*
X015875Y010277D02*
X014406Y010277D01*
X014406Y010435D02*
X014629Y010435D01*
X014514Y010594D02*
X014406Y010594D01*
X014406Y010752D02*
X014480Y010752D01*
X014504Y010911D02*
X014406Y010911D01*
X014406Y011069D02*
X014600Y011069D01*
X015180Y011069D02*
X015180Y011069D01*
X015180Y010911D02*
X015180Y010911D01*
X015180Y010767D02*
X015180Y010327D01*
X015180Y010767D01*
X015180Y010767D01*
X015180Y010752D02*
X015180Y010752D01*
X015180Y010594D02*
X015180Y010594D01*
X015180Y010435D02*
X015180Y010435D01*
X015180Y010118D02*
X015180Y010118D01*
X015180Y009960D02*
X015180Y009960D01*
X015180Y009801D02*
X015180Y009801D01*
X015180Y009767D02*
X015180Y009327D01*
X015180Y009767D01*
X015180Y009767D01*
X015180Y009643D02*
X015180Y009643D01*
X015180Y009484D02*
X015180Y009484D01*
X015180Y009167D02*
X015180Y009167D01*
X015180Y009009D02*
X015180Y009009D01*
X015180Y008850D02*
X015180Y008850D01*
X015180Y008767D02*
X015180Y008327D01*
X015180Y008767D01*
X015180Y008767D01*
X015180Y008692D02*
X015180Y008692D01*
X015180Y008533D02*
X015180Y008533D01*
X015180Y008375D02*
X015180Y008375D01*
X015640Y008375D02*
X015875Y008375D01*
X015875Y008533D02*
X015814Y008533D01*
X015874Y008692D02*
X015875Y008692D01*
X015872Y008850D02*
X015875Y008850D01*
X015875Y009009D02*
X015808Y009009D01*
X015875Y009167D02*
X015623Y009167D01*
X015875Y009326D02*
X014211Y009326D01*
X014369Y009484D02*
X014581Y009484D01*
X014498Y009643D02*
X014406Y009643D01*
X014406Y009960D02*
X014525Y009960D01*
X014406Y010118D02*
X014655Y010118D01*
X013906Y010118D02*
X012739Y010118D01*
X012858Y009960D02*
X013906Y009960D01*
X013906Y009801D02*
X012900Y009801D01*
X012887Y009643D02*
X013821Y009643D01*
X013662Y009484D02*
X012808Y009484D01*
X012577Y009326D02*
X013504Y009326D01*
X013345Y009167D02*
X012675Y009167D01*
X012838Y009009D02*
X013187Y009009D01*
X013028Y008850D02*
X012900Y008850D01*
X013260Y008375D02*
X014720Y008375D01*
X014546Y008533D02*
X013418Y008533D01*
X013577Y008692D02*
X014486Y008692D01*
X014488Y008850D02*
X013735Y008850D01*
X013894Y009009D02*
X014552Y009009D01*
X014737Y009167D02*
X014052Y009167D01*
X013906Y010277D02*
X008937Y010277D01*
X009056Y010435D02*
X008778Y010435D01*
X008897Y010594D02*
X008620Y010594D01*
X008637Y010752D02*
X008739Y010752D01*
X009129Y011069D02*
X011572Y011069D01*
X011482Y010911D02*
X009287Y010911D01*
X009095Y010118D02*
X011621Y010118D01*
X011502Y009960D02*
X009254Y009960D01*
X008864Y009643D02*
X008624Y009643D01*
X008637Y009801D02*
X008705Y009801D01*
X008544Y009484D02*
X009022Y009484D01*
X008575Y009009D02*
X011522Y009009D01*
X011460Y008850D02*
X008637Y008850D01*
X008637Y008692D02*
X011460Y008692D01*
X011519Y008533D02*
X008578Y008533D01*
X008429Y008375D02*
X011664Y008375D01*
X011213Y008216D02*
X000660Y008216D01*
X008180Y008058D02*
X008180Y008058D01*
X008180Y007899D02*
X008180Y007899D01*
X008180Y007767D02*
X008180Y007767D01*
X008180Y007741D02*
X008180Y007741D01*
X008180Y007582D02*
X008180Y007582D01*
X008180Y007424D02*
X008180Y007424D01*
X008452Y007424D02*
X011150Y007424D01*
X011150Y007582D02*
X008577Y007582D01*
X008617Y007741D02*
X011150Y007741D01*
X011150Y007899D02*
X008597Y007899D01*
X008508Y008058D02*
X011150Y008058D01*
X011650Y007741D02*
X013330Y007741D01*
X013316Y007582D02*
X011650Y007582D01*
X011650Y007424D02*
X013316Y007424D01*
X013316Y007265D02*
X011650Y007265D01*
X011650Y007107D02*
X013316Y007107D01*
X013316Y006948D02*
X011650Y006948D01*
X011650Y006790D02*
X013316Y006790D01*
X013316Y006631D02*
X011650Y006631D01*
X011650Y006473D02*
X013316Y006473D01*
X013316Y006314D02*
X011650Y006314D01*
X011650Y006156D02*
X013316Y006156D01*
X013316Y005997D02*
X011650Y005997D01*
X011650Y005839D02*
X013316Y005839D01*
X013316Y005680D02*
X011650Y005680D01*
X011650Y005522D02*
X013316Y005522D01*
X013316Y005363D02*
X011650Y005363D01*
X011650Y005205D02*
X013316Y005205D01*
X013316Y005046D02*
X011650Y005046D01*
X011650Y004888D02*
X013316Y004888D01*
X013316Y004729D02*
X011650Y004729D01*
X011650Y004571D02*
X013316Y004571D01*
X013316Y004412D02*
X011650Y004412D01*
X011650Y004254D02*
X013316Y004254D01*
X013316Y004095D02*
X011650Y004095D01*
X011650Y003937D02*
X013316Y003937D01*
X013316Y003778D02*
X011650Y003778D01*
X011650Y003620D02*
X013316Y003620D01*
X013316Y003461D02*
X011650Y003461D01*
X011650Y003303D02*
X013316Y003303D01*
X013316Y003144D02*
X012449Y003144D01*
X012584Y002986D02*
X013316Y002986D01*
X013304Y002827D02*
X012637Y002827D01*
X012635Y002669D02*
X013146Y002669D01*
X012987Y002510D02*
X012569Y002510D01*
X012374Y002352D02*
X012922Y002352D01*
X012922Y002193D02*
X012296Y002193D01*
X012455Y002035D02*
X012801Y002035D01*
X012730Y001876D02*
X012613Y001876D01*
X011723Y002827D02*
X011662Y002827D01*
X011650Y002986D02*
X011776Y002986D01*
X011650Y003144D02*
X011911Y003144D01*
X014406Y002352D02*
X021692Y002352D01*
X021692Y002510D02*
X014569Y002510D01*
X014635Y002669D02*
X021692Y002669D01*
X021692Y002827D02*
X014637Y002827D01*
X014760Y002986D02*
X021692Y002986D01*
X021692Y003144D02*
X014919Y003144D01*
X015077Y003303D02*
X021692Y003303D01*
X021692Y003461D02*
X015236Y003461D01*
X015394Y003620D02*
X021692Y003620D01*
X021692Y003778D02*
X015553Y003778D01*
X015711Y003937D02*
X021692Y003937D01*
X021692Y004095D02*
X015870Y004095D01*
X016028Y004254D02*
X021692Y004254D01*
X021692Y004412D02*
X016187Y004412D01*
X016345Y004571D02*
X021692Y004571D01*
X021692Y004729D02*
X016504Y004729D01*
X016662Y004888D02*
X021692Y004888D01*
X021692Y005046D02*
X016821Y005046D01*
X016979Y005205D02*
X021692Y005205D01*
X021692Y005363D02*
X019727Y005363D01*
X019730Y005373D02*
X019718Y005327D01*
X019694Y005286D01*
X019661Y005253D01*
X019619Y005229D01*
X019574Y005217D01*
X019200Y005217D01*
X019200Y005747D01*
X019730Y005747D01*
X019730Y005373D01*
X019730Y005522D02*
X021692Y005522D01*
X021692Y005680D02*
X019730Y005680D01*
X019730Y005839D02*
X021692Y005839D01*
X021692Y005997D02*
X019730Y005997D01*
X019730Y006156D02*
X021692Y006156D01*
X021692Y006314D02*
X019583Y006314D01*
X019675Y006473D02*
X021692Y006473D01*
X021692Y006631D02*
X019741Y006631D01*
X019750Y006790D02*
X021692Y006790D01*
X021692Y006948D02*
X019722Y006948D01*
X019646Y007107D02*
X021692Y007107D01*
X021692Y007265D02*
X019466Y007265D01*
X019643Y007424D02*
X021692Y007424D01*
X021692Y007582D02*
X019721Y007582D01*
X019750Y007741D02*
X021692Y007741D01*
X021692Y007899D02*
X019742Y007899D01*
X019676Y008058D02*
X021692Y008058D01*
X021692Y008216D02*
X019537Y008216D01*
X019594Y008375D02*
X021692Y008375D01*
X021692Y008533D02*
X019700Y008533D01*
X019750Y008692D02*
X021692Y008692D01*
X021692Y008850D02*
X019750Y008850D01*
X019697Y009009D02*
X021692Y009009D01*
X021692Y009167D02*
X019586Y009167D01*
X019545Y009326D02*
X021692Y009326D01*
X021692Y009484D02*
X019680Y009484D01*
X019746Y009643D02*
X021692Y009643D01*
X021692Y009801D02*
X019750Y009801D01*
X019717Y009960D02*
X021692Y009960D01*
X021692Y010118D02*
X019635Y010118D01*
X019487Y010277D02*
X021692Y010277D01*
X021692Y010435D02*
X019655Y010435D01*
X019725Y010594D02*
X021692Y010594D01*
X021692Y010752D02*
X019750Y010752D01*
X019737Y010911D02*
X021692Y010911D01*
X021692Y011069D02*
X019672Y011069D01*
X019525Y011228D02*
X021692Y011228D01*
X021692Y011386D02*
X019606Y011386D01*
X021500Y011545D02*
X021692Y011545D01*
X021692Y011703D02*
X021674Y011703D01*
X021690Y011862D02*
X021692Y011862D01*
X021690Y012020D02*
X021692Y012020D01*
X021690Y012179D02*
X021692Y012179D01*
X021690Y012337D02*
X021692Y012337D01*
X021690Y012496D02*
X021692Y012496D01*
X021690Y012654D02*
X021692Y012654D01*
X021690Y012813D02*
X021692Y012813D01*
X021690Y012971D02*
X021692Y012971D01*
X021690Y013130D02*
X021692Y013130D01*
X021690Y013288D02*
X021692Y013288D01*
X021690Y013447D02*
X021692Y013447D01*
X021690Y013605D02*
X021692Y013605D01*
X021690Y013764D02*
X021692Y013764D01*
X021690Y013922D02*
X021692Y013922D01*
X021690Y014081D02*
X021692Y014081D01*
X021690Y014239D02*
X021692Y014239D01*
X021690Y014398D02*
X021692Y014398D01*
X021690Y014556D02*
X021692Y014556D01*
X021690Y014715D02*
X021692Y014715D01*
X021690Y014873D02*
X021692Y014873D01*
X021690Y015032D02*
X021692Y015032D01*
X021690Y015190D02*
X021692Y015190D01*
X021690Y015349D02*
X021692Y015349D01*
X021690Y015507D02*
X021692Y015507D01*
X021690Y015666D02*
X021692Y015666D01*
X021690Y015824D02*
X021692Y015824D01*
X021690Y015983D02*
X021692Y015983D01*
X021690Y016141D02*
X021692Y016141D01*
X021690Y016300D02*
X021692Y016300D01*
X021690Y016458D02*
X021692Y016458D01*
X021690Y016617D02*
X021692Y016617D01*
X021690Y016775D02*
X021692Y016775D01*
X021690Y016934D02*
X021692Y016934D01*
X021690Y017092D02*
X021692Y017092D01*
X021690Y017251D02*
X021692Y017251D01*
X021690Y017409D02*
X021692Y017409D01*
X021690Y017568D02*
X021692Y017568D01*
X021690Y017726D02*
X021692Y017726D01*
X021690Y017885D02*
X021692Y017885D01*
X021690Y018043D02*
X021692Y018043D01*
X021690Y018202D02*
X021692Y018202D01*
X021690Y018360D02*
X021692Y018360D01*
X021690Y018519D02*
X021692Y018519D01*
X021690Y018677D02*
X021692Y018677D01*
X021690Y018836D02*
X021692Y018836D01*
X021690Y018994D02*
X021692Y018994D01*
X018621Y023908D02*
X014392Y023908D01*
X014392Y024066D02*
X018687Y024066D01*
X021692Y027395D02*
X000660Y027395D01*
X000660Y027553D02*
X021692Y027553D01*
X013906Y011069D02*
X012788Y011069D01*
X012878Y010911D02*
X013906Y010911D01*
X013906Y010752D02*
X012900Y010752D01*
X012866Y010594D02*
X013906Y010594D01*
X013906Y010435D02*
X012759Y010435D01*
X011783Y009326D02*
X008311Y009326D01*
X008409Y009167D02*
X011685Y009167D01*
X012943Y008058D02*
X015875Y008058D01*
X015875Y008216D02*
X013101Y008216D01*
X012784Y007899D02*
X013499Y007899D01*
X015779Y009484D02*
X015875Y009484D01*
X015862Y009643D02*
X015875Y009643D01*
X015875Y009960D02*
X015835Y009960D01*
X015875Y010118D02*
X015705Y010118D01*
X018406Y006631D02*
X018619Y006631D01*
X018607Y006790D02*
X018564Y006790D01*
X018685Y006473D02*
X018247Y006473D01*
X018089Y006314D02*
X018777Y006314D01*
X018630Y006156D02*
X017930Y006156D01*
X017772Y005997D02*
X018630Y005997D01*
X018630Y005839D02*
X017613Y005839D01*
X017455Y005680D02*
X018630Y005680D01*
X018630Y005522D02*
X017296Y005522D01*
X017138Y005363D02*
X018633Y005363D01*
X019160Y005363D02*
X019200Y005363D01*
X019200Y005522D02*
X019160Y005522D01*
X019160Y005680D02*
X019200Y005680D01*
X021692Y002193D02*
X014406Y002193D01*
X014406Y002035D02*
X021692Y002035D01*
X021692Y001876D02*
X014406Y001876D01*
X014406Y001718D02*
X021692Y001718D01*
X021692Y001559D02*
X014406Y001559D01*
X014406Y001401D02*
X021692Y001401D01*
D16*
X012503Y006239D03*
X010141Y012145D03*
D17*
X009235Y010609D02*
X011991Y010609D01*
X012180Y010767D01*
X012180Y009767D02*
X011991Y009625D01*
X009235Y009625D01*
X008251Y010609D01*
X008180Y010767D01*
X008251Y011593D02*
X008180Y011767D01*
X008251Y011593D02*
X009235Y010609D01*
X007660Y012184D02*
X008054Y012578D01*
X008180Y012767D01*
X007660Y012184D02*
X004117Y012184D01*
X003526Y012775D01*
X003526Y015727D01*
X006086Y015727D01*
X006180Y015767D01*
X006086Y016712D02*
X006180Y016767D01*
X006086Y016712D02*
X003330Y016712D01*
X003330Y012381D01*
X003723Y011987D01*
X003920Y011987D01*
X004117Y011790D01*
X004180Y011767D01*
X004117Y010806D02*
X004180Y010767D01*
X004117Y010806D02*
X003133Y011790D01*
X003133Y017696D01*
X006086Y017696D01*
X006180Y017767D01*
X005298Y013759D02*
X011991Y013759D01*
X012180Y013767D01*
X012188Y013759D01*
X013369Y013759D01*
X013369Y012971D01*
X014156Y012184D01*
X014156Y009625D01*
X012582Y008050D01*
X011400Y008050D01*
X011400Y002735D01*
X012778Y001357D01*
X014156Y001357D01*
X014156Y002735D01*
X014180Y002767D01*
X014353Y002932D01*
X018487Y007066D01*
X018684Y007066D01*
X018881Y006869D01*
X019078Y006869D01*
X019180Y006767D01*
X019078Y007656D02*
X019180Y007767D01*
X019078Y007656D02*
X016125Y007656D01*
X016125Y011987D01*
X015928Y012184D01*
X014550Y012184D01*
X014156Y012578D01*
X014156Y018680D01*
X014747Y019271D01*
X015731Y019271D01*
X017306Y020845D01*
X018290Y020845D01*
X019078Y021633D01*
X019180Y021767D01*
X019180Y020767D02*
X019078Y020649D01*
X018093Y020649D01*
X016519Y019074D01*
X015534Y019074D01*
X015337Y018877D01*
X015180Y018767D01*
X015534Y018090D02*
X015731Y018090D01*
X016519Y018877D01*
X018093Y018877D01*
X018881Y019664D01*
X019078Y019664D01*
X019180Y019767D01*
X019274Y018877D02*
X019180Y018767D01*
X019274Y018877D02*
X020062Y018877D01*
X020062Y024979D01*
X019471Y025570D01*
X012188Y025570D01*
X012188Y021830D01*
X012180Y021767D01*
X011991Y020845D02*
X012180Y020767D01*
X011991Y020845D02*
X011204Y021633D01*
X011204Y025767D01*
X019668Y025767D01*
X020259Y025176D01*
X020259Y018090D01*
X019668Y018090D01*
X019471Y017893D01*
X019274Y017893D01*
X019180Y017767D01*
X019274Y016908D02*
X019180Y016767D01*
X019274Y016908D02*
X020456Y016908D01*
X020456Y025373D01*
X019865Y025964D01*
X011007Y025964D01*
X011007Y020845D01*
X011991Y019861D01*
X012180Y019767D01*
X011991Y018877D02*
X012180Y018767D01*
X011991Y018877D02*
X010810Y020058D01*
X010810Y026160D01*
X020259Y026160D01*
X020652Y025767D01*
X020652Y015924D01*
X019274Y015924D01*
X019180Y015767D01*
X019668Y014940D02*
X019471Y014743D01*
X019274Y014743D01*
X019180Y014767D01*
X019668Y014940D02*
X020849Y014940D01*
X020849Y025964D01*
X020456Y026357D01*
X010613Y026357D01*
X010613Y019271D01*
X011991Y017893D01*
X012180Y017767D01*
X011991Y016908D02*
X012180Y016767D01*
X011991Y016908D02*
X010416Y018483D01*
X010416Y026554D01*
X020652Y026554D01*
X021046Y026160D01*
X021046Y013956D01*
X019668Y013956D01*
X019471Y013759D01*
X019274Y013759D01*
X019180Y013767D01*
X018487Y013562D02*
X018487Y011003D01*
X018684Y011003D01*
X018881Y010806D01*
X019078Y010806D01*
X019180Y010767D01*
X019180Y011767D02*
X019274Y011790D01*
X021440Y011790D01*
X021440Y026554D01*
X021046Y026948D01*
X010023Y026948D01*
X010023Y016908D01*
X011991Y014940D01*
X012180Y014767D01*
X012180Y015767D02*
X011991Y015924D01*
X010219Y017696D01*
X010219Y026751D01*
X020849Y026751D01*
X021243Y026357D01*
X021243Y012971D01*
X019668Y012971D01*
X019471Y012775D01*
X019274Y012775D01*
X019180Y012767D01*
X018487Y013562D02*
X015337Y016712D01*
X015180Y016767D01*
X015180Y017767D02*
X015337Y017893D01*
X015534Y018090D01*
X015180Y015767D02*
X015337Y015727D01*
X018290Y012775D01*
X018290Y009822D01*
X019078Y009822D01*
X019180Y009767D01*
X019078Y008838D02*
X019180Y008767D01*
X019078Y008838D02*
X018093Y008838D01*
X018093Y011987D01*
X015337Y014743D01*
X015180Y014767D01*
X013369Y013759D02*
X013369Y023601D01*
X013326Y023767D01*
X014034Y023767D02*
X014156Y023601D01*
X018684Y023601D01*
X018881Y023798D01*
X019078Y023798D01*
X019180Y023767D01*
X014156Y012184D02*
X014550Y011790D01*
X015141Y011790D01*
X015180Y011767D01*
X016125Y007656D02*
X013566Y007656D01*
X013566Y002735D01*
X013172Y002341D01*
X013172Y001948D01*
X013180Y001767D01*
X004314Y012775D02*
X004180Y012767D01*
X004314Y012775D02*
X005298Y013759D01*
M02*
