G75*
%MOIN*%
%OFA0B0*%
%FSLAX24Y24*%
%IPPOS*%
%LPD*%
%AMOC8*
5,1,8,0,0,1.08239X$1,22.5*
%
%ADD10C,0.0520*%
%ADD11R,0.0740X0.0740*%
%ADD12C,0.0740*%
%ADD13C,0.0515*%
%ADD14R,0.0475X0.0475*%
%ADD15C,0.0160*%
D10*
X011920Y008767D02*
X012440Y008767D01*
X012440Y009767D02*
X011920Y009767D01*
X011920Y010767D02*
X012440Y010767D01*
X012440Y011767D02*
X011920Y011767D01*
X011920Y012767D02*
X012440Y012767D01*
X012440Y013767D02*
X011920Y013767D01*
X011920Y014767D02*
X012440Y014767D01*
X012440Y015767D02*
X011920Y015767D01*
X011920Y016767D02*
X012440Y016767D01*
X012440Y017767D02*
X011920Y017767D01*
X011920Y018767D02*
X012440Y018767D01*
X012440Y019767D02*
X011920Y019767D01*
X011920Y020767D02*
X012440Y020767D01*
X012440Y021767D02*
X011920Y021767D01*
X014920Y021767D02*
X015440Y021767D01*
X015440Y020767D02*
X014920Y020767D01*
X014920Y019767D02*
X015440Y019767D01*
X015440Y018767D02*
X014920Y018767D01*
X014920Y017767D02*
X015440Y017767D01*
X015440Y016767D02*
X014920Y016767D01*
X014920Y015767D02*
X015440Y015767D01*
X015440Y014767D02*
X014920Y014767D01*
X014920Y013767D02*
X015440Y013767D01*
X015440Y012767D02*
X014920Y012767D01*
X014920Y011767D02*
X015440Y011767D01*
X015440Y010767D02*
X014920Y010767D01*
X014920Y009767D02*
X015440Y009767D01*
X015440Y008767D02*
X014920Y008767D01*
D11*
X019180Y005767D03*
X006180Y018767D03*
D12*
X006180Y017767D03*
X006180Y016767D03*
X006180Y015767D03*
X019180Y015767D03*
X019180Y014767D03*
X019180Y013767D03*
X019180Y012767D03*
X019180Y011767D03*
X019180Y010767D03*
X019180Y009767D03*
X019180Y008767D03*
X019180Y007767D03*
X019180Y006767D03*
X019180Y016767D03*
X019180Y017767D03*
X019180Y018767D03*
X019180Y019767D03*
X019180Y020767D03*
X019180Y021767D03*
X019180Y022767D03*
X019180Y023767D03*
X019180Y024767D03*
D13*
X004180Y007767D03*
X004180Y008767D03*
X004180Y009767D03*
X004180Y010767D03*
X004180Y011767D03*
X004180Y012767D03*
X008180Y012767D03*
X008180Y011767D03*
X008180Y010767D03*
X008180Y009767D03*
X008180Y008767D03*
X008180Y007767D03*
X012180Y002767D03*
X013180Y001767D03*
X014180Y002767D03*
D14*
X012503Y006239D03*
X010141Y012145D03*
D15*
X012503Y006239D01*
M02*
