G75*
%MOIN*%
%OFA0B0*%
%FSLAX24Y24*%
%IPPOS*%
%LPD*%
%AMOC8*
5,1,8,0,0,1.08239X$1,22.5*
%
%ADD10C,0.0740*%
%ADD11R,0.0740X0.0740*%
%ADD12C,0.0100*%
D10*
X001650Y001150D03*
X002650Y001150D03*
X003650Y001150D03*
X004650Y001150D03*
X005650Y001150D03*
X009650Y004400D03*
X010650Y004400D03*
X011650Y004400D03*
X012650Y004400D03*
X013650Y004400D03*
X014650Y004400D03*
X015650Y004400D03*
X016650Y004400D03*
X017650Y004400D03*
X018650Y004400D03*
X019650Y004400D03*
X020650Y004400D03*
X021650Y004400D03*
X022650Y004400D03*
X023650Y004400D03*
X024650Y004400D03*
X025650Y004400D03*
X026650Y004400D03*
X027650Y004400D03*
X028650Y004400D03*
X029650Y004400D03*
X030650Y004400D03*
X030650Y005400D03*
X029650Y005400D03*
X028650Y005400D03*
X027650Y005400D03*
X026650Y005400D03*
X025650Y005400D03*
X024650Y005400D03*
X023650Y005400D03*
X022650Y005400D03*
X021650Y005400D03*
X020650Y005400D03*
X019650Y005400D03*
X018650Y005400D03*
X017650Y005400D03*
X016650Y005400D03*
X015650Y005400D03*
X014650Y005400D03*
X013650Y005400D03*
X012650Y005400D03*
X011650Y005400D03*
X010650Y005400D03*
X009650Y005400D03*
X008650Y005400D03*
X027650Y001650D03*
X028650Y001550D03*
X029650Y001650D03*
X030650Y001550D03*
X031650Y001650D03*
X032650Y001550D03*
X030650Y023400D03*
X030650Y024400D03*
X029650Y024400D03*
X029650Y023400D03*
X028650Y023400D03*
X028650Y024400D03*
X027650Y024400D03*
X027650Y023400D03*
X026650Y023400D03*
X025650Y023400D03*
X025650Y024400D03*
X026650Y024400D03*
X024650Y024400D03*
X024650Y023400D03*
X023650Y023400D03*
X023650Y024400D03*
X022650Y024400D03*
X022650Y023400D03*
X021650Y023400D03*
X021650Y024400D03*
X020650Y024400D03*
X019650Y024400D03*
X019650Y023400D03*
X020650Y023400D03*
X018650Y023400D03*
X018650Y024400D03*
X017650Y024400D03*
X017650Y023400D03*
X016650Y023400D03*
X016650Y024400D03*
X015650Y024400D03*
X014650Y024400D03*
X014650Y023400D03*
X015650Y023400D03*
X013650Y023400D03*
X013650Y024400D03*
X012650Y024400D03*
X012650Y023400D03*
X011650Y023400D03*
X011650Y024400D03*
X010650Y024400D03*
X009650Y024400D03*
X009650Y023400D03*
X010650Y023400D03*
X008650Y024400D03*
D11*
X008650Y023400D03*
X008650Y004400D03*
D12*
X000600Y000600D02*
X000600Y027150D01*
X035070Y027150D01*
X035070Y000600D01*
X034120Y000600D01*
X034120Y006491D01*
X033991Y006620D01*
X032991Y007620D01*
X008559Y007620D01*
X008430Y007491D01*
X008430Y005893D01*
X008344Y005858D01*
X008192Y005706D01*
X008110Y005507D01*
X008110Y005293D01*
X008192Y005094D01*
X008344Y004942D01*
X008398Y004920D01*
X008260Y004920D01*
X008222Y004910D01*
X008188Y004890D01*
X008160Y004862D01*
X008140Y004828D01*
X008130Y004790D01*
X008130Y004450D01*
X008600Y004450D01*
X008600Y004350D01*
X008700Y004350D01*
X008700Y003880D01*
X009040Y003880D01*
X009078Y003890D01*
X009112Y003910D01*
X009140Y003938D01*
X009160Y003972D01*
X009170Y004010D01*
X009170Y004148D01*
X009192Y004094D01*
X009344Y003942D01*
X009370Y003931D01*
X009059Y003620D01*
X002559Y003620D01*
X002430Y003491D01*
X002430Y001643D01*
X002344Y001608D01*
X002192Y001456D01*
X002139Y001328D01*
X002132Y001350D01*
X002095Y001423D01*
X002047Y001489D01*
X001989Y001547D01*
X001923Y001595D01*
X001850Y001632D01*
X001772Y001657D01*
X001700Y001669D01*
X001700Y001200D01*
X001600Y001200D01*
X001600Y001669D01*
X001528Y001657D01*
X001450Y001632D01*
X001377Y001595D01*
X001311Y001547D01*
X001253Y001489D01*
X001205Y001423D01*
X001168Y001350D01*
X001143Y001272D01*
X001131Y001200D01*
X001600Y001200D01*
X001600Y001100D01*
X001131Y001100D01*
X001143Y001028D01*
X001168Y000950D01*
X001205Y000877D01*
X001253Y000811D01*
X001311Y000753D01*
X001377Y000705D01*
X001450Y000668D01*
X001528Y000643D01*
X001600Y000631D01*
X001600Y001100D01*
X001700Y001100D01*
X001700Y000631D01*
X001772Y000643D01*
X001850Y000668D01*
X001923Y000705D01*
X001989Y000753D01*
X002047Y000811D01*
X002095Y000877D01*
X002132Y000950D01*
X002139Y000972D01*
X002192Y000844D01*
X002344Y000692D01*
X002543Y000610D01*
X002757Y000610D01*
X002956Y000692D01*
X003001Y000738D01*
X003059Y000680D01*
X003139Y000600D01*
X000600Y000600D01*
X000600Y000643D02*
X001530Y000643D01*
X001600Y000643D02*
X001700Y000643D01*
X001770Y000643D02*
X002464Y000643D01*
X002295Y000741D02*
X001972Y000741D01*
X002067Y000840D02*
X002197Y000840D01*
X002153Y000938D02*
X002126Y000938D01*
X002138Y001332D02*
X002141Y001332D01*
X002182Y001431D02*
X002089Y001431D01*
X002006Y001529D02*
X002265Y001529D01*
X002392Y001628D02*
X001858Y001628D01*
X001700Y001628D02*
X001600Y001628D01*
X001600Y001529D02*
X001700Y001529D01*
X001700Y001431D02*
X001600Y001431D01*
X001600Y001332D02*
X001700Y001332D01*
X001700Y001234D02*
X001600Y001234D01*
X001600Y001135D02*
X000600Y001135D01*
X000600Y001037D02*
X001141Y001037D01*
X001174Y000938D02*
X000600Y000938D01*
X000600Y000840D02*
X001233Y000840D01*
X001328Y000741D02*
X000600Y000741D01*
X000600Y001234D02*
X001137Y001234D01*
X001162Y001332D02*
X000600Y001332D01*
X000600Y001431D02*
X001211Y001431D01*
X001294Y001529D02*
X000600Y001529D01*
X000600Y001628D02*
X001442Y001628D01*
X001600Y001037D02*
X001700Y001037D01*
X001700Y000938D02*
X001600Y000938D01*
X001600Y000840D02*
X001700Y000840D01*
X001700Y000741D02*
X001600Y000741D01*
X002650Y001150D02*
X002650Y003400D01*
X009150Y003400D01*
X009650Y003900D01*
X009650Y004400D01*
X009295Y003992D02*
X009165Y003992D01*
X009170Y004090D02*
X009196Y004090D01*
X009083Y003893D02*
X009332Y003893D01*
X009233Y003795D02*
X000600Y003795D01*
X000600Y003893D02*
X006005Y003893D01*
X005985Y003898D02*
X006258Y003825D01*
X006542Y003825D01*
X006815Y003898D01*
X007060Y004040D01*
X007260Y004240D01*
X007402Y004485D01*
X007475Y004758D01*
X007475Y005042D01*
X007402Y005315D01*
X007260Y005560D01*
X007060Y005760D01*
X006815Y005902D01*
X006542Y005975D01*
X006258Y005975D01*
X005985Y005902D01*
X005740Y005760D01*
X005540Y005560D01*
X005398Y005315D01*
X005325Y005042D01*
X005325Y004758D01*
X005398Y004485D01*
X005540Y004240D01*
X005740Y004040D01*
X005985Y003898D01*
X005824Y003992D02*
X000600Y003992D01*
X000600Y004090D02*
X005690Y004090D01*
X005591Y004189D02*
X000600Y004189D01*
X000600Y004287D02*
X005513Y004287D01*
X005456Y004386D02*
X000600Y004386D01*
X000600Y004484D02*
X005399Y004484D01*
X005372Y004583D02*
X000600Y004583D01*
X000600Y004681D02*
X005346Y004681D01*
X005325Y004780D02*
X000600Y004780D01*
X000600Y004878D02*
X005325Y004878D01*
X005325Y004977D02*
X000600Y004977D01*
X000600Y005075D02*
X005334Y005075D01*
X005360Y005174D02*
X000600Y005174D01*
X000600Y005272D02*
X005387Y005272D01*
X005430Y005371D02*
X000600Y005371D01*
X000600Y005469D02*
X005487Y005469D01*
X005547Y005568D02*
X000600Y005568D01*
X000600Y005666D02*
X005646Y005666D01*
X005747Y005765D02*
X000600Y005765D01*
X000600Y005863D02*
X005918Y005863D01*
X006208Y005962D02*
X000600Y005962D01*
X000600Y006060D02*
X008430Y006060D01*
X008430Y005962D02*
X006592Y005962D01*
X006882Y005863D02*
X008357Y005863D01*
X008251Y005765D02*
X007053Y005765D01*
X007154Y005666D02*
X008176Y005666D01*
X008135Y005568D02*
X007253Y005568D01*
X007313Y005469D02*
X008110Y005469D01*
X008110Y005371D02*
X007370Y005371D01*
X007413Y005272D02*
X008119Y005272D01*
X008159Y005174D02*
X007440Y005174D01*
X007466Y005075D02*
X008211Y005075D01*
X008310Y004977D02*
X007475Y004977D01*
X007475Y004878D02*
X008176Y004878D01*
X008130Y004780D02*
X007475Y004780D01*
X007454Y004681D02*
X008130Y004681D01*
X008130Y004583D02*
X007428Y004583D01*
X007401Y004484D02*
X008130Y004484D01*
X008130Y004350D02*
X008130Y004010D01*
X008140Y003972D01*
X008160Y003938D01*
X008188Y003910D01*
X008222Y003890D01*
X008260Y003880D01*
X008600Y003880D01*
X008600Y004350D01*
X008130Y004350D01*
X008130Y004287D02*
X007287Y004287D01*
X007344Y004386D02*
X008600Y004386D01*
X008600Y004287D02*
X008700Y004287D01*
X008700Y004189D02*
X008600Y004189D01*
X008600Y004090D02*
X008700Y004090D01*
X008700Y003992D02*
X008600Y003992D01*
X008600Y003893D02*
X008700Y003893D01*
X009135Y003696D02*
X000600Y003696D01*
X000600Y003598D02*
X002536Y003598D01*
X002438Y003499D02*
X000600Y003499D01*
X000600Y003401D02*
X002430Y003401D01*
X002430Y003302D02*
X000600Y003302D01*
X000600Y003204D02*
X002430Y003204D01*
X002430Y003105D02*
X000600Y003105D01*
X000600Y003007D02*
X002430Y003007D01*
X002430Y002908D02*
X000600Y002908D01*
X000600Y002810D02*
X002430Y002810D01*
X002430Y002711D02*
X000600Y002711D01*
X000600Y002613D02*
X002430Y002613D01*
X002430Y002514D02*
X000600Y002514D01*
X000600Y002416D02*
X002430Y002416D01*
X002430Y002317D02*
X000600Y002317D01*
X000600Y002219D02*
X002430Y002219D01*
X002430Y002120D02*
X000600Y002120D01*
X000600Y002022D02*
X002430Y002022D01*
X002430Y001923D02*
X000600Y001923D01*
X000600Y001825D02*
X002430Y001825D01*
X002430Y001726D02*
X000600Y001726D01*
X002836Y000643D02*
X003096Y000643D01*
X003059Y000680D02*
X003059Y000680D01*
X003150Y000900D02*
X003150Y001400D01*
X003400Y001650D01*
X003400Y001900D01*
X004650Y003150D01*
X009400Y003150D01*
X010150Y003900D01*
X010150Y004650D01*
X009900Y004900D01*
X009400Y004900D01*
X009150Y005150D01*
X009150Y005650D01*
X009900Y006400D01*
X017150Y006400D01*
X017650Y005900D01*
X017650Y005400D01*
X017400Y004900D02*
X017150Y005150D01*
X016900Y005150D01*
X016650Y005400D01*
X016900Y004900D02*
X017400Y004400D01*
X017650Y004400D01*
X017400Y004900D02*
X030900Y004900D01*
X032150Y003650D01*
X032150Y001400D01*
X031650Y000900D01*
X031150Y000900D01*
X030900Y001150D01*
X030900Y001400D01*
X030650Y001400D01*
X030650Y001550D01*
X031650Y001650D02*
X031650Y002150D01*
X030650Y003150D01*
X018650Y003150D01*
X018650Y004400D01*
X018650Y005400D02*
X018650Y006400D01*
X030400Y006400D01*
X033150Y003650D01*
X033150Y001900D01*
X032900Y001650D01*
X032650Y001650D01*
X032650Y001550D01*
X034120Y001529D02*
X035070Y001529D01*
X035070Y001431D02*
X034120Y001431D01*
X034120Y001332D02*
X035070Y001332D01*
X035070Y001234D02*
X034120Y001234D01*
X034120Y001135D02*
X035070Y001135D01*
X035070Y001037D02*
X034120Y001037D01*
X034120Y000938D02*
X035070Y000938D01*
X035070Y000840D02*
X034120Y000840D01*
X034120Y000741D02*
X035070Y000741D01*
X035070Y000643D02*
X034120Y000643D01*
X033900Y000650D02*
X028400Y000650D01*
X027650Y001400D01*
X027650Y001650D01*
X028400Y001650D02*
X028650Y001650D01*
X028650Y001550D01*
X028400Y001650D02*
X028400Y001900D01*
X027900Y002400D01*
X016900Y002400D01*
X015150Y004150D01*
X015150Y004650D01*
X014900Y004900D01*
X011400Y004900D01*
X011150Y005150D01*
X010900Y005150D01*
X010650Y005400D01*
X010150Y005650D02*
X010150Y005150D01*
X010400Y004900D01*
X010900Y004900D01*
X011150Y004650D01*
X011150Y003900D01*
X009900Y002650D01*
X005650Y002650D01*
X005650Y001150D01*
X004650Y001150D02*
X004150Y000650D01*
X003400Y000650D01*
X003150Y000900D01*
X003650Y001150D02*
X003650Y001650D01*
X004900Y002900D01*
X009650Y002900D01*
X010650Y003900D01*
X010650Y004400D01*
X010150Y005650D02*
X010650Y006150D01*
X014650Y006150D01*
X015150Y005650D01*
X015150Y005150D01*
X015400Y004900D01*
X016900Y004900D01*
X016650Y004400D02*
X016650Y003150D01*
X018150Y003150D01*
X018650Y002650D01*
X029150Y002650D01*
X029650Y002150D01*
X029650Y001650D01*
X033900Y000650D02*
X033900Y006400D01*
X032900Y007400D01*
X008650Y007400D01*
X008650Y005400D01*
X008430Y006159D02*
X000600Y006159D01*
X000600Y006257D02*
X008430Y006257D01*
X008430Y006356D02*
X000600Y006356D01*
X000600Y006454D02*
X008430Y006454D01*
X008430Y006553D02*
X000600Y006553D01*
X000600Y006651D02*
X008430Y006651D01*
X008430Y006750D02*
X000600Y006750D01*
X000600Y006848D02*
X008430Y006848D01*
X008430Y006947D02*
X000600Y006947D01*
X000600Y007045D02*
X008430Y007045D01*
X008430Y007144D02*
X000600Y007144D01*
X000600Y007242D02*
X008430Y007242D01*
X008430Y007341D02*
X000600Y007341D01*
X000600Y007439D02*
X008430Y007439D01*
X008476Y007538D02*
X000600Y007538D01*
X000600Y007636D02*
X035070Y007636D01*
X035070Y007538D02*
X033074Y007538D01*
X033172Y007439D02*
X035070Y007439D01*
X035070Y007341D02*
X033271Y007341D01*
X033369Y007242D02*
X035070Y007242D01*
X035070Y007144D02*
X033468Y007144D01*
X033566Y007045D02*
X035070Y007045D01*
X035070Y006947D02*
X033665Y006947D01*
X033763Y006848D02*
X035070Y006848D01*
X035070Y006750D02*
X033862Y006750D01*
X033960Y006651D02*
X035070Y006651D01*
X035070Y006553D02*
X034059Y006553D01*
X034120Y006454D02*
X035070Y006454D01*
X035070Y006356D02*
X034120Y006356D01*
X034120Y006257D02*
X035070Y006257D01*
X035070Y006159D02*
X034120Y006159D01*
X034120Y006060D02*
X035070Y006060D01*
X035070Y005962D02*
X034120Y005962D01*
X034120Y005863D02*
X035070Y005863D01*
X035070Y005765D02*
X034120Y005765D01*
X034120Y005666D02*
X035070Y005666D01*
X035070Y005568D02*
X034120Y005568D01*
X034120Y005469D02*
X035070Y005469D01*
X035070Y005371D02*
X034120Y005371D01*
X034120Y005272D02*
X035070Y005272D01*
X035070Y005174D02*
X034120Y005174D01*
X034120Y005075D02*
X035070Y005075D01*
X035070Y004977D02*
X034120Y004977D01*
X034120Y004878D02*
X035070Y004878D01*
X035070Y004780D02*
X034120Y004780D01*
X034120Y004681D02*
X035070Y004681D01*
X035070Y004583D02*
X034120Y004583D01*
X034120Y004484D02*
X035070Y004484D01*
X035070Y004386D02*
X034120Y004386D01*
X034120Y004287D02*
X035070Y004287D01*
X035070Y004189D02*
X034120Y004189D01*
X034120Y004090D02*
X035070Y004090D01*
X035070Y003992D02*
X034120Y003992D01*
X034120Y003893D02*
X035070Y003893D01*
X035070Y003795D02*
X034120Y003795D01*
X034120Y003696D02*
X035070Y003696D01*
X035070Y003598D02*
X034120Y003598D01*
X034120Y003499D02*
X035070Y003499D01*
X035070Y003401D02*
X034120Y003401D01*
X034120Y003302D02*
X035070Y003302D01*
X035070Y003204D02*
X034120Y003204D01*
X034120Y003105D02*
X035070Y003105D01*
X035070Y003007D02*
X034120Y003007D01*
X034120Y002908D02*
X035070Y002908D01*
X035070Y002810D02*
X034120Y002810D01*
X034120Y002711D02*
X035070Y002711D01*
X035070Y002613D02*
X034120Y002613D01*
X034120Y002514D02*
X035070Y002514D01*
X035070Y002416D02*
X034120Y002416D01*
X034120Y002317D02*
X035070Y002317D01*
X035070Y002219D02*
X034120Y002219D01*
X034120Y002120D02*
X035070Y002120D01*
X035070Y002022D02*
X034120Y002022D01*
X034120Y001923D02*
X035070Y001923D01*
X035070Y001825D02*
X034120Y001825D01*
X034120Y001726D02*
X035070Y001726D01*
X035070Y001628D02*
X034120Y001628D01*
X035070Y007735D02*
X000600Y007735D01*
X000600Y007833D02*
X035070Y007833D01*
X035070Y007932D02*
X000600Y007932D01*
X000600Y008030D02*
X035070Y008030D01*
X035070Y008129D02*
X000600Y008129D01*
X000600Y008227D02*
X035070Y008227D01*
X035070Y008326D02*
X000600Y008326D01*
X000600Y008424D02*
X035070Y008424D01*
X035070Y008523D02*
X000600Y008523D01*
X000600Y008621D02*
X035070Y008621D01*
X035070Y008720D02*
X000600Y008720D01*
X000600Y008818D02*
X035070Y008818D01*
X035070Y008917D02*
X000600Y008917D01*
X000600Y009015D02*
X035070Y009015D01*
X035070Y009114D02*
X000600Y009114D01*
X000600Y009212D02*
X035070Y009212D01*
X035070Y009311D02*
X000600Y009311D01*
X000600Y009409D02*
X035070Y009409D01*
X035070Y009508D02*
X000600Y009508D01*
X000600Y009606D02*
X035070Y009606D01*
X035070Y009705D02*
X000600Y009705D01*
X000600Y009803D02*
X035070Y009803D01*
X035070Y009902D02*
X000600Y009902D01*
X000600Y010000D02*
X035070Y010000D01*
X035070Y010099D02*
X000600Y010099D01*
X000600Y010197D02*
X035070Y010197D01*
X035070Y010296D02*
X000600Y010296D01*
X000600Y010394D02*
X035070Y010394D01*
X035070Y010493D02*
X000600Y010493D01*
X000600Y010591D02*
X035070Y010591D01*
X035070Y010690D02*
X000600Y010690D01*
X000600Y010788D02*
X035070Y010788D01*
X035070Y010887D02*
X000600Y010887D01*
X000600Y010985D02*
X035070Y010985D01*
X035070Y011084D02*
X000600Y011084D01*
X000600Y011182D02*
X035070Y011182D01*
X035070Y011281D02*
X000600Y011281D01*
X000600Y011379D02*
X035070Y011379D01*
X035070Y011478D02*
X000600Y011478D01*
X000600Y011576D02*
X035070Y011576D01*
X035070Y011675D02*
X000600Y011675D01*
X000600Y011773D02*
X035070Y011773D01*
X035070Y011872D02*
X000600Y011872D01*
X000600Y011970D02*
X035070Y011970D01*
X035070Y012069D02*
X000600Y012069D01*
X000600Y012167D02*
X035070Y012167D01*
X035070Y012266D02*
X000600Y012266D01*
X000600Y012364D02*
X035070Y012364D01*
X035070Y012463D02*
X000600Y012463D01*
X000600Y012561D02*
X035070Y012561D01*
X035070Y012660D02*
X000600Y012660D01*
X000600Y012758D02*
X035070Y012758D01*
X035070Y012857D02*
X000600Y012857D01*
X000600Y012955D02*
X035070Y012955D01*
X035070Y013054D02*
X000600Y013054D01*
X000600Y013152D02*
X035070Y013152D01*
X035070Y013251D02*
X000600Y013251D01*
X000600Y013349D02*
X035070Y013349D01*
X035070Y013448D02*
X000600Y013448D01*
X000600Y013546D02*
X035070Y013546D01*
X035070Y013645D02*
X000600Y013645D01*
X000600Y013743D02*
X035070Y013743D01*
X035070Y013842D02*
X000600Y013842D01*
X000600Y013940D02*
X035070Y013940D01*
X035070Y014039D02*
X000600Y014039D01*
X000600Y014137D02*
X035070Y014137D01*
X035070Y014236D02*
X000600Y014236D01*
X000600Y014334D02*
X035070Y014334D01*
X035070Y014433D02*
X000600Y014433D01*
X000600Y014531D02*
X035070Y014531D01*
X035070Y014630D02*
X000600Y014630D01*
X000600Y014728D02*
X035070Y014728D01*
X035070Y014827D02*
X000600Y014827D01*
X000600Y014925D02*
X035070Y014925D01*
X035070Y015024D02*
X000600Y015024D01*
X000600Y015122D02*
X035070Y015122D01*
X035070Y015221D02*
X000600Y015221D01*
X000600Y015319D02*
X035070Y015319D01*
X035070Y015418D02*
X000600Y015418D01*
X000600Y015516D02*
X035070Y015516D01*
X035070Y015615D02*
X000600Y015615D01*
X000600Y015713D02*
X035070Y015713D01*
X035070Y015812D02*
X000600Y015812D01*
X000600Y015910D02*
X035070Y015910D01*
X035070Y016009D02*
X000600Y016009D01*
X000600Y016107D02*
X035070Y016107D01*
X035070Y016206D02*
X000600Y016206D01*
X000600Y016304D02*
X035070Y016304D01*
X035070Y016403D02*
X000600Y016403D01*
X000600Y016501D02*
X035070Y016501D01*
X035070Y016600D02*
X000600Y016600D01*
X000600Y016698D02*
X035070Y016698D01*
X035070Y016797D02*
X000600Y016797D01*
X000600Y016895D02*
X035070Y016895D01*
X035070Y016994D02*
X000600Y016994D01*
X000600Y017092D02*
X035070Y017092D01*
X035070Y017191D02*
X000600Y017191D01*
X000600Y017289D02*
X035070Y017289D01*
X035070Y017388D02*
X000600Y017388D01*
X000600Y017486D02*
X035070Y017486D01*
X035070Y017585D02*
X000600Y017585D01*
X000600Y017683D02*
X035070Y017683D01*
X035070Y017782D02*
X000600Y017782D01*
X000600Y017880D02*
X035070Y017880D01*
X035070Y017979D02*
X000600Y017979D01*
X000600Y018077D02*
X035070Y018077D01*
X035070Y018176D02*
X000600Y018176D01*
X000600Y018274D02*
X035070Y018274D01*
X035070Y018373D02*
X000600Y018373D01*
X000600Y018471D02*
X035070Y018471D01*
X035070Y018570D02*
X000600Y018570D01*
X000600Y018668D02*
X035070Y018668D01*
X035070Y018767D02*
X000600Y018767D01*
X000600Y018865D02*
X035070Y018865D01*
X035070Y018964D02*
X000600Y018964D01*
X000600Y019062D02*
X035070Y019062D01*
X035070Y019161D02*
X000600Y019161D01*
X000600Y019259D02*
X035070Y019259D01*
X035070Y019358D02*
X000600Y019358D01*
X000600Y019456D02*
X035070Y019456D01*
X035070Y019555D02*
X000600Y019555D01*
X000600Y019653D02*
X035070Y019653D01*
X035070Y019752D02*
X000600Y019752D01*
X000600Y019850D02*
X035070Y019850D01*
X035070Y019949D02*
X000600Y019949D01*
X000600Y020047D02*
X035070Y020047D01*
X035070Y020146D02*
X000600Y020146D01*
X000600Y020244D02*
X035070Y020244D01*
X035070Y020343D02*
X000600Y020343D01*
X000600Y020441D02*
X035070Y020441D01*
X035070Y020540D02*
X000600Y020540D01*
X000600Y020638D02*
X035070Y020638D01*
X035070Y020737D02*
X000600Y020737D01*
X000600Y020835D02*
X035070Y020835D01*
X035070Y020934D02*
X000600Y020934D01*
X000600Y021032D02*
X035070Y021032D01*
X035070Y021131D02*
X000600Y021131D01*
X000600Y021229D02*
X035070Y021229D01*
X035070Y021328D02*
X000600Y021328D01*
X000600Y021426D02*
X035070Y021426D01*
X035070Y021525D02*
X000600Y021525D01*
X000600Y021623D02*
X032079Y021623D01*
X031985Y021648D02*
X032258Y021575D01*
X032542Y021575D01*
X032815Y021648D01*
X033060Y021790D01*
X033260Y021990D01*
X033402Y022235D01*
X033475Y022508D01*
X033475Y022792D01*
X033402Y023065D01*
X033260Y023310D01*
X033060Y023510D01*
X032815Y023652D01*
X032542Y023725D01*
X032258Y023725D01*
X031985Y023652D01*
X031740Y023510D01*
X031540Y023310D01*
X031398Y023065D01*
X031325Y022792D01*
X031325Y022508D01*
X031398Y022235D01*
X031540Y021990D01*
X031740Y021790D01*
X031985Y021648D01*
X031858Y021722D02*
X000600Y021722D01*
X000600Y021820D02*
X031710Y021820D01*
X031611Y021919D02*
X000600Y021919D01*
X000600Y022017D02*
X031524Y022017D01*
X031467Y022116D02*
X000600Y022116D01*
X000600Y022214D02*
X031410Y022214D01*
X031377Y022313D02*
X000600Y022313D01*
X000600Y022411D02*
X031351Y022411D01*
X031325Y022510D02*
X000600Y022510D01*
X000600Y022608D02*
X031325Y022608D01*
X031325Y022707D02*
X000600Y022707D01*
X000600Y022805D02*
X031329Y022805D01*
X031355Y022904D02*
X030863Y022904D01*
X030956Y022942D02*
X031108Y023094D01*
X031190Y023293D01*
X031190Y023507D01*
X031108Y023706D01*
X030956Y023858D01*
X030854Y023900D01*
X030956Y023942D01*
X031108Y024094D01*
X031190Y024293D01*
X031190Y024507D01*
X031108Y024706D01*
X030956Y024858D01*
X030757Y024940D01*
X030543Y024940D01*
X030344Y024858D01*
X030192Y024706D01*
X030150Y024604D01*
X030108Y024706D01*
X029956Y024858D01*
X029757Y024940D01*
X029543Y024940D01*
X029344Y024858D01*
X029192Y024706D01*
X029150Y024604D01*
X029108Y024706D01*
X028956Y024858D01*
X028757Y024940D01*
X028543Y024940D01*
X028344Y024858D01*
X028192Y024706D01*
X028150Y024604D01*
X028108Y024706D01*
X027956Y024858D01*
X027757Y024940D01*
X027543Y024940D01*
X027344Y024858D01*
X027192Y024706D01*
X027150Y024604D01*
X027108Y024706D01*
X026956Y024858D01*
X026757Y024940D01*
X026543Y024940D01*
X026344Y024858D01*
X026192Y024706D01*
X026150Y024604D01*
X026108Y024706D01*
X025956Y024858D01*
X025757Y024940D01*
X025543Y024940D01*
X025344Y024858D01*
X025192Y024706D01*
X025150Y024604D01*
X025108Y024706D01*
X024956Y024858D01*
X024757Y024940D01*
X024543Y024940D01*
X024344Y024858D01*
X024192Y024706D01*
X024150Y024604D01*
X024108Y024706D01*
X023956Y024858D01*
X023757Y024940D01*
X023543Y024940D01*
X023344Y024858D01*
X023192Y024706D01*
X023150Y024604D01*
X023108Y024706D01*
X022956Y024858D01*
X022757Y024940D01*
X022543Y024940D01*
X022344Y024858D01*
X022192Y024706D01*
X022150Y024604D01*
X022108Y024706D01*
X021956Y024858D01*
X021757Y024940D01*
X021543Y024940D01*
X021344Y024858D01*
X021192Y024706D01*
X021150Y024604D01*
X021108Y024706D01*
X020956Y024858D01*
X020757Y024940D01*
X020543Y024940D01*
X020344Y024858D01*
X020192Y024706D01*
X020150Y024604D01*
X020108Y024706D01*
X019956Y024858D01*
X019757Y024940D01*
X019543Y024940D01*
X019344Y024858D01*
X019192Y024706D01*
X019150Y024604D01*
X019108Y024706D01*
X018956Y024858D01*
X018757Y024940D01*
X018543Y024940D01*
X018344Y024858D01*
X018192Y024706D01*
X018150Y024604D01*
X018108Y024706D01*
X017956Y024858D01*
X017757Y024940D01*
X017543Y024940D01*
X017344Y024858D01*
X017192Y024706D01*
X017150Y024604D01*
X017108Y024706D01*
X016956Y024858D01*
X016757Y024940D01*
X016543Y024940D01*
X016344Y024858D01*
X016192Y024706D01*
X016150Y024604D01*
X016108Y024706D01*
X015956Y024858D01*
X015757Y024940D01*
X015543Y024940D01*
X015344Y024858D01*
X015192Y024706D01*
X015150Y024604D01*
X015108Y024706D01*
X014956Y024858D01*
X014757Y024940D01*
X014543Y024940D01*
X014344Y024858D01*
X014192Y024706D01*
X014150Y024604D01*
X014108Y024706D01*
X013956Y024858D01*
X013757Y024940D01*
X013543Y024940D01*
X013344Y024858D01*
X013192Y024706D01*
X013150Y024604D01*
X013108Y024706D01*
X012956Y024858D01*
X012757Y024940D01*
X012543Y024940D01*
X012344Y024858D01*
X012192Y024706D01*
X012150Y024604D01*
X012108Y024706D01*
X011956Y024858D01*
X011757Y024940D01*
X011543Y024940D01*
X011344Y024858D01*
X011192Y024706D01*
X011150Y024604D01*
X011108Y024706D01*
X010956Y024858D01*
X010757Y024940D01*
X010543Y024940D01*
X010344Y024858D01*
X010192Y024706D01*
X010150Y024604D01*
X010108Y024706D01*
X009956Y024858D01*
X009757Y024940D01*
X009543Y024940D01*
X009344Y024858D01*
X009192Y024706D01*
X009150Y024604D01*
X009108Y024706D01*
X008956Y024858D01*
X008757Y024940D01*
X008543Y024940D01*
X008344Y024858D01*
X008192Y024706D01*
X008110Y024507D01*
X008110Y024293D01*
X008192Y024094D01*
X008344Y023942D01*
X008349Y023940D01*
X008210Y023940D01*
X008110Y023840D01*
X008110Y022960D01*
X008210Y022860D01*
X009090Y022860D01*
X009190Y022960D01*
X009190Y023099D01*
X009192Y023094D01*
X009344Y022942D01*
X009543Y022860D01*
X009757Y022860D01*
X009956Y022942D01*
X010108Y023094D01*
X010150Y023196D01*
X010192Y023094D01*
X010344Y022942D01*
X010543Y022860D01*
X010757Y022860D01*
X010956Y022942D01*
X011108Y023094D01*
X011150Y023196D01*
X011192Y023094D01*
X011344Y022942D01*
X011543Y022860D01*
X011757Y022860D01*
X011956Y022942D01*
X012108Y023094D01*
X012150Y023196D01*
X012192Y023094D01*
X012344Y022942D01*
X012543Y022860D01*
X012757Y022860D01*
X012956Y022942D01*
X013108Y023094D01*
X013150Y023196D01*
X013192Y023094D01*
X013344Y022942D01*
X013543Y022860D01*
X013757Y022860D01*
X013956Y022942D01*
X014108Y023094D01*
X014150Y023196D01*
X014192Y023094D01*
X014344Y022942D01*
X014543Y022860D01*
X014757Y022860D01*
X014956Y022942D01*
X015108Y023094D01*
X015150Y023196D01*
X015192Y023094D01*
X015344Y022942D01*
X015543Y022860D01*
X015757Y022860D01*
X015956Y022942D01*
X016108Y023094D01*
X016150Y023196D01*
X016192Y023094D01*
X016344Y022942D01*
X016543Y022860D01*
X016757Y022860D01*
X016956Y022942D01*
X017108Y023094D01*
X017150Y023196D01*
X017192Y023094D01*
X017344Y022942D01*
X017543Y022860D01*
X017757Y022860D01*
X017956Y022942D01*
X018108Y023094D01*
X018150Y023196D01*
X018192Y023094D01*
X018344Y022942D01*
X018543Y022860D01*
X018757Y022860D01*
X018956Y022942D01*
X019108Y023094D01*
X019150Y023196D01*
X019192Y023094D01*
X019344Y022942D01*
X019543Y022860D01*
X019757Y022860D01*
X019956Y022942D01*
X020108Y023094D01*
X020150Y023196D01*
X020192Y023094D01*
X020344Y022942D01*
X020543Y022860D01*
X020757Y022860D01*
X020956Y022942D01*
X021108Y023094D01*
X021150Y023196D01*
X021192Y023094D01*
X021344Y022942D01*
X021543Y022860D01*
X021757Y022860D01*
X021956Y022942D01*
X022108Y023094D01*
X022150Y023196D01*
X022192Y023094D01*
X022344Y022942D01*
X022543Y022860D01*
X022757Y022860D01*
X022956Y022942D01*
X023108Y023094D01*
X023150Y023196D01*
X023192Y023094D01*
X023344Y022942D01*
X023543Y022860D01*
X023757Y022860D01*
X023956Y022942D01*
X024108Y023094D01*
X024150Y023196D01*
X024192Y023094D01*
X024344Y022942D01*
X024543Y022860D01*
X024757Y022860D01*
X024956Y022942D01*
X025108Y023094D01*
X025150Y023196D01*
X025192Y023094D01*
X025344Y022942D01*
X025543Y022860D01*
X025757Y022860D01*
X025956Y022942D01*
X026108Y023094D01*
X026150Y023196D01*
X026192Y023094D01*
X026344Y022942D01*
X026543Y022860D01*
X026757Y022860D01*
X026956Y022942D01*
X027108Y023094D01*
X027150Y023196D01*
X027192Y023094D01*
X027344Y022942D01*
X027543Y022860D01*
X027757Y022860D01*
X027956Y022942D01*
X028108Y023094D01*
X028150Y023196D01*
X028192Y023094D01*
X028344Y022942D01*
X028543Y022860D01*
X028757Y022860D01*
X028956Y022942D01*
X029108Y023094D01*
X029150Y023196D01*
X029192Y023094D01*
X029344Y022942D01*
X029543Y022860D01*
X029757Y022860D01*
X029956Y022942D01*
X030108Y023094D01*
X030150Y023196D01*
X030192Y023094D01*
X030344Y022942D01*
X030543Y022860D01*
X030757Y022860D01*
X030956Y022942D01*
X031016Y023002D02*
X031381Y023002D01*
X031419Y023101D02*
X031110Y023101D01*
X031151Y023199D02*
X031476Y023199D01*
X031533Y023298D02*
X031190Y023298D01*
X031190Y023396D02*
X031626Y023396D01*
X031724Y023495D02*
X031190Y023495D01*
X031155Y023593D02*
X031883Y023593D01*
X032134Y023692D02*
X031114Y023692D01*
X031024Y023790D02*
X035070Y023790D01*
X035070Y023692D02*
X032666Y023692D01*
X032917Y023593D02*
X035070Y023593D01*
X035070Y023495D02*
X033076Y023495D01*
X033174Y023396D02*
X035070Y023396D01*
X035070Y023298D02*
X033267Y023298D01*
X033324Y023199D02*
X035070Y023199D01*
X035070Y023101D02*
X033381Y023101D01*
X033419Y023002D02*
X035070Y023002D01*
X035070Y022904D02*
X033445Y022904D01*
X033471Y022805D02*
X035070Y022805D01*
X035070Y022707D02*
X033475Y022707D01*
X033475Y022608D02*
X035070Y022608D01*
X035070Y022510D02*
X033475Y022510D01*
X033449Y022411D02*
X035070Y022411D01*
X035070Y022313D02*
X033423Y022313D01*
X033390Y022214D02*
X035070Y022214D01*
X035070Y022116D02*
X033333Y022116D01*
X033276Y022017D02*
X035070Y022017D01*
X035070Y021919D02*
X033189Y021919D01*
X033090Y021820D02*
X035070Y021820D01*
X035070Y021722D02*
X032942Y021722D01*
X032721Y021623D02*
X035070Y021623D01*
X035070Y023889D02*
X030882Y023889D01*
X031001Y023987D02*
X035070Y023987D01*
X035070Y024086D02*
X031099Y024086D01*
X031145Y024184D02*
X035070Y024184D01*
X035070Y024283D02*
X031186Y024283D01*
X031190Y024381D02*
X035070Y024381D01*
X035070Y024480D02*
X031190Y024480D01*
X031161Y024578D02*
X035070Y024578D01*
X035070Y024677D02*
X031120Y024677D01*
X031039Y024775D02*
X035070Y024775D01*
X035070Y024874D02*
X030918Y024874D01*
X030382Y024874D02*
X029918Y024874D01*
X030039Y024775D02*
X030261Y024775D01*
X030180Y024677D02*
X030120Y024677D01*
X029382Y024874D02*
X028918Y024874D01*
X029039Y024775D02*
X029261Y024775D01*
X029180Y024677D02*
X029120Y024677D01*
X028382Y024874D02*
X027918Y024874D01*
X028039Y024775D02*
X028261Y024775D01*
X028180Y024677D02*
X028120Y024677D01*
X027382Y024874D02*
X026918Y024874D01*
X027039Y024775D02*
X027261Y024775D01*
X027180Y024677D02*
X027120Y024677D01*
X026382Y024874D02*
X025918Y024874D01*
X026039Y024775D02*
X026261Y024775D01*
X026180Y024677D02*
X026120Y024677D01*
X025382Y024874D02*
X024918Y024874D01*
X025039Y024775D02*
X025261Y024775D01*
X025180Y024677D02*
X025120Y024677D01*
X024382Y024874D02*
X023918Y024874D01*
X024039Y024775D02*
X024261Y024775D01*
X024180Y024677D02*
X024120Y024677D01*
X023382Y024874D02*
X022918Y024874D01*
X023039Y024775D02*
X023261Y024775D01*
X023180Y024677D02*
X023120Y024677D01*
X022382Y024874D02*
X021918Y024874D01*
X022039Y024775D02*
X022261Y024775D01*
X022180Y024677D02*
X022120Y024677D01*
X021382Y024874D02*
X020918Y024874D01*
X021039Y024775D02*
X021261Y024775D01*
X021180Y024677D02*
X021120Y024677D01*
X020382Y024874D02*
X019918Y024874D01*
X020039Y024775D02*
X020261Y024775D01*
X020180Y024677D02*
X020120Y024677D01*
X019382Y024874D02*
X018918Y024874D01*
X019039Y024775D02*
X019261Y024775D01*
X019180Y024677D02*
X019120Y024677D01*
X018382Y024874D02*
X017918Y024874D01*
X018039Y024775D02*
X018261Y024775D01*
X018180Y024677D02*
X018120Y024677D01*
X017382Y024874D02*
X016918Y024874D01*
X017039Y024775D02*
X017261Y024775D01*
X017180Y024677D02*
X017120Y024677D01*
X016382Y024874D02*
X015918Y024874D01*
X016039Y024775D02*
X016261Y024775D01*
X016180Y024677D02*
X016120Y024677D01*
X015382Y024874D02*
X014918Y024874D01*
X015039Y024775D02*
X015261Y024775D01*
X015180Y024677D02*
X015120Y024677D01*
X014382Y024874D02*
X013918Y024874D01*
X014039Y024775D02*
X014261Y024775D01*
X014180Y024677D02*
X014120Y024677D01*
X013382Y024874D02*
X012918Y024874D01*
X013039Y024775D02*
X013261Y024775D01*
X013180Y024677D02*
X013120Y024677D01*
X012382Y024874D02*
X011918Y024874D01*
X012039Y024775D02*
X012261Y024775D01*
X012180Y024677D02*
X012120Y024677D01*
X011382Y024874D02*
X010918Y024874D01*
X011039Y024775D02*
X011261Y024775D01*
X011180Y024677D02*
X011120Y024677D01*
X010382Y024874D02*
X009918Y024874D01*
X010039Y024775D02*
X010261Y024775D01*
X010180Y024677D02*
X010120Y024677D01*
X009382Y024874D02*
X008918Y024874D01*
X009039Y024775D02*
X009261Y024775D01*
X009180Y024677D02*
X009120Y024677D01*
X008382Y024874D02*
X006864Y024874D01*
X006815Y024902D02*
X006542Y024975D01*
X006258Y024975D01*
X005985Y024902D01*
X005740Y024760D01*
X005540Y024560D01*
X005398Y024315D01*
X005325Y024042D01*
X005325Y023758D01*
X005398Y023485D01*
X005540Y023240D01*
X005740Y023040D01*
X005985Y022898D01*
X006258Y022825D01*
X006542Y022825D01*
X006815Y022898D01*
X007060Y023040D01*
X007260Y023240D01*
X007402Y023485D01*
X007475Y023758D01*
X007475Y024042D01*
X007402Y024315D01*
X007260Y024560D01*
X007060Y024760D01*
X006815Y024902D01*
X007034Y024775D02*
X008261Y024775D01*
X008180Y024677D02*
X007144Y024677D01*
X007242Y024578D02*
X008139Y024578D01*
X008110Y024480D02*
X007307Y024480D01*
X007364Y024381D02*
X008110Y024381D01*
X008114Y024283D02*
X007410Y024283D01*
X007437Y024184D02*
X008155Y024184D01*
X008201Y024086D02*
X007463Y024086D01*
X007475Y023987D02*
X008299Y023987D01*
X008158Y023889D02*
X007475Y023889D01*
X007475Y023790D02*
X008110Y023790D01*
X008110Y023692D02*
X007457Y023692D01*
X007431Y023593D02*
X008110Y023593D01*
X008110Y023495D02*
X007404Y023495D01*
X007350Y023396D02*
X008110Y023396D01*
X008110Y023298D02*
X007293Y023298D01*
X007219Y023199D02*
X008110Y023199D01*
X008110Y023101D02*
X007121Y023101D01*
X006995Y023002D02*
X008110Y023002D01*
X008166Y022904D02*
X006824Y022904D01*
X005976Y022904D02*
X000600Y022904D01*
X000600Y023002D02*
X005805Y023002D01*
X005679Y023101D02*
X000600Y023101D01*
X000600Y023199D02*
X005581Y023199D01*
X005507Y023298D02*
X000600Y023298D01*
X000600Y023396D02*
X005450Y023396D01*
X005396Y023495D02*
X000600Y023495D01*
X000600Y023593D02*
X005369Y023593D01*
X005343Y023692D02*
X000600Y023692D01*
X000600Y023790D02*
X005325Y023790D01*
X005325Y023889D02*
X000600Y023889D01*
X000600Y023987D02*
X005325Y023987D01*
X005337Y024086D02*
X000600Y024086D01*
X000600Y024184D02*
X005363Y024184D01*
X005390Y024283D02*
X000600Y024283D01*
X000600Y024381D02*
X005436Y024381D01*
X005493Y024480D02*
X000600Y024480D01*
X000600Y024578D02*
X005558Y024578D01*
X005656Y024677D02*
X000600Y024677D01*
X000600Y024775D02*
X005766Y024775D01*
X005936Y024874D02*
X000600Y024874D01*
X000600Y024972D02*
X006248Y024972D01*
X006552Y024972D02*
X035070Y024972D01*
X035070Y025071D02*
X000600Y025071D01*
X000600Y025169D02*
X035070Y025169D01*
X035070Y025268D02*
X000600Y025268D01*
X000600Y025366D02*
X035070Y025366D01*
X035070Y025465D02*
X000600Y025465D01*
X000600Y025563D02*
X035070Y025563D01*
X035070Y025662D02*
X000600Y025662D01*
X000600Y025760D02*
X035070Y025760D01*
X035070Y025859D02*
X000600Y025859D01*
X000600Y025957D02*
X035070Y025957D01*
X035070Y026056D02*
X000600Y026056D01*
X000600Y026154D02*
X035070Y026154D01*
X035070Y026253D02*
X000600Y026253D01*
X000600Y026351D02*
X035070Y026351D01*
X035070Y026450D02*
X000600Y026450D01*
X000600Y026548D02*
X035070Y026548D01*
X035070Y026647D02*
X000600Y026647D01*
X000600Y026745D02*
X035070Y026745D01*
X035070Y026844D02*
X000600Y026844D01*
X000600Y026942D02*
X035070Y026942D01*
X035070Y027041D02*
X000600Y027041D01*
X000600Y027139D02*
X035070Y027139D01*
X030190Y023101D02*
X030110Y023101D01*
X030016Y023002D02*
X030284Y023002D01*
X030437Y022904D02*
X029863Y022904D01*
X029437Y022904D02*
X028863Y022904D01*
X029016Y023002D02*
X029284Y023002D01*
X029190Y023101D02*
X029110Y023101D01*
X028437Y022904D02*
X027863Y022904D01*
X028016Y023002D02*
X028284Y023002D01*
X028190Y023101D02*
X028110Y023101D01*
X027437Y022904D02*
X026863Y022904D01*
X027016Y023002D02*
X027284Y023002D01*
X027190Y023101D02*
X027110Y023101D01*
X026437Y022904D02*
X025863Y022904D01*
X026016Y023002D02*
X026284Y023002D01*
X026190Y023101D02*
X026110Y023101D01*
X025437Y022904D02*
X024863Y022904D01*
X025016Y023002D02*
X025284Y023002D01*
X025190Y023101D02*
X025110Y023101D01*
X024437Y022904D02*
X023863Y022904D01*
X024016Y023002D02*
X024284Y023002D01*
X024190Y023101D02*
X024110Y023101D01*
X023437Y022904D02*
X022863Y022904D01*
X023016Y023002D02*
X023284Y023002D01*
X023190Y023101D02*
X023110Y023101D01*
X022437Y022904D02*
X021863Y022904D01*
X022016Y023002D02*
X022284Y023002D01*
X022190Y023101D02*
X022110Y023101D01*
X021437Y022904D02*
X020863Y022904D01*
X021016Y023002D02*
X021284Y023002D01*
X021190Y023101D02*
X021110Y023101D01*
X020437Y022904D02*
X019863Y022904D01*
X020016Y023002D02*
X020284Y023002D01*
X020190Y023101D02*
X020110Y023101D01*
X019437Y022904D02*
X018863Y022904D01*
X019016Y023002D02*
X019284Y023002D01*
X019190Y023101D02*
X019110Y023101D01*
X018437Y022904D02*
X017863Y022904D01*
X018016Y023002D02*
X018284Y023002D01*
X018190Y023101D02*
X018110Y023101D01*
X017437Y022904D02*
X016863Y022904D01*
X017016Y023002D02*
X017284Y023002D01*
X017190Y023101D02*
X017110Y023101D01*
X016437Y022904D02*
X015863Y022904D01*
X016016Y023002D02*
X016284Y023002D01*
X016190Y023101D02*
X016110Y023101D01*
X015437Y022904D02*
X014863Y022904D01*
X015016Y023002D02*
X015284Y023002D01*
X015190Y023101D02*
X015110Y023101D01*
X014437Y022904D02*
X013863Y022904D01*
X014016Y023002D02*
X014284Y023002D01*
X014190Y023101D02*
X014110Y023101D01*
X013437Y022904D02*
X012863Y022904D01*
X013016Y023002D02*
X013284Y023002D01*
X013190Y023101D02*
X013110Y023101D01*
X012437Y022904D02*
X011863Y022904D01*
X012016Y023002D02*
X012284Y023002D01*
X012190Y023101D02*
X012110Y023101D01*
X011437Y022904D02*
X010863Y022904D01*
X011016Y023002D02*
X011284Y023002D01*
X011190Y023101D02*
X011110Y023101D01*
X010437Y022904D02*
X009863Y022904D01*
X010016Y023002D02*
X010284Y023002D01*
X010190Y023101D02*
X010110Y023101D01*
X009437Y022904D02*
X009134Y022904D01*
X009190Y023002D02*
X009284Y023002D01*
X008130Y004189D02*
X007209Y004189D01*
X007110Y004090D02*
X008130Y004090D01*
X008135Y003992D02*
X006976Y003992D01*
X006795Y003893D02*
X008217Y003893D01*
M02*
