G75*
%MOIN*%
%OFA0B0*%
%FSLAX24Y24*%
%IPPOS*%
%LPD*%
%AMOC8*
5,1,8,0,0,1.08239X$1,22.5*
%
%ADD10C,0.0740*%
%ADD11C,0.0660*%
%ADD12R,0.0950X0.0950*%
%ADD13C,0.0950*%
%ADD14C,0.0520*%
%ADD15C,0.0750*%
%ADD16R,0.0475X0.0475*%
%ADD17C,0.0160*%
D10*
X010352Y001180D03*
X011352Y001180D03*
X012352Y001180D03*
X013352Y001180D03*
X014352Y001180D03*
X015352Y001180D03*
X016352Y021180D03*
X017352Y021180D03*
X023352Y021180D03*
X024352Y021180D03*
X010352Y021180D03*
X009352Y021180D03*
X003352Y021180D03*
X002352Y021180D03*
D11*
X001852Y010680D03*
X005852Y010680D03*
X008852Y010680D03*
X012852Y010680D03*
X015852Y010680D03*
X019852Y010680D03*
X022852Y010680D03*
X026852Y010680D03*
D12*
X026852Y024680D03*
X019852Y024680D03*
X012852Y024680D03*
X005852Y024680D03*
D13*
X003884Y024680D03*
X001915Y024680D03*
X008915Y024680D03*
X010884Y024680D03*
X015915Y024680D03*
X017884Y024680D03*
X022915Y024680D03*
X024884Y024680D03*
D14*
X024852Y007940D02*
X024852Y007420D01*
X023852Y007420D02*
X023852Y007940D01*
X022852Y007940D02*
X022852Y007420D01*
X017852Y007420D02*
X017852Y007940D01*
X016852Y007940D02*
X016852Y007420D01*
X015852Y007420D02*
X015852Y007940D01*
X010852Y007940D02*
X010852Y007420D01*
X009852Y007420D02*
X009852Y007940D01*
X008852Y007940D02*
X008852Y007420D01*
X003852Y007420D02*
X003852Y007940D01*
X002852Y007940D02*
X002852Y007420D01*
X001852Y007420D02*
X001852Y007940D01*
D15*
X001852Y012680D03*
X001852Y013680D03*
X005852Y013680D03*
X005852Y012680D03*
X008852Y012680D03*
X008852Y013680D03*
X012852Y013680D03*
X012852Y012680D03*
X015852Y012680D03*
X015852Y013680D03*
X019852Y013680D03*
X019852Y012680D03*
X022852Y012680D03*
X022852Y013680D03*
X026852Y013680D03*
X026852Y012680D03*
X026852Y018680D03*
X022852Y018680D03*
X019852Y018680D03*
X015852Y018680D03*
X012852Y018680D03*
X008852Y018680D03*
X005852Y018680D03*
X001852Y018680D03*
D16*
X007352Y001180D03*
X007352Y005180D03*
X012352Y004180D03*
X013352Y005180D03*
X012352Y007180D03*
X018352Y005180D03*
D17*
X013352Y005180D01*
X012352Y004180D02*
X007352Y001180D01*
X007352Y005180D02*
X012352Y007180D01*
M02*
